<svg id="control-de-plagas" xmlns="http://www.w3.org/2000/svg" width="78" height="78" viewBox="0 0 78 78">
  <g id="Grupo_1113272" data-name="Grupo 1113272" transform="translate(5.51 48.376)">
    <path id="Trazado_910456" data-name="Trazado 910456" d="M46.322,318.156a4.537,4.537,0,0,0-2.3,2.524.911.911,0,0,0-1.151.882v6.588a4.433,4.433,0,0,0-1.624-1.309,7.7,7.7,0,0,0-5.078-.32s1.322,2.825,3.385,3.678a6.614,6.614,0,0,0,3.318.222v5.97H44.7V321.736a6.613,6.613,0,0,0,3.318-.222c2.063-.853,3.386-3.678,3.386-3.678a7.7,7.7,0,0,0-5.079.32Z" transform="translate(-36.167 -317.543)" fill="#46be96"/>
    <path id="Trazado_910457" data-name="Trazado 910457" d="M159.543,318.156a4.536,4.536,0,0,0-2.3,2.524.911.911,0,0,0-1.151.882v6.588a4.433,4.433,0,0,0-1.625-1.309,7.7,7.7,0,0,0-5.078-.32s1.322,2.825,3.386,3.678a6.614,6.614,0,0,0,3.318.222v5.97h1.828V321.736a6.614,6.614,0,0,0,3.318-.222c2.063-.853,3.385-3.678,3.385-3.678A7.7,7.7,0,0,0,159.543,318.156Z" transform="translate(-132.139 -317.543)" fill="#46be96"/>
    <path id="Trazado_910458" data-name="Trazado 910458" d="M273.315,318.156a4.536,4.536,0,0,0-2.3,2.524.911.911,0,0,0-1.152.882v6.588a4.432,4.432,0,0,0-1.625-1.309,7.7,7.7,0,0,0-5.078-.32s1.322,2.825,3.385,3.678a6.614,6.614,0,0,0,3.318.222v5.97h1.828V321.736a6.614,6.614,0,0,0,3.318-.222c2.063-.853,3.385-3.678,3.385-3.678A7.7,7.7,0,0,0,273.315,318.156Z" transform="translate(-228.578 -317.543)" fill="#46be96"/>
    <path id="Trazado_910459" data-name="Trazado 910459" d="M386.54,318.156a4.537,4.537,0,0,0-2.3,2.524.911.911,0,0,0-1.151.882v6.588a4.433,4.433,0,0,0-1.625-1.309,7.7,7.7,0,0,0-5.078-.32s1.322,2.825,3.386,3.678a6.614,6.614,0,0,0,3.318.222v5.97h1.828V321.736a6.613,6.613,0,0,0,3.318-.222c2.063-.853,3.385-3.678,3.385-3.678A7.7,7.7,0,0,0,386.54,318.156Z" transform="translate(-324.554 -317.543)" fill="#46be96"/>
  </g>
  <path id="Trazado_910460" data-name="Trazado 910460" d="M8,440H83.563v10.11H8Z" transform="translate(-6.781 -372.969)" fill="#b98241"/>
  <g id="Grupo_1113273" data-name="Grupo 1113273" transform="translate(32.466 9.849)">
    <path id="Trazado_910461" data-name="Trazado 910461" d="M222.829,69.453a3.554,3.554,0,1,0-6.662,0c-.082.125-3.056,4.671-3.056,8.693,0,4.077,2.656,7.463,6.387,7.463s6.387-3.386,6.387-7.463c0-4.021-2.974-8.568-3.056-8.693Z" transform="translate(-213.111 -64.66)" fill="#f9b534"/>
    <path id="Trazado_910462" data-name="Trazado 910462" d="M238.815,68.2a3.554,3.554,0,1,0-6.886,1.236h6.665A3.554,3.554,0,0,0,238.815,68.2Z" transform="translate(-228.875 -64.65)" fill="#f7a41c"/>
  </g>
  <g id="Grupo_1113274" data-name="Grupo 1113274" transform="translate(0 47.159)">
    <path id="Trazado_910463" data-name="Trazado 910463" d="M1.219,330.647H76.781a1.219,1.219,0,0,0,0-2.437H66.176V316.237a9.9,9.9,0,0,0,1.053.059,6.411,6.411,0,0,0,2.425-.426c2.43-1.005,3.868-3.955,4.024-4.288a1.219,1.219,0,0,0-.737-1.679,8.93,8.93,0,0,0-5.969.382,5.871,5.871,0,0,0-3.225,4.355,1.286,1.286,0,0,0-.008.151v4.639a5.8,5.8,0,0,0-.8-.46,8.918,8.918,0,0,0-5.969-.381,1.219,1.219,0,0,0-.737,1.679c.156.333,1.593,3.283,4.023,4.288a6.407,6.407,0,0,0,2.425.426,9.9,9.9,0,0,0,1.054-.059v3.287H48.927V316.237a9.9,9.9,0,0,0,1.053.059,6.41,6.41,0,0,0,2.425-.426c2.43-1.005,3.868-3.955,4.024-4.288a1.219,1.219,0,0,0-.737-1.679,8.929,8.929,0,0,0-5.969.382,5.87,5.87,0,0,0-3.225,4.355,1.269,1.269,0,0,0-.009.151v4.639a5.8,5.8,0,0,0-.8-.46,8.918,8.918,0,0,0-5.969-.381,1.219,1.219,0,0,0-.737,1.679c.156.333,1.593,3.283,4.023,4.288a6.407,6.407,0,0,0,2.425.426,9.9,9.9,0,0,0,1.054-.059v3.287H31.594V316.237a9.893,9.893,0,0,0,1.053.059,6.411,6.411,0,0,0,2.425-.426c2.43-1.005,3.868-3.955,4.024-4.288a1.219,1.219,0,0,0-.737-1.679,8.93,8.93,0,0,0-5.969.382,5.871,5.871,0,0,0-3.225,4.355,1.288,1.288,0,0,0-.008.151v4.639a5.8,5.8,0,0,0-.8-.46,8.918,8.918,0,0,0-5.969-.381,1.219,1.219,0,0,0-.737,1.679c.156.333,1.593,3.283,4.023,4.288a6.407,6.407,0,0,0,2.425.426,9.9,9.9,0,0,0,1.054-.059v3.287H14.345V316.237a9.909,9.909,0,0,0,1.053.059,6.411,6.411,0,0,0,2.426-.426c2.43-1.005,3.868-3.955,4.024-4.288a1.219,1.219,0,0,0-.737-1.679,8.929,8.929,0,0,0-5.969.382,5.87,5.87,0,0,0-3.225,4.355,1.269,1.269,0,0,0-.009.151v4.639a5.8,5.8,0,0,0-.8-.46,8.917,8.917,0,0,0-5.969-.381,1.219,1.219,0,0,0-.737,1.679c.156.333,1.593,3.283,4.023,4.288a6.408,6.408,0,0,0,2.425.425,9.9,9.9,0,0,0,1.054-.059v3.288H1.219a1.219,1.219,0,0,0,0,2.438Zm66.8-18.161a5.631,5.631,0,0,1,2.556-.49,4.937,4.937,0,0,1-1.853,1.622,4.816,4.816,0,0,1-2.147.208A3.271,3.271,0,0,1,68.02,312.485ZM61.191,322.3a4.941,4.941,0,0,1-1.853-1.622,5.6,5.6,0,0,1,2.556.49,3.272,3.272,0,0,1,1.445,1.341A4.838,4.838,0,0,1,61.191,322.3Zm-10.42-9.817a5.631,5.631,0,0,1,2.556-.49,4.938,4.938,0,0,1-1.853,1.622,4.817,4.817,0,0,1-2.147.208,3.271,3.271,0,0,1,1.445-1.34ZM43.941,322.3a4.941,4.941,0,0,1-1.853-1.622,5.6,5.6,0,0,1,2.556.49,3.271,3.271,0,0,1,1.445,1.341,4.837,4.837,0,0,1-2.147-.208Zm-10.5-9.817a5.631,5.631,0,0,1,2.556-.49,4.936,4.936,0,0,1-1.853,1.622,4.816,4.816,0,0,1-2.147.208,3.271,3.271,0,0,1,1.445-1.34ZM26.609,322.3a4.941,4.941,0,0,1-1.853-1.622,5.6,5.6,0,0,1,2.556.49,3.272,3.272,0,0,1,1.445,1.341,4.837,4.837,0,0,1-2.147-.208Zm-10.42-9.817a5.63,5.63,0,0,1,2.556-.49,4.938,4.938,0,0,1-1.853,1.622,4.817,4.817,0,0,1-2.147.208,3.271,3.271,0,0,1,1.445-1.34ZM9.36,322.3a4.941,4.941,0,0,1-1.853-1.622,5.6,5.6,0,0,1,2.556.49,3.272,3.272,0,0,1,1.445,1.341A4.84,4.84,0,0,1,9.36,322.3Z" transform="translate(0 -309.556)"/>
    <path id="Trazado_910464" data-name="Trazado 910464" d="M4.381,474.025H1.219a1.219,1.219,0,0,0,0,2.438H4.381a1.219,1.219,0,0,0,0-2.437Z" transform="translate(0 -448.969)"/>
    <path id="Trazado_910465" data-name="Trazado 910465" d="M217.993,459.262h-1.647a1.219,1.219,0,0,0,0,2.438h1.647a1.219,1.219,0,1,0,0-2.437Z" transform="translate(-182.354 -436.455)"/>
    <path id="Trazado_910466" data-name="Trazado 910466" d="M64.316,496H54.381a1.219,1.219,0,0,0,0,2.438h9.935a1.219,1.219,0,0,0,0-2.437Z" transform="translate(-45.063 -467.596)"/>
    <path id="Trazado_910467" data-name="Trazado 910467" d="M371.385,496H361.45a1.219,1.219,0,0,0,0,2.438h9.935a1.219,1.219,0,0,0,0-2.437Z" transform="translate(-305.352 -467.596)"/>
    <path id="Trazado_910468" data-name="Trazado 910468" d="M76.23,459.262a1.219,1.219,0,0,0,0,2.438h1.581a1.219,1.219,0,0,0,0-2.437Z" transform="translate(-63.584 -436.455)"/>
    <path id="Trazado_910469" data-name="Trazado 910469" d="M296.122,474.025h-2.4a1.219,1.219,0,0,0,0,2.438h2.4a1.219,1.219,0,1,0,0-2.437Z" transform="translate(-247.939 -448.969)"/>
    <path id="Trazado_910470" data-name="Trazado 910470" d="M473.811,459.262H469.6a1.219,1.219,0,0,0,0,2.438h4.207a1.219,1.219,0,0,0,0-2.437Z" transform="translate(-397.029 -436.455)"/>
    <path id="Trazado_910471" data-name="Trazado 910471" d="M175.673,496h-3.809a1.219,1.219,0,0,0,0,2.438h3.809a1.219,1.219,0,0,0,0-2.437Z" transform="translate(-144.649 -467.596)"/>
    <path id="Trazado_910472" data-name="Trazado 910472" d="M383.676,459.262a1.219,1.219,0,0,0,0,2.438h1.581a1.219,1.219,0,0,0,0-2.437Z" transform="translate(-324.192 -436.455)"/>
    <path id="Trazado_910473" data-name="Trazado 910473" d="M485.514,496h-2.1a1.219,1.219,0,0,0,0,2.438h2.1a1.219,1.219,0,0,0,0-2.437Z" transform="translate(-408.733 -467.596)"/>
  </g>
  <path id="Trazado_910474" data-name="Trazado 910474" d="M140.719,0a20.719,20.719,0,1,0,20.719,20.719A20.742,20.742,0,0,0,140.719,0Zm0,39a18.271,18.271,0,0,1-13.76-30.3l7.071,7.071-.5-.443a1.219,1.219,0,0,0-1.7.077l-2.617,2.791a1.219,1.219,0,1,0,1.778,1.667l1.806-1.925,1.034.919a16,16,0,0,0-.7,2.645H130.1a1.219,1.219,0,0,0-1.219,1.219V27a1.219,1.219,0,1,0,2.438,0V23.935h1.663a9.836,9.836,0,0,0,.768,3.323l-1.381.627a1.219,1.219,0,0,0-.715,1.11V32.4a1.219,1.219,0,0,0,2.438,0V29.78l.932-.423.015.02a7.108,7.108,0,0,0,11.058,0l.007-.009.908.412V32.4a1.219,1.219,0,0,0,2.438,0V31.192l3.287,3.287A18.2,18.2,0,0,1,140.719,39Zm2.5-23.144c.752,1.28,2.524,4.6,2.524,7.48,0,.226-.01.449-.028.668l-3.922-3.922V18.616a1.218,1.218,0,0,0-2.194-.729l-1.8-1.8c.047-.082.091-.159.133-.229Zm-4.98-2.455a2.335,2.335,0,1,1,4.67,0v.017h-4.669C138.238,13.412,138.237,13.406,138.237,13.4Zm-1.6,4.978,2.713,2.713v8.326c-2.319-.628-3.95-3.033-3.95-6.082A13.105,13.105,0,0,1,136.64,18.379Zm5.15,5.15,3.179,3.179a5.122,5.122,0,0,1-3.179,2.71Zm12.675,9.227L147.8,26.092a10.092,10.092,0,0,0,.357-2.157h1.63V27a1.219,1.219,0,0,0,2.438,0V22.717a1.219,1.219,0,0,0-1.219-1.219h-2.993a16.015,16.015,0,0,0-.711-2.666l1.009-.9,1.805,1.925a1.219,1.219,0,1,0,1.778-1.667L149.28,15.4a1.219,1.219,0,0,0-1.7-.077L146.3,16.459c-.42-.865-.817-1.562-1.079-2a4.8,4.8,0,0,0,.091-1.562L147.8,8.093a1.219,1.219,0,1,0-2.166-1.118L144.017,10.1a4.757,4.757,0,0,0-6.914.022l-1.625-3.151a1.219,1.219,0,1,0-2.166,1.118l2.508,4.861c-.014.148-.022.3-.022.448a4.8,4.8,0,0,0,.06.749l-7.177-7.178a18.271,18.271,0,0,1,25.784,25.784Z" transform="translate(-101.719)"/>
</svg>
