<svg xmlns="http://www.w3.org/2000/svg" width="91.083" height="91.019" viewBox="0 0 91.083 91.019">
  <g id="pesticida_2_" data-name="pesticida (2)" transform="translate(0 -6.93)">
    <g id="Grupo_1113307" data-name="Grupo 1113307" transform="translate(1.839 7.68)">
      <path id="Trazado_910572" data-name="Trazado 910572" d="M295,55.371a8.952,8.952,0,0,0,8.952,8.952h5.371V47.68H295Z" transform="translate(-244.021 -40.518)" fill="#ffceb7"/>
      <path id="Trazado_910573" data-name="Trazado 910573" d="M302.162,7.68h0A7.162,7.162,0,0,0,295,14.842h14.323A7.162,7.162,0,0,0,302.162,7.68Z" transform="translate(-244.021 -7.68)" fill="#fde31d"/>
      <path id="Trazado_910574" data-name="Trazado 910574" d="M299.476,55.371V47.68H295v7.691a8.952,8.952,0,0,0,8.952,8.952h4.476A8.952,8.952,0,0,1,299.476,55.371Z" transform="translate(-244.021 -40.518)" fill="#ffaa81"/>
      <path id="Trazado_910575" data-name="Trazado 910575" d="M304.4,8.039a7.162,7.162,0,0,0-9.4,6.8h4.476A7.163,7.163,0,0,1,304.4,8.039Z" transform="translate(-244.021 -7.68)" fill="#e9ca1c"/>
      <path id="Trazado_910576" data-name="Trazado 910576" d="M302.52,90.159H295v.086a8.952,8.952,0,0,0,8.952,8.952h1.127l.064-.02C301.667,96.588,302.52,90.159,302.52,90.159Z" transform="translate(-244.021 -75.392)" fill="#fff"/>
      <path id="Trazado_910577" data-name="Trazado 910577" d="M432.985,226.141H420.653v-30.5h12.332a2.686,2.686,0,0,1,2.686,2.686v25.133A2.686,2.686,0,0,1,432.985,226.141Z" transform="translate(-347.177 -161.984)" fill="#8ae897"/>
      <path id="Trazado_910578" data-name="Trazado 910578" d="M450.568,167.684v-6.1h6.1v6.1" transform="translate(-371.735 -134.032)" fill="#cdd9dd"/>
      <path id="Trazado_910579" data-name="Trazado 910579" d="M330.347,173.868V150.484a9.847,9.847,0,0,0-9.847-9.847h0a9.847,9.847,0,0,0-9.847,9.847v23.384Z" transform="translate(-256.871 -116.832)" fill="#fff"/>
      <rect id="Rectángulo_405863" data-name="Rectángulo 405863" width="4.476" height="30.504" transform="translate(73.476 33.653)" fill="#54e072"/>
      <path id="Trazado_910580" data-name="Trazado 910580" d="M322.738,140.9a9.87,9.87,0,0,0-2.238-.259h0a9.847,9.847,0,0,0-9.847,9.847v23.384h4.476V150.484A9.849,9.849,0,0,1,322.738,140.9Z" transform="translate(-256.871 -116.832)" fill="#e3e9ee"/>
      <path id="Trazado_910581" data-name="Trazado 910581" d="M330.347,243.956a8.228,8.228,0,0,1-7.873-5.831V226.01H310.653v51.178h17.725V264.25s1.969-5.849,1.969-8.934v-11.36Z" transform="translate(-256.871 -186.919)" fill="#fde31d"/>
      <rect id="Rectángulo_405864" data-name="Rectángulo 405864" width="4.481" height="51.178" transform="translate(53.782 39.091)" fill="#e9ca1c"/>
      <g id="Grupo_1113304" data-name="Grupo 1113304" transform="translate(22.812 33.816)">
        <path id="Trazado_910582" data-name="Trazado 910582" d="M169.535,232.253l-27.142-30.332H137.68V196.55h7.113l28.744,32.122a2.685,2.685,0,0,1-.1,3.689h0A2.685,2.685,0,0,1,169.535,232.253Z" transform="translate(-137.68 -196.55)" fill="#cdd9dd"/>
      </g>
      <g id="Grupo_1113305" data-name="Grupo 1113305" transform="translate(40.627 28.762)">
        <path id="Trazado_910583" data-name="Trazado 910583" d="M303.042,171.883a3.581,3.581,0,1,0-7.162.039l.071,13.014-11.673,5.828,3.606,6.341,11.495-5.412a6.513,6.513,0,0,0,3.738-5.928Z" transform="translate(-275.845 -168.322)" fill="#fff"/>
        <path id="Trazado_910584" data-name="Trazado 910584" d="M241.292,295.827a7.162,7.162,0,0,0-3.429,9.53l11.355-5.346-3.606-6.341Z" transform="translate(-237.179 -271.227)" fill="#ffceb7"/>
        <path id="Trazado_910585" data-name="Trazado 910585" d="M243.441,299.722l-2.15,1.073a7.162,7.162,0,0,0-3.429,9.53l3.863-1.819A15.274,15.274,0,0,1,243.441,299.722Z" transform="translate(-237.179 -276.196)" fill="#ffaa81"/>
      </g>
      <rect id="Rectángulo_405865" data-name="Rectángulo 405865" width="4.476" height="5.371" transform="translate(22.812 33.816)" fill="#acbfc7"/>
      <g id="Grupo_1113306" data-name="Grupo 1113306" transform="translate(0 59.143)">
        <path id="Trazado_910586" data-name="Trazado 910586" d="M21.548,424.195s-3.986,1.034-7.1-.781-4.178-5.794-4.178-5.794,3.986-1.034,7.1.781S21.548,424.195,21.548,424.195Z" transform="translate(-10.27 -403.125)" fill="#8ae897"/>
        <path id="Trazado_910587" data-name="Trazado 910587" d="M74.272,424.195s3.986,1.034,7.1-.781,4.178-5.794,4.178-5.794-3.986-1.034-7.1.781S74.272,424.195,74.272,424.195Z" transform="translate(-62.813 -403.125)" fill="#8ae897"/>
        <path id="Trazado_910588" data-name="Trazado 910588" d="M60.1,351.061s2.836-2.985,2.757-6.589-3.044-6.462-3.044-6.462-2.836,2.985-2.757,6.589S60.1,351.061,60.1,351.061Z" transform="translate(-48.676 -338.009)" fill="#8ae897"/>
        <path id="Trazado_910589" data-name="Trazado 910589" d="M177.735,414.011s2.836-2.985,2.757-6.589-3.044-6.462-3.044-6.462-2.836,2.985-2.757,6.589S177.735,414.011,177.735,414.011Z" transform="translate(-145.252 -389.688)" fill="#8ae897"/>
      </g>
    </g>
    <g id="Grupo_1113309" data-name="Grupo 1113309" transform="translate(0 7.68)">
      <path id="Trazado_910590" data-name="Trazado 910590" d="M309.323,31.485h-5.371A8.952,8.952,0,0,1,295,22.533V14.842a7.162,7.162,0,0,1,7.162-7.162h0a7.162,7.162,0,0,1,7.162,7.162Z" transform="translate(-242.182 -7.68)" fill="none" stroke="#000" stroke-miterlimit="10" stroke-width="1.5"/>
      <path id="Trazado_910591" data-name="Trazado 910591" d="M310.65,165.681V150.487a9.847,9.847,0,0,1,19.695,0v34.743c0,3.085-1.969,8.934-1.969,8.934V207.1" transform="translate(-255.03 -116.834)" fill="none" stroke="#000" stroke-miterlimit="10" stroke-width="1.5"/>
      <line id="Línea_272" data-name="Línea 272" y1="10.757" transform="translate(55.62 68.123)" fill="none" stroke="#000" stroke-miterlimit="10" stroke-width="1.5"/>
      <line id="Línea_273" data-name="Línea 273" y1="8.703" transform="translate(55.62 81.565)" fill="none" stroke="#000" stroke-miterlimit="10" stroke-width="1.5"/>
      <line id="Línea_274" data-name="Línea 274" x2="6.951" transform="translate(55.62 39.091)" fill="none" stroke="#000" stroke-miterlimit="10" stroke-width="1.5"/>
      <line id="Línea_275" data-name="Línea 275" y2="19.431" transform="translate(61.945 70.838)" fill="none" stroke="#000" stroke-miterlimit="10" stroke-width="1.5"/>
      <path id="Trazado_910592" data-name="Trazado 910592" d="M420.65,195.64h12.333a2.684,2.684,0,0,1,2.686,2.686v5.182" transform="translate(-345.335 -161.987)" fill="none" stroke="#000" stroke-miterlimit="10" stroke-width="1.5"/>
      <path id="Trazado_910593" data-name="Trazado 910593" d="M435.668,254.58v17.265a2.685,2.685,0,0,1-2.686,2.686H420.65" transform="translate(-345.335 -210.374)" fill="none" stroke="#000" stroke-miterlimit="10" stroke-width="1.5"/>
      <path id="Trazado_910594" data-name="Trazado 910594" d="M450.568,167.684v-6.1h6.1v6.1" transform="translate(-369.897 -134.032)" fill="none" stroke="#000" stroke-miterlimit="10" stroke-width="1.5"/>
      <path id="Trazado_910595" data-name="Trazado 910595" d="M241.292,192.921a7.162,7.162,0,0,0-3.429,9.53l22.85-10.759a6.513,6.513,0,0,0,3.738-5.928l-.075-13.882a3.581,3.581,0,0,0-3.6-3.561h0a3.581,3.581,0,0,0-3.561,3.6l.071,13.014Z" transform="translate(-194.714 -139.56)" fill="none" stroke="#000" stroke-miterlimit="10" stroke-width="1.5"/>
      <line id="Línea_276" data-name="Línea 276" x1="24.807" transform="translate(42.334 7.162)" fill="none" stroke="#000" stroke-miterlimit="10" stroke-width="1.5"/>
      <path id="Trazado_910596" data-name="Trazado 910596" d="M295,90.159h7.52s-.853,6.429,2.623,9.018" transform="translate(-242.182 -75.392)" fill="none" stroke="#000" stroke-miterlimit="10" stroke-width="1.5"/>
      <line id="Línea_277" data-name="Línea 277" x2="6.804" transform="translate(60.338 14.767)" fill="none" stroke="#000" stroke-miterlimit="10" stroke-width="1.5"/>
      <line id="Línea_278" data-name="Línea 278" y1="5.416" transform="translate(83.719 22.14)" fill="none" stroke="#000" stroke-miterlimit="10" stroke-width="1.5"/>
      <line id="Línea_279" data-name="Línea 279" x2="10.743" transform="translate(78.348 22.14)" fill="none" stroke="#000" stroke-miterlimit="10" stroke-width="1.5"/>
      <line id="Línea_280" data-name="Línea 280" x1="4.003" y2="3.582" transform="translate(38.462 45.775)" fill="none" stroke="#000" stroke-miterlimit="10" stroke-width="1.5"/>
      <path id="Trazado_910597" data-name="Trazado 910597" d="M359.322,300.85v20.08c-.274,7.812-10.582,9.1-22.522-2.845" transform="translate(-276.498 -248.36)" fill="none" stroke="#000" stroke-miterlimit="10" stroke-width="1.5"/>
      <line id="Línea_281" data-name="Línea 281" x1="4.578" y1="1.839" transform="translate(0.607 23.168)" fill="none" stroke="#000" stroke-miterlimit="10" stroke-width="1.5"/>
      <line id="Línea_282" data-name="Línea 282" x1="10.929" y1="4.39" transform="translate(7.309 25.861)" fill="none" stroke="#000" stroke-miterlimit="10" stroke-width="1.5"/>
      <line id="Línea_283" data-name="Línea 283" x1="9.479" y2="3.808" transform="translate(0.607 46.138)" fill="none" stroke="#000" stroke-miterlimit="10" stroke-width="1.5"/>
      <line id="Línea_284" data-name="Línea 284" x1="6.026" y2="2.421" transform="translate(12.211 42.863)" fill="none" stroke="#000" stroke-miterlimit="10" stroke-width="1.5"/>
      <line id="Línea_285" data-name="Línea 285" x1="10.311" transform="translate(0 36.502)" fill="none" stroke="#000" stroke-miterlimit="10" stroke-width="1.5"/>
      <line id="Línea_286" data-name="Línea 286" x1="5.236" transform="translate(12.553 36.502)" fill="none" stroke="#000" stroke-miterlimit="10" stroke-width="1.5"/>
      <g id="Grupo_1113308" data-name="Grupo 1113308" transform="translate(24.651 33.816)">
        <path id="Trazado_910598" data-name="Trazado 910598" d="M156.976,218.216l-14.583-16.295H137.68V196.55h7.113l16.664,18.622" transform="translate(-137.68 -196.55)" fill="none" stroke="#000" stroke-miterlimit="10" stroke-width="1.5"/>
        <path id="Trazado_910599" data-name="Trazado 910599" d="M275.251,331.88l7.063,7.892a2.685,2.685,0,1,1-4,3.581l-8.132-9.086" transform="translate(-246.457 -307.65)" fill="none" stroke="#000" stroke-miterlimit="10" stroke-width="1.5"/>
      </g>
      <path id="Trazado_910600" data-name="Trazado 910600" d="M376.68,293.67a8.228,8.228,0,0,0,7.873,5.831" transform="translate(-309.238 -242.465)" fill="none" stroke="#000" stroke-miterlimit="10" stroke-width="1.5"/>
      <line id="Línea_287" data-name="Línea 287" x2="3.606" y2="6.341" transform="translate(50.898 51.205)" fill="none" stroke="#000" stroke-miterlimit="10" stroke-width="1.5"/>
      <path id="Trazado_910601" data-name="Trazado 910601" d="M21.548,424.195s-3.986,1.034-7.1-.781-4.178-5.794-4.178-5.794,3.986-1.034,7.1.781S21.548,424.195,21.548,424.195Z" transform="translate(-8.431 -343.982)" fill="none" stroke="#000" stroke-miterlimit="10" stroke-width="1.5"/>
      <path id="Trazado_910602" data-name="Trazado 910602" d="M74.272,424.195s3.986,1.034,7.1-.781,4.178-5.794,4.178-5.794-3.986-1.034-7.1.781S74.272,424.195,74.272,424.195Z" transform="translate(-60.974 -343.982)" fill="none" stroke="#000" stroke-miterlimit="10" stroke-width="1.5"/>
      <path id="Trazado_910603" data-name="Trazado 910603" d="M60.1,351.061s2.836-2.985,2.757-6.589-3.044-6.462-3.044-6.462-2.836,2.985-2.757,6.589S60.1,351.061,60.1,351.061Z" transform="translate(-46.837 -278.866)" fill="none" stroke="#000" stroke-miterlimit="10" stroke-width="1.5"/>
      <line id="Línea_288" data-name="Línea 288" y2="18.074" transform="translate(13.26 72.195)" fill="none" stroke="#000" stroke-miterlimit="10" stroke-width="1.5"/>
      <path id="Trazado_910604" data-name="Trazado 910604" d="M177.735,414.011s2.836-2.985,2.757-6.589-3.044-6.462-3.044-6.462-2.836,2.985-2.757,6.589S177.735,414.011,177.735,414.011Z" transform="translate(-143.413 -330.545)" fill="none" stroke="#000" stroke-miterlimit="10" stroke-width="1.5"/>
      <line id="Línea_289" data-name="Línea 289" y2="6.803" transform="translate(34.322 83.466)" fill="none" stroke="#000" stroke-miterlimit="10" stroke-width="1.5"/>
    </g>
    <g id="Grupo_1113310" data-name="Grupo 1113310" transform="translate(66.694 69.515)">
      <line id="Línea_290" data-name="Línea 290" x2="2.686" transform="translate(0 0)" fill="none" stroke="#fff" stroke-miterlimit="10" stroke-width="1.5"/>
      <line id="Línea_291" data-name="Línea 291" x2="2.686" transform="translate(0 5.371)" fill="none" stroke="#fff" stroke-miterlimit="10" stroke-width="1.5"/>
    </g>
  </g>
</svg>
