<svg xmlns="http://www.w3.org/2000/svg" width="123.667" height="53.581" viewBox="0 0 123.667 53.581">
  <g id="Layer_1" transform="translate(-61.94 -166.878)">
    <g id="Grupo_1113250" data-name="Grupo 1113250" transform="translate(61.94 166.878)">
      <g id="Grupo_1113249" data-name="Grupo 1113249" transform="translate(0 0)">
        <g id="Grupo_1113242" data-name="Grupo 1113242" transform="translate(1.932 1.932)">
          <g id="Grupo_1113241" data-name="Grupo 1113241">
            <g id="Grupo_1113240" data-name="Grupo 1113240">
              <g id="Grupo_1113235" data-name="Grupo 1113235" transform="translate(0 16.473)">
                <path id="Trazado_910396" data-name="Trazado 910396" d="M98.241,235.2H67.7V221.74H95.737a19.83,19.83,0,0,0,.4,6.481,48.2,48.2,0,0,0,1.787,6.1q.166.438.321.88Z" transform="translate(-67.7 -221.74)" fill="#dbdde3" fill-rule="evenodd"/>
              </g>
              <g id="Grupo_1113236" data-name="Grupo 1113236" transform="translate(58.52 14.761)">
                <path id="Trazado_910397" data-name="Trazado 910397" d="M303.426,218.349v13.458H256.32c-10.3-2.4-13.432-7.644-14.176-9.288a30.123,30.123,0,0,1,24.637-5.1q1.585.36,3.195.576a39.917,39.917,0,0,0,5.327.351Z" transform="translate(-242.144 -216.637)" fill="#dbdde3" fill-rule="evenodd"/>
              </g>
              <g id="Grupo_1113237" data-name="Grupo 1113237" transform="translate(50.393 20.641)">
                <path id="Trazado_910398" data-name="Trazado 910398" d="M240.221,243.454h0c-11.276,4.6-18.135,2.582-22.3-1.449a35.8,35.8,0,0,1,8.128-7.84C226.789,235.81,229.916,241.058,240.221,243.454Z" transform="translate(-217.917 -234.166)" fill="#b2b3b8" fill-rule="evenodd"/>
              </g>
              <g id="Grupo_1113238" data-name="Grupo 1113238" transform="translate(45.714 0.526)">
                <path id="Trazado_910399" data-name="Trazado 910399" d="M216.776,194.32a35.8,35.8,0,0,0-8.128,7.84A17,17,0,0,1,206.1,199a13.97,13.97,0,0,1,4.61-19.351,47.337,47.337,0,0,1,5.481-2.888c9.731-4.292,22.057-5.065,28.415,13.041q-1.607-.218-3.195-.576A30.123,30.123,0,0,0,216.776,194.32Z" transform="translate(-203.969 -174.205)" fill="#c8cacf" fill-rule="evenodd"/>
              </g>
              <g id="Grupo_1113239" data-name="Grupo 1113239" transform="translate(27.931)">
                <path id="Trazado_910400" data-name="Trazado 910400" d="M151.066,189.109a19.309,19.309,0,0,1,4.375-10.4c8.936-10.686,23.113-4.287,25.526-2.992a47.287,47.287,0,0,0-5.481,2.888,13.97,13.97,0,0,0-4.61,19.351,17,17,0,0,0,2.547,3.161c4.17,4.031,11.028,6.048,22.3,1.449H209.5a33.489,33.489,0,0,1-28.153,19.787c-19.831,0-26.278-15.421-27.517-19.036q-.129-.377-.262-.751-.156-.442-.321-.88a48.2,48.2,0,0,1-1.787-6.1,19.822,19.822,0,0,1-.4-6.481Z" transform="translate(-150.96 -172.636)" fill="#dbdde3" fill-rule="evenodd"/>
              </g>
            </g>
          </g>
        </g>
        <g id="Grupo_1113248" data-name="Grupo 1113248">
          <g id="Grupo_1113243" data-name="Grupo 1113243" transform="translate(27.935)">
            <path id="Trazado_910401" data-name="Trazado 910401" d="M177.524,220.46a32.725,32.725,0,0,1-13.264-2.628,28.47,28.47,0,0,1-8.837-6.108,31.851,31.851,0,0,1-7.238-11.6c-.2-.593-.388-1.109-.564-1.577a49.655,49.655,0,0,1-1.862-6.345,21.831,21.831,0,0,1,.015-9.786,21.271,21.271,0,0,1,4.365-8.766c4.145-4.957,9.974-7.265,16.857-6.674a30.992,30.992,0,0,1,11.065,3.22,1.932,1.932,0,0,1-.135,3.47,45.356,45.356,0,0,0-5.255,2.77,12.043,12.043,0,0,0-5.5,7.591,11.825,11.825,0,0,0,1.516,9.078,15.09,15.09,0,0,0,2.255,2.8c4.49,4.342,11.3,4.694,20.232,1.05a1.931,1.931,0,0,1,.73-.143h13.778a1.932,1.932,0,0,1,1.754,2.743,36.622,36.622,0,0,1-8.648,11.919,34.977,34.977,0,0,1-9.8,6.235,33.479,33.479,0,0,1-11.429,2.755h-.04Zm-12.635-49.718a14.67,14.67,0,0,0-11.786,5.381,17.666,17.666,0,0,0-3.578,15.21,45.813,45.813,0,0,0,1.711,5.846c.19.5.387,1.056.6,1.686,1.425,4.158,7.486,17.721,25.666,17.73a30.388,30.388,0,0,0,10.119-2.509,30.825,30.825,0,0,0,14.9-13.414H192.28a32.877,32.877,0,0,1-12.025,2.637,20.265,20.265,0,0,1-2.4-.138,16.246,16.246,0,0,1-9.6-4.491,18.958,18.958,0,0,1-2.837-3.519,15.663,15.663,0,0,1-2.011-12.022,15.878,15.878,0,0,1,7.249-10.01q.926-.564,1.848-1.077a26.291,26.291,0,0,0-5.842-1.232Q165.758,170.741,164.889,170.741Z" transform="translate(-145.211 -166.878)" fill="#333" fill-rule="evenodd"/>
          </g>
          <g id="Grupo_1113244" data-name="Grupo 1113244" transform="translate(0 16.472)">
            <path id="Trazado_910402" data-name="Trazado 910402" d="M94.413,233.3H63.872a1.932,1.932,0,0,1-1.932-1.932V217.912a1.932,1.932,0,0,1,1.932-1.932H91.91a1.932,1.932,0,1,1,0,3.865H65.8v9.592H94.413a1.932,1.932,0,0,1,0,3.865Z" transform="translate(-61.94 -215.98)" fill="#333" fill-rule="evenodd"/>
          </g>
          <g id="Grupo_1113245" data-name="Grupo 1113245" transform="translate(57.937 0.519)">
            <path id="Trazado_910403" data-name="Trazado 910403" d="M264.993,187.892a1.933,1.933,0,0,1-1.823-1.293c-2.4-6.846-5.853-11.283-10.252-13.189-4.241-1.837-9.476-1.408-15.56,1.276a1.932,1.932,0,0,1-1.56-3.536c7.11-3.136,13.386-3.569,18.656-1.286,5.427,2.351,9.586,7.551,12.362,15.455a1.933,1.933,0,0,1-1.823,2.573Z" transform="translate(-234.646 -168.424)" fill="#333" fill-rule="evenodd"/>
          </g>
          <g id="Grupo_1113246" data-name="Grupo 1113246" transform="translate(50.393 14.762)">
            <path id="Trazado_910404" data-name="Trazado 910404" d="M283.5,229.913H250.171a1.932,1.932,0,0,1,0-3.865h31.4v-9.592H255.376a41.969,41.969,0,0,1-5.585-.368c-1.143-.155-2.274-.359-3.364-.606a27.937,27.937,0,0,0-23.1,4.789,34.3,34.3,0,0,0-7.655,7.365,1.932,1.932,0,0,1-3.174-2.2,37.548,37.548,0,0,1,8.6-8.318,34.184,34.184,0,0,1,11.074-5.231,31.6,31.6,0,0,1,15.1-.17c.981.222,2,.406,3.028.546a38.122,38.122,0,0,0,5.067.333H283.5a1.932,1.932,0,0,1,1.932,1.932v13.457a1.933,1.933,0,0,1-1.933,1.932Z" transform="translate(-212.158 -210.881)" fill="#333" fill-rule="evenodd"/>
          </g>
          <g id="Grupo_1113247" data-name="Grupo 1113247" transform="translate(58.52 20.64)">
            <path id="Trazado_910405" data-name="Trazado 910405" d="M252.494,241.558a1.936,1.936,0,0,1-.439-.051,27.218,27.218,0,0,1-11.479-5.329,14.714,14.714,0,0,1-4.02-5.044,1.932,1.932,0,0,1,3.521-1.594c.619,1.367,3.375,6,12.854,8.2a1.932,1.932,0,0,1-.436,3.815Z" transform="translate(-236.384 -228.404)" fill="#333" fill-rule="evenodd"/>
          </g>
        </g>
      </g>
    </g>
  </g>
</svg>
