<svg xmlns="http://www.w3.org/2000/svg" xmlns:xlink="http://www.w3.org/1999/xlink" width="151" height="151" viewBox="0 0 151 151">
  <defs>
    <linearGradient id="linear-gradient" x1="0.5" x2="0.5" y2="1" gradientUnits="objectBoundingBox">
      <stop offset="0" stop-color="#d4f989"/>
      <stop offset="1" stop-color="#98e465"/>
    </linearGradient>
    <filter id="Elipse_12702" x="0" y="0" width="151" height="151" filterUnits="userSpaceOnUse">
      <feOffset dy="3" input="SourceAlpha"/>
      <feGaussianBlur stdDeviation="3" result="blur"/>
      <feFlood flood-opacity="0.161"/>
      <feComposite operator="in" in2="blur"/>
      <feComposite in="SourceGraphic"/>
    </filter>
    <filter id="Elipse_12618" x="7.5" y="7.5" width="136" height="136" filterUnits="userSpaceOnUse">
      <feOffset dy="3" input="SourceAlpha"/>
      <feGaussianBlur stdDeviation="3" result="blur-2"/>
      <feFlood flood-opacity="0.161"/>
      <feComposite operator="in" in2="blur-2"/>
      <feComposite in="SourceGraphic"/>
    </filter>
  </defs>
  <g id="Grupo_1113265" data-name="Grupo 1113265" transform="translate(-724.5 -6143.813)">
    <g transform="matrix(1, 0, 0, 1, 724.5, 6143.81)" filter="url(#Elipse_12702)">
      <circle id="Elipse_12702-2" data-name="Elipse 12702" cx="66.5" cy="66.5" r="66.5" transform="translate(9 6)" fill="url(#linear-gradient)"/>
    </g>
    <g transform="matrix(1, 0, 0, 1, 724.5, 6143.81)" filter="url(#Elipse_12618)">
      <circle id="Elipse_12618-2" data-name="Elipse 12618" cx="59" cy="59" r="59" transform="translate(16.5 13.5)" fill="#fff"/>
    </g>
    <path id="Trazado_908958" data-name="Trazado 908958" d="M264.285,314a35.178,35.178,0,0,1-32.455.036,24.038,24.038,0,0,0,.453-3.383c1.14.032,2.269.054,3.376.067,1.506.018,3.063.036,4.475.044h.007c7.284.038,11.548-.187,16.034-1.561a36.054,36.054,0,0,0,11.132-5.5h.005c.033-.023.066-.047.1-.073l.012-.01a28.788,28.788,0,0,0,3.02-2.63,28.048,28.048,0,0,0,2.1-2.355.753.753,0,0,0,.048-.06.345.345,0,0,0,.023-.03c.565-.718,1.1-1.471,1.594-2.24l.026-.038a31.488,31.488,0,0,0,3.6-7.96l.079-.266c.551-1.842,1.119-3.744,1.605-5.662a.3.3,0,0,1,.013-.052c.048-.191.1-.383.143-.576.005-.02.01-.039.014-.059.035-.144.069-.287.1-.428,0-.018.009-.035.012-.052a43.011,43.011,0,0,0,.828-4.55h1.264l.434,3.9v.021C283.991,293.736,276.407,307.79,264.285,314Z" transform="translate(544.347 5919.814)" fill="#166340"/>
    <path id="Trazado_908959" data-name="Trazado 908959" d="M276.122,291.28a35.989,35.989,0,0,1-11.951,26.865,35.541,35.541,0,0,1-14.291,7.823,36.1,36.1,0,0,1-33.03-7.61q.314-.76.573-1.534a39.152,39.152,0,0,0,17.047,4.006,38.127,38.127,0,0,0,17.46-4.3,37.428,37.428,0,0,0,19.107-25.332,33.332,33.332,0,0,0,.458-10.962l-.4-3.572h3.032c.312,1.417.584,2.853.812,4.284l.716,4.5A37.116,37.116,0,0,1,276.122,291.28Z" transform="translate(557.996 5919.814)" fill="#166340"/>
    <path id="Trazado_908960" data-name="Trazado 908960" d="M188.191,445.719a34.016,34.016,0,0,1-9.239,4.324c-4.072,1.244-8.065,1.467-14.864,1.438A37.1,37.1,0,0,1,148,435.421q.58-.585,1.111-1.2a37.864,37.864,0,0,0,28.623,12.986q1.688,0,3.409-.143a33.628,33.628,0,0,0,3.7-.514h.007a1.319,1.319,0,0,0,.169-.034h.005C186.087,446.3,187.144,446.031,188.191,445.719Z" transform="translate(620.729 5776.251)" fill="#166340"/>
    <path id="Trazado_908961" data-name="Trazado 908961" d="M228.6,376l-.266.906-.079.267a28.654,28.654,0,0,1-3.249,7.205c-.009.012-.017.026-.025.038-.405.635-.844,1.258-1.3,1.857a33.373,33.373,0,0,1-13.232,4.077,35.188,35.188,0,0,1-30.037-12.308,24.293,24.293,0,0,0,1.707-2.956q1.541.685,3.091,1.344c3.287,1.4,6.257,2.658,8.913,3.665l.024.01.062.024q1.679.634,3.187,1.124l.023.008a33.373,33.373,0,0,0,7.344,1.564,36.222,36.222,0,0,0,11.973-.748c.025-.005.049-.011.073-.018h.013a29.032,29.032,0,0,0,4.258-1.4A28.438,28.438,0,0,0,228.6,376Z" transform="translate(591.199 5830.128)" fill="#166340"/>
    <path id="Trazado_908962" data-name="Trazado 908962" d="M352.506,218.488a25.539,25.539,0,0,1-11.768,6.679,35.364,35.364,0,0,1-23.858-16.533A23.994,23.994,0,0,0,319.041,206c.943.622,1.891,1.232,2.832,1.828,8.159,5.175,12.654,8.025,18.253,9.493a38.72,38.72,0,0,0,6.138,1.131A32.987,32.987,0,0,0,352.506,218.488Z" transform="translate(466.852 5984.197)" fill="#166340"/>
    <path id="Trazado_908963" data-name="Trazado 908963" d="M298.519,273.424a38.28,38.28,0,0,1-4.118-.168,30.6,30.6,0,0,1-6.718-1.435l-.022-.007c-.869-.279-1.772-.6-2.743-.959a36.943,36.943,0,0,1-6.417-11.911q.666-.483,1.293-1A39.632,39.632,0,0,0,290.082,268.9a36.9,36.9,0,0,0,8.437,4.528Z" transform="translate(501.823 5936.872)" fill="#166340"/>
    <path id="Trazado_908964" data-name="Trazado 908964" d="M162.093,655.879a21.291,21.291,0,0,1-.622,3.886l-.005.02q-.236.915-.56,1.826a37.637,37.637,0,0,1-3-3.4V655.66c1.374.087,2.774.161,4.183.219Z" transform="translate(611.7 5574.482)" fill="#616161"/>
    <path id="Trazado_908965" data-name="Trazado 908965" d="M789.526,179.931h-6.279c.034-1.474.034-3.489-.007-4.878.943-.282,1.51-.479,2.185-.711.533-.186,1.168-.4,2.149-.722.154.43.3.863.45,1.294.325.96.637,1.949.926,2.939C789.152,178.544,789.348,179.241,789.526,179.931Z" transform="translate(41.921 6013.701)" fill="#616161"/>
    <path id="Trazado_908966" data-name="Trazado 908966" d="M121.631,343.474a21.211,21.211,0,0,1-2.049,3.35l-.007.009q-.572.767-1.225,1.492a37.893,37.893,0,0,1-1.48-4.281l.972-2.365Q119.72,342.6,121.631,343.474Z" transform="translate(649.094 5860.57)" fill="#616161"/>
    <path id="Trazado_908967" data-name="Trazado 908967" d="M265.4,163.706a21.226,21.226,0,0,1-2.576,2.979l-.034.033q-.673.643-1.421,1.239a37.74,37.74,0,0,1-.765-4.463l1.344-2.175Q263.65,162.521,265.4,163.706Z" transform="translate(518.132 6024.908)" fill="#616161"/>
    <g id="Grupo_1112328" data-name="Grupo 1112328" transform="translate(765.076 6187.117)">
      <path id="Trazado_908968" data-name="Trazado 908968" d="M254.285,324a35.178,35.178,0,0,1-32.455.036,24.04,24.04,0,0,0,.453-3.383c1.14.032,2.269.054,3.376.067,1.506.018,3.063.036,4.475.044h.007c7.284.038,11.548-.187,16.034-1.561a36.054,36.054,0,0,0,11.132-5.5h.005c.033-.023.066-.047.1-.073l.012-.01a28.785,28.785,0,0,0,3.02-2.63,28.044,28.044,0,0,0,2.1-2.355.742.742,0,0,0,.048-.059.34.34,0,0,0,.023-.03c.565-.718,1.1-1.471,1.594-2.24l.026-.038a31.487,31.487,0,0,0,3.6-7.96l.079-.266c.551-1.842,1.119-3.744,1.605-5.662a.3.3,0,0,1,.013-.052c.048-.191.1-.383.143-.576.005-.02.01-.039.014-.059.035-.144.069-.287.1-.428,0-.018.009-.035.012-.052a43,43,0,0,0,.828-4.55h1.264l.434,3.9v.021c1.667,13.156-5.916,27.211-18.039,33.416Z" transform="translate(-211.618 -276.414)" fill="#98e465"/>
      <path id="Trazado_908969" data-name="Trazado 908969" d="M266.122,301.28a35.989,35.989,0,0,1-11.951,26.865,35.541,35.541,0,0,1-14.291,7.823,36.1,36.1,0,0,1-33.03-7.61q.314-.76.573-1.534a39.152,39.152,0,0,0,17.047,4.006,38.127,38.127,0,0,0,17.46-4.3,37.428,37.428,0,0,0,19.107-25.332,33.331,33.331,0,0,0,.458-10.962l-.4-3.572h3.032c.312,1.417.584,2.853.812,4.284l.716,4.5a37.108,37.108,0,0,1,.465,5.837Z" transform="translate(-197.968 -276.414)" fill="#98e465"/>
      <path id="Trazado_908970" data-name="Trazado 908970" d="M178.191,455.719a34.016,34.016,0,0,1-9.239,4.324c-4.072,1.244-8.065,1.467-14.864,1.438A37.1,37.1,0,0,1,138,445.421q.58-.585,1.111-1.2a37.864,37.864,0,0,0,28.623,12.986q1.688,0,3.409-.143a33.644,33.644,0,0,0,3.7-.514h.007a1.313,1.313,0,0,0,.169-.034h.005C176.087,456.3,177.144,456.031,178.191,455.719Z" transform="translate(-135.235 -419.977)" fill="#98e465"/>
      <path id="Trazado_908971" data-name="Trazado 908971" d="M218.6,386l-.266.906-.079.266a28.654,28.654,0,0,1-3.249,7.205c-.009.012-.017.026-.025.038-.405.635-.844,1.258-1.3,1.857a33.373,33.373,0,0,1-13.232,4.077,35.188,35.188,0,0,1-30.037-12.308,24.291,24.291,0,0,0,1.707-2.956q1.541.685,3.091,1.344c3.287,1.4,6.257,2.658,8.913,3.665l.024.01.062.024q1.679.634,3.187,1.124l.023.008a33.373,33.373,0,0,0,7.344,1.564,36.221,36.221,0,0,0,11.973-.748c.025-.005.049-.011.073-.018h.013a29.024,29.024,0,0,0,4.258-1.4A28.437,28.437,0,0,0,218.6,386Z" transform="translate(-164.765 -366.1)" fill="#98e465"/>
      <path id="Trazado_908972" data-name="Trazado 908972" d="M342.506,228.488a25.539,25.539,0,0,1-11.768,6.679,35.364,35.364,0,0,1-23.858-16.533A24,24,0,0,0,309.041,216c.943.622,1.891,1.232,2.832,1.828,8.159,5.175,12.654,8.025,18.253,9.493a38.724,38.724,0,0,0,6.138,1.131A32.988,32.988,0,0,0,342.506,228.488Z" transform="translate(-289.112 -212.031)" fill="#98e465"/>
      <path id="Trazado_908973" data-name="Trazado 908973" d="M288.519,283.424a38.288,38.288,0,0,1-4.118-.168,30.6,30.6,0,0,1-6.718-1.435l-.022-.007c-.869-.279-1.772-.6-2.743-.958a36.943,36.943,0,0,1-6.417-11.911q.666-.483,1.293-1A39.632,39.632,0,0,0,280.082,278.9,36.9,36.9,0,0,0,288.519,283.424Z" transform="translate(-254.142 -259.357)" fill="#98e465"/>
      <path id="Trazado_908974" data-name="Trazado 908974" d="M152.093,665.879a21.292,21.292,0,0,1-.622,3.886l-.005.02q-.236.915-.56,1.826a37.645,37.645,0,0,1-3-3.4V665.66c1.374.087,2.774.161,4.183.219Z" transform="translate(-144.264 -621.746)" fill="#98e465"/>
      <path id="Trazado_908975" data-name="Trazado 908975" d="M779.526,189.931h-6.279c.034-1.474.034-3.489-.007-4.878.943-.282,1.51-.479,2.185-.711.533-.186,1.168-.4,2.149-.722.154.43.3.863.45,1.294.325.96.637,1.949.926,2.939.2.691.4,1.388.576,2.078Z" transform="translate(-714.043 -182.527)" fill="#98e465"/>
      <path id="Trazado_908976" data-name="Trazado 908976" d="M111.631,353.474a21.21,21.21,0,0,1-2.049,3.35l-.007.009q-.572.767-1.225,1.492a37.888,37.888,0,0,1-1.48-4.281l.972-2.365Q109.72,352.6,111.631,353.474Z" transform="translate(-106.87 -335.658)" fill="#98e465"/>
      <path id="Trazado_908977" data-name="Trazado 908977" d="M255.4,173.706a21.226,21.226,0,0,1-2.576,2.98l-.034.033q-.673.643-1.421,1.239a37.738,37.738,0,0,1-.765-4.463l1.344-2.175Q253.65,172.521,255.4,173.706Z" transform="translate(-237.832 -171.32)" fill="#98e465"/>
    </g>
    <g id="Grupo_1112329" data-name="Grupo 1112329" transform="translate(763.048 6182.769)">
      <path id="Trazado_908978" data-name="Trazado 908978" d="M183.232,154.716l-.016.05c-.005.017-.012.034-.018.05l-.012.031a.285.285,0,0,1-.013.03c-.008.019-.017.037-.026.055s-.012.026-.02.038a.514.514,0,0,1-.029.053c-.005.01-.011.02-.017.029l-.012.018c-.005.01-.012.02-.019.029s-.026.037-.039.055-.036.048-.055.07a1.313,1.313,0,0,1-.113.12c-.02.02-.041.037-.061.055l-.007.006-.072.055-.006,0-.035.024-.032.021c-.02.013-.041.026-.062.037s-.044.024-.066.035l-.038.019a1.323,1.323,0,0,1-.165.064l-.032.01-.031.009-.059.014-.3.066c-.082.018-.163.035-.246.051q-.69.139-1.394.246l-.1.014c-.052.008-.1.016-.156.022l-.029,0c-.326,1.213-.681,2.426-1.036,3.618l-.267.906-.079.267a28.654,28.654,0,0,1-3.249,7.205c-.009.012-.017.026-.025.038-.405.635-.844,1.258-1.3,1.857l-.173.222a25.259,25.259,0,0,1-1.924,2.164,26.506,26.506,0,0,1-3.854,3.18,34.015,34.015,0,0,1-9.239,4.324c-4.072,1.244-8.065,1.467-14.864,1.438l.251.134a1.421,1.421,0,0,1-.591,2.713c7.284.038,11.548-.187,16.034-1.561a36.054,36.054,0,0,0,11.132-5.5h.005l.1-.073.012-.01a28.788,28.788,0,0,0,3.02-2.629,28.053,28.053,0,0,0,2.1-2.359c.017-.02.033-.039.048-.06a.347.347,0,0,0,.023-.03c.565-.718,1.1-1.471,1.594-2.24l.026-.038a31.489,31.489,0,0,0,3.6-7.96l.079-.266c.551-1.842,1.119-3.744,1.605-5.662a.3.3,0,0,1,.013-.052c.048-.191.1-.383.143-.576.005-.02.01-.039.014-.059.035-.144.069-.287.1-.428C183.242,154.684,183.238,154.7,183.232,154.716Zm-7.607,17.622a37.408,37.408,0,0,1-4.975,2.335,1.421,1.421,0,0,1,.229,2.347,28.786,28.786,0,0,0,3.02-2.63,28.056,28.056,0,0,0,2.1-2.351A1.439,1.439,0,0,1,175.625,172.338Zm7.227-16.636c-.259.313-.52.622-.777.91a31.684,31.684,0,0,1-3.158,3.109l-.267.906-.079.267a28.654,28.654,0,0,1-3.249,7.205c-.009.012-.017.026-.025.038-.405.635-.844,1.258-1.3,1.857l.244-.135a1.421,1.421,0,0,1,1.834,2.091c.565-.718,1.1-1.471,1.594-2.24l.026-.038a31.489,31.489,0,0,0,3.6-7.96l.079-.266c.551-1.842,1.119-3.744,1.605-5.662a.3.3,0,0,1,.013-.052c.048-.191.1-.383.143-.576a1.421,1.421,0,0,1-.279.546Zm-7.227,16.636a37.408,37.408,0,0,1-4.975,2.335,1.421,1.421,0,0,1,.229,2.347,28.786,28.786,0,0,0,3.02-2.63,28.056,28.056,0,0,0,2.1-2.351A1.439,1.439,0,0,1,175.625,172.338ZM195.578,158.4l-.716-4.5c-.3-1.871-.668-3.75-1.1-5.577a.142.142,0,0,0-.009-.037c-.052-.222-.1-.444-.16-.665l-.019-.076c-.016-.065-.032-.131-.049-.2-.246-.991-.519-2-.812-3.006-.3-1.028-.622-2.055-.961-3.051-.3-.888-.622-1.784-.951-2.655a1.421,1.421,0,0,0-1.751-.852c-1.815.569-2.759.9-3.518,1.155-.888.308-1.534.533-3.118.977a1.421,1.421,0,0,0-1.028,1.494c.114,1.268.1,5.8,0,7.077v.033a35.231,35.231,0,0,1-.7,4.574c-.073.338-.15.684-.235,1.037-.024.1-.05.211-.076.317-.044.178-.089.355-.132.533,0,.014-.008.029-.012.044q-.134.533-.278,1.066c-.326,1.213-.681,2.426-1.036,3.618l-.267.906-.079.266a28.654,28.654,0,0,1-3.249,7.205c-.009.012-.017.026-.025.038-.405.635-.844,1.258-1.3,1.857l-.173.222a25.263,25.263,0,0,1-1.924,2.164,26.508,26.508,0,0,1-3.854,3.18,34.015,34.015,0,0,1-9.239,4.324c-4.072,1.244-8.065,1.467-14.864,1.438H143.6c-1.4-.008-2.948-.026-4.45-.043-.29,0-.581-.007-.874-.012-1.263-.02-2.556-.053-3.853-.1-2.363-.084-4.728-.208-7.026-.37a1.421,1.421,0,0,0-1.522,1.421v4.56a1.421,1.421,0,0,0,.29.86,40.456,40.456,0,0,0,5.094,5.549l.038.035a40.082,40.082,0,0,0,17.112,9.094,38.813,38.813,0,0,0,9.328,1.14,37.6,37.6,0,0,0,18.183-4.645,38.615,38.615,0,0,0,17.939-21.185A39.54,39.54,0,0,0,195.578,158.4Zm-14.3,33.149a35.541,35.541,0,0,1-14.291,7.823,36.1,36.1,0,0,1-33.03-7.61q-.386-.329-.766-.671-.758-.682-1.481-1.408a37.641,37.641,0,0,1-3-3.4v-2.557c1.381.089,2.781.161,4.186.219q.711.031,1.421.055l1.421.045c1.14.032,2.269.054,3.376.067,1.506.018,3.063.036,4.475.044h.007c7.284.038,11.548-.187,16.034-1.561a36.054,36.054,0,0,0,11.132-5.5h.005l.1-.073.012-.01a28.788,28.788,0,0,0,3.02-2.629A28.058,28.058,0,0,0,176,172.038c.017-.02.033-.039.048-.06a.346.346,0,0,0,.023-.03c.565-.718,1.1-1.471,1.594-2.24l.026-.038a31.489,31.489,0,0,0,3.6-7.96l.079-.267c.551-1.842,1.119-3.744,1.605-5.662a.3.3,0,0,1,.013-.052c.048-.191.1-.383.143-.576.005-.02.01-.039.014-.059.035-.144.069-.287.1-.428,0-.018.009-.035.012-.052a43.014,43.014,0,0,0,.828-4.55c.054-.444.1-.881.133-1.309.027-.339.048-.888.063-1.534.034-1.474.034-3.489-.007-4.878.943-.283,1.51-.479,2.185-.711.533-.186,1.168-.4,2.149-.722.154.43.3.863.45,1.294.325.96.637,1.949.926,2.939.2.693.4,1.389.576,2.08q.107.412.208.82v.015c.014.055.028.11.041.165l.02.082c.053.219.107.438.159.666q.128.545.249,1.094c.312,1.417.584,2.853.812,4.285l.716,4.5a37.107,37.107,0,0,1,.463,5.837A35.948,35.948,0,0,1,181.282,191.552Zm-5.657-19.214a37.41,37.41,0,0,1-4.975,2.335,1.421,1.421,0,0,1,.229,2.347,28.785,28.785,0,0,0,3.02-2.63,28.053,28.053,0,0,0,2.1-2.351A1.439,1.439,0,0,1,175.625,172.338Zm7.227-16.636c-.259.313-.52.622-.777.91a31.683,31.683,0,0,1-3.158,3.109l-.267.906-.079.267a28.653,28.653,0,0,1-3.249,7.205c-.009.012-.017.026-.025.038-.405.635-.844,1.258-1.3,1.857l.244-.135a1.421,1.421,0,0,1,1.834,2.091c.565-.718,1.1-1.471,1.594-2.24l.026-.038a31.489,31.489,0,0,0,3.6-7.96l.079-.267c.551-1.842,1.119-3.744,1.605-5.662a.3.3,0,0,1,.013-.052c.048-.191.1-.383.143-.576A1.422,1.422,0,0,1,182.852,155.7Zm.38-.986-.016.05a.472.472,0,0,1-.018.05.1.1,0,0,1-.012.031.285.285,0,0,1-.013.03c-.008.019-.017.037-.026.055s-.012.026-.02.038a.515.515,0,0,1-.029.053c-.005.01-.011.02-.017.029l-.012.018c-.005.01-.012.02-.019.029s-.025.037-.039.055-.036.048-.055.07a1.313,1.313,0,0,1-.113.12c-.02.02-.041.037-.061.055l-.007.006a.861.861,0,0,1-.072.055l-.006,0-.035.024-.032.021c-.02.013-.041.026-.062.037s-.044.024-.066.035l-.038.019a1.323,1.323,0,0,1-.165.064l-.032.01-.031.009-.059.014-.3.066c-.082.018-.163.035-.246.051q-.69.139-1.394.246l-.1.014c-.052.008-.1.016-.156.022l-.029,0c-.326,1.213-.681,2.426-1.036,3.618l-.267.906-.079.267a28.654,28.654,0,0,1-3.249,7.205c-.009.012-.017.026-.025.038-.405.635-.844,1.258-1.3,1.857l-.173.222a25.261,25.261,0,0,1-1.924,2.164,26.506,26.506,0,0,1-3.854,3.18,34.015,34.015,0,0,1-9.239,4.324c-4.072,1.244-8.065,1.467-14.864,1.438l.251.134a1.421,1.421,0,0,1-.591,2.713c7.284.038,11.548-.187,16.034-1.561a36.054,36.054,0,0,0,11.132-5.5h.005l.1-.073.012-.01a28.788,28.788,0,0,0,3.02-2.629,28.058,28.058,0,0,0,2.1-2.359c.017-.02.033-.039.048-.06a.346.346,0,0,0,.023-.03c.565-.718,1.1-1.471,1.594-2.24l.026-.038a31.489,31.489,0,0,0,3.6-7.96l.079-.267c.551-1.842,1.119-3.744,1.605-5.662a.3.3,0,0,1,.013-.052c.048-.191.1-.383.143-.576.005-.02.01-.039.014-.059.035-.144.069-.287.1-.428C183.242,154.684,183.238,154.7,183.232,154.716Zm0,0-.016.05c-.005.017-.012.034-.018.05l-.012.031a.285.285,0,0,1-.013.03c-.008.019-.017.037-.026.055s-.012.026-.02.038a.515.515,0,0,1-.029.053c-.005.01-.011.02-.017.029l-.012.018c-.005.01-.012.02-.019.029s-.026.037-.039.055-.036.048-.055.07a1.313,1.313,0,0,1-.113.12c-.02.02-.041.037-.061.055l-.007.006-.072.055-.006,0-.035.024-.032.021c-.02.013-.041.026-.062.037s-.044.024-.066.035l-.038.019a1.323,1.323,0,0,1-.165.064l-.032.01-.031.009-.059.014-.3.066c-.082.018-.163.035-.246.051q-.69.139-1.394.246l-.1.014c-.052.008-.1.016-.156.022l-.029,0c-.326,1.213-.681,2.426-1.036,3.618l-.267.906-.079.267a28.654,28.654,0,0,1-3.249,7.205c-.009.012-.017.026-.025.038-.405.635-.844,1.258-1.3,1.857l-.173.222a25.261,25.261,0,0,1-1.924,2.164,26.506,26.506,0,0,1-3.854,3.18,34.015,34.015,0,0,1-9.239,4.324c-4.072,1.244-8.065,1.467-14.864,1.438l.251.134a1.421,1.421,0,0,1-.591,2.713c7.284.038,11.548-.187,16.034-1.561a36.054,36.054,0,0,0,11.132-5.5h.005l.1-.073.012-.01a28.788,28.788,0,0,0,3.02-2.629,28.058,28.058,0,0,0,2.1-2.359c.017-.02.033-.039.048-.06a.346.346,0,0,0,.023-.03c.565-.718,1.1-1.471,1.594-2.24l.026-.038a31.489,31.489,0,0,0,3.6-7.96l.079-.267c.551-1.842,1.119-3.744,1.605-5.662a.3.3,0,0,1,.013-.052c.048-.191.1-.383.143-.576.005-.02.01-.039.014-.059.035-.144.069-.287.1-.428C183.242,154.684,183.238,154.7,183.232,154.716Z" transform="translate(-122.163 -136.361)" fill="#413b32"/>
      <path id="Trazado_908979" data-name="Trazado 908979" d="M253.325,262.036a37.428,37.428,0,0,1-19.107,25.332,38.126,38.126,0,0,1-17.46,4.3,39.114,39.114,0,0,1-17.047-4.006q-.775-.371-1.544-.78a1.421,1.421,0,0,1-.716-1.59l.005-.02a1.421,1.421,0,0,1,2.043-.9q.483.256.97.5a35.178,35.178,0,0,0,32.455-.036c12.121-6.205,19.705-20.26,18.04-33.416V251.4l-.434-3.9-.141-1.263a1.421,1.421,0,0,1,1.255-1.571,1.374,1.374,0,0,1,.159-.009,1.421,1.421,0,0,1,1.411,1.264l.178,1.579.393,3.572a33.331,33.331,0,0,1-.458,10.961Z" transform="translate(-187.339 -233.797)" fill="#413b32"/>
      <path id="Trazado_908980" data-name="Trazado 908980" d="M763.076,246.081a1.421,1.421,0,0,1-1.421,1.421h-9.574a1.421,1.421,0,0,1-1.421-1.421.935.935,0,0,1,0-.113v-.033a1.421,1.421,0,0,1,1.414-1.276h9.576a1.421,1.421,0,0,1,1.377,1.066.192.192,0,0,0,.009.037,1.441,1.441,0,0,1,.036.318Z" transform="translate(-691.441 -233.797)" fill="#413b32"/>
      <path id="Trazado_908981" data-name="Trazado 908981" d="M186.51,628.2q0,.733-.05,1.46a24.038,24.038,0,0,1-.453,3.383q-.116.56-.259,1.114-.217.842-.5,1.68-.26.773-.573,1.534-.2.493-.426.977a1.421,1.421,0,0,1-2.234.47l-.038-.035a1.421,1.421,0,0,1-.309-1.62c.282-.616.533-1.244.761-1.871q.324-.909.56-1.826l.005-.02a21.292,21.292,0,0,0,.622-3.886q.045-.682.048-1.37a1.421,1.421,0,0,1,1.421-1.416h.005A1.421,1.421,0,0,1,186.51,628.2Z" transform="translate(-172.878 -581.972)" fill="#413b32"/>
      <path id="Trazado_908982" data-name="Trazado 908982" d="M145.051,306.185a1.353,1.353,0,0,1-.028.216.236.236,0,0,1-.014.059,1.421,1.421,0,0,1-.279.547c-.258.313-.52.622-.777.91a31.675,31.675,0,0,1-3.158,3.109,28.437,28.437,0,0,1-7.521,4.654,29.032,29.032,0,0,1-4.258,1.4H129l-.073.018a36.222,36.222,0,0,1-11.973.748,33.4,33.4,0,0,1-7.344-1.564l-.023-.008c-1.006-.323-2.068-.7-3.187-1.124l-.062-.024-.024-.01c-2.656-1.007-5.629-2.27-8.913-3.665q-1.548-.658-3.091-1.344-1.3-.567-2.595-1.164-1.906-.878-3.789-1.794l-.972,2.365a37.889,37.889,0,0,0,1.48,4.281q.393.944.835,1.866.22.458.454.911a37.067,37.067,0,0,0,16.088,16.059l.254.131a1.421,1.421,0,0,1-.591,2.713h-.007a1.435,1.435,0,0,1-.63-.148,38.746,38.746,0,0,1-4.686-2.754,40.1,40.1,0,0,1-13.428-15.648c-.013-.027-.026-.052-.037-.079a.032.032,0,0,1,0-.008,40.414,40.414,0,0,1-2.6-7.051,1.421,1.421,0,0,1,.059-.906l1.734-4.217a1.421,1.421,0,0,1,1.946-.733c3.482,1.727,7.077,3.38,10.687,4.914,1.6.679,3.034,1.285,4.338,1.829,1.85.769,3.441,1.412,4.886,1.954.971.362,1.874.68,2.743.959l.022.007a30.6,30.6,0,0,0,6.718,1.435,38.289,38.289,0,0,0,4.118.168,30.886,30.886,0,0,0,7.246-.93,25.539,25.539,0,0,0,11.768-6.679q.756-.739,1.473-1.55c.167-.188.336-.385.5-.585.069-.082.139-.165.208-.249a1.421,1.421,0,0,1,2.516.984Z" transform="translate(-84.04 -287.668)" fill="#413b32"/>
      <path id="Trazado_908983" data-name="Trazado 908983" d="M192.712,404.846a.338.338,0,0,1-.023.03c-.015.02-.031.04-.048.06a1.439,1.439,0,0,1-.374.3,37.412,37.412,0,0,1-4.975,2.335q-.983.378-1.983.694-.314.1-.631.2c-1.047.313-2.1.577-3.164.79h-.005c-.056.012-.113.023-.169.034h-.007a33.639,33.639,0,0,1-3.7.519q-1.717.143-3.409.143A37.867,37.867,0,0,1,145.6,396.962q-.575-.64-1.13-1.308a1.421,1.421,0,0,1-.045-1.76l.007-.009a1.421,1.421,0,0,1,2.221-.049q.349.421.711.829A35.177,35.177,0,0,0,177.4,406.972a33.373,33.373,0,0,0,13.232-4.078l.244-.135a1.421,1.421,0,0,1,1.839,2.087Z" transform="translate(-138.804 -369.257)" fill="#413b32"/>
      <path id="Trazado_908984" data-name="Trazado 908984" d="M120.893,339.961q-.28.676-.6,1.333a24.293,24.293,0,0,1-1.707,2.956q-.321.474-.664.932-.521.7-1.1,1.364-.533.616-1.111,1.2-.373.379-.766.744a1.421,1.421,0,0,1-2.009-.071,1.437,1.437,0,0,1-.225-.32c-.013-.027-.026-.052-.037-.079a.032.032,0,0,1,0-.008,1.421,1.421,0,0,1,.338-1.6q.744-.693,1.414-1.441.653-.726,1.225-1.492l.007-.009a21.209,21.209,0,0,0,2.049-3.35q.3-.613.565-1.248a1.422,1.422,0,1,1,2.626,1.09Z" transform="translate(-110.025 -318.844)" fill="#413b32"/>
      <path id="Trazado_908985" data-name="Trazado 908985" d="M276.536,140.634a.229.229,0,0,1-.012.052c0,.018-.009.033-.014.05l-.016.05c-.005.017-.012.034-.018.05l-.012.031a.294.294,0,0,1-.013.03c-.008.019-.017.037-.026.055s-.012.026-.02.038a.514.514,0,0,1-.029.053c-.005.01-.011.02-.017.029l-.012.018c-.005.01-.012.02-.019.029s-.026.037-.039.055-.036.048-.055.07a1.316,1.316,0,0,1-.113.12c-.02.02-.041.037-.061.055l-.007.006-.072.055-.006,0-.035.024-.032.021c-.02.013-.041.026-.062.037s-.044.024-.066.035l-.038.019a1.324,1.324,0,0,1-.165.064l-.032.01-.031.009-.059.014-.3.066c-.082.018-.163.035-.246.051q-.69.139-1.394.246l-.1.014c-.052.008-.1.016-.156.022l-.029,0q-.733.106-1.479.172a32.99,32.99,0,0,1-6.242-.041,38.722,38.722,0,0,1-6.138-1.131c-5.6-1.468-10.093-4.318-18.253-9.493-.941-.6-1.889-1.209-2.832-1.828q-.594-.39-1.185-.784t-1.18-.794c-1.163-.788-2.315-1.586-3.446-2.386l-1.344,2.176a37.736,37.736,0,0,0,.765,4.46q.234,1,.52,1.977.143.49.3.977a36.943,36.943,0,0,0,6.417,11.911c.074.089.148.184.224.275a1.421,1.421,0,0,1-1.558,2.259c-.02-.007-.042-.015-.062-.024l-.024-.01a1.421,1.421,0,0,1-.39-.25,1.5,1.5,0,0,1-.147-.154,39.784,39.784,0,0,1-7.469-14.125l-.005-.017c0-.012-.008-.026-.012-.038a.05.05,0,0,1,0-.011.157.157,0,0,0-.009-.034,40.438,40.438,0,0,1-1.421-7.391,1.421,1.421,0,0,1,.205-.888l2.4-3.879a1.421,1.421,0,0,1,2.039-.406c1.874,1.348,3.82,2.7,5.784,4.008l.041.028c1.3.864,2.617,1.723,3.921,2.55,8.516,5.4,12.49,7.842,17.451,9.143a31.737,31.737,0,0,0,13.871.751c.29-.053.582-.113.876-.178a1.421,1.421,0,0,1,1.7,1.688Z" transform="translate(-215.44 -122.378)" fill="#413b32"/>
      <path id="Trazado_908986" data-name="Trazado 908986" d="M309.224,237.045a1.421,1.421,0,0,1-1.015,1.125H308.2l-.073.018a1.4,1.4,0,0,1-.294.031,1.442,1.442,0,0,1-.245-.021,38.345,38.345,0,0,1-7.053-1.924,36.9,36.9,0,0,1-8.439-4.531A39.632,39.632,0,0,1,281.8,220.787q-.464-.725-.9-1.475a1.421,1.421,0,0,1,.208-1.71l.034-.033a1.4,1.4,0,0,1,.267-.2,1.421,1.421,0,0,1,1.945.507q.277.472.564.933a35.352,35.352,0,0,0,23.858,16.533l.292.053a1.421,1.421,0,0,1,1.158,1.651Z" transform="translate(-263.234 -208.751)" fill="#413b32"/>
      <path id="Trazado_908987" data-name="Trazado 908987" d="M253.274,169.99q-.386.622-.809,1.216a23.994,23.994,0,0,1-2.164,2.639q-.394.416-.806.812-.622.6-1.308,1.167-.626.52-1.293,1-.431.314-.877.609a1.421,1.421,0,0,1-1.97-.4,1.442,1.442,0,0,1-.163-.332l-.005-.017c0-.012-.008-.026-.012-.038a.049.049,0,0,1,0-.011.157.157,0,0,0-.009-.034,1.421,1.421,0,0,1,.59-1.539q.847-.564,1.631-1.192.743-.594,1.421-1.239l.034-.033a21.226,21.226,0,0,0,2.576-2.98q.4-.556.761-1.14a1.421,1.421,0,0,1,1.954-.456l.038.025.041.028A1.421,1.421,0,0,1,253.274,169.99Z" transform="translate(-229.619 -163.782)" fill="#413b32"/>
    </g>
  </g>
</svg>
