<svg xmlns="http://www.w3.org/2000/svg" width="105" height="105" viewBox="0 0 105 105">
  <g id="escalera-de-mano" transform="translate(-16 -16)">
    <path id="Trazado_910352" data-name="Trazado 910352" d="M359,88l22.75,87.5h-7L352,88Z" transform="translate(-262.499 -56.249)" fill="#4976f2"/>
    <path id="Trazado_910353" data-name="Trazado 910353" d="M320.75,88l22.75,87.5h-8.75L312,88Z" transform="translate(-231.249 -56.249)" fill="#548aff"/>
    <path id="Trazado_910354" data-name="Trazado 910354" d="M401.44,432h8.75l3.185,12.25h-8.75Z" transform="translate(-301.124 -324.999)" fill="#718799"/>
    <path id="Trazado_910355" data-name="Trazado 910355" d="M441.44,432h7l3.185,12.25h-7Z" transform="translate(-332.374 -324.999)" fill="#556c80"/>
    <path id="Trazado_910356" data-name="Trazado 910356" d="M205.57,88h-6.82L176,175.5h6.82Z" transform="translate(-124.999 -56.249)" fill="#3b57c4"/>
    <path id="Trazado_910357" data-name="Trazado 910357" d="M158.75,88,136,175.5h8.75L167.5,88Z" transform="translate(-93.749 -56.249)" fill="#486be0"/>
    <path id="Trazado_910358" data-name="Trazado 910358" d="M139.185,432h8.75l-3.185,12.25H136Z" transform="translate(-93.749 -324.999)" fill="#718799"/>
    <path id="Trazado_910359" data-name="Trazado 910359" d="M179.185,432H186l-3.185,12.25H176Z" transform="translate(-124.999 -324.999)" fill="#556c80"/>
    <path id="Trazado_910360" data-name="Trazado 910360" d="M93.57,88H86.75L64,175.5h6.82Z" transform="translate(-37.499 -56.249)" fill="#4976f2"/>
    <path id="Trazado_910361" data-name="Trazado 910361" d="M247,88l22.75,87.5h-7L240,88Z" transform="translate(-174.999 -56.249)" fill="#4976f2"/>
    <path id="Trazado_910362" data-name="Trazado 910362" d="M200,24h31.5l8.75,7v7H200Z" transform="translate(-143.749 -6.25)" fill="#ffb401"/>
    <path id="Trazado_910363" data-name="Trazado 910363" d="M143.75,24h-7L128,31v7h24.5V31Z" transform="translate(-87.499 -6.25)" fill="#ffc431"/>
    <path id="Trazado_910364" data-name="Trazado 910364" d="M46.75,88,24,175.5h8.75L55.5,88Z" transform="translate(-6.249 -56.249)" fill="#548aff"/>
    <path id="Trazado_910365" data-name="Trazado 910365" d="M208.75,88l22.75,87.5h-8.75L200,88Z" transform="translate(-143.749 -56.249)" fill="#548aff"/>
    <path id="Trazado_910366" data-name="Trazado 910366" d="M160,215h26.145l-1.82-7H160Z" transform="translate(-112.499 -149.999)" fill="#556c80"/>
    <path id="Trazado_910367" data-name="Trazado 910367" d="M27.185,432h8.75L32.75,444.25H24Z" transform="translate(-6.249 -324.999)" fill="#718799"/>
    <path id="Trazado_910368" data-name="Trazado 910368" d="M289.44,432h8.75l3.185,12.25h-8.75Z" transform="translate(-213.624 -324.999)" fill="#718799"/>
    <g id="Grupo_1113233" data-name="Grupo 1113233" transform="translate(75.641 45.751)">
      <path id="Trazado_910369" data-name="Trazado 910369" d="M357.88,351h-17.5l-1.82-7h17.5Z" transform="translate(-327.64 -302)" fill="#556c80"/>
      <path id="Trazado_910370" data-name="Trazado 910370" d="M332.92,255h-17.5l-1.82-7h17.5Z" transform="translate(-308.14 -227)" fill="#556c80"/>
      <path id="Trazado_910371" data-name="Trazado 910371" d="M288.64,152h17.5l1.82,7h-17.5Z" transform="translate(-288.64 -152)" fill="#556c80"/>
    </g>
    <path id="Trazado_910372" data-name="Trazado 910372" d="M90.3,208h20.825v3.5l-5.25,3.5H88.48Z" transform="translate(-56.624 -149.999)" fill="#718799"/>
    <path id="Trazado_910373" data-name="Trazado 910373" d="M329.44,432h7l3.185,12.25h-7Z" transform="translate(-244.874 -324.999)" fill="#556c80"/>
    <path id="Trazado_910374" data-name="Trazado 910374" d="M67.185,432H74L70.82,444.25H64Z" transform="translate(-37.499 -324.999)" fill="#556c80"/>
    <path id="Trazado_910375" data-name="Trazado 910375" d="M143.8,344H126.115l-1.82,7h17.681Z" transform="translate(-84.605 -256.249)" fill="#718799"/>
    <circle id="Elipse_12676" data-name="Elipse 12676" cx="1.5" cy="1.5" r="1.5" transform="translate(51.001 23)"/>
    <path id="Trazado_910376" data-name="Trazado 910376" d="M101.807,119.691A1.75,1.75,0,0,0,103.5,121h15.75a1.75,1.75,0,0,0,1.694-2.19L98.251,31.527V24.751a1.75,1.75,0,0,0-.657-1.367l-8.75-7A1.75,1.75,0,0,0,87.751,16h-38.5a1.751,1.751,0,0,0-1.093.383l-8.75,7a1.75,1.75,0,0,0-.657,1.367v6.777L16.057,118.811A1.75,1.75,0,0,0,17.751,121H33.32a1.75,1.75,0,0,0,1.694-1.31l6.03-23.19h5.495l-5.8,22.31A1.75,1.75,0,0,0,42.431,121H58a1.75,1.75,0,0,0,1.694-1.31L68.5,85.82l8.806,33.871A1.75,1.75,0,0,0,79,121h15.75a1.75,1.75,0,0,0,1.694-2.19l-5.8-22.31h5.134ZM67.159,66.751h5.134l10.01,38.5H77.169ZM58.018,86H52.884l5.005-19.25h5.134ZM41.854,33.5h5.134l-5.915,22.75H35.939Zm21.794,0,5.915,22.75H64.429L58.514,33.5ZM55.03,63.251l.441-.294a1.75,1.75,0,0,0,.779-1.456v-1.75H70.473l.91,3.5Zm1.973-7H51.508L56.16,38.358l2.747,10.567Zm-9.111,0h-3.2L50.6,33.5h3.2Zm4.859,3.5v.813l-4.03,2.687h-14.6l.91-3.5Zm-14.408,7-10.01,38.5H23.2l10.01-38.5Zm3.616,0h3.2l-10.01,38.5h-3.2Zm6.82,0h5.495L49.268,86H43.773ZM67.264,33.5h3.384L89.3,105.251H85.919Zm20.884,0L90.878,44H85.744l-2.73-10.5ZM84.274,72l-.91-3.5H97.248l.91,3.5Zm.584-17.5L87.588,65H82.454l-2.73-10.5ZM91.2,65l-2.73-10.5h5.134L96.338,65ZM78.814,51l-.63-2.423.28-1.077H91.788L92.7,51Zm.56-7,1.377-5.3L82.128,44Zm-3-2.377L74.264,33.5h4.224ZM85.184,75.5h5.134L93.048,86H87.914ZM96.664,86l-2.73-10.5h5.134L101.8,86Zm-4.9-52.5h3.384l18.655,71.75h-3.384Zm15.039,71.75h-5.134L99.394,96.5h5.134Zm-1.949,12.25-2.275-8.75h5.134l2.275,8.75Zm8.75,0-2.275-8.75h3.384l2.275,8.75ZM94.751,25.592V30h-28v-5.25a1.75,1.75,0,0,0-.657-1.367L61.24,19.5h25.9Zm-52.5,0L49.865,19.5h5.772l7.614,6.091V30h-21ZM25.147,117.5H20.014l2.275-8.75h5.134Zm6.82,0h-3.2l2.275-8.75h3.2Zm10.9-28H57.108L56.2,93H41.953Zm12.425,7-2.275,8.75H47.879l2.275-8.75Zm-5.46,21H44.694l2.275-8.75H52.1Zm6.82,0h-3.2l2.275-8.75h3.2Zm3.185-12.25h-3.2l8.462-32.545,1.6,6.16ZM80.354,117.5l-2.275-8.75h5.134l2.275,8.75Zm8.75,0-2.275-8.75h3.384l2.275,8.75Zm-.28-28h13.884l.91,3.5H89.734Z"/>
  </g>
</svg>
