<svg xmlns="http://www.w3.org/2000/svg" width="90" height="90" viewBox="0 0 90 90">
  <g id="Grupo_1113214" data-name="Grupo 1113214" transform="translate(-370.257 -2618)">
    <circle id="Elipse_12657" data-name="Elipse 12657" cx="45" cy="45" r="45" transform="translate(370.257 2618)" fill="#98e465"/>
    <g id="frijol" transform="translate(396.257 2638)">
      <g id="Grupo_1112288" data-name="Grupo 1112288" transform="translate(0 0)">
        <g id="Grupo_1112286" data-name="Grupo 1112286" transform="translate(20.569 46.95)">
          <path id="Trazado_908920" data-name="Trazado 908920" d="M275.831,488.606a.965.965,0,1,1,.944-.769A.974.974,0,0,1,275.831,488.606Z" transform="translate(-274.867 -486.679)" fill="#416b24"/>
        </g>
        <g id="Grupo_1112287" data-name="Grupo 1112287">
          <path id="Trazado_908921" data-name="Trazado 908921" d="M94.434,25.239a11.747,11.747,0,0,0-3.082-1.322,21.867,21.867,0,0,0,3.5-10.424,14.518,14.518,0,0,0-2.41-9A9.825,9.825,0,0,0,81.844.3c-5.1,1.3-6.292,4.16-7.324,7.758v0q-.067.234-.134.473a20.576,20.576,0,0,1-2.064,5.285,19.745,19.745,0,0,1-3.572,4.07q-.252.238-.5.474l0,0c-2.394,2.281-4.463,4.678-3.509,8.888a10.394,10.394,0,0,0,.887,2.461,8.1,8.1,0,0,0-2.406,2.522,9.375,9.375,0,0,0-.272,9.945c2.566,4.485,8.288,7.2,15.062,7.2.284,0,.57,0,.858-.014a.965.965,0,1,0-.065-1.928c-6.428.214-11.863-2.167-14.181-6.218a7.407,7.407,0,0,1,.228-7.954c1.6-2.532,3.62-2.921,6.225-2.924A5.791,5.791,0,0,0,73.139,34.5a5.955,5.955,0,0,0,3.727,1.109,13.194,13.194,0,0,0,3.211-.447c2.924-.74,4.8-2,5.582-3.746a5.659,5.659,0,0,0-.179-4.594c2.6-1.363,4.632-1.891,7.974.078a7.746,7.746,0,0,1,3.726,7.557c-.328,3.782-3.16,8.757-10.126,11.377a.965.965,0,1,0,.679,1.806,19.45,19.45,0,0,0,8.2-5.625A13.47,13.47,0,0,0,99.1,34.624a9.635,9.635,0,0,0-4.668-9.385Zm-20.46-10.42A20.891,20.891,0,0,0,76.089,9.6a3.725,3.725,0,0,1,2.13,1.956c.459,1.2.073,2.85-1.149,4.9h0c-1.279,2.143-2.611,3.319-3.959,3.5a3.767,3.767,0,0,1-2.761-.914A20.382,20.382,0,0,0,73.974,14.819ZM83.9,30.63c-.527,1.179-1.971,2.075-4.294,2.663h0c-2.431.615-4.21.507-5.289-.322a3.742,3.742,0,0,1-1.3-2.584,20.523,20.523,0,0,0,5.557-.428,21.056,21.056,0,0,0,5.2-2.2A3.7,3.7,0,0,1,83.9,30.63Zm5.309-6.952a12.1,12.1,0,0,0-5.452,1.885h0l-.43.239a20.733,20.733,0,0,1-5.212,2.284,19.863,19.863,0,0,1-5.415.361L72,28.432h0a14.2,14.2,0,0,0-4.629.464,8.449,8.449,0,0,1-.752-2.066c-.662-2.918.487-4.613,2.326-6.449a6.112,6.112,0,0,0,3.81,1.519,4.666,4.666,0,0,0,.607-.04c1.963-.258,3.768-1.745,5.364-4.42,1.54-2.579,1.976-4.791,1.295-6.574a5.679,5.679,0,0,0-3.391-3.134c.871-2.794,1.932-4.6,5.691-5.559A7.841,7.841,0,0,1,90.864,5.6c2.6,3.717,3.525,10.411-1.658,18.082Z" transform="translate(-61.65 0)" fill="#416b24"/>
        </g>
      </g>
    </g>
  </g>
</svg>
