<svg xmlns="http://www.w3.org/2000/svg" xmlns:xlink="http://www.w3.org/1999/xlink" width="386.59" height="53.015" viewBox="0 0 386.59 53.015">
  <defs>
    <clipPath id="clip-path">
      <path id="Trazado_903782" data-name="Trazado 903782" d="M0,0H356.321c14.385,0,26.047,11.193,26.047,25s-11.662,25-26.047,25H0Z" fill="#f59f7c"/>
    </clipPath>
    <linearGradient id="linear-gradient" x1="-0.432" y1="0.5" x2="0.683" y2="0.5" gradientUnits="objectBoundingBox">
      <stop offset="0" stop-color="#cef0b6"/>
      <stop offset="1" stop-color="#fff"/>
    </linearGradient>
    <clipPath id="clip-path-2">
      <path id="Trazado_909070" data-name="Trazado 909070" d="M0,0,54.334-.6l-1.8,137.509-54.334.6Z" fill="#98e465"/>
    </clipPath>
    <clipPath id="clip-path-3">
      <rect id="Rectángulo_405042" data-name="Rectángulo 405042" width="40.01" height="34.707" fill="#166340"/>
    </clipPath>
  </defs>
  <g id="Grupo_1113212" data-name="Grupo 1113212" transform="translate(-285 -1964.013)">
    <g id="Grupo_1111688" data-name="Grupo 1111688" transform="translate(10712.556 11087.297)">
      <g id="Enmascarar_grupo_1101769" data-name="Enmascarar grupo 1101769" transform="translate(-10423.333 -9120.269)" clip-path="url(#clip-path)">
        <path id="Trazado_880766" data-name="Trazado 880766" d="M0,0H386.15c15.59,0,28.227,11.193,28.227,25S401.74,50,386.15,50H0Z" transform="translate(-1.716)" fill="url(#linear-gradient)"/>
        <path id="Trazado_903778" data-name="Trazado 903778" d="M80.712,8.778l17.436-7.5c8.175,13.069,10.548,25.209,7.048,36.085C99.968,53.609,82.78,63.514,64.71,69.931c17.237-2.515,38.531-8.47,48.731-22.485,3.321-4.565,5.073-9.541,6.62-13.933,2.407-6.84,5.4-15.35,15.973-16.132,11.273-.834,18.359,8.477,20.689,11.536,4.042,5.313,7.878,12.284,11.586,19.024a186.526,186.526,0,0,0,9.516,16.08,28.45,28.45,0,0,0,5.383,6.2C185.46,68.259,191.84,60.436,199,31.28l19.36,3.756c-4.352,17.717-8.96,30.371-14.09,38.688-2.034,3.3-8.227,13.343-20.066,13.613-15.628.355-24.452-15.694-33.8-32.685-2.966-5.393-5.767-10.486-8.543-14.586-.855-1.265-1.608-2.283-2.262-3.1-.2.566-.4,1.127-.583,1.642-1.789,5.09-4.019,11.424-8.666,17.807C119.7,71.049,99.544,81.213,72.062,85.8c-21.379,3.571-43.309,3.057-55.56.965-4.04-.69-13.5-2.3-15.1-9.356-.666-2.922.351-6.966,5.205-9.559a26.106,26.106,0,0,1,5.142-1.947c3.057-.869,7.194-1.742,11.979-2.755,19.714-4.166,56.4-11.922,62.383-30.509,2.149-6.678.334-14.707-5.4-23.864" transform="translate(166.184 -42.114) rotate(-4)" fill="#f59f7c" opacity="0.12"/>
        <g id="Grupo_1111662" data-name="Grupo 1111662" transform="translate(14.909 1.673)">
          <path id="Trazado_903774" data-name="Trazado 903774" d="M39.126,108.5c-.093-.07-.183-.143-.268-.219a6.876,6.876,0,0,1-2.04-4.032c-.339-1.8-.2-3.892,1.425-5.091a2.959,2.959,0,0,1,2.3-.571,2.534,2.534,0,0,1,1.685,1.386,7.4,7.4,0,0,1,.521,2c.269,1.48,1.561,3.375,1.5,4.805-.057,1.282-1.8,2.535-3.276,2.449a3.443,3.443,0,0,1-1.848-.729" transform="translate(-36.667 -65.329)" fill="#d4f989"/>
          <path id="Trazado_903776" data-name="Trazado 903776" d="M181.983,133.866a2.615,2.615,0,0,1-.25,1.35,9.222,9.222,0,0,1-2.077,2.719,5.918,5.918,0,0,1-2.04,1.274,3.608,3.608,0,0,1-2.485-.005,1.744,1.744,0,0,1-1.193-1.75,2.415,2.415,0,0,1,1.243-1.478,19.566,19.566,0,0,0,1.805-1.07,11.88,11.88,0,0,0,1.289-1.331,3.422,3.422,0,0,1,1.583-1.045c1.425-.375,2.044.415,2.125,1.335" transform="translate(-143.11 -98.579)" fill="#d4f989"/>
          <path id="Trazado_903777" data-name="Trazado 903777" d="M196.829,59.293a5.024,5.024,0,0,1-2.511,4.974,5.759,5.759,0,0,1-4.344.3c-4.73-1.6-9.286-9.208-9.407-13.358-.246-8.46,13.475,1.8,15.172,4.452a7.457,7.457,0,0,1,1.09,3.626" transform="translate(-178.008 -47.933)" fill="#d4f989"/>
        </g>
        <g id="Grupo_1111666" data-name="Grupo 1111666" transform="translate(-0.377 -51.698) rotate(4)">
          <g id="Grupo_1111573" data-name="Grupo 1111573" clip-path="url(#clip-path-2)">
            <path id="Trazado_903702" data-name="Trazado 903702" d="M29.564,135.93c.013-2.229-.222-7.178-.538-12.774,9.214-.147,22-9.7,21.668-26.138.137-3.163-14.025-2.638-14.025-2.638S40.22,93.174,45.9,90.96c5.835-2.272,6.721-7-.8-6.693a37.062,37.062,0,0,0,7.99-4.559A38.735,38.735,0,0,0,48.4,58.631c-4.219-1.044-13.417-.468-13.417-.468S43.8,54.55,47.818,52.988c3.283-3.08.952-21.715-9.608-34.373a89.089,89.089,0,0,0-11.284.467,23.756,23.756,0,0,1,7.054-6.967C28.253.854,16.759-6.741,9.021,7.615s-7.767,25.55-7.767,25.55a51.522,51.522,0,0,1,10.4,4.316A58.334,58.334,0,0,0-.138,37.03,38.834,38.834,0,0,0,1.2,55.553c3.223,10.12,5.718,14.991,2.852,25.008S2.094,95.91,5.152,98.485C9.374,102.04,17.51,104.2,17.51,104.2a79.252,79.252,0,0,1-12.4.02C9.2,112.138,16.945,120.7,25.726,122.765c.382,8.47.151,9.378.6,13.427.17,1.525,3.228,1.058,3.235-.262" transform="translate(0.125 0.037)" fill="#98e465"/>
          </g>
        </g>
        <path id="Trazado_903783" data-name="Trazado 903783" d="M5.521,5.735q.005.1.006.2A2.636,2.636,0,0,1,4.21,8.442C2.176,9.266.923,6.328.448,4.508A7.974,7.974,0,0,1,.1,1.889c.305-3.759,3.461-.871,4.494,1a6.772,6.772,0,0,1,.93,2.849" transform="translate(11.485 13.049) rotate(-79)" fill="#d4f989"/>
      </g>
      <g id="Grupo_1111667" data-name="Grupo 1111667" transform="translate(-10427.556 -9085.021) rotate(-73)">
        <g id="Grupo_1111658" data-name="Grupo 1111658" transform="translate(0 0)" clip-path="url(#clip-path-3)">
          <path id="Trazado_903772" data-name="Trazado 903772" d="M39.569,29.382l0,0a3.083,3.083,0,0,0-1.1-1.076.47.47,0,0,0-.392-.028.46.46,0,0,0-.121.067,15.208,15.208,0,0,1-3.634,1.841,7.9,7.9,0,0,1-.841.244c-2,.123-6.393-.229-14.5-6.208C9.421,17.167,6.761,7.33,6.935,2.579A2.031,2.031,0,0,0,6.187.27a1.927,1.927,0,0,0-2.724.939l-.03.016c-4.91,10.821-5.815,20.768,5.857,28.97,10.41,7.315,20.969,3.869,24.455,2.466a19.083,19.083,0,0,0,5.974-1.468.451.451,0,0,0,.289-.374,2.52,2.52,0,0,0-.437-1.436" transform="translate(0 0)" fill="#166340"/>
        </g>
      </g>
    </g>
  </g>
</svg>
