<svg xmlns="http://www.w3.org/2000/svg" width="90" height="90" viewBox="0 0 90 90">
  <g id="Grupo_1113213" data-name="Grupo 1113213" transform="translate(-370.257 -2497)">
    <circle id="Elipse_12656" data-name="Elipse 12656" cx="45" cy="45" r="45" transform="translate(370.257 2497)" fill="#98e465"/>
    <g id="plaqueta" transform="translate(390.257 2517)">
      <path id="Trazado_908922" data-name="Trazado 908922" d="M42.207,7.241A24.724,24.724,0,0,0,7.241,42.207,24.724,24.724,0,0,0,42.207,7.241ZM42.3,9.464,39.883,11.88a3.921,3.921,0,1,1-5.545-5.545l1.868-1.868a23.292,23.292,0,0,1,3.91,2.8L37.694,9.69a.824.824,0,0,1-1.165-1.165l.55-.55A.724.724,0,0,0,36.054,6.95l-.55.55a2.273,2.273,0,0,0,3.214,3.214l2.456-2.456.008.008q.582.582,1.117,1.2ZM8.266,8.266q.779-.779,1.617-1.473l1.223,1.223a3.921,3.921,0,0,1-5.545,5.545l-.808-.808q.433-.72.92-1.411L6.726,12.4a2.273,2.273,0,0,0,3.838-2.04.724.724,0,1,0-1.422.275.824.824,0,0,1-1.392.741l-1.2-1.2a23.655,23.655,0,0,1,1.711-1.91Zm0,32.916q-.5-.5-.963-1.024h.389a2.273,2.273,0,0,0,0-4.545.724.724,0,1,0,0,1.449.824.824,0,0,1,0,1.648H6.115a23.1,23.1,0,0,1-2.689-4.567A3.9,3.9,0,0,1,4.6,33.964h3.1a3.921,3.921,0,0,1,1.066,7.694q-.248-.235-.492-.476ZM9.984,42.74A5.369,5.369,0,0,0,7.692,32.516H4.6a5.336,5.336,0,0,0-1.714.28A23.4,23.4,0,0,1,4.02,14.069l.517.517A5.369,5.369,0,1,0,12.13,6.992l-1.1-1.1A23.33,23.33,0,0,1,34.863,3.762L33.314,5.311A5.369,5.369,0,1,0,40.908,12.9l2.313-2.313a23.287,23.287,0,0,1,.057,28.19l-1.463-1.463a5.369,5.369,0,1,0-7.594,7.594l.731.731a23.322,23.322,0,0,1-24.969-2.9Zm31.2-1.558a23.636,23.636,0,0,1-2.268,1.994L37.435,41.7A.824.824,0,0,1,38.6,40.532a.724.724,0,0,0,1.024-1.024,2.273,2.273,0,0,0-3.214,3.214l1.315,1.315q-.7.475-1.435.9l-1.045-1.045a3.921,3.921,0,1,1,5.545-5.545l1.571,1.571Q41.8,40.566,41.182,41.182Z" transform="translate(0)" fill="#416b24"/>
      <path id="Trazado_908923" data-name="Trazado 908923" d="M162.622,147.794A2.282,2.282,0,0,0,164,146.56a2.342,2.342,0,0,0-1.014-2.942l-2.244-1.3a.087.087,0,0,1-.028-.028,7.714,7.714,0,0,0,0-3.387.058.058,0,0,1,.028-.033l2.244-1.3A2.342,2.342,0,0,0,164,134.637a2.273,2.273,0,0,0-3.21-1.038l-2.328,1.344a.081.081,0,0,1-.039.01,7.7,7.7,0,0,0-2.926-1.692.063.063,0,0,1-.014-.042v-2.6a2.337,2.337,0,0,0-1.9-2.325,2.274,2.274,0,0,0-2.649,2.242v2.684a.262.262,0,0,1-.008.038A7.707,7.707,0,0,0,148,134.95a.058.058,0,0,1-.042-.008l-2.256-1.3a2.337,2.337,0,0,0-2.962.48,2.274,2.274,0,0,0,.617,3.415l2.321,1.34a.087.087,0,0,1,.028.028,7.714,7.714,0,0,0,0,3.387.057.057,0,0,1-.028.033l-2.244,1.3a2.342,2.342,0,0,0-1.014,2.942,2.273,2.273,0,0,0,3.21,1.039l2.328-1.344a.081.081,0,0,1,.039-.01,7.7,7.7,0,0,0,2.926,1.692.063.063,0,0,1,.014.042v2.6a2.267,2.267,0,0,0,2.269,2.355,2.272,2.272,0,0,0,2.276-2.272v-2.684a.262.262,0,0,1,.008-.038,7.707,7.707,0,0,0,2.929-1.693.058.058,0,0,1,.042.008l2.328,1.344A2.277,2.277,0,0,0,162.622,147.794ZM159.184,145a1.474,1.474,0,0,0-1.747.181,6.264,6.264,0,0,1-2.379,1.376,1.491,1.491,0,0,0-1.027,1.422v2.684a.825.825,0,0,1-.968.812.89.89,0,0,1-.68-.9v-2.6a1.491,1.491,0,0,0-1.027-1.422,6.264,6.264,0,0,1-2.379-1.376,1.451,1.451,0,0,0-.988-.386,1.515,1.515,0,0,0-.758.205l-2.328,1.344a.825.825,0,0,1-1.166-.38.894.894,0,0,1,.418-1.092l2.244-1.3a1.474,1.474,0,0,0,.717-1.6,6.278,6.278,0,0,1,0-2.754,1.474,1.474,0,0,0-.717-1.6l-2.321-1.34a.825.825,0,0,1-.22-1.244.89.89,0,0,1,1.115-.142l2.256,1.3a1.474,1.474,0,0,0,1.747-.181,6.264,6.264,0,0,1,2.379-1.376,1.491,1.491,0,0,0,1.027-1.422v-2.684a.825.825,0,0,1,.968-.812.89.89,0,0,1,.68.9v2.6a1.491,1.491,0,0,0,1.027,1.422,6.264,6.264,0,0,1,2.379,1.376,1.474,1.474,0,0,0,1.747.181l2.328-1.344a.824.824,0,0,1,1.166.38.894.894,0,0,1-.418,1.092l-2.244,1.3a1.474,1.474,0,0,0-.717,1.6,6.278,6.278,0,0,1,0,2.754,1.474,1.474,0,0,0,.717,1.6l2.244,1.3a.894.894,0,0,1,.418,1.092.825.825,0,0,1-1.166.38Z" transform="translate(-128.484 -115.875)" fill="#416b24"/>
      <path id="Trazado_908924" data-name="Trazado 908924" d="M215.26,225.846a3.147,3.147,0,0,1-4.45-4.45.724.724,0,0,0-1.024-1.024,4.6,4.6,0,0,0,6.5,6.5.724.724,0,0,0-1.025-1.024Z" transform="translate(-188.311 -198.897)" fill="#416b24"/>
      <path id="Trazado_908925" data-name="Trazado 908925" d="M194.66,60.658a2.273,2.273,0,1,0-2.273-2.273A2.275,2.275,0,0,0,194.66,60.658Zm0-3.1a.824.824,0,1,1-.824.824A.825.825,0,0,1,194.66,57.562Z" transform="translate(-173.807 -50.694)" fill="#416b24"/>
      <path id="Trazado_908926" data-name="Trazado 908926" d="M411.1,269.078a2.273,2.273,0,1,0-2.273-2.273A2.275,2.275,0,0,0,411.1,269.078Zm0-3.1a.824.824,0,1,1-.824.824A.825.825,0,0,1,411.1,265.982Z" transform="translate(-369.34 -238.985)" fill="#416b24"/>
      <path id="Trazado_908927" data-name="Trazado 908927" d="M202.677,408.823a2.273,2.273,0,1,0,2.273,2.273A2.275,2.275,0,0,0,202.677,408.823Zm0,3.1a.824.824,0,1,1,.824-.824A.825.825,0,0,1,202.677,411.92Z" transform="translate(-181.049 -369.34)" fill="#416b24"/>
      <path id="Trazado_908928" data-name="Trazado 908928" d="M74.418,232.468a2.273,2.273,0,1,0,2.273,2.273A2.275,2.275,0,0,0,74.418,232.468Zm0,3.1a.824.824,0,1,1,.824-.824A.825.825,0,0,1,74.418,235.565Z" transform="translate(-65.177 -210.017)" fill="#416b24"/>
    </g>
  </g>
</svg>
