<svg xmlns="http://www.w3.org/2000/svg" width="78.333" height="80.945" viewBox="0 0 78.333 80.945">
  <g id="estandar" transform="translate(-2 -1)">
    <g id="Grupo_1113301" data-name="Grupo 1113301" transform="translate(3.306 2.306)">
      <path id="Trazado_910535" data-name="Trazado 910535" d="M17,46.778V74.195a5.222,5.222,0,0,0,5.222,5.222h47a5.222,5.222,0,0,0,5.222-5.222V10.222A5.222,5.222,0,0,0,69.222,5h-47A5.222,5.222,0,0,0,17,10.222V46.778Z" transform="translate(1.278 -1.083)" fill="#953528"/>
      <path id="Trazado_910536" data-name="Trazado 910536" d="M68.153,5h-47a5.157,5.157,0,0,0-.638.064c0,.2-.014.392-.014.589A61.363,61.363,0,0,0,73.375,66.416V10.222A5.222,5.222,0,0,0,68.153,5Z" transform="translate(2.347 -1.083)" fill="#c64635"/>
      <path id="Trazado_910537" data-name="Trazado 910537" d="M21,55.129V70.361a2.61,2.61,0,0,0,2.611,2.611H65.389A2.61,2.61,0,0,0,68,70.361V11.611A2.61,2.61,0,0,0,65.389,9H23.611A2.61,2.61,0,0,0,21,11.611V55.129Z" transform="translate(2.5 0.139)" fill="#d9d5ca"/>
      <path id="Trazado_910538" data-name="Trazado 910538" d="M10.833,34,3,47.028l7.833-1.278,2.611,6.528,7.833-14.361Z" transform="translate(-3 7.778)" fill="#5490f5"/>
      <path id="Trazado_910539" data-name="Trazado 910539" d="M27.444,34l7.833,13.028L27.444,45.75l-2.611,6.528L17,37.917Z" transform="translate(1.278 7.778)" fill="#81b4fc"/>
      <path id="Trazado_910540" data-name="Trazado 910540" d="M21,13.361A61.4,61.4,0,0,0,68,64.232V11.611A2.61,2.61,0,0,0,65.389,9H23.611A2.61,2.61,0,0,0,21,11.611Z" transform="translate(2.5 0.139)" fill="#e8e4d8"/>
      <path id="Trazado_910541" data-name="Trazado 910541" d="M54.111,15.056h-23.5A2.61,2.61,0,0,1,28,12.444V4.611A2.61,2.61,0,0,1,30.611,2h23.5a2.61,2.61,0,0,1,2.611,2.611v7.833A2.61,2.61,0,0,1,54.111,15.056Z" transform="translate(4.639 -2)" fill="#d5d6d8"/>
      <path id="Trazado_910542" data-name="Trazado 910542" d="M36.334,28.667A15.539,15.539,0,0,1,20.667,44.333,15.667,15.667,0,1,1,36.334,28.667Z" transform="translate(-2.389 1.361)" fill="#ffc239"/>
      <circle id="Elipse_12710" data-name="Elipse 12710" cx="11.5" cy="11.5" r="11.5" transform="translate(6.694 18.694)" fill="#ffd55d"/>
      <g id="Grupo_1113288" data-name="Grupo 1113288" transform="translate(11.888 23.881)">
        <path id="Trazado_910543" data-name="Trazado 910543" d="M15.884,31.661a1.252,1.252,0,0,1-.209-.017,1.307,1.307,0,0,1-.958-.705l-2.611-5.222,2.336-1.168,1.8,3.6L24.1,20.292l1.846,1.846-9.139,9.139A1.3,1.3,0,0,1,15.884,31.661Z" transform="translate(-12.106 -20.292)" fill="#f4ac1c"/>
      </g>
      <path id="Trazado_910544" data-name="Trazado 910544" d="M53.194,2H31V8.528a2.61,2.61,0,0,0,2.611,2.611H55.806V4.611A2.61,2.61,0,0,0,53.194,2Z" transform="translate(5.556 -2)" fill="#f1f1f3"/>
      <g id="Grupo_1113289" data-name="Grupo 1113289" transform="translate(38.164 21.359)">
        <path id="Trazado_910545" data-name="Trazado 910545" d="M35.411,25.723a1.3,1.3,0,0,1-1-.47l-2.176-2.611,2.005-1.671,1.172,1.407,3.349-4.019,2.005,1.671-4.351,5.222a1.3,1.3,0,0,1-1,.47Z" transform="translate(-32.232 -18.36)" fill="#c64635"/>
      </g>
      <g id="Grupo_1113290" data-name="Grupo 1113290" transform="translate(38.164 34.416)">
        <path id="Trazado_910546" data-name="Trazado 910546" d="M35.411,35.723a1.308,1.308,0,0,1-1-.469l-2.176-2.611,2.005-1.671L35.41,32.38l3.349-4.019,2.005,1.671-4.351,5.222a1.305,1.305,0,0,1-1,.469Z" transform="translate(-32.232 -28.361)" fill="#c64635"/>
      </g>
      <g id="Grupo_1113291" data-name="Grupo 1113291" transform="translate(49.611 22.194)">
        <path id="Trazado_910547" data-name="Trazado 910547" d="M41,19H57.972v2.611H41Z" transform="translate(-41 -19)" fill="#88857c"/>
      </g>
      <g id="Grupo_1113292" data-name="Grupo 1113292" transform="translate(49.611 26.111)">
        <path id="Trazado_910548" data-name="Trazado 910548" d="M41,22H57.972v2.611H41Z" transform="translate(-41 -22)" fill="#88857c"/>
      </g>
      <g id="Grupo_1113293" data-name="Grupo 1113293" transform="translate(49.611 35.25)">
        <path id="Trazado_910549" data-name="Trazado 910549" d="M41,29H57.972v2.611H41Z" transform="translate(-41 -29)" fill="#88857c"/>
      </g>
      <g id="Grupo_1113294" data-name="Grupo 1113294" transform="translate(49.611 39.167)">
        <path id="Trazado_910550" data-name="Trazado 910550" d="M41,32H57.972v2.611H41Z" transform="translate(-41 -32)" fill="#88857c"/>
      </g>
      <g id="Grupo_1113295" data-name="Grupo 1113295" transform="translate(38.164 47.47)">
        <path id="Trazado_910551" data-name="Trazado 910551" d="M35.411,45.723a1.308,1.308,0,0,1-1-.469l-2.176-2.611,2.005-1.672,1.172,1.407,3.349-4.019,2.005,1.672-4.351,5.222a1.305,1.305,0,0,1-1,.469Z" transform="translate(-32.232 -38.36)" fill="#c64635"/>
      </g>
      <g id="Grupo_1113296" data-name="Grupo 1113296" transform="translate(38.164 60.526)">
        <path id="Trazado_910552" data-name="Trazado 910552" d="M35.411,55.723a1.308,1.308,0,0,1-1-.469l-2.176-2.611,2.005-1.672,1.172,1.407,3.349-4.019,2.005,1.672-4.351,5.222a1.305,1.305,0,0,1-1,.469Z" transform="translate(-32.232 -48.36)" fill="#c64635"/>
      </g>
      <g id="Grupo_1113297" data-name="Grupo 1113297" transform="translate(49.611 48.306)">
        <path id="Trazado_910553" data-name="Trazado 910553" d="M41,39H57.972v2.611H41Z" transform="translate(-41 -39)" fill="#88857c"/>
      </g>
      <g id="Grupo_1113298" data-name="Grupo 1113298" transform="translate(49.611 52.222)">
        <path id="Trazado_910554" data-name="Trazado 910554" d="M41,42H57.972v2.611H41Z" transform="translate(-41 -42)" fill="#88857c"/>
      </g>
      <g id="Grupo_1113299" data-name="Grupo 1113299" transform="translate(49.611 61.361)">
        <path id="Trazado_910555" data-name="Trazado 910555" d="M41,49H57.972v2.611H41Z" transform="translate(-41 -49)" fill="#88857c"/>
      </g>
      <g id="Grupo_1113300" data-name="Grupo 1113300" transform="translate(49.611 65.278)">
        <path id="Trazado_910556" data-name="Trazado 910556" d="M41,52H57.972v2.611H41Z" transform="translate(-41 -52)" fill="#88857c"/>
      </g>
    </g>
    <g id="Grupo_1113302" data-name="Grupo 1113302" transform="translate(2 1)">
      <path id="Trazado_910557" data-name="Trazado 910557" d="M20.056,41.111A13.056,13.056,0,1,0,7,28.056,13.07,13.07,0,0,0,20.056,41.111Zm0-23.5A10.444,10.444,0,1,1,9.611,28.056,10.457,10.457,0,0,1,20.056,17.611Z" transform="translate(-0.472 3.278)"/>
      <path id="Trazado_910558" data-name="Trazado 910558" d="M15.675,31.644a1.252,1.252,0,0,0,.209.017,1.306,1.306,0,0,0,.923-.383l9.139-9.139L24.1,20.293l-7.858,7.858-1.8-3.6-2.336,1.168,2.611,5.222a1.3,1.3,0,0,0,.958.7Z" transform="translate(1.088 4.895)"/>
      <path id="Trazado_910559" data-name="Trazado 910559" d="M2.225,57.843a1.306,1.306,0,0,0,1.291.557l6.8-1.11,2.222,5.555a1.306,1.306,0,0,0,1.135.819l.078,0a1.305,1.305,0,0,0,1.146-.68l5.382-9.867v22.3a6.535,6.535,0,0,0,6.528,6.528h47a6.535,6.535,0,0,0,6.528-6.528V11.444a6.535,6.535,0,0,0-6.528-6.528H65.972A3.921,3.921,0,0,0,62.056,1h-23.5a3.921,3.921,0,0,0-3.917,3.917H26.806a6.535,6.535,0,0,0-6.528,6.528v3.983a17.1,17.1,0,0,0-15.667,16.9,16.625,16.625,0,0,0,4.8,11.888c.026.026.055.048.081.074L2.187,56.438a1.305,1.305,0,0,0,.038,1.4ZM38.556,16.667h23.5a3.921,3.921,0,0,0,3.917-3.917h5.222A1.308,1.308,0,0,1,72.5,14.056v58.75a1.307,1.307,0,0,1-1.306,1.306H29.417a1.307,1.307,0,0,1-1.306-1.306V62.694l.159.292a1.305,1.305,0,0,0,1.146.68l.078,0a1.3,1.3,0,0,0,1.135-.819l2.222-5.555,6.8,1.11a1.306,1.306,0,0,0,1.329-1.962L33.683,44.3a16.821,16.821,0,0,0,4.872-11.975A17.07,17.07,0,0,0,28.111,16.677V14.056a1.308,1.308,0,0,1,1.306-1.306h5.222a3.921,3.921,0,0,0,3.917,3.917ZM31.673,46.026l5.618,9.343-5.053-.825a1.3,1.3,0,0,0-1.423.8L29.234,59.3,23.71,49.173a16.632,16.632,0,0,0,7.963-3.146Zm42.133-38.5a3.921,3.921,0,0,1,3.917,3.917V75.417a3.921,3.921,0,0,1-3.917,3.917h-47a3.921,3.921,0,0,1-3.917-3.917v-22.3L25.5,57.907v14.9a3.921,3.921,0,0,0,3.917,3.917H71.195a3.921,3.921,0,0,0,3.917-3.917V14.056a3.921,3.921,0,0,0-3.917-3.917H65.972V7.528ZM37.25,4.917a1.308,1.308,0,0,1,1.306-1.306h23.5a1.308,1.308,0,0,1,1.306,1.306V12.75a1.308,1.308,0,0,1-1.306,1.306h-23.5A1.308,1.308,0,0,1,37.25,12.75ZM26.806,7.528h7.833v2.611H29.417A3.921,3.921,0,0,0,25.5,14.056v1.783a16.872,16.872,0,0,0-2.611-.411V11.444A3.921,3.921,0,0,1,26.806,7.528ZM7.222,32.345a14.361,14.361,0,1,1,28.722-.007,14.231,14.231,0,0,1-4.192,10.212,14.51,14.51,0,0,1-20.478-.171A14.026,14.026,0,0,1,7.222,32.345ZM11.511,46a17.034,17.034,0,0,0,7.957,3.154L13.933,59.3,12.352,55.35a1.307,1.307,0,0,0-1.423-.8l-5.053.825Z" transform="translate(-2 -1)"/>
      <path id="Trazado_910560" data-name="Trazado 910560" d="M35.411,25.723a1.3,1.3,0,0,0,1-.47l4.351-5.222L38.759,18.36l-3.349,4.019-1.172-1.407-2.005,1.671,2.176,2.611a1.3,1.3,0,0,0,1,.47Z" transform="translate(7.238 4.304)"/>
      <path id="Trazado_910561" data-name="Trazado 910561" d="M35.411,35.723a1.308,1.308,0,0,0,1-.469l4.351-5.222-2.005-1.671L35.411,32.38l-1.172-1.407-2.005,1.671,2.176,2.611a1.3,1.3,0,0,0,1,.469Z" transform="translate(7.238 7.36)"/>
      <path id="Trazado_910562" data-name="Trazado 910562" d="M41,19H57.972v2.611H41Z" transform="translate(9.917 4.5)"/>
      <path id="Trazado_910563" data-name="Trazado 910563" d="M41,22H57.972v2.611H41Z" transform="translate(9.917 5.417)"/>
      <path id="Trazado_910564" data-name="Trazado 910564" d="M41,29H57.972v2.611H41Z" transform="translate(9.917 7.556)"/>
      <path id="Trazado_910565" data-name="Trazado 910565" d="M41,32H57.972v2.611H41Z" transform="translate(9.917 8.472)"/>
      <path id="Trazado_910566" data-name="Trazado 910566" d="M35.411,45.723a1.308,1.308,0,0,0,1-.469l4.351-5.222L38.759,38.36l-3.349,4.019-1.172-1.407-2.005,1.672,2.176,2.611a1.3,1.3,0,0,0,1,.469Z" transform="translate(7.238 10.416)"/>
      <path id="Trazado_910567" data-name="Trazado 910567" d="M35.411,55.723a1.308,1.308,0,0,0,1-.469l4.351-5.222L38.759,48.36l-3.349,4.019-1.172-1.407-2.005,1.672,2.176,2.611a1.3,1.3,0,0,0,1,.469Z" transform="translate(7.238 13.471)"/>
      <path id="Trazado_910568" data-name="Trazado 910568" d="M41,39H57.972v2.611H41Z" transform="translate(9.917 10.611)"/>
      <path id="Trazado_910569" data-name="Trazado 910569" d="M41,42H57.972v2.611H41Z" transform="translate(9.917 11.528)"/>
      <path id="Trazado_910570" data-name="Trazado 910570" d="M41,49H57.972v2.611H41Z" transform="translate(9.917 13.667)"/>
      <path id="Trazado_910571" data-name="Trazado 910571" d="M41,52H57.972v2.611H41Z" transform="translate(9.917 14.583)"/>
    </g>
  </g>
</svg>
