<svg xmlns="http://www.w3.org/2000/svg" xmlns:xlink="http://www.w3.org/1999/xlink" width="151" height="151" viewBox="0 0 151 151">
  <defs>
    <linearGradient id="linear-gradient" x1="0.5" x2="0.5" y2="1" gradientUnits="objectBoundingBox">
      <stop offset="0" stop-color="#d4f989"/>
      <stop offset="1" stop-color="#98e465"/>
    </linearGradient>
    <filter id="Elipse_12701" x="0" y="0" width="151" height="151" filterUnits="userSpaceOnUse">
      <feOffset dy="3" input="SourceAlpha"/>
      <feGaussianBlur stdDeviation="3" result="blur"/>
      <feFlood flood-opacity="0.161"/>
      <feComposite operator="in" in2="blur"/>
      <feComposite in="SourceGraphic"/>
    </filter>
    <filter id="Elipse_11661" x="7" y="6.69" width="136" height="136" filterUnits="userSpaceOnUse">
      <feOffset dy="3" input="SourceAlpha"/>
      <feGaussianBlur stdDeviation="3" result="blur-2"/>
      <feFlood flood-opacity="0.161"/>
      <feComposite operator="in" in2="blur-2"/>
      <feComposite in="SourceGraphic"/>
    </filter>
  </defs>
  <g id="Grupo_1113266" data-name="Grupo 1113266" transform="translate(-361 -6146.658)">
    <g transform="matrix(1, 0, 0, 1, 361, 6146.66)" filter="url(#Elipse_12701)">
      <circle id="Elipse_12701-2" data-name="Elipse 12701" cx="66.5" cy="66.5" r="66.5" transform="translate(9 6)" fill="url(#linear-gradient)"/>
    </g>
    <g transform="matrix(1, 0, 0, 1, 361, 6146.66)" filter="url(#Elipse_11661)">
      <circle id="Elipse_11661-2" data-name="Elipse 11661" cx="59" cy="59" r="59" transform="translate(16 12.69)" fill="#fff"/>
    </g>
    <g id="platano_3_" data-name="platano (3)" transform="translate(399.842 6182.265)">
      <path id="Trazado_908988" data-name="Trazado 908988" d="M14.76,41.837,3.755,52.842a1.164,1.164,0,0,0,0,1.646l8.829,8.829a1.164,1.164,0,0,0,1.646,0l3.833-3.832,1.164,1.164,6.3-6.3.718-1.028Z" transform="translate(0.164 6.441)" fill="#fbdfb2"/>
      <path id="Trazado_908989" data-name="Trazado 908989" d="M67.1,3.582C55.172,7.442-2.383,27.557,13.6,51.551l7.045,6.921C44.717,74.865,64.73,17.008,68.56,5.04A1.164,1.164,0,0,0,67.1,3.582Z" transform="translate(1.377 0.164)" fill="#912044"/>
      <path id="Trazado_908990" data-name="Trazado 908990" d="M30.484,33.482,17,46.966l2.308,2.308,13.5-13.464a1.645,1.645,0,0,0-2.324-2.328Z" transform="translate(2.39 4.993)" fill="#fbb03b"/>
      <path id="Trazado_908991" data-name="Trazado 908991" d="M29.457,46.717l7.352-6.8A1.647,1.647,0,1,0,34.572,37.5l-7.6,7.037a17.318,17.318,0,0,1-4.624,3.07l-3.363,1.01,2.328,2.328A17.319,17.319,0,0,0,29.457,46.717Z" transform="translate(2.715 5.653)" fill="#fbb03b"/>
      <path id="Trazado_908992" data-name="Trazado 908992" d="M52.43,23.051C47.012,19.842,30.586,35.57,30.586,35.57S44.8,20.789,53.814,20.258a1.164,1.164,0,0,1,1.223,1.157,27.536,27.536,0,0,1-2.821,12.509s2.553-9.486.214-10.873Z" transform="translate(4.615 2.905)" fill="#5c142b"/>
      <path id="Trazado_908993" data-name="Trazado 908993" d="M54.614,9.62c-2.91-3.557-20.1,5.134-20.1,5.134L49.3,12.206a1.164,1.164,0,0,1,1.28,1.553c-3.105,8.323-9.79,13.821-19.988,23.693L44.3,26.657a33.084,33.084,0,0,0,9.3-11.282c1.236-2.509,1.868-4.707,1.013-5.754Z" transform="translate(4.616 1.022)" fill="#5c142b"/>
      <path id="Trazado_908994" data-name="Trazado 908994" d="M51.644,11.858a15.225,15.225,0,0,1-1.28,3.4l8.771-2.633c.406-1.1.781-2.15,1.123-3.121Z" transform="translate(7.856 1.143)" fill="#5c142b"/>
      <path id="Trazado_908995" data-name="Trazado 908995" d="M61.873,5.04A1.164,1.164,0,0,0,60.41,3.582c-1.913.619-5,1.66-8.776,3.064l6.625-.333A1.164,1.164,0,0,1,59.481,7.5l-.116,4.888c1.127-3.125,1.975-5.685,2.509-7.352Z" transform="translate(8.064 0.164)" fill="#9e264c"/>
      <path id="Trazado_908996" data-name="Trazado 908996" d="M27.942,30.33a1.647,1.647,0,0,0-2.328,0l-7.082,7.081a18.585,18.585,0,0,0-4.254,8.583l2.271.137.824-1.649a17.312,17.312,0,0,1,3.246-4.5l7.323-7.323a1.647,1.647,0,0,0,0-2.328Z" transform="translate(1.944 4.476)" fill="#fbb03b"/>
      <path id="Trazado_908997" data-name="Trazado 908997" d="M0,0H3.291V5.761H0Z" transform="translate(6.58 56.609) rotate(-45)" fill="#dbc39c"/>
      <path id="Trazado_908998" data-name="Trazado 908998" d="M0,0H3.291V6.584H0Z" transform="translate(11.236 63.592) rotate(-45)" fill="#dbc39c"/>
      <g id="Grupo_1112330" data-name="Grupo 1112330" transform="translate(16.223 37.574)">
        <path id="Trazado_908999" data-name="Trazado 908999" d="M22.846,32.64l-4.313,4.313a18.585,18.585,0,0,0-4.254,8.583l2.271.137.824-1.649a17.312,17.312,0,0,1,3.246-4.5l4.554-4.555Z" transform="translate(-14.279 -32.64)" fill="#fbdfb2"/>
        <path id="Trazado_909000" data-name="Trazado 909000" d="M26.893,36.5,17,46.393,19.308,48.7l9.908-9.877Z" transform="translate(-13.833 -32.008)" fill="#fbdfb2"/>
        <path id="Trazado_909001" data-name="Trazado 909001" d="M33.307,42.619l-2.328-2.328L26.972,44a17.318,17.318,0,0,1-4.624,3.07l-3.363,1.01,2.328,2.328a17.319,17.319,0,0,0,8.147-4.227Z" transform="translate(-13.508 -31.387)" fill="#fbdfb2"/>
      </g>
      <path id="Trazado_909002" data-name="Trazado 909002" d="M68.117,2.639c-11.588,3.75-49.891,17.392-56.2,35.506a15.229,15.229,0,0,0,1.592,13.384l-.766.766a1.164,1.164,0,1,0,1.646,1.646l2.669-2.664L22.4,56.614l-2.669,2.669a1.164,1.164,0,1,0,1.646,1.646l.815-.815c.539.333,1.079.638,1.622.905l-4.423,4.423-5-5a1.164,1.164,0,0,0-1.646,0l-2.328,2.328a1.164,1.164,0,1,0,1.646,1.646l1.5-1.5,3.01,3.01-3.01,3.01L4.742,60.106l4.174-4.174,1.5,1.5a1.164,1.164,0,1,0,1.646-1.646l-1.5-1.5,1.5-1.5a1.164,1.164,0,1,0-1.646-1.646L3.1,58.46a2.328,2.328,0,0,0,0,3.291l8.829,8.829a2.328,2.328,0,0,0,3.291,0l3.01-3.01.341.341a1.164,1.164,0,0,0,1.646,0l5.936-5.936a14.7,14.7,0,0,0,4.519.726,15.307,15.307,0,0,0,5-.866c18.1-6.231,31.653-44.652,35.374-56.277a2.321,2.321,0,0,0-2.928-2.92ZM60.078,22.63a2.26,2.26,0,0,0-1.718-.621,12.012,12.012,0,0,0-2.228.368,64.166,64.166,0,0,0,3.375-7.6c1.629-.773,4.709-2.158,6.934-2.933-1.419,3.93-3.333,8.893-5.663,14.149.034-.667.043-1.236.041-1.67A2.342,2.342,0,0,0,60.078,22.63Zm8.75-17.782c-.314.983-.8,2.453-1.429,4.276a47.62,47.62,0,0,0-6.857,2.6,2.3,2.3,0,0,0-2.267-2.759c-.138,0-.482,0-.962.006,5.224-2.032,9.446-3.453,11.516-4.127ZM14.12,38.911c3.853-11.066,21.415-20.682,35.87-26.933a38.817,38.817,0,0,1,8.154-.685h.128c-.128.384-.405,1.2-.79,2.242a48.175,48.175,0,0,1-4.858,10.113C45.265,27.053,37.313,34.7,35.009,37.011a2.809,2.809,0,0,0-2.958.641L20.529,49.174a16.11,16.11,0,0,1,2.86-3.9l7.322-7.322a2.81,2.81,0,0,0-3.972-3.974l-7.084,7.084A19.031,19.031,0,0,0,15.2,49.823a12.721,12.721,0,0,1-1.08-10.912Zm10.267,16.4-.489-.489,1.5-.452a.941.941,0,0,0,.144-.055,18.4,18.4,0,0,0,4.936-3.276L38.075,44a.482.482,0,1,1,.654.708l-7.352,6.8a16.162,16.162,0,0,1-6.99,3.794ZM21.7,52.622l-.663-.663L33.7,39.3a.482.482,0,1,1,.683.681ZM17.9,48.828A15.173,15.173,0,0,1,21.3,42.711L28.38,35.63a.482.482,0,0,1,.342-.142.482.482,0,0,1,.341.823l-7.323,7.323a18.475,18.475,0,0,0-3.464,4.805l-.254.507ZM34.916,59.64a12.722,12.722,0,0,1-11.032-1.217l.784-.783a18.489,18.489,0,0,0,8.295-4.413l7.348-6.8A2.809,2.809,0,0,0,36.5,42.3l-7.6,7.035A16.153,16.153,0,0,1,26.427,51.2l9.6-9.576a2.806,2.806,0,0,0,.637-2.97c2.258-2.247,10.28-9.941,17.2-13.035.029-.014.057-.024.086-.04a13.55,13.55,0,0,1,4.539-1.255,27.146,27.146,0,0,1-2.3,11.189C50.4,46.539,43.062,56.833,34.916,59.64Z" transform="translate(0)"/>
    </g>
  </g>
</svg>
