<?xml version="1.0" encoding="utf-8"?>
<!-- Generator: Adobe Illustrator 28.0.0, SVG Export Plug-In . SVG Version: 6.00 Build 0)  -->
<svg version="1.1" xmlns="http://www.w3.org/2000/svg" xmlns:xlink="http://www.w3.org/1999/xlink" x="0px" y="0px"
	 viewBox="0 0 65.2 56.6" style="enable-background:new 0 0 65.2 56.6;" xml:space="preserve">
<style type="text/css">
	.st0{fill:#D4F989;}
	.st1{clip-path:url(#SVGID_00000000222226439849499200000000232180677111287728_);}
	.st2{fill:#98E465;}
	.st3{clip-path:url(#SVGID_00000005224899605864052280000008400930510532896933_);}
	.st4{fill:#166340;}
</style>
<g id="Capa_1">
	<g id="Grupo_1113212" transform="translate(-277.46 -1914.607)">
		<g id="Grupo_1111688" transform="translate(10712.556 11087.297)">
			<g id="Grupo_1113373" transform="translate(-10423.333 -9120.269)">
				<g id="Grupo_1111662" transform="translate(14.909 1.673)">
					<path id="Trazado_903774" class="st0" d="M0.1,1.4C0,1.3-0.1,1.2-0.2,1.2c-1.1-1.1-1.8-2.5-2-4C-2.6-4.7-2.4-6.8-0.8-8
						c0.7-0.5,1.5-0.7,2.3-0.6c0.7,0.2,1.4,0.7,1.7,1.4c0.3,0.6,0.4,1.3,0.5,2C4-3.7,5.2-1.8,5.2-0.3C5.1,0.9,3.4,2.2,1.9,2.1
						C1.2,2,0.6,1.8,0.1,1.4"/>
					<path id="Trazado_903776" class="st0" d="M36.5-6.5c0,0.5,0,0.9-0.2,1.4c-0.5,1-1.2,2-2.1,2.7c-0.6,0.6-1.3,1-2,1.3
						c-0.8,0.3-1.7,0.3-2.5,0c-0.7-0.2-1.2-1-1.2-1.8c0.2-0.6,0.6-1.2,1.2-1.5c0.6-0.3,1.2-0.7,1.8-1.1c0.5-0.4,0.9-0.9,1.3-1.3
						c0.4-0.5,1-0.9,1.6-1C35.8-8.2,36.4-7.4,36.5-6.5"/>
					<path id="Trazado_903777" class="st0" d="M16.4-30.4c0.2,2-0.7,4-2.5,5c-1.4,0.7-2.9,0.8-4.3,0.3c-4.7-1.6-9.3-9.2-9.4-13.4
						c-0.2-8.5,13.5,1.8,15.2,4.5C16-33,16.4-31.7,16.4-30.4"/>
				</g>
				<g id="Grupo_1111666" transform="translate(-0.377 -51.698) rotate(4)">
					<g>
						<defs>
							<polygon id="SVGID_1_" points="-5.3,-41.5 49,-42.1 47.2,95.4 -7.1,96 							"/>
						</defs>
						<clipPath id="SVGID_00000092416244830284272220000011596643634069928100_">
							<use xlink:href="#SVGID_1_"  style="overflow:visible;"/>
						</clipPath>
						<g id="Grupo_1111573" style="clip-path:url(#SVGID_00000092416244830284272220000011596643634069928100_);">
							<path id="Trazado_903702" class="st2" d="M24.4,94.4c0-2.2-0.2-7.2-0.5-12.8c9.2-0.1,22-9.7,21.7-26.1c0.1-3.2-14-2.6-14-2.6
								s3.6-1.2,9.2-3.4c5.8-2.3,6.7-7-0.8-6.7c2.8-1.2,5.5-2.7,8-4.6c0.5-7.3-1.2-14.6-4.7-21.1c-4.2-1-13.4-0.5-13.4-0.5
								s8.8-3.6,12.8-5.2c3.3-3.1,1-21.7-9.6-34.4c-3.8-0.1-7.5,0.1-11.3,0.5c1.8-2.8,4.2-5.2,7.1-7c-5.7-11.3-17.2-18.9-25-4.5
								S-3.9-8.3-3.9-8.3C-0.3-7.3,3.2-5.8,6.5-4C2.6-4.6-1.4-4.7-5.3-4.5C-6.4,1.7-5.9,8.1-4,14.1c3.2,10.1,5.7,15,2.9,25
								S-3.1,54.4,0,57c4.2,3.6,12.4,5.7,12.4,5.7c-4.1,0.3-8.3,0.3-12.4,0C4,70.7,11.8,79.2,20.5,81.3c0.4,8.5,0.2,9.4,0.6,13.4
								C21.3,96.2,24.4,95.8,24.4,94.4"/>
						</g>
					</g>
				</g>
				<path id="Trazado_903783" class="st0" d="M15.8-33.1c0.1,0,0.1,0,0.2,0c1,0.1,1.9,0.8,2.2,1.8c0.4,2.2-2.7,2.8-4.6,2.9
					c-0.9,0.1-1.8,0-2.6-0.2c-3.6-1-0.2-3.6,1.8-4.2C13.7-33,14.8-33.2,15.8-33.1"/>
			</g>
		</g>
		<g>
			<defs>
				
					<rect id="SVGID_00000150092104745839647720000003329940960337410185_" x="283" y="1926.5" transform="matrix(0.2924 -0.9563 0.9563 0.2924 -1644.4792 1665.3058)" width="40" height="34.7"/>
			</defs>
			<clipPath id="SVGID_00000039102708112431646010000006570734211010443675_">
				<use xlink:href="#SVGID_00000150092104745839647720000003329940960337410185_"  style="overflow:visible;"/>
			</clipPath>
			<g id="Grupo_1111658" style="clip-path:url(#SVGID_00000039102708112431646010000006570734211010443675_);">
				<path id="Trazado_903772" class="st4" d="M320.2,1928.6L320.2,1928.6c-0.5,0.1-1,0.4-1.4,0.7c-0.1,0.1-0.2,0.2-0.1,0.4
					c0,0,0,0.1,0,0.1c0.4,1.3,0.6,2.7,0.7,4c0,0.3,0,0.6,0,0.9c-0.5,1.9-2.1,6-10.2,12.1c-9.5,7.1-19.7,6.7-24.2,5.2
					c-0.7-0.5-1.7-0.5-2.4,0c-0.8,0.7-0.8,2-0.1,2.7c0.1,0.1,0.1,0.1,0.2,0.2l0,0c8.9,7.9,18.2,11.6,29.4,2.9
					c10-7.8,9.8-18.9,9.5-22.7c0.4-2,0.6-4.1,0.3-6.1c0-0.2-0.1-0.3-0.3-0.4C321.2,1928.5,320.7,1928.5,320.2,1928.6"/>
			</g>
		</g>
	</g>
</g>
<g id="Capa_2">
</g>
</svg>
