<?xml version="1.0" encoding="utf-8"?>
<!-- Generator: Adobe Illustrator 28.0.0, SVG Export Plug-In . SVG Version: 6.00 Build 0)  -->
<svg version="1.1" id="Capa_1" xmlns="http://www.w3.org/2000/svg" xmlns:xlink="http://www.w3.org/1999/xlink" x="0px" y="0px"
	 viewBox="0 0 45.4 39.3" style="enable-background:new 0 0 45.4 39.3;" xml:space="preserve">
<style type="text/css">
	.st0{clip-path:url(#SVGID_00000169551272163441310220000003710187170847963577_);}
	.st1{fill:#166340;}
</style>
<g>
	<defs>
		<rect id="SVGID_1_" x="5.3" y="-0.3" width="34.7" height="40"/>
	</defs>
	<clipPath id="SVGID_00000133508734582845361380000016957434588701622920_">
		<use xlink:href="#SVGID_1_"  style="overflow:visible;"/>
	</clipPath>
	<g id="Grupo_1111658" style="clip-path:url(#SVGID_00000133508734582845361380000016957434588701622920_);">
		<path id="Trazado_903772" class="st1" d="M34.7,0.1L34.7,0.1c-0.4,0.3-0.8,0.6-1.1,1.1c-0.1,0.1-0.1,0.3,0,0.4c0,0,0,0.1,0.1,0.1
			c0.8,1.1,1.4,2.3,1.8,3.6c0.1,0.3,0.2,0.6,0.2,0.8c0.1,2-0.2,6.4-6.2,14.5c-7.1,9.6-16.9,12.2-21.6,12c-0.9-0.3-1.8,0-2.3,0.7
			c-0.5,0.9-0.2,2.1,0.7,2.6c0.1,0,0.1,0.1,0.2,0.1l0,0c10.8,4.9,20.8,5.8,29-5.9C42.8,20,39.4,9.4,38,5.9c-0.2-2.1-0.7-4.1-1.5-6
			c-0.1-0.2-0.2-0.3-0.4-0.3C35.6-0.3,35.1-0.2,34.7,0.1"/>
	</g>
</g>
</svg>
