<svg xmlns="http://www.w3.org/2000/svg" xmlns:xlink="http://www.w3.org/1999/xlink" width="400" height="304.113" viewBox="0 0 400 304.113">
  <defs>
    <clipPath id="clip-path">
      <rect id="Rectángulo_405592" data-name="Rectángulo 405592" width="354.407" height="226.957" fill="none"/>
    </clipPath>
    <clipPath id="clip-path-3">
      <rect id="Rectángulo_405485" data-name="Rectángulo 405485" width="47.39" height="24.573" fill="none"/>
    </clipPath>
    <clipPath id="clip-path-4">
      <rect id="Rectángulo_405503" data-name="Rectángulo 405503" width="16.113" height="8.361" fill="none"/>
    </clipPath>
    <clipPath id="clip-path-5">
      <rect id="Rectángulo_405505" data-name="Rectángulo 405505" width="12.199" height="8.643" fill="none"/>
    </clipPath>
    <clipPath id="clip-path-6">
      <rect id="Rectángulo_405507" data-name="Rectángulo 405507" width="91.324" height="1.916" fill="none"/>
    </clipPath>
    <clipPath id="clip-path-9">
      <rect id="Rectángulo_405516" data-name="Rectángulo 405516" width="91.323" height="1.916" fill="none"/>
    </clipPath>
    <clipPath id="clip-path-10">
      <rect id="Rectángulo_405521" data-name="Rectángulo 405521" width="16.114" height="8.361" fill="none"/>
    </clipPath>
    <clipPath id="clip-path-15">
      <rect id="Rectángulo_405534" data-name="Rectángulo 405534" width="91.324" height="2.022" fill="none"/>
    </clipPath>
    <clipPath id="clip-path-18">
      <rect id="Rectángulo_405543" data-name="Rectángulo 405543" width="91.323" height="2.022" fill="none"/>
    </clipPath>
    <clipPath id="clip-path-22">
      <rect id="Rectángulo_405557" data-name="Rectángulo 405557" width="16.113" height="8.362" fill="none"/>
    </clipPath>
    <clipPath id="clip-path-28">
      <rect id="Rectángulo_405575" data-name="Rectángulo 405575" width="16.114" height="8.362" fill="none"/>
    </clipPath>
    <clipPath id="clip-path-31">
      <rect id="Rectángulo_405586" data-name="Rectángulo 405586" width="99.948" height="114.713" fill="none"/>
    </clipPath>
    <clipPath id="clip-path-32">
      <rect id="Rectángulo_405581" data-name="Rectángulo 405581" width="15.621" height="114.032" fill="none"/>
    </clipPath>
    <clipPath id="clip-path-33">
      <rect id="Rectángulo_405583" data-name="Rectángulo 405583" width="14.919" height="114.529" fill="none"/>
    </clipPath>
    <clipPath id="clip-path-34">
      <rect id="Rectángulo_405585" data-name="Rectángulo 405585" width="14.919" height="114.512" fill="none"/>
    </clipPath>
    <clipPath id="clip-path-35">
      <rect id="Rectángulo_405589" data-name="Rectángulo 405589" width="25.965" height="114.529" fill="none"/>
    </clipPath>
    <clipPath id="clip-path-37">
      <rect id="Rectángulo_405590" data-name="Rectángulo 405590" width="354.407" height="5.558" fill="none"/>
    </clipPath>
  </defs>
  <g id="Grupo_1112569" data-name="Grupo 1112569" transform="translate(-285 -5633.887)">
    <rect id="Rectángulo_401599" data-name="Rectángulo 401599" width="400" height="304.113" transform="translate(285 5633.887)" fill="#e4ebfe"/>
    <g id="Grupo_1112568" data-name="Grupo 1112568" transform="translate(300 5670.219)">
      <g id="Grupo_1112567" data-name="Grupo 1112567" clip-path="url(#clip-path)">
        <g id="Grupo_1112566" data-name="Grupo 1112566">
          <g id="Grupo_1112565" data-name="Grupo 1112565" clip-path="url(#clip-path)">
            <path id="Trazado_909178" data-name="Trazado 909178" d="M272.975,176.108c.666-15.856,8.524-28.691,18.6-30.8a13.508,13.508,0,0,1,2.953-.318h12.681v31.12Z" transform="translate(31.978 16.985)" fill="#ffc943"/>
            <path id="Trazado_909179" data-name="Trazado 909179" d="M252.227,152.838v23.955h-119.7c.022-.593-1.22-1.164-1.22-1.745,0-19.905.209-15.49-12.7-15.49-.215,0-.429.011-.65.023V139.147h75.246Z" transform="translate(13.818 16.3)" fill="#ffc943"/>
            <path id="Trazado_909180" data-name="Trazado 909180" d="M207.466,176.108c.666-15.856,8.523-28.691,18.6-30.8a13.507,13.507,0,0,1,2.953-.318H241.7v31.12Z" transform="translate(24.304 16.985)" fill="#8d7120"/>
            <path id="Trazado_909181" data-name="Trazado 909181" d="M297.661,102.383h-15.27c-4.074,0-9.9,3.378-12.966,7.514l-31.564,47.242-1.1,1.634c-3.061,4.135,6.659-.573,10.732-.573l27.809,4.586a30.732,30.732,0,0,1,3.66-5.647A18.635,18.635,0,0,1,289.38,150.3a13.235,13.235,0,0,1,2.952-.318h12.684l.037-36.19c0-6.271-3.318-11.4-7.391-11.4" transform="translate(27.667 11.994)" fill="#e58303"/>
            <rect id="Rectángulo_405480" data-name="Rectángulo 405480" width="18.288" height="9.506" transform="translate(177.151)" fill="#2f3030"/>
            <path id="Trazado_909182" data-name="Trazado 909182" d="M125.077,124.875h-9.34a4.491,4.491,0,0,0-4.492,4.491V133.8a4.491,4.491,0,0,0,4.492,4.491h16.2V124.875Z" transform="translate(13.032 14.628)" fill="#252728"/>
            <path id="Trazado_909183" data-name="Trazado 909183" d="M142.376,183.31c0,9.957-1.059,18.352-9.983,19.655-.812.118-7.459.012-8.3.012-10.1,0-18.283-8.805-18.283-19.667s8.185-19.668,18.283-19.668,18.283,8.806,18.283,19.668" transform="translate(12.395 19.17)" fill="#252728"/>
            <path id="Trazado_909184" data-name="Trazado 909184" d="M149.235,183.31c0,10.862-8.185,19.667-18.283,19.667s-18.283-8.805-18.283-19.667,8.186-19.668,18.283-19.668,18.283,8.806,18.283,19.668" transform="translate(13.199 19.17)" fill="#2f3030"/>
            <path id="Trazado_909185" data-name="Trazado 909185" d="M139.532,182.383c0,5.976-4.022,10.818-8.984,10.818-.206,0-.409-.008-.612-.026a7.771,7.771,0,0,1-3.357-1.084,11.9,11.9,0,0,1,0-19.418,7.825,7.825,0,0,1,3.165-1.068,8.008,8.008,0,0,1,.8-.042c4.962,0,8.984,4.844,8.984,10.82" transform="translate(14.24 20.098)" fill="#505354"/>
            <path id="Trazado_909186" data-name="Trazado 909186" d="M134.091,182.481a15.167,15.167,0,0,1-4.155,10.691,7.782,7.782,0,0,1-3.358-1.085,9.307,9.307,0,0,1-2.339-2.005,12.427,12.427,0,0,1-.011-15.392,9.252,9.252,0,0,1,2.35-2.02,7.819,7.819,0,0,1,3.165-1.068,15.089,15.089,0,0,1,4.348,10.879" transform="translate(14.24 20.102)" fill="#3b3e3f"/>
            <path id="Trazado_909187" data-name="Trazado 909187" d="M128.647,182.063c0,3.919-1.915,7.159-4.408,7.695a12.423,12.423,0,0,1-.01-15.391c2.5.528,4.418,3.771,4.418,7.7" transform="translate(14.24 20.426)" fill="#252728"/>
            <path id="Trazado_909188" data-name="Trazado 909188" d="M130.6,193.738c-.223,0-.442-.009-.654-.028a8.2,8.2,0,0,1-3.56-1.15,12.379,12.379,0,0,1,0-20.242,8.156,8.156,0,0,1,4.214-1.177c5.218,0,9.463,5.068,9.463,11.3s-4.245,11.3-9.463,11.3m0-21.638a7.183,7.183,0,0,0-3.726,1.043,11.431,11.431,0,0,0,0,18.594,7.264,7.264,0,0,0,3.151,1.018c.188.017.379.025.574.025,4.69,0,8.5-4.638,8.5-10.339s-3.815-10.34-8.5-10.34" transform="translate(14.19 20.048)" fill="#252728"/>
            <path id="Trazado_909189" data-name="Trazado 909189" d="M259.637,183.31c0,9.957-1.06,18.352-9.983,19.655-.812.118-7.459.012-8.3.012-10.1,0-18.283-8.805-18.283-19.667s8.186-19.668,18.283-19.668,18.283,8.806,18.283,19.668" transform="translate(26.132 19.17)" fill="#252728"/>
            <path id="Trazado_909190" data-name="Trazado 909190" d="M266.5,183.31c0,10.862-8.185,19.667-18.283,19.667s-18.283-8.805-18.283-19.667,8.186-19.668,18.283-19.668S266.5,172.448,266.5,183.31" transform="translate(26.935 19.17)" fill="#2f3030"/>
            <path id="Trazado_909191" data-name="Trazado 909191" d="M256.792,182.383c0,5.976-4.022,10.818-8.983,10.818-.206,0-.41-.008-.612-.026a7.776,7.776,0,0,1-3.358-1.084,11.906,11.906,0,0,1,0-19.418A7.83,7.83,0,0,1,247,171.605a8.013,8.013,0,0,1,.805-.042c4.961,0,8.983,4.844,8.983,10.82" transform="translate(27.977 20.098)" fill="#505354"/>
            <path id="Trazado_909192" data-name="Trazado 909192" d="M251.352,182.481a15.167,15.167,0,0,1-4.155,10.691,7.782,7.782,0,0,1-3.358-1.085,9.307,9.307,0,0,1-2.339-2.005,12.427,12.427,0,0,1-.011-15.392,9.233,9.233,0,0,1,2.35-2.02A7.819,7.819,0,0,1,247,171.6a15.093,15.093,0,0,1,4.348,10.879" transform="translate(27.977 20.102)" fill="#3b3e3f"/>
            <path id="Trazado_909193" data-name="Trazado 909193" d="M245.908,182.063c0,3.919-1.915,7.159-4.408,7.695a12.423,12.423,0,0,1-.01-15.391c2.5.528,4.418,3.771,4.418,7.7" transform="translate(27.977 20.426)" fill="#252728"/>
            <path id="Trazado_909194" data-name="Trazado 909194" d="M247.859,193.738c-.223,0-.442-.009-.654-.028a8.2,8.2,0,0,1-3.56-1.15,12.379,12.379,0,0,1,0-20.242,8.156,8.156,0,0,1,4.214-1.177c5.218,0,9.462,5.068,9.462,11.3s-4.244,11.3-9.462,11.3m0-21.638a7.183,7.183,0,0,0-3.726,1.043,11.431,11.431,0,0,0,0,18.594,7.264,7.264,0,0,0,3.151,1.018c.188.017.379.025.574.025,4.69,0,8.5-4.638,8.5-10.339s-3.815-10.34-8.5-10.34" transform="translate(27.927 20.048)" fill="#252728"/>
            <rect id="Rectángulo_405481" data-name="Rectángulo 405481" width="204.617" height="10.728" rx="4.02" transform="translate(142.492 190.664)" fill="#252728"/>
            <rect id="Rectángulo_405482" data-name="Rectángulo 405482" width="9.757" height="106.666" transform="translate(235.043 18.47)" fill="#2f3030"/>
            <path id="Trazado_909195" data-name="Trazado 909195" d="M125.1,160.277a4.594,4.594,0,0,0,4.566-4.14c.035-.346,3.513-35.045,9.88-69.251C151.45,22.945,161.922,21.1,163.076,21.1a4.593,4.593,0,0,0,0-9.186c-7.871,0-14.37,7.876-20.452,24.785-4.235,11.777-8.313,28.113-12.115,48.557-6.435,34.587-9.947,69.625-9.982,69.975a4.593,4.593,0,0,0,4.118,5.025,4.237,4.237,0,0,0,.458.023" transform="translate(14.116 1.395)" fill="#ffc943"/>
            <path id="Trazado_909196" data-name="Trazado 909196" d="M130.927,160.277a4.593,4.593,0,0,0,4.565-4.14c.034-.346,3.513-35.045,9.879-69.251C157.274,22.945,167.745,21.1,168.9,21.1h76.995a4.593,4.593,0,0,0,0-9.186H168.9c-7.87,0-14.369,7.876-20.45,24.785-4.235,11.777-8.312,28.113-12.115,48.557-6.436,34.587-9.946,69.625-9.982,69.975a4.592,4.592,0,0,0,4.117,5.025,4.263,4.263,0,0,0,.46.023" transform="translate(14.799 1.395)" fill="#2f3030"/>
            <path id="Trazado_909197" data-name="Trazado 909197" d="M245.371,155.067c0,6.274-3.329,11.408-7.4,11.408L187.805,158.2c-4.069,0-13.79,4.7-10.727.571l32.655-48.882c3.062-4.13,8.9-7.511,12.966-7.511h79.438c4.069,0,7.4,5.133,7.4,11.407Z" transform="translate(20.675 11.994)" fill="#e58303"/>
            <rect id="Rectángulo_405483" data-name="Rectángulo 405483" width="29.733" height="10.265" transform="translate(246.104 112.018)" fill="#252728"/>
            <path id="Trazado_909198" data-name="Trazado 909198" d="M247.028,58.795a2.878,2.878,0,0,1,2.865,3.3l-2.651,24.074a3.544,3.544,0,0,1-3.163,3.3,4.75,4.75,0,0,1-3.939-3.122l-2.824-7.738a9.353,9.353,0,0,1,.241-6.148l4.861-10.651a5.563,5.563,0,0,1,4.609-3.024" transform="translate(27.753 6.888)" fill="#252728"/>
            <path id="Trazado_909199" data-name="Trazado 909199" d="M267.538,58.795a2.919,2.919,0,0,1,2.96,3.3l-2.651,24.074a3.807,3.807,0,0,1-3.688,3.3H247.355a3.771,3.771,0,0,1-3.663-3.307l-.754-7.37a23.643,23.643,0,0,1,.427-6.543l2.42-10.229a4.419,4.419,0,0,1,4.09-3.235Z" transform="translate(28.451 6.888)" fill="#ff9a00"/>
            <path id="Trazado_909200" data-name="Trazado 909200" d="M252.182,101.549a13.629,13.629,0,0,1-6.679,2.115H221.287a3.686,3.686,0,0,1-3.674-3.675V98.707a4.772,4.772,0,0,1,3.59-4.453l24.382-5.289a41.445,41.445,0,0,1,7.266-.779H267.5c2.021,0,2.321.951.668,2.115Z" transform="translate(25.492 10.331)" fill="#ff9a00"/>
            <path id="Rectángulo_405484" data-name="Rectángulo 405484" d="M8.225,0H57.294a8.223,8.223,0,0,1,8.223,8.223v26.9a8.224,8.224,0,0,1-8.224,8.224H8.223A8.223,8.223,0,0,1,0,35.128V8.225A8.225,8.225,0,0,1,8.225,0Z" transform="translate(223.465 118.939)" fill="#484949"/>
            <g id="Grupo_1112462" data-name="Grupo 1112462" transform="translate(222.65 130.076)" opacity="0.4">
              <g id="Grupo_1112461" data-name="Grupo 1112461">
                <g id="Grupo_1112460" data-name="Grupo 1112460" clip-path="url(#clip-path-3)">
                  <path id="Trazado_909201" data-name="Trazado 909201" d="M199.3,116.436l4.3,22.133,43.094,2.44-6.629-24.573Z" transform="translate(-199.303 -116.436)" fill="#21211f"/>
                </g>
              </g>
            </g>
            <rect id="Rectángulo_405486" data-name="Rectángulo 405486" width="20.344" height="10.265" transform="translate(275.006 112.018)" fill="#252728"/>
            <path id="Rectángulo_405487" data-name="Rectángulo 405487" d="M8.225,0H49.976A8.223,8.223,0,0,1,58.2,8.223v26.9a8.224,8.224,0,0,1-8.224,8.224H8.223A8.223,8.223,0,0,1,0,35.128V8.225A8.225,8.225,0,0,1,8.225,0Z" transform="translate(262.799 118.939)" fill="#252728"/>
            <path id="Trazado_909202" data-name="Trazado 909202" d="M269.92,99.915c0,2.022-1.482,4.547-3.5,4.547h-24.3c-2.021,0-3.763-2.525-3.763-4.547V98.634a4.773,4.773,0,0,1,3.592-4.453l24.382-5.289a2.844,2.844,0,0,1,3.591,2.9Z" transform="translate(27.922 10.404)" fill="#252728"/>
            <path id="Trazado_909203" data-name="Trazado 909203" d="M267.772,58.795a2.878,2.878,0,0,1,2.865,3.3l-2.651,24.074a3.544,3.544,0,0,1-3.163,3.3,4.752,4.752,0,0,1-3.939-3.122l-2.824-7.738a9.354,9.354,0,0,1,.241-6.148l4.862-10.651a5.561,5.561,0,0,1,4.608-3.024" transform="translate(30.183 6.888)" fill="#252728"/>
            <path id="Trazado_909204" data-name="Trazado 909204" d="M216.933,128.351l-6.885-1.955a1.36,1.36,0,0,0-.742,2.616l1.329.378-2.262,7.618a1.36,1.36,0,0,0,2.607.773l2.271-7.648,2.937.835a1.36,1.36,0,0,0,.744-2.616" transform="translate(24.403 14.801)" fill="#21211f"/>
            <path id="Trazado_909205" data-name="Trazado 909205" d="M199.6,137.134a2.056,2.056,0,0,0,2.1-1.714L209.4,83.538a1.542,1.542,0,0,0-1.567-1.819H172.824a4.242,4.242,0,0,0-2.962,1.453l-10.6,13.693a7.685,7.685,0,0,0-1.322,3.28l-3.53,32.6a1.732,1.732,0,0,0,1.638,1.93Z" transform="translate(18.088 9.573)" fill="#484949"/>
            <path id="Trazado_909206" data-name="Trazado 909206" d="M217.225,83.349a21.508,21.508,0,0,1-10.092-2.669,15.418,15.418,0,0,1-6.78-6.636,6.614,6.614,0,0,1,.188-6.514c1.533-2.4,4.712-3.769,8.725-3.769a21.5,21.5,0,0,1,10.092,2.67,15.416,15.416,0,0,1,6.78,6.635,6.611,6.611,0,0,1-.188,6.514c-1.532,2.4-4.712,3.769-8.725,3.769M209.265,66.1c-3.153,0-5.68,1.007-6.758,2.692a4.308,4.308,0,0,0-.035,4.276c2.021,4.383,8.639,7.947,14.752,7.947,3.154,0,5.68-1.007,6.759-2.692a4.311,4.311,0,0,0,.034-4.276C222,69.662,215.377,66.1,209.265,66.1" transform="translate(23.381 7.469)" fill="#252728"/>
            <path id="Trazado_909207" data-name="Trazado 909207" d="M197.394,136.607a1.981,1.981,0,0,0,2.4-1.177l15.475-41.052a3.642,3.642,0,0,0-.484-3.166l-6.369-8.134a1.362,1.362,0,0,0-2.256.006L195.569,96.776a7.647,7.647,0,0,0-1.324,3.28l-3.529,32.6a2.323,2.323,0,0,0,1.557,2.368Z" transform="translate(22.34 9.662)" fill="#252728"/>
            <rect id="Rectángulo_405488" data-name="Rectángulo 405488" width="76.432" height="27.242" transform="translate(142.791 130.255)" fill="#252728"/>
            <path id="Trazado_909208" data-name="Trazado 909208" d="M129.236,143.745h12.5l6.1-27.058h-12.5Z" transform="translate(15.139 13.669)" fill="#2f3030"/>
            <path id="Trazado_909209" data-name="Trazado 909209" d="M166.084,143.654h12.5l6.1-27.058h-12.5Z" transform="translate(19.456 13.659)" fill="#2f3030"/>
            <path id="Trazado_909210" data-name="Trazado 909210" d="M261.614,156.588a4.085,4.085,0,0,1-3.624,2.616H194.7a2.391,2.391,0,0,1-2.425-2.737l2.3-19.054c.182-1.506.618-3.942.969-5.418l4.15-17.452c.351-1.475,1.3-1.636,2.119-.357L213.4,132.352a5.615,5.615,0,0,0,4.238,2.325h48.492a1.871,1.871,0,0,1,1.887,2.615Z" transform="translate(22.522 13.275)" fill="#2f3030"/>
            <rect id="Rectángulo_405489" data-name="Rectángulo 405489" width="9.757" height="106.666" transform="translate(308.227 18.47)" fill="#ffc943"/>
            <rect id="Rectángulo_405490" data-name="Rectángulo 405490" width="6.974" height="100.956" transform="translate(311.01 17.983)" fill="#2f3030"/>
            <path id="Trazado_909211" data-name="Trazado 909211" d="M310.341,102.383H295.071c-4.074,0-9.9,3.378-12.966,7.514l-31.564,47.242H218.367l-12.941-13.685H183.472v20.43c.22-.011.428-.025.647-.025,12.916,0,23.37-4.415,23.37,15.491,0,.584,0,1.158-.026,1.745h76a44.756,44.756,0,0,1,4.524-18.31,30.789,30.789,0,0,1,3.66-5.647,18.643,18.643,0,0,1,10.415-6.843,13.242,13.242,0,0,1,2.952-.318H317.7l.037-36.19c0-6.271-3.319-11.4-7.392-11.4" transform="translate(21.493 11.994)" fill="#ff9a00"/>
            <path id="Trazado_909212" data-name="Trazado 909212" d="M229.412,161.551c-2.487-10.063-6.708-18.378-11.831-22.405H129.957v22.405h-6.87v20.2H310.914v-20.2Z" transform="translate(14.419 16.3)" fill="#ffc943"/>
            <path id="Trazado_909213" data-name="Trazado 909213" d="M287.1,38.544h7.554c.8,0,1.463-1.015,1.463-2.256V24.511c0-1.241-.659-2.256-1.463-2.256H287.1Z" transform="translate(33.632 2.607)" fill="#ff9a00"/>
            <path id="Trazado_909214" data-name="Trazado 909214" d="M285.605,38.544h3.464a2.524,2.524,0,0,0,2.711-2.256V24.511a2.523,2.523,0,0,0-2.711-2.256h-3.464Z" transform="translate(33.457 2.607)" fill="#bc2e1b"/>
            <path id="Trazado_909215" data-name="Trazado 909215" d="M286.576,22.254h-3.468c-.859,0-1.562,1.084-1.562,2.407V36.169c0,1.325.7,2.409,1.562,2.409h3.468Z" transform="translate(32.982 2.607)" fill="#252728"/>
            <path id="Trazado_909216" data-name="Trazado 909216" d="M304.676,164.6h5.361c.572,0,1.039-.721,1.039-1.6v-8.36c0-.881-.467-1.6-1.039-1.6h-5.361Z" transform="translate(35.691 17.928)" fill="#ff9a00"/>
            <path id="Trazado_909217" data-name="Trazado 909217" d="M303.617,164.6h2.459A1.79,1.79,0,0,0,308,163v-8.36a1.79,1.79,0,0,0-1.924-1.6h-2.459Z" transform="translate(35.567 17.928)" fill="#bc2e1b"/>
            <path id="Trazado_909218" data-name="Trazado 909218" d="M228.57,11.913c-7.871,0-14.37,7.876-20.453,24.785C203.882,48.474,199.806,64.811,196,85.254c-5.761,30.957-9.178,62.275-9.857,68.759h9.238c.857-8.064,4.194-37.775,9.659-67.127,11.9-63.94,22.37-65.786,23.526-65.786a4.593,4.593,0,1,0,0-9.186" transform="translate(21.806 1.396)" fill="#ffc943"/>
            <path id="Trazado_909219" data-name="Trazado 909219" d="M295.056,11.913H234.392c-7.87,0-14.37,7.876-20.452,24.785-4.235,11.776-8.312,28.113-12.115,48.556-5.759,30.957-9.177,62.275-9.855,68.759h9.237c.859-8.064,4.2-37.775,9.66-67.127,11.9-63.94,22.372-65.786,23.526-65.786h60.663a4.593,4.593,0,0,0,0-9.186" transform="translate(22.488 1.396)" fill="#2f3030"/>
            <rect id="Rectángulo_405491" data-name="Rectángulo 405491" width="15.328" height="209.555" transform="translate(169.073 0)" fill="#ffc943"/>
            <rect id="Rectángulo_405492" data-name="Rectángulo 405492" width="15.327" height="209.555" transform="translate(177.151 0)" fill="#252728"/>
            <rect id="Rectángulo_405493" data-name="Rectángulo 405493" width="15.328" height="209.555" transform="translate(127.606 0)" fill="#ffc943"/>
            <rect id="Rectángulo_405494" data-name="Rectángulo 405494" width="15.327" height="209.555" transform="translate(135.684 0)" fill="#252728"/>
            <rect id="Rectángulo_405495" data-name="Rectángulo 405495" width="18.288" height="9.506" transform="translate(135.683)" fill="#2f3030"/>
            <path id="Trazado_909220" data-name="Trazado 909220" d="M112.951,31.646H102.216c-1.144,0-2.079-1.442-2.079-3.205V11.7c0-1.764.935-3.205,2.079-3.205h10.735Z" transform="translate(11.731 0.996)" fill="#ff9a00"/>
            <path id="Trazado_909221" data-name="Trazado 909221" d="M114.646,31.646h-4.923c-2.118,0-3.852-1.442-3.852-3.205V11.7c0-1.764,1.734-3.205,3.852-3.205h4.923Z" transform="translate(12.402 0.996)" fill="#bc2e1b"/>
            <path id="Trazado_909222" data-name="Trazado 909222" d="M113.1,8.5h4.928c1.221,0,2.219,1.539,2.219,3.422V28.271c0,1.882-1,3.422-2.219,3.422H113.1Z" transform="translate(13.249 0.995)" fill="#252728"/>
            <path id="Trazado_909223" data-name="Trazado 909223" d="M158.522,31.646H147.787c-1.144,0-2.079-1.442-2.079-3.205V11.7c0-1.764.935-3.205,2.079-3.205h10.735Z" transform="translate(17.069 0.996)" fill="#ff9a00"/>
            <path id="Trazado_909224" data-name="Trazado 909224" d="M160.217,31.646h-4.923c-2.118,0-3.852-1.442-3.852-3.205V11.7c0-1.764,1.734-3.205,3.852-3.205h4.923Z" transform="translate(17.741 0.996)" fill="#bc2e1b"/>
            <path id="Trazado_909225" data-name="Trazado 909225" d="M158.668,8.5H163.6c1.221,0,2.219,1.539,2.219,3.422V28.271c0,1.882-1,3.422-2.219,3.422h-4.928Z" transform="translate(18.587 0.995)" fill="#252728"/>
            <path id="Trazado_909226" data-name="Trazado 909226" d="M96.639,158.611h88.626a4.593,4.593,0,1,0,0-9.186H96.639a4.593,4.593,0,1,0,0,9.186" transform="translate(10.783 17.504)" fill="#252728"/>
            <rect id="Rectángulo_405496" data-name="Rectángulo 405496" width="11.07" height="58.153" transform="translate(113.406 156.28)" fill="#ffc943"/>
            <path id="Trazado_909227" data-name="Trazado 909227" d="M127.359,139.892H111.34v58.153h8.63V150.561h7.389Z" transform="translate(13.043 16.388)" fill="#ff9a00"/>
            <rect id="Rectángulo_405497" data-name="Rectángulo 405497" width="11.069" height="58.153" transform="translate(158.229 156.28)" fill="#ffc943"/>
            <rect id="Rectángulo_405498" data-name="Rectángulo 405498" width="92.053" height="7.207" transform="translate(77.245 207.226)" fill="#ffc943"/>
            <path id="Trazado_909228" data-name="Trazado 909228" d="M54.133,185.5H29.382v.008a3.6,3.6,0,0,0,0,7.191v.008h92.054V185.5Z" transform="translate(3.039 21.73)" fill="#ffc943"/>
            <path id="Trazado_909229" data-name="Trazado 909229" d="M175.445,190.76h-6.507v-40.2h7.39V139.892h-16.02V190.76h-17a3.678,3.678,0,0,0-.75.078H79.552a3.6,3.6,0,0,0,0,7.207h95.893a3.642,3.642,0,0,0,0-7.285" transform="translate(8.897 16.388)" fill="#ff9a00"/>
            <path id="Trazado_909230" data-name="Trazado 909230" d="M200.976,184.366c0,10.509-.953,19.319-10.42,20.528-.745.095-7.894,0-8.663,0-10.538,0-19.082-9.191-19.082-20.528s8.544-20.528,19.082-20.528,19.083,9.191,19.083,20.528" transform="translate(19.072 19.193)" fill="#252728"/>
            <path id="Trazado_909231" data-name="Trazado 909231" d="M208.135,184.366c0,11.337-8.544,20.528-19.083,20.528S169.97,195.7,169.97,184.366s8.544-20.528,19.082-20.528,19.083,9.191,19.083,20.528" transform="translate(19.911 19.193)" fill="#3f3f3f"/>
            <path id="Trazado_909232" data-name="Trazado 909232" d="M198.008,183.4c0,6.237-4.2,11.292-9.376,11.292-.214,0-.428-.009-.639-.028a8.1,8.1,0,0,1-3.5-1.131,12.426,12.426,0,0,1,0-20.267,8.152,8.152,0,0,1,3.3-1.114,8.055,8.055,0,0,1,.84-.045c5.179,0,9.376,5.055,9.376,11.292" transform="translate(20.999 20.161)" fill="#acada6"/>
            <path id="Trazado_909233" data-name="Trazado 909233" d="M192.328,183.5a15.831,15.831,0,0,1-4.336,11.158,8.115,8.115,0,0,1-3.5-1.132,9.673,9.673,0,0,1-2.442-2.094,12.967,12.967,0,0,1-.011-16.065,9.617,9.617,0,0,1,2.453-2.108,8.132,8.132,0,0,1,3.3-1.115,15.754,15.754,0,0,1,4.538,11.355" transform="translate(20.999 20.166)" fill="#5a5b5b"/>
            <path id="Trazado_909234" data-name="Trazado 909234" d="M186.646,183.063c0,4.091-2,7.471-4.6,8.031a12.967,12.967,0,0,1-.011-16.065c2.607.552,4.612,3.937,4.612,8.033" transform="translate(20.999 20.504)" fill="#252728"/>
            <path id="Trazado_909235" data-name="Trazado 909235" d="M188.7,195.392c-.237,0-.47-.01-.694-.029a8.7,8.7,0,0,1-3.77-1.218,13.049,13.049,0,0,1,0-21.348,8.75,8.75,0,0,1,3.556-1.2,9.053,9.053,0,0,1,.908-.048c5.518,0,10.005,5.348,10.005,11.921s-4.488,11.921-10.005,11.921m0-22.584a7.675,7.675,0,0,0-.775.041,7.493,7.493,0,0,0-3.046,1.03,11.8,11.8,0,0,0,0,19.185,7.447,7.447,0,0,0,3.232,1.046c.192.017.39.025.59.025,4.823,0,8.748-4.783,8.748-10.663s-3.926-10.663-8.748-10.663" transform="translate(20.933 20.096)" fill="#c3c4bf"/>
            <path id="Trazado_909236" data-name="Trazado 909236" d="M304.841,183.4c0,10.509-.953,19.319-10.42,20.528-.745.095-7.894,0-8.663,0-10.538,0-19.082-9.191-19.082-20.528s8.544-20.528,19.082-20.528,19.083,9.191,19.083,20.528" transform="translate(31.24 19.08)" fill="#252728"/>
            <path id="Trazado_909237" data-name="Trazado 909237" d="M312,183.4c0,11.337-8.544,20.528-19.083,20.528s-19.082-9.191-19.082-20.528,8.544-20.528,19.082-20.528S312,172.065,312,183.4" transform="translate(32.078 19.08)" fill="#3f3f3f"/>
            <path id="Trazado_909238" data-name="Trazado 909238" d="M301.873,182.433c0,6.237-4.2,11.292-9.376,11.292-.214,0-.428-.009-.639-.028a8.1,8.1,0,0,1-3.5-1.131,12.426,12.426,0,0,1,0-20.267,8.153,8.153,0,0,1,3.3-1.114,8.043,8.043,0,0,1,.84-.045c5.179,0,9.376,5.055,9.376,11.292" transform="translate(33.166 20.048)" fill="#acada6"/>
            <path id="Trazado_909239" data-name="Trazado 909239" d="M296.194,182.536a15.831,15.831,0,0,1-4.336,11.158,8.11,8.11,0,0,1-3.5-1.132,9.673,9.673,0,0,1-2.442-2.094A12.967,12.967,0,0,1,285.9,174.4a9.618,9.618,0,0,1,2.453-2.108,8.127,8.127,0,0,1,3.3-1.115,15.754,15.754,0,0,1,4.538,11.355" transform="translate(33.166 20.053)" fill="#5a5b5b"/>
            <path id="Trazado_909240" data-name="Trazado 909240" d="M290.512,182.1c0,4.091-2,7.471-4.6,8.031a12.967,12.967,0,0,1-.011-16.065c2.607.552,4.612,3.937,4.612,8.033" transform="translate(33.166 20.391)" fill="#252728"/>
            <path id="Trazado_909241" data-name="Trazado 909241" d="M292.562,194.427c-.237,0-.47-.01-.694-.029a8.708,8.708,0,0,1-3.77-1.218,13.05,13.05,0,0,1,0-21.348,8.749,8.749,0,0,1,3.557-1.2,9.032,9.032,0,0,1,.907-.048c5.516,0,10.005,5.348,10.005,11.921s-4.489,11.921-10.005,11.921m0-22.584a7.693,7.693,0,0,0-.775.041,7.5,7.5,0,0,0-3.046,1.03,11.8,11.8,0,0,0,0,19.185,7.457,7.457,0,0,0,3.233,1.046c.192.017.389.025.589.025,4.824,0,8.748-4.782,8.748-10.663s-3.925-10.663-8.748-10.663" transform="translate(33.1 19.983)" fill="#c3c4bf"/>
            <rect id="Rectángulo_405499" data-name="Rectángulo 405499" width="91.323" height="38.144" transform="translate(11.467 169.004)" fill="#aa8c77"/>
            <rect id="Rectángulo_405500" data-name="Rectángulo 405500" width="53.741" height="38.144" transform="translate(49.049 169.004)" fill="#68564c"/>
            <rect id="Rectángulo_405501" data-name="Rectángulo 405501" width="15.338" height="5.638" transform="translate(16.954 177.286) rotate(-10.593)" fill="#d8d8d8"/>
            <g id="Grupo_1112465" data-name="Grupo 1112465" transform="translate(84.98 172.846)" opacity="0.5" style="mix-blend-mode: multiply;isolation: isolate">
              <g id="Grupo_1112464" data-name="Grupo 1112464">
                <g id="Grupo_1112463" data-name="Grupo 1112463" clip-path="url(#clip-path-4)">
                  <rect id="Rectángulo_405502" data-name="Rectángulo 405502" width="15.338" height="5.637" transform="translate(0 2.82) rotate(-10.593)" fill="#68564c"/>
                </g>
              </g>
            </g>
            <g id="Grupo_1112468" data-name="Grupo 1112468" transform="translate(70.459 188.129)" opacity="0.5" style="mix-blend-mode: multiply;isolation: isolate">
              <g id="Grupo_1112467" data-name="Grupo 1112467">
                <g id="Grupo_1112466" data-name="Grupo 1112466" clip-path="url(#clip-path-5)">
                  <rect id="Rectángulo_405504" data-name="Rectángulo 405504" width="4.222" height="11.486" transform="translate(0 3.834) rotate(-65.252)" fill="#68564c"/>
                </g>
              </g>
            </g>
            <g id="Grupo_1112471" data-name="Grupo 1112471" transform="translate(11.467 205.232)" opacity="0.5" style="mix-blend-mode: multiply;isolation: isolate">
              <g id="Grupo_1112470" data-name="Grupo 1112470">
                <g id="Grupo_1112469" data-name="Grupo 1112469" clip-path="url(#clip-path-6)">
                  <rect id="Rectángulo_405506" data-name="Rectángulo 405506" width="91.323" height="1.916" transform="translate(0 0)" fill="#68564c"/>
                </g>
              </g>
            </g>
            <rect id="Rectángulo_405508" data-name="Rectángulo 405508" width="91.323" height="38.144" transform="translate(58.942 169.004)" fill="#aa8c77"/>
            <rect id="Rectángulo_405509" data-name="Rectángulo 405509" width="53.742" height="38.144" transform="translate(96.522 169.004)" fill="#68564c"/>
            <rect id="Rectángulo_405510" data-name="Rectángulo 405510" width="15.338" height="5.638" transform="translate(64.428 177.286) rotate(-10.593)" fill="#d8d8d8"/>
            <g id="Grupo_1112474" data-name="Grupo 1112474" transform="translate(132.454 172.846)" opacity="0.5" style="mix-blend-mode: multiply;isolation: isolate">
              <g id="Grupo_1112473" data-name="Grupo 1112473">
                <g id="Grupo_1112472" data-name="Grupo 1112472" clip-path="url(#clip-path-4)">
                  <rect id="Rectángulo_405511" data-name="Rectángulo 405511" width="15.338" height="5.637" transform="translate(0 2.82) rotate(-10.593)" fill="#68564c"/>
                </g>
              </g>
            </g>
            <g id="Grupo_1112477" data-name="Grupo 1112477" transform="translate(117.933 188.129)" opacity="0.5" style="mix-blend-mode: multiply;isolation: isolate">
              <g id="Grupo_1112476" data-name="Grupo 1112476">
                <g id="Grupo_1112475" data-name="Grupo 1112475" clip-path="url(#clip-path-5)">
                  <rect id="Rectángulo_405513" data-name="Rectángulo 405513" width="4.222" height="11.486" transform="translate(0 3.834) rotate(-65.252)" fill="#68564c"/>
                </g>
              </g>
            </g>
            <g id="Grupo_1112480" data-name="Grupo 1112480" transform="translate(58.942 205.232)" opacity="0.5" style="mix-blend-mode: multiply;isolation: isolate">
              <g id="Grupo_1112479" data-name="Grupo 1112479">
                <g id="Grupo_1112478" data-name="Grupo 1112478" clip-path="url(#clip-path-9)">
                  <rect id="Rectángulo_405515" data-name="Rectángulo 405515" width="91.323" height="1.916" transform="translate(0 0)" fill="#68564c"/>
                </g>
              </g>
            </g>
            <rect id="Rectángulo_405517" data-name="Rectángulo 405517" width="91.323" height="38.144" transform="translate(106.416 169.004)" fill="#aa8c77"/>
            <rect id="Rectángulo_405518" data-name="Rectángulo 405518" width="53.741" height="38.144" transform="translate(143.998 169.004)" fill="#68564c"/>
            <rect id="Rectángulo_405519" data-name="Rectángulo 405519" width="15.338" height="5.638" transform="translate(111.902 177.286) rotate(-10.593)" fill="#d8d8d8"/>
            <g id="Grupo_1112483" data-name="Grupo 1112483" transform="translate(179.927 172.846)" opacity="0.5" style="mix-blend-mode: multiply;isolation: isolate">
              <g id="Grupo_1112482" data-name="Grupo 1112482">
                <g id="Grupo_1112481" data-name="Grupo 1112481" clip-path="url(#clip-path-10)">
                  <rect id="Rectángulo_405520" data-name="Rectángulo 405520" width="15.338" height="5.637" transform="translate(0 2.82) rotate(-10.593)" fill="#68564c"/>
                </g>
              </g>
            </g>
            <g id="Grupo_1112486" data-name="Grupo 1112486" transform="translate(165.407 188.129)" opacity="0.5" style="mix-blend-mode: multiply;isolation: isolate">
              <g id="Grupo_1112485" data-name="Grupo 1112485">
                <g id="Grupo_1112484" data-name="Grupo 1112484" clip-path="url(#clip-path-5)">
                  <rect id="Rectángulo_405522" data-name="Rectángulo 405522" width="4.222" height="11.487" transform="translate(0 3.835) rotate(-65.254)" fill="#68564c"/>
                </g>
              </g>
            </g>
            <g id="Grupo_1112489" data-name="Grupo 1112489" transform="translate(106.416 205.232)" opacity="0.5" style="mix-blend-mode: multiply;isolation: isolate">
              <g id="Grupo_1112488" data-name="Grupo 1112488">
                <g id="Grupo_1112487" data-name="Grupo 1112487" clip-path="url(#clip-path-9)">
                  <rect id="Rectángulo_405524" data-name="Rectángulo 405524" width="91.323" height="1.916" transform="translate(0 0)" fill="#68564c"/>
                </g>
              </g>
            </g>
            <rect id="Rectángulo_405526" data-name="Rectángulo 405526" width="91.323" height="38.25" transform="translate(11.467 130.775)" fill="#aa8c77"/>
            <rect id="Rectángulo_405527" data-name="Rectángulo 405527" width="53.741" height="38.25" transform="translate(49.049 130.775)" fill="#68564c"/>
            <rect id="Rectángulo_405528" data-name="Rectángulo 405528" width="15.338" height="5.638" transform="translate(16.954 139.058) rotate(-10.593)" fill="#d8d8d8"/>
            <g id="Grupo_1112492" data-name="Grupo 1112492" transform="translate(84.98 134.618)" opacity="0.5" style="mix-blend-mode: multiply;isolation: isolate">
              <g id="Grupo_1112491" data-name="Grupo 1112491">
                <g id="Grupo_1112490" data-name="Grupo 1112490" clip-path="url(#clip-path-4)">
                  <rect id="Rectángulo_405529" data-name="Rectángulo 405529" width="15.338" height="5.637" transform="translate(0 2.82) rotate(-10.593)" fill="#68564c"/>
                </g>
              </g>
            </g>
            <g id="Grupo_1112495" data-name="Grupo 1112495" transform="translate(70.459 149.901)" opacity="0.5" style="mix-blend-mode: multiply;isolation: isolate">
              <g id="Grupo_1112494" data-name="Grupo 1112494">
                <g id="Grupo_1112493" data-name="Grupo 1112493" clip-path="url(#clip-path-5)">
                  <rect id="Rectángulo_405531" data-name="Rectángulo 405531" width="4.222" height="11.486" transform="translate(0 3.834) rotate(-65.252)" fill="#68564c"/>
                </g>
              </g>
            </g>
            <g id="Grupo_1112498" data-name="Grupo 1112498" transform="translate(11.467 167.004)" opacity="0.5" style="mix-blend-mode: multiply;isolation: isolate">
              <g id="Grupo_1112497" data-name="Grupo 1112497">
                <g id="Grupo_1112496" data-name="Grupo 1112496" clip-path="url(#clip-path-15)">
                  <rect id="Rectángulo_405533" data-name="Rectángulo 405533" width="91.323" height="2.022" transform="translate(0 -0.001)" fill="#68564c"/>
                </g>
              </g>
            </g>
            <rect id="Rectángulo_405535" data-name="Rectángulo 405535" width="91.323" height="38.25" transform="translate(58.942 130.775)" fill="#aa8c77"/>
            <rect id="Rectángulo_405536" data-name="Rectángulo 405536" width="53.742" height="38.25" transform="translate(96.522 130.775)" fill="#68564c"/>
            <rect id="Rectángulo_405537" data-name="Rectángulo 405537" width="15.338" height="5.638" transform="translate(64.428 139.058) rotate(-10.593)" fill="#d8d8d8"/>
            <g id="Grupo_1112501" data-name="Grupo 1112501" transform="translate(132.454 134.618)" opacity="0.5" style="mix-blend-mode: multiply;isolation: isolate">
              <g id="Grupo_1112500" data-name="Grupo 1112500">
                <g id="Grupo_1112499" data-name="Grupo 1112499" clip-path="url(#clip-path-4)">
                  <rect id="Rectángulo_405538" data-name="Rectángulo 405538" width="15.338" height="5.637" transform="translate(0 2.82) rotate(-10.593)" fill="#68564c"/>
                </g>
              </g>
            </g>
            <g id="Grupo_1112504" data-name="Grupo 1112504" transform="translate(117.933 149.901)" opacity="0.5" style="mix-blend-mode: multiply;isolation: isolate">
              <g id="Grupo_1112503" data-name="Grupo 1112503">
                <g id="Grupo_1112502" data-name="Grupo 1112502" clip-path="url(#clip-path-5)">
                  <rect id="Rectángulo_405540" data-name="Rectángulo 405540" width="4.222" height="11.486" transform="matrix(0.419, -0.908, 0.908, 0.419, 0, 3.834)" fill="#68564c"/>
                </g>
              </g>
            </g>
            <g id="Grupo_1112507" data-name="Grupo 1112507" transform="translate(58.942 167.004)" opacity="0.5" style="mix-blend-mode: multiply;isolation: isolate">
              <g id="Grupo_1112506" data-name="Grupo 1112506">
                <g id="Grupo_1112505" data-name="Grupo 1112505" clip-path="url(#clip-path-18)">
                  <rect id="Rectángulo_405542" data-name="Rectángulo 405542" width="91.323" height="2.022" transform="translate(0 -0.001)" fill="#68564c"/>
                </g>
              </g>
            </g>
            <rect id="Rectángulo_405544" data-name="Rectángulo 405544" width="91.323" height="38.25" transform="translate(106.416 130.775)" fill="#aa8c77"/>
            <rect id="Rectángulo_405545" data-name="Rectángulo 405545" width="53.741" height="38.25" transform="translate(143.998 130.775)" fill="#68564c"/>
            <rect id="Rectángulo_405546" data-name="Rectángulo 405546" width="15.338" height="5.638" transform="translate(111.902 139.058) rotate(-10.593)" fill="#d8d8d8"/>
            <g id="Grupo_1112510" data-name="Grupo 1112510" transform="translate(179.927 134.618)" opacity="0.5" style="mix-blend-mode: multiply;isolation: isolate">
              <g id="Grupo_1112509" data-name="Grupo 1112509">
                <g id="Grupo_1112508" data-name="Grupo 1112508" clip-path="url(#clip-path-10)">
                  <rect id="Rectángulo_405547" data-name="Rectángulo 405547" width="15.338" height="5.637" transform="translate(0 2.82) rotate(-10.593)" fill="#68564c"/>
                </g>
              </g>
            </g>
            <g id="Grupo_1112513" data-name="Grupo 1112513" transform="translate(165.407 149.901)" opacity="0.5" style="mix-blend-mode: multiply;isolation: isolate">
              <g id="Grupo_1112512" data-name="Grupo 1112512">
                <g id="Grupo_1112511" data-name="Grupo 1112511" clip-path="url(#clip-path-5)">
                  <rect id="Rectángulo_405549" data-name="Rectángulo 405549" width="4.222" height="11.487" transform="translate(0 3.835) rotate(-65.255)" fill="#68564c"/>
                </g>
              </g>
            </g>
            <g id="Grupo_1112516" data-name="Grupo 1112516" transform="translate(106.416 167.004)" opacity="0.5" style="mix-blend-mode: multiply;isolation: isolate">
              <g id="Grupo_1112515" data-name="Grupo 1112515">
                <g id="Grupo_1112514" data-name="Grupo 1112514" clip-path="url(#clip-path-18)">
                  <rect id="Rectángulo_405551" data-name="Rectángulo 405551" width="91.323" height="2.022" transform="translate(0 -0.001)" fill="#68564c"/>
                </g>
              </g>
            </g>
            <rect id="Rectángulo_405553" data-name="Rectángulo 405553" width="91.323" height="38.25" transform="translate(11.467 92.724)" fill="#aa8c77"/>
            <rect id="Rectángulo_405554" data-name="Rectángulo 405554" width="53.741" height="38.25" transform="translate(49.049 92.724)" fill="#68564c"/>
            <rect id="Rectángulo_405555" data-name="Rectángulo 405555" width="15.338" height="5.637" transform="translate(16.954 101.008) rotate(-10.593)" fill="#d8d8d8"/>
            <g id="Grupo_1112519" data-name="Grupo 1112519" transform="translate(84.98 96.566)" opacity="0.5" style="mix-blend-mode: multiply;isolation: isolate">
              <g id="Grupo_1112518" data-name="Grupo 1112518">
                <g id="Grupo_1112517" data-name="Grupo 1112517" clip-path="url(#clip-path-22)">
                  <rect id="Rectángulo_405556" data-name="Rectángulo 405556" width="15.338" height="5.638" transform="translate(0 2.82) rotate(-10.593)" fill="#68564c"/>
                </g>
              </g>
            </g>
            <g id="Grupo_1112522" data-name="Grupo 1112522" transform="translate(70.459 111.85)" opacity="0.5" style="mix-blend-mode: multiply;isolation: isolate">
              <g id="Grupo_1112521" data-name="Grupo 1112521">
                <g id="Grupo_1112520" data-name="Grupo 1112520" clip-path="url(#clip-path-5)">
                  <rect id="Rectángulo_405558" data-name="Rectángulo 405558" width="4.222" height="11.486" transform="translate(0 3.834) rotate(-65.252)" fill="#68564c"/>
                </g>
              </g>
            </g>
            <g id="Grupo_1112525" data-name="Grupo 1112525" transform="translate(11.467 128.953)" opacity="0.5" style="mix-blend-mode: multiply;isolation: isolate">
              <g id="Grupo_1112524" data-name="Grupo 1112524">
                <g id="Grupo_1112523" data-name="Grupo 1112523" clip-path="url(#clip-path-15)">
                  <rect id="Rectángulo_405560" data-name="Rectángulo 405560" width="91.323" height="2.022" transform="translate(0 -0.001)" fill="#68564c"/>
                </g>
              </g>
            </g>
            <rect id="Rectángulo_405562" data-name="Rectángulo 405562" width="91.323" height="38.25" transform="translate(58.942 92.724)" fill="#aa8c77"/>
            <rect id="Rectángulo_405563" data-name="Rectángulo 405563" width="53.742" height="38.25" transform="translate(96.522 92.724)" fill="#68564c"/>
            <rect id="Rectángulo_405564" data-name="Rectángulo 405564" width="15.338" height="5.637" transform="translate(64.428 101.008) rotate(-10.593)" fill="#d8d8d8"/>
            <g id="Grupo_1112528" data-name="Grupo 1112528" transform="translate(132.454 96.566)" opacity="0.5" style="mix-blend-mode: multiply;isolation: isolate">
              <g id="Grupo_1112527" data-name="Grupo 1112527">
                <g id="Grupo_1112526" data-name="Grupo 1112526" clip-path="url(#clip-path-22)">
                  <rect id="Rectángulo_405565" data-name="Rectángulo 405565" width="15.338" height="5.638" transform="translate(-0.001 2.82) rotate(-10.593)" fill="#68564c"/>
                </g>
              </g>
            </g>
            <g id="Grupo_1112531" data-name="Grupo 1112531" transform="translate(117.933 111.85)" opacity="0.5" style="mix-blend-mode: multiply;isolation: isolate">
              <g id="Grupo_1112530" data-name="Grupo 1112530">
                <g id="Grupo_1112529" data-name="Grupo 1112529" clip-path="url(#clip-path-5)">
                  <rect id="Rectángulo_405567" data-name="Rectángulo 405567" width="4.222" height="11.486" transform="matrix(0.419, -0.908, 0.908, 0.419, 0, 3.834)" fill="#68564c"/>
                </g>
              </g>
            </g>
            <g id="Grupo_1112534" data-name="Grupo 1112534" transform="translate(58.942 128.953)" opacity="0.5" style="mix-blend-mode: multiply;isolation: isolate">
              <g id="Grupo_1112533" data-name="Grupo 1112533">
                <g id="Grupo_1112532" data-name="Grupo 1112532" clip-path="url(#clip-path-18)">
                  <rect id="Rectángulo_405569" data-name="Rectángulo 405569" width="91.323" height="2.022" transform="translate(0 -0.001)" fill="#68564c"/>
                </g>
              </g>
            </g>
            <rect id="Rectángulo_405571" data-name="Rectángulo 405571" width="91.323" height="38.25" transform="translate(106.416 92.724)" fill="#aa8c77"/>
            <rect id="Rectángulo_405572" data-name="Rectángulo 405572" width="53.741" height="38.25" transform="translate(143.998 92.724)" fill="#68564c"/>
            <rect id="Rectángulo_405573" data-name="Rectángulo 405573" width="15.338" height="5.637" transform="translate(111.902 101.008) rotate(-10.593)" fill="#d8d8d8"/>
            <g id="Grupo_1112537" data-name="Grupo 1112537" transform="translate(179.927 96.566)" opacity="0.5" style="mix-blend-mode: multiply;isolation: isolate">
              <g id="Grupo_1112536" data-name="Grupo 1112536">
                <g id="Grupo_1112535" data-name="Grupo 1112535" clip-path="url(#clip-path-28)">
                  <rect id="Rectángulo_405574" data-name="Rectángulo 405574" width="15.338" height="5.638" transform="translate(0 2.82) rotate(-10.593)" fill="#68564c"/>
                </g>
              </g>
            </g>
            <g id="Grupo_1112540" data-name="Grupo 1112540" transform="translate(165.407 111.85)" opacity="0.5" style="mix-blend-mode: multiply;isolation: isolate">
              <g id="Grupo_1112539" data-name="Grupo 1112539">
                <g id="Grupo_1112538" data-name="Grupo 1112538" clip-path="url(#clip-path-5)">
                  <rect id="Rectángulo_405576" data-name="Rectángulo 405576" width="4.222" height="11.487" transform="translate(0 3.834) rotate(-65.255)" fill="#68564c"/>
                </g>
              </g>
            </g>
            <g id="Grupo_1112543" data-name="Grupo 1112543" transform="translate(106.416 128.953)" opacity="0.5" style="mix-blend-mode: multiply;isolation: isolate">
              <g id="Grupo_1112542" data-name="Grupo 1112542">
                <g id="Grupo_1112541" data-name="Grupo 1112541" clip-path="url(#clip-path-18)">
                  <rect id="Rectángulo_405578" data-name="Rectángulo 405578" width="91.323" height="2.022" transform="translate(0 -0.001)" fill="#68564c"/>
                </g>
              </g>
            </g>
            <g id="Grupo_1112555" data-name="Grupo 1112555" transform="translate(25.437 92.435)" opacity="0.4" style="mix-blend-mode: screen;isolation: isolate">
              <g id="Grupo_1112554" data-name="Grupo 1112554">
                <g id="Grupo_1112553" data-name="Grupo 1112553" clip-path="url(#clip-path-31)">
                  <g id="Grupo_1112546" data-name="Grupo 1112546" transform="translate(0 0.681)" opacity="0.4" style="mix-blend-mode: color-dodge;isolation: isolate">
                    <g id="Grupo_1112545" data-name="Grupo 1112545">
                      <g id="Grupo_1112544" data-name="Grupo 1112544" clip-path="url(#clip-path-32)">
                        <rect id="Rectángulo_405580" data-name="Rectángulo 405580" width="15.621" height="114.033" transform="translate(0)" fill="#d8d8d8"/>
                      </g>
                    </g>
                  </g>
                  <g id="Grupo_1112549" data-name="Grupo 1112549" transform="translate(85.029)" opacity="0.4" style="mix-blend-mode: color-dodge;isolation: isolate">
                    <g id="Grupo_1112548" data-name="Grupo 1112548">
                      <g id="Grupo_1112547" data-name="Grupo 1112547" clip-path="url(#clip-path-33)">
                        <rect id="Rectángulo_405582" data-name="Rectángulo 405582" width="14.919" height="114.53" transform="translate(-0.001)" fill="#d8d8d8"/>
                      </g>
                    </g>
                  </g>
                  <g id="Grupo_1112552" data-name="Grupo 1112552" transform="translate(43.023 0.201)" opacity="0.4" style="mix-blend-mode: color-dodge;isolation: isolate">
                    <g id="Grupo_1112551" data-name="Grupo 1112551">
                      <g id="Grupo_1112550" data-name="Grupo 1112550" clip-path="url(#clip-path-34)">
                        <rect id="Rectángulo_405584" data-name="Rectángulo 405584" width="14.919" height="114.513" transform="translate(0)" fill="#d8d8d8"/>
                      </g>
                    </g>
                  </g>
                </g>
              </g>
            </g>
            <g id="Grupo_1112561" data-name="Grupo 1112561" transform="translate(158.801 92.187)" opacity="0.7" style="mix-blend-mode: multiply;isolation: isolate">
              <g id="Grupo_1112560" data-name="Grupo 1112560">
                <g id="Grupo_1112559" data-name="Grupo 1112559" clip-path="url(#clip-path-35)">
                  <g id="Grupo_1112558" data-name="Grupo 1112558" opacity="0.4" style="mix-blend-mode: color-dodge;isolation: isolate">
                    <g id="Grupo_1112557" data-name="Grupo 1112557">
                      <g id="Grupo_1112556" data-name="Grupo 1112556" clip-path="url(#clip-path-35)">
                        <rect id="Rectángulo_405587" data-name="Rectángulo 405587" width="25.965" height="114.529" fill="#68564c"/>
                      </g>
                    </g>
                  </g>
                </g>
              </g>
            </g>
            <g id="Grupo_1112564" data-name="Grupo 1112564" transform="translate(0 221.399)" opacity="0.4" style="mix-blend-mode: multiply;isolation: isolate">
              <g id="Grupo_1112563" data-name="Grupo 1112563">
                <g id="Grupo_1112562" data-name="Grupo 1112562" clip-path="url(#clip-path-37)">
                  <path id="Trazado_909242" data-name="Trazado 909242" d="M354.407,200.962c0,1.535-79.337,2.778-177.2,2.778S0,202.5,0,200.962s79.336-2.778,177.2-2.778,177.2,1.243,177.2,2.778" transform="translate(0 -198.183)" fill="#545454"/>
                </g>
              </g>
            </g>
          </g>
        </g>
      </g>
    </g>
  </g>
</svg>
