<svg xmlns="http://www.w3.org/2000/svg" width="61.333" height="61.345" viewBox="0 0 61.333 61.345">
  <g id="talla-de-madera" transform="translate(-0.052 -0.003)">
    <path id="Trazado_909268" data-name="Trazado 909268" d="M29.507,61.348a.9.9,0,0,1-.825-.542,3.642,3.642,0,0,0-6.69,0,.9.9,0,0,1-1.65,0,5.439,5.439,0,1,1,9.99,0,.9.9,0,0,1-.825.543Zm-4.17-6.337a3.647,3.647,0,0,0-3.611,3.168,5.442,5.442,0,0,1,7.222,0,3.647,3.647,0,0,0-3.611-3.168Zm-19.3,3.8H.95a.9.9,0,0,1-.635-1.534L25.08,32.508l-.2-.2a1.8,1.8,0,0,1-.293-2.156c.765-1.352,2.837-4.934,5.54-8.994A79.754,79.754,0,0,1,39.527,9.2,49.458,49.458,0,0,1,46.46,3.3a.9.9,0,1,1,1.012,1.485,47.675,47.675,0,0,0-6.674,5.68c-6.57,6.57-13.351,18.292-14.644,20.575l4.206,4.2c.588-.333,1.8-1.03,3.394-1.994l-3.79-3.79a.9.9,0,0,1,1.271-1.271l4.094,4.094c4.633-2.88,11.251-7.328,15.6-11.682,4.557-4.557,7.353-8.57,8.31-11.926.684-2.4.37-4.339-.906-5.615-1.647-1.647-4.407-1.674-7.772-.077a.9.9,0,1,1-.77-1.624c5.538-2.627,8.525-.858,9.813.43,2.347,2.347,1.862,5.63,1.363,7.378C59.93,12.823,56.98,17.1,52.2,21.874a79.763,79.763,0,0,1-11.966,9.4c-4.059,2.7-7.642,4.775-8.994,5.54a1.8,1.8,0,0,1-2.155-.294l-.2-.2L16.614,48.6a.9.9,0,0,1-1.271-1.271L27.622,35.049l-1.271-1.271L3.12,57.01H5.661l7.046-7.046a.9.9,0,0,1,1.271,1.271l-7.309,7.31a.9.9,0,0,1-.635.263Zm41.522-3.746a5.438,5.438,0,0,1-2.009-10.491.9.9,0,0,1,1.167,1.167,3.642,3.642,0,0,0,4.73,4.73.9.9,0,0,1,1.167,1.167,5.435,5.435,0,0,1-5.054,3.427Zm-2.888-7.654a3.642,3.642,0,0,0,5.107,5.107,5.442,5.442,0,0,1-5.107-5.107ZM50.7,41.545a5.4,5.4,0,0,1-2.153-.444.9.9,0,0,1,0-1.65,3.664,3.664,0,0,0,2.162-2.815.9.9,0,1,1,1.778.259,5.443,5.443,0,0,1-1.321,2.823,3.642,3.642,0,0,0,0-7.223.9.9,0,0,1-1.359,1.175,3.677,3.677,0,0,0-1.265-.909.9.9,0,0,1,0-1.65A5.439,5.439,0,1,1,50.7,41.545ZM9.438,35.072a5.439,5.439,0,0,1-2.01-10.493.9.9,0,0,1,1.167,1.167,3.642,3.642,0,0,0,4.73,4.73.9.9,0,0,1,1.167,1.167,5.44,5.44,0,0,1-5.054,3.429ZM6.549,27.414a3.642,3.642,0,0,0,5.107,5.107,5.435,5.435,0,0,1-3.523-1.584h0A5.434,5.434,0,0,1,6.549,27.414Zm16.739-5.471A5.439,5.439,0,1,1,25.442,11.51a.9.9,0,0,1,0,1.65,3.642,3.642,0,0,0,0,6.689.9.9,0,0,1,0,1.65,5.4,5.4,0,0,1-2.153.444Zm-.474-9.05a3.642,3.642,0,0,0,0,7.222,5.442,5.442,0,0,1,0-7.222Z" transform="translate(0 0)" fill="#7d9ffb"/>
  </g>
</svg>
