<svg xmlns="http://www.w3.org/2000/svg" xmlns:xlink="http://www.w3.org/1999/xlink" width="136" height="136" viewBox="0 0 136 136">
  <defs>
    <filter id="Elipse_12618" x="0" y="0" width="136" height="136" filterUnits="userSpaceOnUse">
      <feOffset dy="3" input="SourceAlpha"/>
      <feGaussianBlur stdDeviation="3" result="blur"/>
      <feFlood flood-opacity="0.161"/>
      <feComposite operator="in" in2="blur"/>
      <feComposite in="SourceGraphic"/>
    </filter>
  </defs>
  <g id="Grupo_1113544" data-name="Grupo 1113544" transform="translate(-943.424 -4928.7)">
    <g transform="matrix(1, 0, 0, 1, 943.42, 4928.7)" filter="url(#Elipse_12618)">
      <circle id="Elipse_12618-2" data-name="Elipse 12618" cx="59" cy="59" r="59" transform="translate(9 6)" fill="#fff"/>
    </g>
    <g id="botella-de-agua" transform="translate(929.402 4963.016)">
      <g id="Grupo_1112454" data-name="Grupo 1112454" transform="translate(57.774 0.893)">
        <g id="Grupo_1112452" data-name="Grupo 1112452" transform="translate(21.633 19.996)">
          <path id="Trazado_909154" data-name="Trazado 909154" d="M254.2,235.649l1.762,18.744.962,7.479a2.851,2.851,0,0,0,2.839,2.586h11.226a2.851,2.851,0,0,0,2.839-2.586l2.441-26.223L265.257,232Z" transform="translate(-253.227 -225.256)" fill="#98e465"/>
          <path id="Trazado_909155" data-name="Trazado 909155" d="M329.354,232l-2.386.788,8.639,2.861-2.441,26.223a2.851,2.851,0,0,1-2.84,2.586h4.764a2.851,2.851,0,0,0,2.839-2.586l2.441-26.223Z" transform="translate(-317.324 -225.256)" fill="#cef0b6"/>
          <path id="Trazado_909156" data-name="Trazado 909156" d="M270.015,175.378H246l.977,10.393h22.07Z" transform="translate(-246 -175.378)" fill="#e6f8db"/>
          <path id="Trazado_909157" data-name="Trazado 909157" d="M400.463,175.378l-.968,10.393h4.764l.968-10.393Z" transform="translate(-381.212 -175.378)" fill="#f7fee7"/>
        </g>
        <g id="Grupo_1112453" data-name="Grupo 1112453" transform="translate(0)">
          <path id="Trazado_909158" data-name="Trazado 909158" d="M82.561,52.961H81.266V47h-8.31v5.961H71.662a6.989,6.989,0,0,0-6.987,6.991v1.289a2.388,2.388,0,0,0,2.387,2.389h20.1a2.388,2.388,0,0,0,2.387-2.389V59.952A6.989,6.989,0,0,0,82.561,52.961Z" transform="translate(-64.64 -42.295)" fill="#c6e7f7"/>
          <path id="Trazado_909159" data-name="Trazado 909159" d="M170.029,52.961h-1.295V47H163.97v5.961h1.295a6.989,6.989,0,0,1,6.987,6.991v1.289a2.388,2.388,0,0,1-2.387,2.389h4.764a2.388,2.388,0,0,0,2.387-2.389V59.952A6.989,6.989,0,0,0,170.029,52.961Z" transform="translate(-152.108 -42.295)" fill="#b5e0f5"/>
          <path id="Trazado_909160" data-name="Trazado 909160" d="M87.149,199.336H67.075a2.4,2.4,0,0,1-2.4-2.4V189a2.388,2.388,0,0,1,2.388-2.388h20.1A2.388,2.388,0,0,1,89.548,189v7.933a2.4,2.4,0,0,1-2.4,2.4Z" transform="translate(-64.64 -165.281)" fill="#73c3ee"/>
          <path id="Trazado_909161" data-name="Trazado 909161" d="M218.131,186.617h-4.764a2.388,2.388,0,0,1,2.388,2.388v7.933a2.4,2.4,0,0,1-2.4,2.4h4.764a2.4,2.4,0,0,0,2.4-2.4v-7.933A2.388,2.388,0,0,0,218.131,186.617Z" transform="translate(-195.611 -165.282)" fill="#59acd9"/>
          <path id="Trazado_909162" data-name="Trazado 909162" d="M89.377,300.919a2.377,2.377,0,0,0-2.34-2.413,2.414,2.414,0,0,0,0-4.825H66.722a2.414,2.414,0,0,0,0,4.825,2.414,2.414,0,0,0,0,4.825s-2.305.032-2.305,3.017V311.8a6.989,6.989,0,0,0,6.987,6.991H82.3A6.989,6.989,0,0,0,89.29,311.8v-5.452c0-2.945-2.253-3.017-2.253-3.017a2.377,2.377,0,0,0,2.34-2.413Z" transform="translate(-64.382 -259.594)" fill="#c6e7f7"/>
          <path id="Trazado_909163" data-name="Trazado 909163" d="M186.678,300.919a2.377,2.377,0,0,0-2.34-2.413,2.414,2.414,0,0,0,0-4.825h-4.764a2.414,2.414,0,0,1,0,4.825,2.414,2.414,0,0,1,0,4.825s2.253.072,2.253,3.017V311.8a6.989,6.989,0,0,1-6.987,6.992H179.6a6.989,6.989,0,0,0,6.987-6.992v-5.452c0-2.945-2.253-3.017-2.253-3.017A2.377,2.377,0,0,0,186.678,300.919Z" transform="translate(-161.682 -259.594)" fill="#b5e0f5"/>
          <path id="Trazado_909164" data-name="Trazado 909164" d="M128.385,14.045H117.031a.594.594,0,0,1-.594-.594V9.438A1.938,1.938,0,0,1,118.375,7.5h8.666a1.938,1.938,0,0,1,1.938,1.938V13.45A.594.594,0,0,1,128.385,14.045Z" transform="translate(-110.237 -7.5)" fill="#73c3ee"/>
          <path id="Trazado_909165" data-name="Trazado 909165" d="M170.232,7.5h-4.764a1.938,1.938,0,0,1,1.938,1.938V13.45a.594.594,0,0,1-.594.594h4.764a.594.594,0,0,0,.594-.594V9.438A1.938,1.938,0,0,0,170.232,7.5Z" transform="translate(-153.428 -7.5)" fill="#59acd9"/>
        </g>
      </g>
      <path id="Trazado_909166" data-name="Trazado 909166" d="M104.082,20.288a.893.893,0,0,0-.66-.292H83.572c.238-5.017-2.908-9.453-8.278-9.331V8.331h.629a1.489,1.489,0,0,0,1.488-1.488V2.831A2.835,2.835,0,0,0,74.579,0H65.913a2.835,2.835,0,0,0-2.831,2.831V6.844a1.489,1.489,0,0,0,1.488,1.488H65.2v2.334a8.78,8.78,0,0,0-3.564.661.894.894,0,0,0,.718,1.636,6.044,6.044,0,0,1,2.445-.51h1.294a.893.893,0,0,0,.893-.893V8.331h6.523v3.228a.893.893,0,0,0,.893.893H75.7a6.1,6.1,0,0,1,6.094,6.1v1.289a1.5,1.5,0,0,1-1.494,1.5H60.2a1.5,1.5,0,0,1-1.494-1.5V18.55a6.071,6.071,0,0,1,1.025-3.387.894.894,0,0,0-1.485-.993,7.851,7.851,0,0,0-1.327,4.38v1.289a3.273,3.273,0,0,0,1.034,2.389,3.272,3.272,0,0,0-1.034,2.388v7.933a3.283,3.283,0,0,0,1.033,2.391,3.351,3.351,0,0,0-.043,4.865,3.351,3.351,0,0,0,.054,4.876,4.049,4.049,0,0,0-1.044,2.966V53.1a7.892,7.892,0,0,0,7.88,7.885H75.7a7.877,7.877,0,0,0,6.517-3.458l.006.062a3.728,3.728,0,0,0,3.729,3.4H97.173a3.727,3.727,0,0,0,3.729-3.4l.279-3a.894.894,0,0,0-1.779-.166l-.279,3a1.949,1.949,0,0,1-1.95,1.775H85.948A1.949,1.949,0,0,1,84,57.423l-.41-4.407c0-.027-.007-.053-.011-.079V47.648a4.075,4.075,0,0,0-1.021-2.941,3.351,3.351,0,0,0,.083-4.9,3.35,3.35,0,0,0-.07-4.889,3.283,3.283,0,0,0,1.008-2.368v-.373h17.9L99.823,49.9a.894.894,0,0,0,1.779.166l2.709-29.1a.894.894,0,0,0-.229-.685ZM64.868,6.545V2.831a1.046,1.046,0,0,1,1.045-1.045h8.666a1.046,1.046,0,0,1,1.045,1.045V6.545ZM80.294,23.121a1.5,1.5,0,0,1,1.495,1.495v7.933a1.508,1.508,0,0,1-1.506,1.506H60.209A1.508,1.508,0,0,1,58.7,32.549V24.616A1.5,1.5,0,0,1,60.2,23.121ZM81.789,53.1A6.1,6.1,0,0,1,75.7,59.2H64.8A6.1,6.1,0,0,1,58.7,53.1V47.648a2.152,2.152,0,0,1,.7-1.847,1.524,1.524,0,0,1,.731-.276h14.73a.894.894,0,0,0,0-1.787H60.115a1.521,1.521,0,0,1,0-3.039.894.894,0,0,0,0-1.787,1.521,1.521,0,0,1,0-3.039H80.429a1.521,1.521,0,0,1,0,3.039H65.011a.894.894,0,0,0,0,1.787H80.429a1.521,1.521,0,0,1,0,3.039.894.894,0,0,0-.029,1.786c.057,0,1.389.068,1.389,2.124Zm1.787-22.71V24.616a3.272,3.272,0,0,0-1.034-2.388,3.3,3.3,0,0,0,.4-.445h19.5l-.8,8.607Z"/>
    </g>
  </g>
</svg>
