<svg xmlns="http://www.w3.org/2000/svg" width="70" height="83.175" viewBox="0 0 70 83.175">
  <g id="agua-y-aceite" transform="translate(-40.355)">
    <g id="Grupo_1112571" data-name="Grupo 1112571" transform="translate(41.579 1.226)">
      <path id="Trazado_909243" data-name="Trazado 909243" d="M86.218,250.584H52.752a4.9,4.9,0,0,1-4.9-4.9V201.533h43.26v44.154A4.9,4.9,0,0,1,86.218,250.584Z" transform="translate(-47.855 -169.86)" fill="#fff"/>
      <path id="Trazado_909244" data-name="Trazado 909244" d="M292.855,201.533h3.265v11.321h-3.265Z" transform="translate(-252.86 -169.86)" fill="#a9baca"/>
      <path id="Trazado_909245" data-name="Trazado 909245" d="M86.218,382.246H52.752a4.9,4.9,0,0,1-4.9-4.9V358.881h43.26v18.468A4.9,4.9,0,0,1,86.218,382.246Z" transform="translate(-47.855 -301.521)" fill="#a4fef1"/>
      <path id="Trazado_909246" data-name="Trazado 909246" d="M267.752,358.881v18.468a4.9,4.9,0,0,1-4.9,4.9h3.265a4.9,4.9,0,0,0,4.9-4.9V358.881Z" transform="translate(-227.757 -301.521)" fill="#24eed7"/>
      <path id="Trazado_909247" data-name="Trazado 909247" d="M47.855,270.881h43.26v14.366H47.855Z" transform="translate(-47.855 -227.887)" fill="#8ae897"/>
      <path id="Trazado_909248" data-name="Trazado 909248" d="M292.855,270.881h3.265v14.366h-3.265Z" transform="translate(-252.86 -227.887)" fill="#00d43d"/>
      <circle id="Elipse_12661" data-name="Elipse 12661" cx="4.38" cy="4.38" r="4.38" transform="translate(5.006 51.818)" fill="#8ae897"/>
      <path id="Trazado_909249" data-name="Trazado 909249" d="M96.987,324.938a4.368,4.368,0,0,0-1.632.316,4.38,4.38,0,0,1,0,8.13,4.38,4.38,0,1,0,1.632-8.445Z" transform="translate(-87.601 -273.119)" fill="#00d43d"/>
      <circle id="Elipse_12662" data-name="Elipse 12662" cx="4.38" cy="4.38" r="4.38" transform="translate(26.548 52.979)" fill="#8ae897"/>
      <path id="Trazado_909250" data-name="Trazado 909250" d="M228.945,332.048a4.365,4.365,0,0,0-1.632.316,4.38,4.38,0,0,1,0,8.13,4.38,4.38,0,1,0,1.632-8.445Z" transform="translate(-198.017 -279.069)" fill="#00d43d"/>
      <path id="Trazado_909251" data-name="Trazado 909251" d="M0,0H14.692V7.356H0Z" transform="translate(46.818 1.272) rotate(60.973)" fill="#ff6a47"/>
      <path id="Trazado_909252" data-name="Trazado 909252" d="M346.79,19.5l-4.754-8.564L347.1,8.127a4.9,4.9,0,1,1,4.754,8.564Z" transform="translate(-294.012 -7.51)" fill="#ff6a47"/>
      <path id="Trazado_909253" data-name="Trazado 909253" d="M379.8,10.037a4.9,4.9,0,0,1-1.9,6.659l-.839.466a11.511,11.511,0,0,1,3.5-.128l.609-.338a4.9,4.9,0,0,0-4.01-8.9,4.879,4.879,0,0,1,2.65,2.239Z" transform="translate(-323.315 -7.515)" fill="#fd3501"/>
      <path id="Trazado_909254" data-name="Trazado 909254" d="M189.817,61.722l-4-7.208-15.557,8.637L168.216,66.2l-4.392,2.438a2.449,2.449,0,0,0,2.377,4.282l4.392-2.438,3.667-.122Z" transform="translate(-143.838 -46.841)" fill="#feef8f"/>
      <circle id="Elipse_12663" data-name="Elipse 12663" cx="11.64" cy="11.64" r="11.64" transform="translate(44.272 9.441)" fill="#8ae897"/>
      <path id="Trazado_909255" data-name="Trazado 909255" d="M381.987,65.342a11.727,11.727,0,0,0-1.632.116,11.638,11.638,0,0,1,0,23.046,11.639,11.639,0,1,0,1.632-23.163Z" transform="translate(-326.076 -55.901)" fill="#00d43d"/>
      <path id="Trazado_909256" data-name="Trazado 909256" d="M371.181,107.27a4.648,4.648,0,0,1-9.295,0c0-3.056,4.647-7.441,4.647-7.441S371.181,104.214,371.181,107.27Z" transform="translate(-310.622 -84.758)" fill="#fff"/>
      <path id="Trazado_909257" data-name="Trazado 909257" d="M381.987,99.829s-.742.7-1.632,1.736c1.339,1.556,3.015,3.87,3.015,5.705a4.192,4.192,0,0,1-3.015,4.349,5.669,5.669,0,0,0,1.632.23,4.309,4.309,0,0,0,4.647-4.579C386.635,104.214,381.987,99.829,381.987,99.829Z" transform="translate(-326.076 -84.758)" fill="#a9baca"/>
      <circle id="Elipse_12664" data-name="Elipse 12664" cx="3.265" cy="3.265" r="3.265" transform="translate(16.597 46.721)" fill="#00d43d"/>
    </g>
    <g id="Grupo_1112572" data-name="Grupo 1112572" transform="translate(40.355 0)">
      <path id="Trazado_909258" data-name="Trazado 909258" d="M40.355,239.412a6.129,6.129,0,0,0,6.122,6.122H79.942a6.129,6.129,0,0,0,6.122-6.122V194.033H40.355Zm43.26,0a3.677,3.677,0,0,1-3.673,3.673H46.477a3.677,3.677,0,0,1-3.673-3.673V222.168H45.9a5.6,5.6,0,0,0,10.141,0h4.724v-2.449H56.569a5.6,5.6,0,0,0-11.206,0H42.8V207.8H83.615v11.917H77.976a5.6,5.6,0,0,0-10.937,0H63.23v2.449h3.809a5.6,5.6,0,0,0,10.937,0h5.639v17.244ZM47.81,219.783a3.156,3.156,0,1,1,3.156,3.156A3.16,3.16,0,0,1,47.81,219.783Zm27.854,1.161a3.156,3.156,0,1,1-3.156-3.156A3.16,3.16,0,0,1,75.664,220.944Zm7.951-24.462v8.872H42.8v-8.872Z" transform="translate(-40.355 -162.358)"/>
      <path id="Trazado_909259" data-name="Trazado 909259" d="M151,290.7a4.489,4.489,0,1,0-4.489,4.489A4.494,4.494,0,0,0,151,290.7Zm-6.53,0a2.041,2.041,0,1,1,2.041,2.041A2.043,2.043,0,0,1,144.47,290.7Z" transform="translate(-125.425 -239.492)"/>
      <path id="Trazado_909260" data-name="Trazado 909260" d="M206.154,20.088l-2.412.42a10.416,10.416,0,1,1-10.261-8.616,10.383,10.383,0,0,1,9.641,6.467l2.266-.929a12.821,12.821,0,0,0-7.723-7.293,6.123,6.123,0,0,0-7.6-9.363l-4,2.219L184.881.85l-8.572,4.759,1.565,2.819L170.4,12.577l1.189,2.141,7.473-4.149,2.813,5.067L167.656,23.53l-3.667.122-4.65,2.582a1.224,1.224,0,0,1-1.189-2.141l4.65-2.582,2.042-3.048,4.584-2.545-1.189-2.141-5.1,2.832L161.1,19.657l-4.134,2.295a3.673,3.673,0,1,0,3.566,6.423l4.133-2.295,3.667-.122,12.758-7.083a12.863,12.863,0,1,0,25.259,3.432,13.019,13.019,0,0,0-.191-2.218Zm-14.9-17.175a3.673,3.673,0,1,1,3.565,6.423l-.273.151c-.352-.029-.708-.045-1.066-.045a12.816,12.816,0,0,0-3.551.5l-2.672-4.813ZM183.928,4.18l3.705,6.675a12.943,12.943,0,0,0-3.9,3.077l-4.092-7.37Z" transform="translate(-136.345 0)"/>
      <path id="Trazado_909261" data-name="Trazado 909261" d="M360.259,89.517l-.84.793c-.515.486-5.031,4.848-5.031,8.331a5.872,5.872,0,0,0,11.744,0c0-3.483-4.516-7.845-5.031-8.331Zm3.423,9.124a3.424,3.424,0,0,1-6.846,0c0-1.545,1.854-4.027,3.424-5.7C361.829,94.611,363.682,97.091,363.682,98.641Z" transform="translate(-303.123 -74.904)"/>
      <path id="Trazado_909262" data-name="Trazado 909262" d="M270.417,315.381h2.449v2.449h-2.449Z" transform="translate(-232.86 -263.897)"/>
      <path id="Trazado_909263" data-name="Trazado 909263" d="M225.417,295.381h2.449v2.449h-2.449Z" transform="translate(-195.207 -247.162)"/>
      <path id="Trazado_909264" data-name="Trazado 909264" d="M75.355,292.444H77.8v2.449H75.355Z" transform="translate(-69.641 -244.704)"/>
      <path id="Trazado_909265" data-name="Trazado 909265" d="M217.207,402.517a5.539,5.539,0,1,0,5.539,5.539A5.546,5.546,0,0,0,217.207,402.517Zm0,8.63a3.091,3.091,0,1,1,3.091-3.091A3.094,3.094,0,0,1,217.207,411.147Z" transform="translate(-183.702 -336.808)" fill="#a4fef1"/>
      <path id="Trazado_909266" data-name="Trazado 909266" d="M162.044,406.259l.074-.528v-.078a3.406,3.406,0,0,0-6.748-.659l2.4.472a.958.958,0,0,1,1.895.125l-.022.168c-.073.28-3.974,5.6-3.974,5.6l-.007,2,6.458.016.006-2.449-2.9-.007A32.577,32.577,0,0,0,162.044,406.259Z" transform="translate(-136.594 -336.581)" fill="#a4fef1"/>
      <path id="Trazado_909267" data-name="Trazado 909267" d="M88.067,407.746H83.153v-4.729H80.7v10.926h2.449v-3.748h4.914v3.748h2.449V403.017H88.067Z" transform="translate(-74.117 -337.226)" fill="#a4fef1"/>
    </g>
  </g>
</svg>
