<svg xmlns="http://www.w3.org/2000/svg" xmlns:xlink="http://www.w3.org/1999/xlink" width="136" height="136" viewBox="0 0 136 136">
  <defs>
    <filter id="Elipse_11661" x="0" y="0" width="136" height="136" filterUnits="userSpaceOnUse">
      <feOffset dy="3" input="SourceAlpha"/>
      <feGaussianBlur stdDeviation="3" result="blur"/>
      <feFlood flood-opacity="0.161"/>
      <feComposite operator="in" in2="blur"/>
      <feComposite in="SourceGraphic"/>
    </filter>
  </defs>
  <g id="Grupo_1113542" data-name="Grupo 1113542" transform="translate(-1172.5 -4933.7)">
    <g transform="matrix(1, 0, 0, 1, 1172.5, 4933.7)" filter="url(#Elipse_11661)">
      <circle id="Elipse_11661-2" data-name="Elipse 11661" cx="59" cy="59" r="59" transform="translate(9 6)" fill="#fff"/>
    </g>
    <path id="Trazado_909144" data-name="Trazado 909144" d="M185.816,34.683l18.335-20.3s7.753-9.6,15.352-6.211a1.185,1.185,0,0,1,.609,1.517c-1.245,3.162-6.068,13.71-20.5,30.892a1.2,1.2,0,0,1-1.5.273l-5.967-3.378a1,1,0,0,0-1.238.2l-.8.882Zm0,0" transform="translate(1046.624 4964.457)" fill="#bfbfbf"/>
    <path id="Trazado_909145" data-name="Trazado 909145" d="M223.223,294.105l.311.176-.052.058Zm0,0" transform="translate(1013.246 4708.673)" fill="#acacac"/>
    <path id="Trazado_909146" data-name="Trazado 909146" d="M292.538,43.483a1.2,1.2,0,0,1-1.5.272l-1.073-.607C304.869,25.28,310.016,14.215,311.42,10.7a8.074,8.074,0,0,1,1.011.375,1.184,1.184,0,0,1,.608,1.518c-1.244,3.161-6.068,13.709-20.5,30.891Zm0,0" transform="translate(953.697 4961.553)" fill="#acacac"/>
    <path id="Trazado_909147" data-name="Trazado 909147" d="M150.755,260.648l-4.274,4.733,3.881,3.5,1.191-.834a2.993,2.993,0,0,1,3.1-.2,1.269,1.269,0,0,0,1.53-.274l.516-.572a.734.734,0,0,0-.053-1.036Zm0,0" transform="translate(1081.723 4738.526)" fill="#bc7d53"/>
    <path id="Trazado_909148" data-name="Trazado 909148" d="M178.3,305.161a.734.734,0,0,1,.053,1.037l-.516.571a1.272,1.272,0,0,1-1.53.275,2.992,2.992,0,0,0-3.1.2l-1.19.834-1.267-1.144c.005,0,.729-.75.789-.812a3.231,3.231,0,0,1,1.228-.8,3.936,3.936,0,0,1,2.328-.127,2.6,2.6,0,0,0,2.147-.11c.07-.05.5-.426.407-.517Zm0,0" transform="translate(1060.068 4699.334)" fill="#af663e"/>
    <path id="Trazado_909149" data-name="Trazado 909149" d="M22.023,304.594l-14.1,15.617a3.573,3.573,0,1,0,5.763,4.152l.383-.677a22.092,22.092,0,0,1,4.326-5.436l1.143-1.045a22.072,22.072,0,0,0,4.4-5.562L25.9,308.1Zm0,0" transform="translate(1206.18 4699.313)" fill="#bc7d53"/>
    <path id="Trazado_909150" data-name="Trazado 909150" d="M18.331,344.56a3.576,3.576,0,0,1-5.043.251,3.467,3.467,0,0,1-.562-.648,3.578,3.578,0,0,0,4.34-.747,3.632,3.632,0,0,0,.462-.643l.382-.677a22.1,22.1,0,0,1,4.325-5.436l1.143-1.044a22.062,22.062,0,0,0,4.4-5.564l1.972-3.544,1.267,1.144L29.043,331.2a22.1,22.1,0,0,1-4.4,5.563L23.5,337.8a22.058,22.058,0,0,0-4.325,5.436l-.383.676a3.557,3.557,0,0,1-.463.644Zm0,0" transform="translate(1201.07 4679.76)" fill="#af663e"/>
    <path id="Trazado_909151" data-name="Trazado 909151" d="M54.009,1.284c-3.359-1.5-7.252-.842-11.258,1.9a25.745,25.745,0,0,0-4.974,4.508L5.562,43.443a.754.754,0,1,0,1.119,1.011l9.153-10.135,2.876,2.6-1.68,3.02a21.3,21.3,0,0,1-4.247,5.373L11.64,46.354a22.811,22.811,0,0,0-4.474,5.622l-.382.677a2.819,2.819,0,1,1-4.547-3.276l2.023-2.24a.754.754,0,0,0-1.119-1.01l-2.023,2.24a4.328,4.328,0,0,0,3.2,7.228,4.4,4.4,0,0,0,.7-.057A4.307,4.307,0,0,0,8.1,53.394l.382-.677a21.29,21.29,0,0,1,4.178-5.251L13.8,46.421a22.794,22.794,0,0,0,4.547-5.752l1.887-3.393,1.049-.734a2.23,2.23,0,0,1,2.32-.15,2.023,2.023,0,0,0,2.439-.438l.516-.571a1.49,1.49,0,0,0-.107-2.1l-1.081-.977.292-.323a.247.247,0,0,1,.307-.05l5.967,3.378a1.949,1.949,0,0,0,2.453-.444A168.068,168.068,0,0,0,50.662,12.379L51,11.8l.009-.016.277-.5a.754.754,0,1,0-1.321-.727l-.272.5-.331.569A166.593,166.593,0,0,1,33.234,33.9a.442.442,0,0,1-.556.1L26.71,30.62a1.746,1.746,0,0,0-2.169.351l-.292.323-3.169-2.862L38.91,8.689l.027-.032A24.47,24.47,0,0,1,43.6,4.429c3.6-2.465,6.9-3.06,9.793-1.767a.433.433,0,0,1,.215.552c-.323.82-.913,2.2-1.888,4.111a.754.754,0,0,0,1.343.685c1-1.966,1.613-3.393,1.948-4.244a1.933,1.933,0,0,0-1-2.482ZM24.922,34.944a.516.516,0,0,1-.621.111,3.734,3.734,0,0,0-3.883.251l-.7.489-1.14-1.03L16.844,33.2l3.264-3.614,5.317,4.8Zm0,0" transform="translate(1212.425 4970.654)"/>
    <g id="Grupo_1112451" data-name="Grupo 1112451" transform="translate(1216.935 5011.912)">
      <path id="Trazado_909152" data-name="Trazado 909152" d="M102.868,380.03a1.12,1.12,0,1,1-1.12-1.12A1.12,1.12,0,0,1,102.868,380.03Zm0,0" transform="translate(-94.3 -378.91)" fill="#111"/>
      <path id="Trazado_909153" data-name="Trazado 909153" d="M44.107,445.1a1.12,1.12,0,1,1-1.12-1.12A1.12,1.12,0,0,1,44.107,445.1Zm0,0" transform="translate(-41.867 -436.975)" fill="#111"/>
    </g>
  </g>
</svg>
