<svg xmlns="http://www.w3.org/2000/svg" xmlns:xlink="http://www.w3.org/1999/xlink" width="136" height="136" viewBox="0 0 136 136">
  <defs>
    <filter id="Elipse_12660" x="0" y="0" width="136" height="136" filterUnits="userSpaceOnUse">
      <feOffset dy="3" input="SourceAlpha"/>
      <feGaussianBlur stdDeviation="3" result="blur"/>
      <feFlood flood-opacity="0.161"/>
      <feComposite operator="in" in2="blur"/>
      <feComposite in="SourceGraphic"/>
    </filter>
  </defs>
  <g id="Grupo_1113542" data-name="Grupo 1113542" transform="translate(-427 -4942.116)">
    <g transform="matrix(1, 0, 0, 1, 427, 4942.12)" filter="url(#Elipse_12660)">
      <circle id="Elipse_12660-2" data-name="Elipse 12660" cx="59" cy="59" r="59" transform="translate(9 6)" fill="#fff"/>
    </g>
    <g id="XMLID_1007_" transform="translate(459.417 4975.533)">
      <path id="XMLID_1484_" d="M117.72,60.153,92.409,45.54a5.471,5.471,0,0,1-2-7.474L105.02,12.755a5.471,5.471,0,0,1,7.474-2L137.8,25.366a5.471,5.471,0,0,1,2,7.474L125.194,58.151a5.471,5.471,0,0,1-7.474,2Z" transform="translate(-78.61 -8.783)" fill="#ffcd69"/>
      <g id="XMLID_1531_" transform="translate(21.695 12.815)">
        <path id="XMLID_1532_" d="M201.065,152.995V140.489a19.6,19.6,0,0,0,5.762-13.882V116.494a2.687,2.687,0,0,0-5.375,0V109.5a2.687,2.687,0,0,0-5.375,0v-2.938a2.687,2.687,0,0,0-5.375,0V109.5a2.687,2.687,0,0,0-5.375,0v19.142l-3.642-5.685a3.166,3.166,0,0,0-5.709,2.577l.1.359a27.143,27.143,0,0,0,10.315,14.623v12.476h14.671Z" transform="translate(-175.854 -103.877)" fill="#f3c9a6"/>
      </g>
      <g id="XMLID_543_" transform="translate(0 0)">
        <path id="XMLID_544_" d="M122.259,19.588a6.661,6.661,0,0,0-3.124-4.071l-7.848-4.531a1.234,1.234,0,1,0-1.234,2.137l7.848,4.531a4.237,4.237,0,0,1,1.551,5.789L113.224,34.23v-8.8a3.921,3.921,0,0,0-5.375-3.642v-3.35a3.921,3.921,0,0,0-5.434-3.618,3.922,3.922,0,0,0-7.724,0,3.921,3.921,0,0,0-5.434,3.618V33.372l-1.369-2.137a4.4,4.4,0,0,0-7.934,3.582l.1.359A28.259,28.259,0,0,0,82.239,40.6l-8.5-4.907A4.243,4.243,0,0,1,72.189,29.9L86.8,4.592a4.237,4.237,0,0,1,5.789-1.551l7.849,4.531a1.234,1.234,0,0,0,1.234-2.137L93.824.9a6.7,6.7,0,0,0-9.159,2.454l-.78,1.35A36.044,36.044,0,0,0,74.606,3.3H74.58a1.234,1.234,0,0,0-.024,2.467,33.59,33.59,0,0,1,8.056,1.147L74.442,21.066a17.891,17.891,0,0,0-5.513-.97,1.234,1.234,0,1,0-.044,2.467,15.451,15.451,0,0,1,4.3.686l-3.129,5.419a6.713,6.713,0,0,0,2.454,9.159l12.759,7.367a28.362,28.362,0,0,0,5.059,4.89v11.85a1.234,1.234,0,1,0,2.467,0V49.459a1.234,1.234,0,0,0-.516-1A26.011,26.011,0,0,1,82.43,34.5l-.1-.359a1.932,1.932,0,0,1,3.484-1.573l3.642,5.685a1.234,1.234,0,0,0,2.272-.665v-5.11c0-.008,0-.016,0-.024V18.443a1.454,1.454,0,0,1,2.907,0V30.028a1.234,1.234,0,1,0,2.467,0V15.5a1.454,1.454,0,0,1,2.907,0V30.028a1.234,1.234,0,0,0,2.467,0V18.443a1.454,1.454,0,1,1,2.907,0V30.028a1.234,1.234,0,0,0,2.467,0V25.434a1.454,1.454,0,1,1,2.907,0V35.547a18.5,18.5,0,0,1-5.4,13.009,1.234,1.234,0,0,0-.363.874V61.935a1.234,1.234,0,0,0,2.467,0v-12a20.675,20.675,0,0,0,5.292-9.954l8.835-15.3a6.66,6.66,0,0,0,.67-5.088Z" transform="translate(-59.324 -0.003)"/>
        <path id="XMLID_563_" d="M1.237,34.638a1.228,1.228,0,0,0,.472-.095,33.508,33.508,0,0,1,7.754-2.165A1.234,1.234,0,1,0,9.09,29.94,35.961,35.961,0,0,0,.765,32.264a1.234,1.234,0,0,0,.473,2.374Z" transform="translate(-0.003 -26.234)"/>
        <path id="XMLID_564_" d="M1.235,102.171a1.229,1.229,0,0,0,.469-.093,24.377,24.377,0,0,1,12.227-1.642,1.234,1.234,0,1,0,.3-2.449A26.844,26.844,0,0,0,.765,99.8a1.234,1.234,0,0,0,.47,2.375Z" transform="translate(-0.001 -85.723)"/>
        <path id="XMLID_565_" d="M3.067,171.285a17.89,17.89,0,0,0-2.428,1.108,1.234,1.234,0,1,0,1.189,2.162A15.43,15.43,0,0,1,3.92,173.6a1.234,1.234,0,0,0-.853-2.315Z" transform="translate(0 -150.087)"/>
        <path id="XMLID_566_" d="M368.478,67.657a1.234,1.234,0,1,0-.872-.361A1.245,1.245,0,0,0,368.478,67.657Z" transform="translate(-321.938 -57.146)"/>
      </g>
    </g>
  </g>
</svg>
