<svg xmlns="http://www.w3.org/2000/svg" width="62" height="73.376" viewBox="0 0 62 73.376">
  <path id="Trazado_909117" data-name="Trazado 909117" d="M101.62,16.165a1.075,1.075,0,0,0-.562-.6,22.4,22.4,0,0,0-10.409-1.9,18.816,18.816,0,0,0,.3-5.2,1.075,1.075,0,0,0-.985-.985A18.633,18.633,0,0,0,77.58,10.861,18.512,18.512,0,0,0,71.383.256a1.075,1.075,0,0,0-1.393,0,18.512,18.512,0,0,0-6.2,10.6A18.633,18.633,0,0,0,51.409,7.477a1.075,1.075,0,0,0-.984.985,18.818,18.818,0,0,0,.3,5.2q-.962-.048-1.925-.021a1.075,1.075,0,1,0,.063,2.149,22.853,22.853,0,0,1,8.667,1.459,21.818,21.818,0,0,1,11.685,9.868,21.817,21.817,0,0,1-15.294-.16,21.806,21.806,0,0,1-11.685-9.868,19.008,19.008,0,0,1,1.924-.622,1.075,1.075,0,1,0-.552-2.077,20.888,20.888,0,0,0-3.291,1.174,1.075,1.075,0,0,0-.53,1.428A23.728,23.728,0,0,0,53.171,28.97a25.374,25.374,0,0,0,7.894,1.582,2.978,2.978,0,0,0-.1.764,7.938,7.938,0,0,0,.974,3.828,2.984,2.984,0,0,0-.974,2.2,7.939,7.939,0,0,0,.974,3.827,3,3,0,0,0-.974,2.205,8.038,8.038,0,0,0,5.784,7.7l-.9,12.853a1.075,1.075,0,0,0,1,1.147l.076,0a1.075,1.075,0,0,0,1.071-1l.869-12.466a3.049,3.049,0,0,0,3.647,0l1.366,19.6H67.5l.151-2.167a1.075,1.075,0,0,0-2.144-.149l-.231,3.316a1.075,1.075,0,0,0,1.072,1.15H75.03a1.075,1.075,0,0,0,1.072-1.15L74.628,51.087a7.975,7.975,0,0,0,2.215-1.034,1.075,1.075,0,1,0-1.2-1.786,5.827,5.827,0,0,1-1.887.825V47.333a4.213,4.213,0,0,0,2.806-3.692c.006-.087.008-.174.008-.26a.845.845,0,0,1,.844-.844.834.834,0,0,1,.227.031.846.846,0,0,1,.617.813,5.863,5.863,0,0,1-.175,1.428,1.075,1.075,0,1,0,2.085.524,8.014,8.014,0,0,0,.24-1.952,3,3,0,0,0-.973-2.205,7.938,7.938,0,0,0,.973-3.827,2.983,2.983,0,0,0-.974-2.2,7.938,7.938,0,0,0,.974-3.828,2.981,2.981,0,0,0-.1-.764A25.377,25.377,0,0,0,88.2,28.97a25.967,25.967,0,0,0,3.333-1.513,1.075,1.075,0,0,0,.537-1.173l-.656-3.017L94.3,24.887a1.075,1.075,0,0,0,1.212-.109,22.385,22.385,0,0,0,6.078-7.789,1.076,1.076,0,0,0,.031-.824Zm-12.763-6.6a16.611,16.611,0,0,1-.456,4.314,25.663,25.663,0,0,0-10.863,4.231,18.583,18.583,0,0,0,.377-3.739q0-.523-.029-1.041A16.483,16.483,0,0,1,88.857,9.569ZM52.973,13.875a16.614,16.614,0,0,1-.455-4.306,16.477,16.477,0,0,1,10.97,3.763q-.029.519-.03,1.043a18.586,18.586,0,0,0,.377,3.738,25.809,25.809,0,0,0-10.863-4.238ZM66.793,20.5A16.39,16.39,0,0,1,70.687,2.52,16.387,16.387,0,0,1,74.579,20.5a22.385,22.385,0,0,0-3.892,4.853,22.383,22.383,0,0,0-3.9-4.856Zm7.632,16.849a2.043,2.043,0,0,1-.665,1.5V35.275a4.167,4.167,0,0,0,2.814-3.959.844.844,0,0,1,1.688,0,5.807,5.807,0,0,1-.851,3.039A3,3,0,0,0,74.425,37.348ZM63.963,40.387a5.807,5.807,0,0,1-.85-3.039.844.844,0,0,1,1.688,0,4.168,4.168,0,0,0,2.815,3.959v3.572a2.042,2.042,0,0,1-.665-1.5A3,3,0,0,0,63.963,40.387Zm7.648-6.641a3.069,3.069,0,0,0-1.846,0v-3.1a.923.923,0,0,1,1.846,0Zm-4-3.1v2.172a2.043,2.043,0,0,1-.665-1.5,2.973,2.973,0,0,0-.266-1.231q.524-.109,1.04-.244A3.059,3.059,0,0,0,67.615,30.643Zm-3.659-.171a.845.845,0,0,1,.844.844,4.168,4.168,0,0,0,2.815,3.959v3.572a2.043,2.043,0,0,1-.665-1.5,3,3,0,0,0-2.988-2.993,5.806,5.806,0,0,1-.85-3.038.845.845,0,0,1,.844-.844Zm5.808,9.3v-3.1a.923.923,0,0,1,1.846,0v3.1a3.066,3.066,0,0,0-1.846,0Zm4.66-8.461a2.043,2.043,0,0,1-.665,1.5V30.643a3.054,3.054,0,0,0-.11-.8c.344.089.69.172,1.039.245a2.974,2.974,0,0,0-.265,1.229ZM63.112,43.38a.846.846,0,0,1,.62-.814.832.832,0,0,1,.224-.03.845.845,0,0,1,.844.844,4.166,4.166,0,0,0,2.814,3.958v1.754A5.885,5.885,0,0,1,63.112,43.38Zm8.5,5.774a.923.923,0,0,1-1.846,0V42.7a.923.923,0,0,1,1.845,0Zm2.815-5.774c0,.036,0,.073,0,.122a2.036,2.036,0,0,1-.661,1.377V41.307a4.167,4.167,0,0,0,2.814-3.959.844.844,0,0,1,1.688,0,5.807,5.807,0,0,1-.851,3.039A3,3,0,0,0,74.425,43.38ZM94.7,22.645l-4.311-2.424a1.075,1.075,0,0,0-1.577,1.165l.989,4.552a23.971,23.971,0,0,1-2.344,1.017,21.818,21.818,0,0,1-15.294.16A22.586,22.586,0,0,1,99.139,17.087,20.371,20.371,0,0,1,94.7,22.645Z" transform="translate(-39.688 0)" fill="#3e4e7d"/>
</svg>
