<svg id="Grupo_1113332" data-name="Grupo 1113332" xmlns="http://www.w3.org/2000/svg" xmlns:xlink="http://www.w3.org/1999/xlink" width="278.851" height="714.054" viewBox="0 0 278.851 714.054">
  <defs>
    <clipPath id="clip-path">
      <rect id="Rectángulo_405872" data-name="Rectángulo 405872" width="278.851" height="714.054" fill="none"/>
    </clipPath>
    <clipPath id="clip-path-3">
      <rect id="Rectángulo_405867" data-name="Rectángulo 405867" width="73.887" height="137.275" fill="none"/>
    </clipPath>
    <clipPath id="clip-path-4">
      <rect id="Rectángulo_405868" data-name="Rectángulo 405868" width="18.429" height="51.555" fill="none"/>
    </clipPath>
    <clipPath id="clip-path-5">
      <rect id="Rectángulo_405869" data-name="Rectángulo 405869" width="63.765" height="27.593" fill="none"/>
    </clipPath>
    <clipPath id="clip-path-6">
      <rect id="Rectángulo_405870" data-name="Rectángulo 405870" width="67.39" height="33.819" fill="none"/>
    </clipPath>
  </defs>
  <g id="Grupo_1113331" data-name="Grupo 1113331" clip-path="url(#clip-path)">
    <g id="Grupo_1113330" data-name="Grupo 1113330">
      <g id="Grupo_1113329" data-name="Grupo 1113329" clip-path="url(#clip-path)">
        <path id="Trazado_910605" data-name="Trazado 910605" d="M176.349,276.287c-14.2,0-27.71.462-39.952,1.29-10.785-.615-22.435-.953-34.594-.953-55.4,0-100.314,6.986-100.314,15.6s44.913,15.6,100.314,15.6c14.2,0,27.709-.462,39.952-1.289,10.785.615,22.435.953,34.594.953,55.4,0,100.312-6.986,100.312-15.6s-44.91-15.6-100.312-15.6" transform="translate(2.188 406.228)" fill="#b25f14"/>
        <path id="Trazado_910606" data-name="Trazado 910606" d="M115.347,302.157V387.58a4.524,4.524,0,0,1-4.521,4.521h-2.742a4.5,4.5,0,0,1-4.5-4.521V314.706a4.521,4.521,0,1,0-9.041,0V387.58a4.523,4.523,0,0,1-4.521,4.521H86.4a4.523,4.523,0,0,1-4.521-4.521V313.965a4.5,4.5,0,0,0-4.5-4.521H74.217a4.476,4.476,0,0,0-3.286,1.408,4.429,4.429,0,0,0-1.235,3.113V387.58a4.523,4.523,0,0,1-4.521,4.521H62.26a4.523,4.523,0,0,1-4.521-4.521V313.965a4.507,4.507,0,0,0-4.521-4.521H50.551a4.523,4.523,0,0,0-4.521,4.521V387.58A4.523,4.523,0,0,1,41.51,392.1H38.175a4.523,4.523,0,0,1-4.521-4.521V302.157a26.652,26.652,0,0,1,26.605-26.605,4.545,4.545,0,0,0,4.57-4.644l-.1-5.286L63.915,230.2l-.272-12.327H82.69v53.136a4.512,4.512,0,0,0,4.518,4.545h1.509A26.637,26.637,0,0,1,115.323,300.8c.025.445.025.914.025,1.359" transform="translate(49.482 320.337)" fill="#686868"/>
        <g id="Grupo_1113319" data-name="Grupo 1113319" transform="translate(90.941 550.534)" opacity="0.3" style="mix-blend-mode: overlay;isolation: isolate">
          <g id="Grupo_1113318" data-name="Grupo 1113318">
            <g id="Grupo_1113317" data-name="Grupo 1113317" clip-path="url(#clip-path-3)">
              <path id="Trazado_910607" data-name="Trazado 910607" d="M110.7,294.82v65.315c-2.594-2.668-5.039-5.509-7.287-7.46-1.556-1.334-3.038-2.693-4.471-4.051V307.369a4.521,4.521,0,1,0-9.041,0V339.8q-1.223-1.186-2.52-2.372-5.262-4.891-10.153-9.955V306.628a4.5,4.5,0,0,0-4.5-4.521H69.57a4.476,4.476,0,0,0-3.286,1.408,4.429,4.429,0,0,0-1.235,3.113v7.362c-4.447-5.286-8.7-10.771-12.747-16.576-5.039-7.189-10.153-14.377-15.489-21.393a26.557,26.557,0,0,1,18.8-7.806,4.545,4.545,0,0,0,4.57-4.644l-.1-5.286-.815-35.424c4.051,4.792,8.078,9.659,12.5,14.081a53.121,53.121,0,0,0,6.275,5.262V263.67a4.512,4.512,0,0,0,4.518,4.545h1.509a26.637,26.637,0,0,1,26.605,25.247c.025.445.025.914.025,1.359" transform="translate(-36.813 -222.86)"/>
            </g>
          </g>
        </g>
        <path id="Trazado_910608" data-name="Trazado 910608" d="M69.326,438.667H57.839l-6.5-135.472L49.07,255.814l-3.088-64.031-4.027-84.435L40.473,76.3l.988-5.138a4.233,4.233,0,0,1,4.15-3.458,4.284,4.284,0,0,1,3.73,2.223,19.6,19.6,0,0,1,2.149,5.731,3.536,3.536,0,0,0,5.929,1.729.255.255,0,0,0,.1-.2L58.9,119.255l2.124,65.439,2.248,68.848,1.482,45.4Z" transform="translate(59.508 99.54)" fill="#765216"/>
        <g id="Grupo_1113322" data-name="Grupo 1113322" transform="translate(99.982 167.24)" opacity="0.3" style="mix-blend-mode: overlay;isolation: isolate">
          <g id="Grupo_1113321" data-name="Grupo 1113321">
            <g id="Grupo_1113320" data-name="Grupo 1113320" clip-path="url(#clip-path-4)">
              <path id="Trazado_910609" data-name="Trazado 910609" d="M58.9,119.255c-2.446-2.1-4.916-4.1-7.46-5.953-2.693-1.952-6-3.9-9.486-5.953L40.473,76.3l.988-5.138a4.233,4.233,0,0,1,4.15-3.458,4.284,4.284,0,0,1,3.73,2.223,19.6,19.6,0,0,1,2.149,5.731,3.536,3.536,0,0,0,5.929,1.729.255.255,0,0,0,.1-.2Z" transform="translate(-40.474 -67.7)"/>
            </g>
          </g>
        </g>
        <path id="Trazado_910610" data-name="Trazado 910610" d="M28.4,294.707a11.674,11.674,0,0,1-7.515-2.737,8.778,8.778,0,0,0,.689,6.853,4.763,4.763,0,0,0,2.71,2.043c3.026.85,10.805,1.2,28.757-6.159v-7.144l-21.19,6.613a12.036,12.036,0,0,1-3.451.531m68.64-18.243a8.2,8.2,0,0,0-2.176-4.938,6.874,6.874,0,0,1-4.516,4.407l-1.275.4v5.575l5.79-2.043a3.32,3.32,0,0,0,2.2-3.081c0-.106-.027-.212-.027-.319M65.411,290.325l11.709-4.17v-6.107l-11.709,3.666Z" transform="translate(30.104 399.228)" fill="#bf7a00"/>
        <path id="Trazado_910611" data-name="Trazado 910611" d="M73.993,281.023H71.325a4.534,4.534,0,0,0-4.521,4.521v48.641l6.892-2.149,4.817-1.507V285.544a4.507,4.507,0,0,0-4.521-4.521M85.505,237.2H43.559l6.1,70.552c.049.494.049.988.049,1.482a17.1,17.1,0,0,1-12.3,16.378l-12.376,3.607a7.639,7.639,0,0,0-5.435,6.2,9.459,9.459,0,0,0-.074,1.161,7.548,7.548,0,0,0,2.767,5.855,11.67,11.67,0,0,0,7.51,2.742,11.857,11.857,0,0,0,3.434-.544l21.2-6.6v-64.3a26.488,26.488,0,0,1,7.707-18.7l.1-.1a26.557,26.557,0,0,1,18.8-7.806,4.545,4.545,0,0,0,4.57-4.644Zm11.042,81.669-4.842-36.437a4.429,4.429,0,0,0-1.235,3.113V326.8l1.285-.4a6.888,6.888,0,0,0,4.5-4.4,7.407,7.407,0,0,0,.3-3.137" transform="translate(28.705 348.758)" fill="#f6c600"/>
        <path id="Trazado_910612" data-name="Trazado 910612" d="M52.867,281.023H50.2a4.5,4.5,0,0,0-2.544.79c1.457,13.068,2.423,26.21,4.1,39.253.42,3.211-.074,7.485.815,10.968l4.817-1.507V285.544a4.507,4.507,0,0,0-4.521-4.521m22.554,37.845-4.842-36.437a4.429,4.429,0,0,0-1.235,3.113V326.8l1.287-.4a6.885,6.885,0,0,0,4.493-4.4,7.368,7.368,0,0,0,.3-3.137M34.021,237.2c-.892,4.521,3.061,10.721,4.963,13.982.741,1.285,1.433,2.569,2.026,3.854l.1-.1a26.563,26.563,0,0,1,18.8-7.806,4.545,4.545,0,0,0,4.568-4.644l-.1-5.286Z" transform="translate(49.831 348.758)" fill="#ed9e00"/>
        <path id="Trazado_910613" data-name="Trazado 910613" d="M147.491,283.684c7.861,10.116-25.57,11.578-25.57,11.578-15.481.583-27.564-7.49-31.333-10.358a13.047,13.047,0,0,0-4.489-2.255c-6.082-1.672-15.321-1.621-15.321-1.621-1.806-1.833,0-6.771,0-6.771,19.3-.956,32.821,10.859,32.821,10.859,23.394,10.146,43.892-1.433,43.892-1.433" transform="translate(102.885 403.162)" fill="#bf7a00"/>
        <path id="Trazado_910614" data-name="Trazado 910614" d="M149.993,338.088a52.976,52.976,0,0,1-35.647,4.175,48.141,48.141,0,0,1-8.253-2.742s-13.513-11.808-32.806-10.869l-3.113-56.595-.42-7.46-1.482-27.4h45.553l-2.619,48.344A35.7,35.7,0,0,0,122.916,313.9l9.167,8.251a23.242,23.242,0,0,0,6.618,4.125c4.372,1.8,11.292,5.657,11.292,11.808" transform="translate(100.383 348.758)" fill="#f6c600"/>
        <path id="Trazado_910615" data-name="Trazado 910615" d="M113.465,325.957a48.141,48.141,0,0,1-8.253-2.742S91.7,311.406,72.406,312.345L69.293,255.75l-.42-7.46c2.94,1.26,5.879,2.816,7.781,5.459,5.237,7.238,4.891,18.28,6.151,26.729.842,5.509,1.285,11.808,5.064,16.131,3.483,3.953,8.35,5.781,12.549,8.794a12.656,12.656,0,0,1,5.361,6.991c.494,1.532.618,3.187,1.087,4.743,1.013,3.285,2.94,4,5.138,6.4a6.043,6.043,0,0,1,1.46,2.421" transform="translate(101.265 365.064)" fill="#ed9e00"/>
        <path id="Trazado_910616" data-name="Trazado 910616" d="M99.129,188.014c-22.233,0-29.325-18.849-31.573-31.991a68.071,68.071,0,0,1-1.038-12.4c7.436-2.05,15.439-4.447,24.086-7.312l1.383,8.325Z" transform="translate(97.79 200.418)" fill="#b3bcb7"/>
        <path id="Trazado_910617" data-name="Trazado 910617" d="M178.8,259.871l-12.574-76.209c-22.233,0-29.323-18.849-31.571-31.991a68.071,68.071,0,0,1-1.038-12.4,381.49,381.49,0,0,1-41.5,9.041h-.025l.346,10.622.519,15.835.618,18.947s32.658,60.868,47.554,139.177c2.347,12.3,4.249,25.049,5.509,38.043.346,3.409.618,6.818.865,10.252h26.753l.642-4.867,5.138-38.809a263.878,263.878,0,0,0-1.235-77.642m-99.06-70.626-1.408-29.3-.445-9.362c-1.433.148-1.532.148-2.841.321a142.737,142.737,0,0,1-29.767-.321A70.966,70.966,0,0,1,47.207,161.9c1.359,14.871-.469,40.316-26.334,51.259L46.96,375.531l.914,5.657H75.912V369.133c.025-11.191.1-29.15.272-49.332.371-49.431,1.383-112.251,3.977-121.836Z" transform="translate(30.69 204.77)" fill="#96a19b"/>
        <path id="Trazado_910618" data-name="Trazado 910618" d="M26.314,206.71l-7.142-44.515-2-12.4s10.076-8.177,33.544-5.657a70.771,70.771,0,0,1,1.929,11.314c1.356,14.871-.469,40.316-26.334,51.259" transform="translate(25.251 211.218)" fill="#b3bcb7"/>
        <path id="Trazado_910619" data-name="Trazado 910619" d="M52.23,144.1a74.735,74.735,0,0,1,2.616,20.415A62.124,62.124,0,0,1,51.445,185c-2.438,6.527-6.238,12.747-11.662,17.235A40.084,40.084,0,0,1,21.2,211.016a54.936,54.936,0,0,0,9.259-4.229,45.93,45.93,0,0,0,4.249-2.7,42.491,42.491,0,0,0,3.8-3.261,43.227,43.227,0,0,0,10.617-16.67,72.3,72.3,0,0,0,3.831-19.7,90.488,90.488,0,0,0,.091-10.16,96.908,96.908,0,0,0-.818-10.19" transform="translate(31.168 211.876)" fill="#404441"/>
        <path id="Trazado_910620" data-name="Trazado 910620" d="M64.038,139.952c.3,2.888.665,5.751,1.228,8.577a81.585,81.585,0,0,0,1.885,8.389,62.828,62.828,0,0,0,6.477,15.674,34.586,34.586,0,0,0,11.509,11.984,28.73,28.73,0,0,0,7.727,3.379,43.036,43.036,0,0,0,8.461,1.581A31.051,31.051,0,0,1,84.2,186.228a29.78,29.78,0,0,1-7.216-5.3,39.453,39.453,0,0,1-5.469-7.065,52.427,52.427,0,0,1-6.2-16.507,64.419,64.419,0,0,1-1.272-17.408" transform="translate(93.943 205.773)" fill="#404441"/>
        <path id="Trazado_910621" data-name="Trazado 910621" d="M80.487,155.257a142.737,142.737,0,0,1-29.767-.321c-23.468-2.52-33.547,5.657-33.547,5.657l2,12.4a32.523,32.523,0,0,1,3.335-1.457A94.629,94.629,0,0,1,47.336,166.6c1.779-.1,3.533-.222,5.311-.346,9.14-.642,18.256-1.482,27.346-1.8l3.78-.148-.445-9.362c-1.433.148-1.532.148-2.841.321m82.657-18.947c-8.646,2.866-16.65,5.262-24.086,7.312a381.49,381.49,0,0,1-41.5,9.041h-.025l.346,10.622a267.44,267.44,0,0,0,42.218-7.263c1.655-.42,3.286-.865,4.916-1.334,7.312-2.075,13.266-6.645,19.515-10.054Z" transform="translate(25.25 200.418)" fill="#79827d"/>
        <path id="Trazado_910622" data-name="Trazado 910622" d="M98.224,311.765c-14.9-78.309-47.554-139.177-47.554-139.177l-.618-18.947C62.5,162.261,74.114,171.426,80.24,185.8c3.829,9.041,17.391,63.611,19.441,71.343a207.019,207.019,0,0,1,4.941,25.123c.79,5.756,1.359,30.484-6.4,29.5" transform="translate(73.594 225.899)" fill="#79827d"/>
        <path id="Trazado_910623" data-name="Trazado 910623" d="M60.385,232.32v12.055H32.347l-.914-5.657c2.4-.716,4.99-1.779,6.695-2.223a179.568,179.568,0,0,1,19.515-3.582c.593-.074,1.581-.321,2.742-.593" transform="translate(46.216 341.583)" fill="#79827d"/>
        <path id="Trazado_910624" data-name="Trazado 910624" d="M100.044,238.435,99.4,243.3H72.646c-.245-3.434-.516-6.843-.862-10.252,1.532.42,3.036.889,4.521,1.235,5.877,1.383,11.855,2.149,17.784,3.36,1.581.321,3.854.42,5.956.79" transform="translate(105.545 342.656)" fill="#79827d"/>
        <path id="Trazado_910625" data-name="Trazado 910625" d="M53.8,168.22c-2.6,9.585-3.609,72.4-3.977,121.836-2.72.79-4.573-.692-6.176-3.261-6.349-9.98-4.622-24.777-4.622-36.091,0-18.9-.148-37.722,2.374-56.422,1.159-8.7,1.949-17.193,5.531-25.3.716-1.532,3.755-7.386,6.448-9.486Z" transform="translate(57.057 234.515)" fill="#79827d"/>
        <path id="Trazado_910626" data-name="Trazado 910626" d="M53.63,80.966a28.884,28.884,0,0,0,13.191,4.15A24.75,24.75,0,0,0,90.711,69.8c2.221-5.41,3.851-12.969,3.505-23.369a110.069,110.069,0,0,0-1.381-13.686,47.789,47.789,0,0,0-6.03-11.858,30.09,30.09,0,0,0-2.1-2.693,4.047,4.047,0,0,0-5.114-.791C60.67,28.6,49.358,23.754,49.358,23.754c-2.572,1.062-5.042,2.1-7.362,3.113v.025a13.3,13.3,0,0,1-1.63,4.941,19.71,19.71,0,0,1-2.053,3.063,15.032,15.032,0,0,1-1.455,1.63,8.123,8.123,0,0,0-2.05-.025c-.124.025-.3.025-.42.049a7.6,7.6,0,0,0,2.1,15.044,7.268,7.268,0,0,0,2.866-.939h.2L39.7,63.822l.294,21.319.1,9.288s-.447,18.354,28.8,19.046c0,0,23.863-.914,22.26-22.183C67.118,99.345,54.272,81.88,53.63,80.966M79.3,44.06a3.273,3.273,0,1,1,0-6.546,3.273,3.273,0,0,1,0,6.546M49.507,42.331a3.286,3.286,0,1,1,3.283,3.31,3.3,3.3,0,0,1-3.283-3.31" transform="translate(41.238 24.738)" fill="#fbbd96"/>
        <path id="Trazado_910627" data-name="Trazado 910627" d="M75.529,54.742a23.764,23.764,0,0,1,.4,3.239c-24.031,8.073-36.882-9.4-37.519-10.3a28.985,28.985,0,0,0,13.169,4.143A24.466,24.466,0,0,0,74.015,39.473l1.223,12.455Z" transform="translate(56.472 58.038)" fill="#fe9a76"/>
        <path id="Trazado_910628" data-name="Trazado 910628" d="M83.98,26.62c.2,15.81-3.831,12.5-3.831,12.5a47.711,47.711,0,0,0-6.028-11.858,30.09,30.09,0,0,0-2.1-2.693,4.047,4.047,0,0,0-5.114-.791C47.988,34.97,36.674,30.128,36.674,30.128c4.348-1.8,8.967-3.681,13.93-5.657,0,0,15.368-6.67,32.487-11.981.445,4.348.689,7.979.813,11.042.049,1.112.077,2.124.077,3.088" transform="translate(53.922 18.364)" fill="#c1581e"/>
        <path id="Trazado_910629" data-name="Trazado 910629" d="M39.127,20.89v.025a13.255,13.255,0,0,1-1.63,4.941,18.269,18.269,0,0,1-2.026,3.063,15.183,15.183,0,0,1-1.457,1.63,8.123,8.123,0,0,0-2.05-.025c-.124.025-.3.025-.42.049a6.5,6.5,0,0,1-1.359-2.841,7.318,7.318,0,0,1-.124-2.816c2.841-1.309,5.855-2.619,9.066-4.027" transform="translate(44.08 30.715)" fill="#c1581e"/>
        <path id="Trazado_910630" data-name="Trazado 910630" d="M50.751,25.2a3.279,3.279,0,1,1-3.293,3.266A3.263,3.263,0,0,1,50.751,25.2" transform="translate(69.778 37.049)"/>
        <path id="Trazado_910631" data-name="Trazado 910631" d="M40.023,25.822a3.293,3.293,0,1,1-3.293,3.293,3.292,3.292,0,0,1,3.293-3.293" transform="translate(54.005 37.966)"/>
        <path id="Trazado_910632" data-name="Trazado 910632" d="M38.719,36.248c4,2.065,8,3.51,12.072,3.481a18.152,18.152,0,0,0,6.033-.944,28.807,28.807,0,0,0,2.987-1.124c1-.425,1.937-.988,3.019-1.413a15.183,15.183,0,0,1-5.2,4.447,14.138,14.138,0,0,1-6.853,1.69,15.162,15.162,0,0,1-6.838-1.7,14.247,14.247,0,0,1-5.215-4.437" transform="translate(56.929 53.296)" fill="#c45f3f"/>
        <path id="Trazado_910633" data-name="Trazado 910633" d="M45.835,24.782a5.971,5.971,0,0,1,3.256-2.2,12.076,12.076,0,0,1,3.834-.657,10.021,10.021,0,0,1,7.169,2.7c-2.653.067-4.859-.089-7.159-.044-1.141-.02-2.285.025-3.468.035a24.7,24.7,0,0,0-3.631.17" transform="translate(67.392 32.235)" fill="#c1581e"/>
        <path id="Trazado_910634" data-name="Trazado 910634" d="M42.653,41.47A33.291,33.291,0,0,1,49.681,39.6l-1.067,1.327a49.724,49.724,0,0,1-.867-7.129,33.115,33.115,0,0,1,.324-7.273,32.982,32.982,0,0,1,2.048,6.986,49.786,49.786,0,0,1,.86,7.132l.01.175a1.1,1.1,0,0,1-1.047,1.151h-.03a33.145,33.145,0,0,1-7.258-.494" transform="translate(62.713 38.993)" fill="#fe9a76"/>
        <path id="Trazado_910635" data-name="Trazado 910635" d="M33.742,27.972a9.508,9.508,0,0,1,3.169-3.085,12.909,12.909,0,0,1,4.135-1.665,11.606,11.606,0,0,1,4.484-.1,9.131,9.131,0,0,1,4.091,1.714c-1.509.178-2.846.178-4.172.358a31.439,31.439,0,0,0-3.856.62c-2.559.5-5.012,1.317-7.851,2.154" transform="translate(49.611 33.744)" fill="#c1581e"/>
        <path id="Trazado_910636" data-name="Trazado 910636" d="M30.14,26.346a5.779,5.779,0,0,1,4.044,2.67,6.245,6.245,0,0,1,.87,4.77,20.308,20.308,0,0,0-1.9-4.1,14.825,14.825,0,0,0-3.009-3.342" transform="translate(44.315 38.737)" fill="#c1581e"/>
        <g id="Grupo_1113325" data-name="Grupo 1113325" transform="translate(74.062 30.854)" opacity="0.44">
          <g id="Grupo_1113324" data-name="Grupo 1113324">
            <g id="Grupo_1113323" data-name="Grupo 1113323" clip-path="url(#clip-path-5)">
              <path id="Trazado_910637" data-name="Trazado 910637" d="M39.126,33.241c-3.211,1.408-6.223,2.717-9.064,4.027a7.318,7.318,0,0,0,.124,2.816c1.285-.222,2.643-.766,3.73-1.013,1.208-.247,2.394-.543,3.579-.865a13.211,13.211,0,0,0,1.63-4.941ZM92.931,12.49C75.812,17.8,60.444,24.471,60.444,24.471c-4.963,1.976-9.585,3.854-13.93,5.657-2.572,1.062-5.042,2.1-7.362,3.113v.025a13.3,13.3,0,0,1-1.63,4.941c1.134-.321,2.248-.667,3.382-1.038a88.5,88.5,0,0,1,17.838-3.928,125.591,125.591,0,0,0,25.219-5.978c3.335-1.136,6.6-2.4,9.782-3.73-.124-3.063-.371-6.695-.813-11.042" transform="translate(-29.98 -12.49)"/>
            </g>
          </g>
        </g>
        <path id="Trazado_910638" data-name="Trazado 910638" d="M165.859,15.6v4.622c-2.735-4.118-9.824-4.862-18.668-3.822-7.858.926-17.1,3.315-25.889,6.05C104.176,27.76,88.8,34.425,88.8,34.425c-4.965,1.969-9.585,3.854-13.915,5.657-2.574,1.062-5.044,2.1-7.381,3.108-3.211,1.406-6.24,2.735-9.081,4.034C46.9,52.431,38.347,56.811,32.028,60.4,17.211,68.812,14.689,72.8,14.689,72.8S4.333,64.271,16.947,54.978c0,0,9.9-7.169,29.819-17.1a474.439,474.439,0,0,1,67.393-27.028c1.117-.348,2.231-.719,3.347-1.062A85.867,85.867,0,0,1,142.757,5.72c10.143-.022,21.455,1.808,23.1,9.879" transform="translate(15.716 8.41)" fill="#946724"/>
        <path id="Trazado_910639" data-name="Trazado 910639" d="M101.777,14.115S97.953,40,55.706,56.654h-.052a106.146,106.146,0,0,0-1.381-13.676s4.036,3.293,3.824-12.507h.025c19.093-7.646,24.987-20.18,24.987-20.18,8.844-1.035,15.934-.291,18.668,3.824" transform="translate(79.798 14.516)" fill="#765216"/>
        <path id="Trazado_910640" data-name="Trazado 910640" d="M81.356,10.042s-5.894,12.534-24.987,20.18h-.027c-.025-3.612-.292-8.231-.874-14.125,8.789-2.735,18.028-5.126,25.889-6.055" transform="translate(81.554 14.765)"/>
        <path id="Trazado_910641" data-name="Trazado 910641" d="M92.684,19.268a471.878,471.878,0,0,0-67.39,27.025l.445-17.465.173-6.942A10.853,10.853,0,0,1,39.078,11.561l7.411,1.606A10.812,10.812,0,0,0,58.841,6.719,10.848,10.848,0,0,1,76.528,3.162l9.335,9.313Z" transform="translate(37.19)" fill="#765216"/>
        <path id="Trazado_910642" data-name="Trazado 910642" d="M62.681,34.439l.158,13.172h-.185c-37.44,7.912-50.345-7.357-50.345-7.357s2.522-3.982,17.339-12.4a45.843,45.843,0,0,0,21.588.823,7.582,7.582,0,0,0,8.392,6.692,6.906,6.906,0,0,0,2.868-.929Z" transform="translate(18.098 40.953)" fill="#765216"/>
        <path id="Trazado_910643" data-name="Trazado 910643" d="M45.722,22.522a7.386,7.386,0,0,0,1.487,5.657,7.614,7.614,0,0,0-6.294,8.337,45.881,45.881,0,0,1-21.588-.823c6.322-3.587,14.871-7.967,26.4-13.172" transform="translate(28.417 33.114)"/>
        <g id="Grupo_1113328" data-name="Grupo 1113328" transform="translate(62.483 12.475)" opacity="0.34" style="mix-blend-mode: overlay;isolation: isolate">
          <g id="Grupo_1113327" data-name="Grupo 1113327">
            <g id="Grupo_1113326" data-name="Grupo 1113326" clip-path="url(#clip-path-6)">
              <path id="Trazado_910644" data-name="Trazado 910644" d="M92.684,11.843a471.878,471.878,0,0,0-67.39,27.025L25.739,21.4c8.5-3.384,18.574-.568,27.544-2.693,7.584-1.779,15.017-5.039,22.033-8.35,2.742-1.285,6.695-3.8,10.548-5.311Z" transform="translate(-25.293 -5.05)"/>
            </g>
          </g>
        </g>
        <path id="Trazado_910645" data-name="Trazado 910645" d="M107.393,265.133l-.716-14.6-1.186-24.6-3.854-80.8-1.655-34.683a12.977,12.977,0,0,1-6.225,8.745l-1.7.988a9.119,9.119,0,0,0-3.31,3.335L73.179,151.524C61,172.867,49.513,184.675,40.373,191.2c.049.4.568,4.792,1.235,11.61,1.8,18.206,4.523,53.581,1.457,75.69,0,0-.64,11.561-.64,17.119,0,0,10.076-8.177,33.544-5.657a142.737,142.737,0,0,0,29.767.321c1.309-.173,1.408-.173,2.841-.321Zm75.468-82.706c-.222-3.014-.346-5.879-.346-8.572-8.374-5.83-19.985-15.934-31.373-32.262a134.286,134.286,0,0,1-8.127-13.587c-1.433-2.668-3.533-6.052-5.83-7.707l-4.125-1.927a16.683,16.683,0,0,1-7.139-6.571c-5.459,5.41-8.893-.469-8.893-.469l.914,28.137,2.594,79.371.815,25.123L122.017,264l.766,23.69h.025a381.489,381.489,0,0,0,41.5-9.041c7.436-2.05,15.439-4.447,24.086-7.312,3.755-1.21,7.633-2.544,11.635-3.952,0,0-14.772-51.037-17.169-84.954m25.914-97.948c-13.76-41.6-76.308-39.994-76.308-39.994l-.766.074.3,2.816a22.523,22.523,0,0,1,.4,3.261C134,71.905,110.135,72.819,110.135,72.819c-29.249-.692-28.8-19.046-28.8-19.046l-.1-9.288h-.469S10.136,56,.823,112.962a74.756,74.756,0,0,0-.667,16.106c.543,8.893,1.828,25.889,4.521,37.549,0,0,3.211-16.032,35.375-25.963.1-.025.222-.074.321-.1,8-4.619,16.724-12.426,24.678-20.652A346.02,346.02,0,0,0,92.546,87.246a1.661,1.661,0,0,1-.074-.445l-1.21-.568a2.412,2.412,0,0,1-.988-3.434,8.518,8.518,0,0,1,2.693-2.619L96.1,78.229a9.725,9.725,0,0,1,4.965-1.408l6.1-3.014a8.574,8.574,0,0,1,2.964-.815,4.723,4.723,0,0,1,1.309-.074l13.537.815a5.174,5.174,0,0,1,4.15,2.569l13.933,24.431a18.582,18.582,0,0,0,4.274,5.015l10.647,8.72.025.025,4.1,3.335a55.288,55.288,0,0,0,7.51,5.138,147.345,147.345,0,0,0,14.328,7.164l.667.3a78.386,78.386,0,0,0,14.229,4.62s19.614,4.224,25.049,16.8c-1.408-6.645-15.118-67.365-15.118-67.365" transform="translate(-0.001 65.395)" fill="#ff723f"/>
        <path id="Trazado_910646" data-name="Trazado 910646" d="M89.205,108.085a162.214,162.214,0,0,1-19.688,9.837,159.888,159.888,0,0,1-20.726,7.4,159.4,159.4,0,0,1,19.688-9.837,161.152,161.152,0,0,1,20.726-7.4" transform="translate(71.738 158.919)" fill="#af3215"/>
        <path id="Trazado_910647" data-name="Trazado 910647" d="M27.873,136.891a116.087,116.087,0,0,1,17.581-10.916,121.616,121.616,0,0,1,19.063-8.043,168.011,168.011,0,0,1-17.848,10.4,185.58,185.58,0,0,1-18.8,8.557" transform="translate(40.982 173.395)" fill="#af3215"/>
        <path id="Trazado_910648" data-name="Trazado 910648" d="M75.95,71.18l1.655,34.683A44.893,44.893,0,0,0,64.389,121.2c-7.263,13.513-17.366,31.422-31.225,38.809-4.817,2.569-10.252,4.125-15.585,3.533-.669-6.818-1.188-11.215-1.235-11.61,9.138-6.522,20.625-18.33,32.8-39.673L64.71,84.248a9.119,9.119,0,0,1,3.31-3.335l1.7-.988A12.977,12.977,0,0,0,75.95,71.18" transform="translate(24.031 104.657)" fill="#dd5228"/>
        <path id="Trazado_910649" data-name="Trazado 910649" d="M113.207,142.636c-7.658-1.013-15.637-3.557-18.4-5.039-10.968-5.879-18.552-16.23-25.345-26.111C64.64,104.469,57.081,99.5,48.287,99.677L47.373,71.54s3.434,5.879,8.893.469a16.683,16.683,0,0,0,7.139,6.571l4.125,1.927c2.3,1.655,4.4,5.039,5.83,7.707A134.285,134.285,0,0,0,81.488,101.8c11.388,16.329,23,26.432,31.373,32.262,0,2.693.124,5.558.346,8.572" transform="translate(69.653 105.186)" fill="#dd5228"/>
        <path id="Trazado_910650" data-name="Trazado 910650" d="M70.354,127.89l.716,14.6c-11.709,1.235-23,2.421-33.374,8.6A155.614,155.614,0,0,0,24.7,159.905c1.556-2.421,2.767-4.867,5.114-8.6,5.114-3.533,8.572-9.931,14.377-13.414,7.979-4.768,17.317-6.942,26.161-10" transform="translate(36.321 188.038)" fill="#dd5228"/>
        <path id="Trazado_910651" data-name="Trazado 910651" d="M97.393,129.517C88.45,132.21,83.707,141.6,76.914,147.4c-4.768,4.1-9.61,8.473-15.637,10.622A46.376,46.376,0,0,1,49.79,160.1l-.667-20.034a127.03,127.03,0,0,0,20.182-12.327c4.965-3.829,9.461-9.387,14.649-12.6-.124,7.263-8.4,15.168-13.019,20.281-4.175,4.644-9.634,8.671-13.364,13.34,14.921-.2,24.851-18.305,39.821-19.244" transform="translate(72.226 169.292)" fill="#dd5228"/>
        <path id="Trazado_910652" data-name="Trazado 910652" d="M41.96,78.8C34.005,87.03,25.285,94.836,17.284,99.455c-.1.025-.225.074-.324.1-.346-4.891.2-10.079,0-15.143-.173-3.878-1.581-7.831-1.186-11.981,1.334,3.533,7.979,4.718,11.166,5.608,3.705,1.038,7.46,2.075,11.363,1.63A28.963,28.963,0,0,0,41.96,78.8" transform="translate(23.091 106.495)" fill="#dd5228"/>
        <path id="Trazado_910653" data-name="Trazado 910653" d="M89.9,92.515a147.141,147.141,0,0,1-14.33-7.164,55.288,55.288,0,0,1-7.51-5.138l-4.1-3.335a25.923,25.923,0,0,0,10.546-.371c5.114-1.21,8.5-4.545,12.922-6.448,1.776,5.435.689,12.475,1.529,18.231a42.478,42.478,0,0,0,.941,4.224" transform="translate(94.047 103.01)" fill="#dd5228"/>
        <path id="Trazado_910654" data-name="Trazado 910654" d="M19.812,54.111c6.3,13.268,18.147,24.051,33.013,26.642C39.55,77.979,33.574,63.271,28.688,52.542c-1.994,2.784.39,6.895-.052,10.057-3.906-.425-7.233-5.889-8.824-8.488" transform="translate(29.13 77.253)" fill="#dd5228"/>
        <path id="Trazado_910655" data-name="Trazado 910655" d="M57.121,71.785c1.215-.548,3.345-.316,4.921-.652,4.965-1.057,9.634-4.4,13.718-7.273,4.711-3.313,7.436-8.14,11.672-11.5-.963,9.7-5.41,15.659-14,20.274-4.491,2.413-13.016,4.565-16.307-.852" transform="translate(83.986 76.99)" fill="#dd5228"/>
        <path id="Trazado_910656" data-name="Trazado 910656" d="M76.771,105.931a1.327,1.327,0,0,1-1.272-.949c-4.738-15.921-.227-40.807-.035-41.857a1.329,1.329,0,0,1,2.614.482c-.047.252-4.587,25.311-.035,40.617a1.324,1.324,0,0,1-.894,1.65,1.265,1.265,0,0,1-.378.057" transform="translate(107.833 91.21)" fill="#af3215"/>
        <path id="Trazado_910657" data-name="Trazado 910657" d="M20.434,111.379l-.072,0a1.326,1.326,0,0,1-1.255-1.4c.012-.237,1.206-23.952-5.477-42.986a1.327,1.327,0,0,1,2.5-.877c6.86,19.538,5.677,43.016,5.622,44.006a1.327,1.327,0,0,1-1.324,1.255" transform="translate(19.93 95.905)" fill="#af3215"/>
        <path id="Trazado_910658" data-name="Trazado 910658" d="M171.047,146.881s-.025.173-.1.494c-.842,3.656-6.892,25.79-29.77,16.551A64.326,64.326,0,0,1,129,156.935c-8.374-5.83-19.982-15.934-31.371-32.262A134.283,134.283,0,0,1,89.5,111.086c-1.433-2.668-3.533-6.052-5.83-7.707l-4.125-1.927a16.683,16.683,0,0,1-7.139-6.571A17.347,17.347,0,0,1,71,91.719l-6-18.28-6.472-2.4a4.046,4.046,0,0,0-1.63-.272l-9.906.371L42.937,72.45a3.065,3.065,0,0,1-3.9-2.124,1.661,1.661,0,0,1-.074-.445l-1.21-.568a2.412,2.412,0,0,1-.988-3.434,8.518,8.518,0,0,1,2.693-2.619l3.137-1.952A9.725,9.725,0,0,1,47.556,59.9l6.1-3.014a8.575,8.575,0,0,1,2.964-.815A4.723,4.723,0,0,1,57.931,56l13.537.815a5.174,5.174,0,0,1,4.15,2.569L89.551,83.814a18.582,18.582,0,0,0,4.274,5.015l14.77,12.08a55.442,55.442,0,0,0,7.51,5.138,145.7,145.7,0,0,0,14.995,7.46c.173.074.324.124.5.2a77.359,77.359,0,0,0,13.732,4.422s19.617,4.224,25.049,16.8v.049a17.474,17.474,0,0,1,.669,11.907" transform="translate(53.514 82.315)" fill="#fbbd96"/>
        <path id="Trazado_910659" data-name="Trazado 910659" d="M123.32,86.345c-5.459,5.41-8.893-.469-8.893-.469a.255.255,0,0,1-.1.2,3.536,3.536,0,0,1-5.929-1.729,19.6,19.6,0,0,0-2.149-5.731,4.284,4.284,0,0,0-3.73-2.223,4.233,4.233,0,0,0-4.15,3.458l-.988,5.138a12.977,12.977,0,0,1-6.225,8.745l-1.7.988a9.119,9.119,0,0,0-3.31,3.335L70.579,126.068C58.4,147.411,46.913,159.219,37.773,165.741c-12.426,8.868-20.652,7.954-20.652,7.954C-.912,168.433,1.808,143.384,2.053,141.309a.691.691,0,0,0,.025-.148s3.236-16.131,35.7-26.062c.222-.124.472-.272.694-.42,23-13.71,51.479-52.889,51.479-52.889a3.065,3.065,0,0,0,3.9,2.124L97.9,62.605l9.906-.371a4.046,4.046,0,0,1,1.63.272l6.472,2.4,6,18.28a17.348,17.348,0,0,0,1.408,3.162" transform="translate(2.599 90.851)" fill="#fbbd96"/>
        <path id="Trazado_910660" data-name="Trazado 910660" d="M54.106,84.829a1.312,1.312,0,0,1-.257-.025A1.329,1.329,0,0,1,52.8,83.246c.267-1.354,2.27-13.34-9.113-17.263a1.327,1.327,0,0,1,.865-2.51c13.508,4.657,11.166,18.7,10.855,20.284a1.326,1.326,0,0,1-1.3,1.072" transform="translate(62.92 93.219)" fill="#c45f3f"/>
        <path id="Trazado_910661" data-name="Trazado 910661" d="M61.563,62.242a1.307,1.307,0,0,1-.741-.227l-2.522-1.7a3.429,3.429,0,0,0-1.994-.623H41.7a1.328,1.328,0,0,1,0-2.656h14.6a6.06,6.06,0,0,1,3.5,1.089l2.5,1.687a1.328,1.328,0,0,1-.744,2.428" transform="translate(59.364 83.862)" fill="#c45f3f"/>
        <path id="Trazado_910662" data-name="Trazado 910662" d="M71.694,91.9a1.329,1.329,0,0,1-1.156-.672,19.119,19.119,0,0,1-1.512-3.394L63.22,70.137,57.346,67.97a2.95,2.95,0,0,0-1.1-.185l-9.733.366L42.623,69.4a4.458,4.458,0,0,1-3.466-.331A4.35,4.35,0,0,1,37.03,66.35a2.5,2.5,0,0,1-.119-.645,2.877,2.877,0,0,1-.03-.467,4.366,4.366,0,0,1,2.431-3.923L41.6,60.174a7.12,7.12,0,0,1,2.942-.751c3.048-.106,14.9-.5,15.309-.5a1.328,1.328,0,1,1,0,2.656c-.427,0-11.072.358-15.222.5a4.476,4.476,0,0,0-1.84.472L40.5,63.692a1.723,1.723,0,0,0-.966,1.546,1.367,1.367,0,0,1,.027.319,1.8,1.8,0,0,0,.872,1.178,1.757,1.757,0,0,0,1.381.131l4.059-1.3a1.344,1.344,0,0,1,.356-.062l9.906-.373a5.444,5.444,0,0,1,2.127.346l6.48,2.391a1.324,1.324,0,0,1,.8.833l6,18.3a16.541,16.541,0,0,0,1.3,2.917A1.329,1.329,0,0,1,71.694,91.9" transform="translate(54.228 86.629)" fill="#c45f3f"/>
        <path id="Trazado_910663" data-name="Trazado 910663" d="M66.136,61.494a1.327,1.327,0,0,1-1.146-.655,3.859,3.859,0,0,0-3.08-1.922l-13.537-.8a3.977,3.977,0,0,0-.978.032,7.469,7.469,0,0,0-2.653.719,1.327,1.327,0,1,1-1.131-2.4,9.714,9.714,0,0,1,3.436-.946,6.041,6.041,0,0,1,1.485-.054l13.54.8a6.509,6.509,0,0,1,5.207,3.226,1.324,1.324,0,0,1-.469,1.816,1.3,1.3,0,0,1-.672.185" transform="translate(62.997 81.529)" fill="#c45f3f"/>
        <path id="Trazado_910664" data-name="Trazado 910664" d="M36.762,94.292C34,97.8,28.141,98.244,24.117,99.825c-6.574,2.594-14.822,8.029-22.233,10a.691.691,0,0,0,.025-.148S5.142,93.551,37.6,83.62c.222-.124.469-.272.692-.42.667,3.878.741,8.2-1.532,11.092" transform="translate(2.77 122.33)" fill="#fe9a76"/>
        <path id="Trazado_910665" data-name="Trazado 910665" d="M114.385,112.526s-.025.173-.1.494a8.6,8.6,0,0,1-4.051-1.9c-6.176-4.792-6.448-12.747-14.377-15.909C85.7,91.133,78.565,86.835,74.934,79.35a77.359,77.359,0,0,0,13.732,4.422s19.617,4.224,25.049,16.8v.049a17.474,17.474,0,0,1,.669,11.907" transform="translate(110.176 116.669)" fill="#fe9a76"/>
      </g>
    </g>
  </g>
</svg>
