<svg xmlns="http://www.w3.org/2000/svg" width="90" height="90" viewBox="0 0 90 90">
  <g id="Grupo_1113374" data-name="Grupo 1113374" transform="translate(-285.257 -1917.088)">
    <circle id="Elipse_12655" data-name="Elipse 12655" cx="45" cy="45" r="45" transform="translate(285.257 1917.088)" fill="#98e465"/>
    <g id="apoyo-tecnico" transform="translate(306.368 1937.626)">
      <path id="Trazado_908914" data-name="Trazado 908914" d="M8.6,37.834a3.989,3.989,0,0,0-1.927.492A22.561,22.561,0,0,1,28.952,2.358.956.956,0,0,0,29.331.484,24.644,24.644,0,0,0,24.461,0a24.462,24.462,0,0,0-19.2,39.621A4.015,4.015,0,1,0,8.6,37.834Zm1.486,5.5a2.1,2.1,0,1,1,.616-1.486A2.088,2.088,0,0,1,10.091,43.333Zm0,0" transform="translate(0 0.001)" fill="#416b24"/>
      <path id="Trazado_908915" data-name="Trazado 908915" d="M222.272,38.289a4,4,0,1,0-1.412,1.3,22.561,22.561,0,0,1-22.233,35.977.956.956,0,1,0-.375,1.874,24.66,24.66,0,0,0,4.823.476,24.462,24.462,0,0,0,19.2-39.623Zm-4.826-.738a2.1,2.1,0,1,1,1.486.615A2.088,2.088,0,0,1,217.446,37.551Zm0,0" transform="translate(-178.613 -28.988)" fill="#416b24"/>
      <path id="Trazado_908916" data-name="Trazado 908916" d="M87.433,107.826a.956.956,0,0,0,.956.956h5.975a.955.955,0,0,0,.956-.956v-1.852a14.963,14.963,0,0,0,3.586-1.486l1.308,1.308a.955.955,0,0,0,1.352,0l4.223-4.226a.956.956,0,0,0,0-1.351l-1.306-1.306a14.964,14.964,0,0,0,1.486-3.586h1.845a.955.955,0,0,0,.956-.956V88.395a.955.955,0,0,0-.956-.956h-1.846a14.965,14.965,0,0,0-1.486-3.586l1.3-1.3a.956.956,0,0,0,0-1.352l-4.226-4.223a.956.956,0,0,0-1.351,0l-1.3,1.3a14.963,14.963,0,0,0-3.586-1.486V74.956A.955.955,0,0,0,94.363,74H88.389a.956.956,0,0,0-.956.956v1.836a14.95,14.95,0,0,0-3.586,1.486l-1.3-1.3a.956.956,0,0,0-1.351,0L76.972,81.2a.955.955,0,0,0,0,1.352l1.3,1.3a14.961,14.961,0,0,0-1.486,3.586H74.943a.955.955,0,0,0-.956.955l0,5.975a.955.955,0,0,0,.956.956h1.845a14.963,14.963,0,0,0,1.486,3.586l-1.306,1.306a.956.956,0,0,0,0,1.351l4.223,4.226a.956.956,0,0,0,.676.28h0a.955.955,0,0,0,.676-.28l1.308-1.308a14.976,14.976,0,0,0,3.586,1.486Zm-3.211-5.348a.956.956,0,0,0-1.194.127l-1.163,1.163-2.872-2.874,1.162-1.163a.955.955,0,0,0,.127-1.194,13.079,13.079,0,0,1-1.81-4.368.956.956,0,0,0-.934-.755H75.9l0-4.064h1.639a.955.955,0,0,0,.934-.755,13.08,13.08,0,0,1,1.81-4.368.955.955,0,0,0-.127-1.194L79,81.878l2.874-2.872,1.154,1.154a.956.956,0,0,0,1.194.127,13.074,13.074,0,0,1,4.368-1.81.956.956,0,0,0,.755-.934V75.911h4.064v1.631a.955.955,0,0,0,.755.934,13.085,13.085,0,0,1,4.368,1.81.955.955,0,0,0,1.194-.127l1.154-1.154,2.874,2.872L102.6,83.033a.955.955,0,0,0-.127,1.194,13.088,13.088,0,0,1,1.81,4.368.955.955,0,0,0,.934.755h1.642v4.064h-1.642a.956.956,0,0,0-.934.755,13.077,13.077,0,0,1-1.81,4.368.956.956,0,0,0,.127,1.194l1.162,1.162-2.872,2.874L99.725,102.6a.955.955,0,0,0-1.194-.127,13.088,13.088,0,0,1-4.368,1.81.955.955,0,0,0-.755.934v1.649H89.344v-1.649a.956.956,0,0,0-.755-.934,13.08,13.08,0,0,1-4.368-1.81Zm0,0" transform="translate(-66.915 -66.929)" fill="#416b24"/>
      <path id="Trazado_908917" data-name="Trazado 908917" d="M189.162,181.267a7.9,7.9,0,1,0-7.9,7.9A7.9,7.9,0,0,0,189.162,181.267Zm-13.88,0a5.984,5.984,0,1,1,5.984,5.984A5.991,5.991,0,0,1,175.282,181.267Zm0,0" transform="translate(-156.805 -156.805)" fill="#416b24"/>
      <path id="Trazado_908918" data-name="Trazado 908918" d="M339.034,19.721a.956.956,0,1,0-.675-.28A.962.962,0,0,0,339.034,19.721Zm0,0" transform="translate(-305.773 -16.107)" fill="#416b24"/>
      <path id="Trazado_908919" data-name="Trazado 908919" d="M155.315,474.359a.956.956,0,1,0,.676.28A.963.963,0,0,0,155.315,474.359Zm0,0" transform="translate(-139.609 -429.032)" fill="#416b24"/>
    </g>
  </g>
</svg>
