<svg xmlns="http://www.w3.org/2000/svg" width="114" height="113.998" viewBox="0 0 114 113.998">
  <g id="plantas_1_" data-name="plantas (1)" transform="translate(-0.25 -0.25)">
    <path id="Trazado_910406" data-name="Trazado 910406" d="M1,74.133V52.59c9.281,0,9.281-3.59,18.563-3.59s9.281,3.59,18.563,3.59S47.389,49,56.653,49s9.263,3.59,18.527,3.59S84.461,49,93.742,49s9.281,3.59,18.563,3.59V74.133Z" transform="translate(0.596 38.768)" fill="#fab191"/>
    <path id="Trazado_910407" data-name="Trazado 910407" d="M91.357,52c-9.281,0-9.281,3.59-18.563,3.59S63.53,52,54.267,52,45,55.59,35.74,55.59,26.459,52,17.177,52C10.152,52,8.44,54.054,4,55.052v16.7H109.919V55.59C100.638,55.59,100.638,52,91.357,52Z" transform="translate(2.982 41.154)" fill="#f0a07d"/>
    <path id="Trazado_910408" data-name="Trazado 910408" d="M22.488,11.771V35.11h5.386V11.771h4.488L25.181,1,18,11.771Z" transform="translate(14.116 0.596)" fill="#b9ebff"/>
    <g id="Grupo_1113251" data-name="Grupo 1113251" transform="translate(3.392 12.368)">
      <path id="Trazado_910409" data-name="Trazado 910409" d="M54.976,7c-1.8,5.386,1.8,5.386,1.8,10.771,0,5.949-5.386,10.771-5.386,10.771S46,23.721,46,17.771C46,8.8,54.976,7,54.976,7" transform="translate(32.991 -7)" fill="#aaf06e"/>
      <path id="Trazado_910410" data-name="Trazado 910410" d="M70.877,18.923C65.8,21.461,68.338,24,64.529,27.809c-4.206,4.206-11.423,3.808-11.423,3.808s-.4-7.219,3.808-11.425c6.346-6.346,13.963-1.269,13.963-1.269" transform="translate(38.633 0.952)" fill="#aaf06e"/>
      <path id="Trazado_910411" data-name="Trazado 910411" d="M35,18.923c5.077,2.538,2.538,5.079,6.348,8.886,4.206,4.206,11.423,3.808,11.423,3.808s.4-7.219-3.808-11.425C42.617,13.846,35,18.923,35,18.923" transform="translate(24.243 0.952)" fill="#aaf06e"/>
      <path id="Trazado_910412" data-name="Trazado 910412" d="M69.877,30.923C64.8,33.461,67.338,36,63.529,39.809c-4.206,4.206-11.423,3.808-11.423,3.808s-.4-7.219,3.808-11.425c6.346-6.346,13.963-1.269,13.963-1.269" transform="translate(37.838 10.495)" fill="#aaf06e"/>
      <path id="Trazado_910413" data-name="Trazado 910413" d="M36,30.923c5.077,2.538,2.538,5.079,6.348,8.886,4.206,4.206,11.423,3.808,11.423,3.808s.4-7.219-3.808-11.425C43.617,25.846,36,30.923,36,30.923" transform="translate(25.038 10.495)" fill="#aaf06e"/>
      <path id="Trazado_910414" data-name="Trazado 910414" d="M38.437,31.292c-4.248,3.77-1.138,5.565-3.831,10.233-2.973,5.152-10.053,6.642-10.053,6.642S22.3,41.3,25.271,36.139c4.488-7.773,13.159-4.847,13.159-4.847" transform="translate(15.284 11.889)" fill="#aaf06e"/>
      <path id="Trazado_910415" data-name="Trazado 910415" d="M12.076,31.292c4.248,3.77,1.138,5.565,3.831,10.233,2.973,5.152,10.053,6.642,10.053,6.642s2.253-6.869-.718-12.028c-4.488-7.773-13.159-4.847-13.159-4.847" transform="translate(6.013 11.889)" fill="#aaf06e"/>
      <path id="Trazado_910416" data-name="Trazado 910416" d="M10.976,34c-1.8,5.386,1.8,5.386,1.8,10.771,0,5.949-5.386,10.771-5.386,10.771S2,50.721,2,44.771C2,35.8,10.976,34,10.976,34" transform="translate(-2 14.472)" fill="#aaf06e"/>
    </g>
    <circle id="Elipse_12677" data-name="Elipse 12677" cx="1.795" cy="1.795" r="1.795" transform="translate(55.454 94.949)"/>
    <circle id="Elipse_12678" data-name="Elipse 12678" cx="1.795" cy="1.795" r="1.795" transform="translate(74.004 102.13)"/>
    <circle id="Elipse_12679" data-name="Elipse 12679" cx="1.795" cy="1.795" r="1.795" transform="translate(92.556 94.949)"/>
    <circle id="Elipse_12680" data-name="Elipse 12680" cx="1.795" cy="1.795" r="1.795" transform="translate(36.904 102.13)"/>
    <circle id="Elipse_12681" data-name="Elipse 12681" cx="1.795" cy="1.795" r="1.795" transform="translate(18.351 94.949)"/>
    <path id="Trazado_910417" data-name="Trazado 910417" d="M18.6,13.714h3.142V35.706a1.346,1.346,0,0,0,1.346,1.346H28.47a1.346,1.346,0,0,0,1.346-1.346V13.714h3.142a1.346,1.346,0,0,0,1.12-2.093L26.9.85a1.346,1.346,0,0,0-2.24,0L17.476,11.621a1.346,1.346,0,0,0,1.12,2.093ZM25.777,4.02l4.668,7H28.47a1.346,1.346,0,0,0-1.346,1.346V34.36H24.431V12.368a1.346,1.346,0,0,0-1.346-1.346H21.11Z" transform="translate(13.519 0)"/>
    <path id="Trazado_910418" data-name="Trazado 910418" d="M112.9,85.239a20.836,20.836,0,0,1-8.8-1.705,23.437,23.437,0,0,0-9.768-1.885,25.971,25.971,0,0,0-5.224.476V67.83l4.77-4.763c1.93,0,7.942-.327,11.829-4.213a10.759,10.759,0,0,0,2.858-4.93,4.985,4.985,0,0,1,3.14-3.7,1.345,1.345,0,0,0,.145-2.323,12.4,12.4,0,0,0-15.662,1.436c-3.887,3.887-4.213,9.9-4.213,11.829l-2.865,2.86V48.083l6.563-6.558c1.93,0,7.942-.327,11.829-4.213a10.759,10.759,0,0,0,2.858-4.93,4.985,4.985,0,0,1,3.14-3.7,1.345,1.345,0,0,0,.145-2.323,12.4,12.4,0,0,0-15.662,1.436c-3.887,3.887-4.213,9.9-4.213,11.829l-4.66,4.655V29.712C90.481,28.348,94.5,23.865,94.5,18.37a10.757,10.757,0,0,0-1.465-5.508,4.98,4.98,0,0,1-.4-4.838,1.346,1.346,0,0,0-1.542-1.745A12.4,12.4,0,0,0,81.036,18.366c0,5.5,4.02,9.978,5.386,11.342V44.271l-4.659-4.659c0-1.93-.327-7.944-4.213-11.831a12.4,12.4,0,0,0-15.662-1.436,1.346,1.346,0,0,0,.145,2.334,4.984,4.984,0,0,1,3.138,3.689A10.772,10.772,0,0,0,68.029,37.3c3.885,3.885,9.9,4.212,11.829,4.212l6.563,6.563v15.94l-2.863-2.863c0-1.93-.327-7.944-4.213-11.831a12.4,12.4,0,0,0-15.662-1.436,1.346,1.346,0,0,0,.145,2.334,4.984,4.984,0,0,1,3.138,3.693,10.772,10.772,0,0,0,2.858,4.932c3.885,3.885,9.9,4.212,11.829,4.212l4.768,4.768V82.84c-.646.221-1.257.454-1.849.686a20.844,20.844,0,0,1-8.8,1.705A20.776,20.776,0,0,1,67,83.528a23.338,23.338,0,0,0-9.752-1.88A23.338,23.338,0,0,0,47.5,83.533a20.556,20.556,0,0,1-6.854,1.637V74.812l3.47-6c1.867-.5,7.587-2.372,10.335-7.131a10.755,10.755,0,0,0,1.485-5.5,4.985,4.985,0,0,1,2.074-4.388,1.346,1.346,0,0,0-.461-2.282A12.4,12.4,0,0,0,42.79,54.951c-2.749,4.761-1.508,10.655-1.007,12.518L39.3,71.762l-2.485-4.309c.5-1.863,1.741-7.755-1.007-12.516A12.4,12.4,0,0,0,21.05,49.5a1.346,1.346,0,0,0-.461,2.282,4.984,4.984,0,0,1,2.074,4.388,10.761,10.761,0,0,0,1.485,5.5C26.9,66.427,32.616,68.3,34.482,68.8l3.47,6.009V85.219a20.76,20.76,0,0,1-8.025-1.688,23.433,23.433,0,0,0-9.766-1.885,23.437,23.437,0,0,0-9.768,1.887c-.088.036-.18.068-.267.1V78.18c1.366-1.364,5.386-5.847,5.386-11.342a10.757,10.757,0,0,0-1.465-5.508,4.98,4.98,0,0,1-.4-4.838,1.348,1.348,0,0,0-1.542-1.747A12.4,12.4,0,0,0,2.045,66.838c0,5.5,4.02,9.978,5.386,11.342v6.368a21.514,21.514,0,0,1-5.835.691A1.346,1.346,0,0,0,.25,86.585v21.543A1.346,1.346,0,0,0,1.6,109.475H112.9a1.346,1.346,0,0,0,1.346-1.346V86.585a1.346,1.346,0,0,0-1.346-1.346Zm-14.807-34a9.233,9.233,0,0,1,10.285-2.072A7.382,7.382,0,0,0,106,53.113a8.106,8.106,0,0,1-2.194,3.838,14.337,14.337,0,0,1-9.111,3.4,14.322,14.322,0,0,1,3.4-9.114Zm1.8-21.543a9.233,9.233,0,0,1,10.285-2.072,7.382,7.382,0,0,0-2.379,3.95,8.106,8.106,0,0,1-2.194,3.838,14.337,14.337,0,0,1-9.111,3.4A14.322,14.322,0,0,1,99.89,29.692ZM69.934,35.4a8.1,8.1,0,0,1-2.194-3.836,7.375,7.375,0,0,0-2.379-3.95,9.235,9.235,0,0,1,10.285,2.07,14.328,14.328,0,0,1,3.4,9.113,14.34,14.34,0,0,1-9.111-3.4Zm1.8,21.543a8.1,8.1,0,0,1-2.194-3.836,7.375,7.375,0,0,0-2.379-3.95,9.235,9.235,0,0,1,10.285,2.07,14.328,14.328,0,0,1,3.4,9.113,14.34,14.34,0,0,1-9.111-3.4ZM45.12,56.287a9.238,9.238,0,0,1,9.4-4.668,7.37,7.37,0,0,0-1.276,4.427,8.1,8.1,0,0,1-1.126,4.274,14.33,14.33,0,0,1-7.922,5.642,14.339,14.339,0,0,1,.926-9.676ZM34.4,65.971a14.339,14.339,0,0,1-7.922-5.642,8.1,8.1,0,0,1-1.126-4.274,7.361,7.361,0,0,0-1.276-4.427,9.235,9.235,0,0,1,9.4,4.668,14.337,14.337,0,0,1,.926,9.676Zm49.33-47.6a9.235,9.235,0,0,1,5.808-8.737A7.378,7.378,0,0,0,90.646,14.1a8.1,8.1,0,0,1,1.162,4.266,14.33,14.33,0,0,1-4.039,8.849,14.33,14.33,0,0,1-4.039-8.849ZM4.738,66.838A9.237,9.237,0,0,1,10.546,58.1a7.384,7.384,0,0,0,1.1,4.474,8.079,8.079,0,0,1,1.167,4.264,14.339,14.339,0,0,1-4.039,8.847,14.339,14.339,0,0,1-4.039-8.847Zm106.817,39.944H2.943V87.907a23.033,23.033,0,0,0,8.42-1.86,20.852,20.852,0,0,1,8.8-1.705,20.836,20.836,0,0,1,8.8,1.705,23.437,23.437,0,0,0,9.768,1.885,23.326,23.326,0,0,0,9.748-1.885,20.793,20.793,0,0,1,8.777-1.705,20.792,20.792,0,0,1,8.777,1.7,23.326,23.326,0,0,0,9.75,1.887,23.437,23.437,0,0,0,9.768-1.885,20.835,20.835,0,0,1,8.8-1.705,20.852,20.852,0,0,1,8.8,1.705,23.033,23.033,0,0,0,8.42,1.86Z" transform="translate(0 4.773)"/>
  </g>
</svg>
