<svg xmlns="http://www.w3.org/2000/svg" width="190" height="93" viewBox="0 0 190 93">
  <g id="Grupo_1112261" data-name="Grupo 1112261" transform="translate(-180 -436)">
    <g id="Grupo_1111711" data-name="Grupo 1111711">
      <g id="Grupo_1111655" data-name="Grupo 1111655" transform="translate(0 24)">
        <rect id="Rectángulo_405035" data-name="Rectángulo 405035" width="190" height="93" transform="translate(180 412)" fill="#e6f8db"/>
        <g id="platano_1_" data-name="platano (1)" transform="translate(1041.249 1249.229)">
          <g id="Filled_Expand" data-name="Filled Expand" transform="translate(-795.506 -827)">
            <path id="Trazado_904300" data-name="Trazado 904300" d="M21.682,4,17.93,16.507H11.676L9.175,4Z" transform="translate(-1.222 -2.749)" fill="#92e67b"/>
            <path id="Trazado_904301" data-name="Trazado 904301" d="M12.175,4l2.5,12.507h2.5L20.93,4Z" transform="translate(-0.47 -2.749)" fill="#80d765"/>
            <path id="Trazado_904302" data-name="Trazado 904302" d="M71.348,28.052C68.082,26.507,66.2,29.3,64.97,30.327c-3.571,2.984-8.275,6.409-13.3,7.129-16.613,2.4-26.765-8.411-29.965-21.872a7.23,7.23,0,0,0-4.94-4.453,8.38,8.38,0,0,0-5.247.918c-4.678,2.464-3.514,11.256-1.8,17.291,4.9,17.227,22.488,26.942,39.773,23.55C60.228,50.783,67.911,45.152,72.131,35.9c.663-1.453,2.393-6.351-.783-7.852Z" transform="translate(-1.461 -0.985)" fill="#98e465"/>
            <path id="Trazado_904303" data-name="Trazado 904303" d="M71.3,27.989C56.766,49.956,35.007,45.912,26.987,38.931c-9.733-8.472-12.68-23.208-13.375-27.722a9.755,9.755,0,0,0-2.084.8C6.851,14.473,8.014,23.266,9.726,29.3c4.892,17.224,22.482,26.938,39.766,23.546C60.227,50.74,67.91,45.108,72.13,35.861c.662-1.452,2.391-6.35-.784-7.851a.274.274,0,0,0-.048-.021Z" transform="translate(-1.46 -0.942)" fill="#5b9633"/>
            <path id="Trazado_904304" data-name="Trazado 904304" d="M68.053,55.982c-2.609-3.143-5.872-1.176-7.616-.713-5.084,1.351-11.539,2.611-17.03.956C25.242,50.744,20,34.82,23.158,19.505a8.18,8.18,0,0,0-2.934-6.923,9.474,9.474,0,0,0-5.813-1.566C8.44,11.305,5.43,20.873,4.3,27.871,1.086,47.85,14.462,66.2,33.8,70.987,45.8,73.957,56.363,71.862,65.1,64.4c1.372-1.171,5.484-5.363,2.948-8.417Z" transform="translate(-2.563 -0.994)" fill="#98e465"/>
            <path id="Trazado_904305" data-name="Trazado 904305" d="M68.013,55.938C42.623,71.5,22.267,56.962,17.385,45.98c-5.923-13.33-1.9-29.836-.459-34.792a11.025,11.025,0,0,0-2.515-.175C8.44,11.3,5.43,20.869,4.3,27.867,1.086,47.849,14.462,66.2,33.8,70.986,45.8,73.957,56.363,71.862,65.1,64.4c1.376-1.171,5.484-5.363,2.948-8.417-.013-.016-.028-.028-.04-.044Z" transform="translate(-2.563 -0.994)" fill="#5b9633"/>
            <path id="Trazado_904306" data-name="Trazado 904306" d="M51.085,56.129c11.266-2.211,19.185-8.165,23.533-17.694,1.533-3.357,2.09-7.858-1.386-9.505-3.52-1.665-5.863.653-7.123,1.895-.214.21-.406.4-.585.553-3.387,2.829-7.887,6.164-12.672,6.855-16.823,2.425-25.792-9.218-28.565-20.9A8,8,0,0,0,21.743,13.7l2.725-9.088A1.251,1.251,0,0,0,23.27,3H10.763A1.251,1.251,0,0,0,9.537,4.5l1.673,8.367C6.1,16.026,4.023,25.286,3.316,29.678.044,49.96,13.129,69.105,33.742,74.205a43.292,43.292,0,0,0,10.407,1.336,33.019,33.019,0,0,0,22.013-8.187c3.114-2.66,5.8-6.919,3.1-10.168-2.74-3.3-6.179-2.071-8.025-1.413-.324.116-.618.223-.875.291-4.464,1.186-11.006,2.574-16.347.967-.234-.07-.455-.15-.684-.224.209,0,.416.019.625.019a36.868,36.868,0,0,0,7.124-.7ZM24.146,24.652c4.538,10.068,13.883,18.24,29.063,16.059,5.407-.78,10.28-4.37,13.92-7.409.224-.189.47-.429.739-.694a5.057,5.057,0,0,1,2.659-1.71C63.205,41.067,54.737,44.216,48.79,45.024c-8.313,1.126-15.849-1.687-19.636-4.979a29.812,29.812,0,0,1-5.045-5.795,36.687,36.687,0,0,1,.038-9.6ZM21.59,5.5l-2.126,7.07a11.918,11.918,0,0,0-4.872-.8,6.828,6.828,0,0,0-1.024.151L12.289,5.5ZM64.54,65.454c-8.315,7.094-18.469,9.225-30.2,6.322C15,66.993,2.727,49.062,5.785,30.07,6.992,22.58,9.971,14.5,14.748,14.264h.83c-1.638,6.206-4.7,21.59.911,34.222C18.85,53.8,25.343,61.158,35.875,64.427A34.747,34.747,0,0,0,46.2,65.99a42.6,42.6,0,0,0,21.577-6.31c.587,2.465-3.192,5.731-3.233,5.773Zm-3.535-6.97c.316-.084.678-.211,1.074-.353,1.547-.552,2.823-.9,3.985-.363C53.522,64.9,43.176,64.088,36.61,62.047c-9.1-2.829-15.518-9.357-17.834-14.57-5.359-12.059-2.281-26.968-.722-32.766a5.243,5.243,0,0,1,1.641.848,7.043,7.043,0,0,1,2.489,5.693c-2.982,14.476,1,32.106,21.115,38.173,5.875,1.774,12.55.428,17.706-.943ZM35.891,53.356A25.228,25.228,0,0,1,25.385,39.848a29,29,0,0,0,2.126,2.086,27.312,27.312,0,0,0,17.417,5.853,31.214,31.214,0,0,0,4.2-.285C55.664,46.614,65,43.137,72.908,31.855c1.133,1.751-.545,5.5-.565,5.542C68.348,46.152,61.034,51.628,50.6,53.675a34.118,34.118,0,0,1-14.712-.324Z" transform="translate(-2.816 -3)"/>
          </g>
        </g>
      </g>
    </g>
  </g>
</svg>
