<svg xmlns="http://www.w3.org/2000/svg" width="117.431" height="117.728" viewBox="0 0 117.431 117.728">
  <g id="ropa-protectora" transform="translate(-0.644)">
    <g id="Grupo_1113259" data-name="Grupo 1113259" transform="translate(2.369 1.725)">
      <path id="Trazado_910439" data-name="Trazado 910439" d="M278.95,267.9l-1.2,13.065v9.269H242.578l-11.428-9.269v9.269H211.861V268.165l24.822-41.906,11.378,11.117-.581,3.61a9.764,9.764,0,0,0,7.705,11.122l14.146,2.863A12.067,12.067,0,0,1,278.95,267.9Z" transform="translate(-165.019 -175.958)" fill="#c3bec6"/>
      <path id="Trazado_910440" data-name="Trazado 910440" d="M211.861,381.616V356.96l11.886,7.34.549,23.853Z" transform="translate(-165.019 -276.606)" fill="#b4acb7"/>
      <path id="Trazado_910441" data-name="Trazado 910441" d="M211.861,464.19H231.15v9.269H211.861Z" transform="translate(-165.019 -359.18)" fill="#655e66"/>
      <path id="Trazado_910442" data-name="Trazado 910442" d="M211.861,464.19h12.264v9.269H211.861Z" transform="translate(-165.019 -359.18)" fill="#535057"/>
      <path id="Trazado_910443" data-name="Trazado 910443" d="M342.35,464.19v9.269H307.179l-11.428-9.269Z" transform="translate(-229.62 -359.18)" fill="#655e66"/>
      <path id="Trazado_910444" data-name="Trazado 910444" d="M222.908,149.53l-4.624,28.76h-1.6a7.847,7.847,0,0,0-7.544,10l.977,3.419a13.634,13.634,0,0,1-13.111,17.372H182.083V197.226l-8.892-47.7Z" transform="translate(-135.241 -116.872)" fill="#655e66"/>
      <path id="Trazado_910445" data-name="Trazado 910445" d="M182.083,209.079V197.226l-8.892-47.7H192.7l1.368,59.549Z" transform="translate(-135.241 -116.872)" fill="#535057"/>
      <g id="Grupo_1113258" data-name="Grupo 1113258">
        <path id="Trazado_910446" data-name="Trazado 910446" d="M87.068,23.881V63.449a12.123,12.123,0,0,1-5.325,10.044l3.328,9.779H36.14l3.328-9.781V67.359l-1.194-1.38V16.1a6.1,6.1,0,1,1,12.2,0V13.6a6.1,6.1,0,0,1,12.2,0v4.6a6.1,6.1,0,0,1,12.2,0v5.677a6.1,6.1,0,0,1,12.2,0Z" transform="translate(-29.703 -7.501)" fill="#9dc6fb"/>
        <g id="Grupo_1113257" data-name="Grupo 1113257" transform="translate(6.437)">
          <path id="Trazado_910447" data-name="Trazado 910447" d="M51.731,289.948v7.982H36.14l3.328-9.78v-1.894a13.947,13.947,0,0,0,4.239.653h4.987A3.038,3.038,0,0,1,51.731,289.948Z" transform="translate(-36.14 -222.16)" fill="#80b4fb"/>
          <path id="Trazado_910448" data-name="Trazado 910448" d="M45.416,74.351V24.473A6.1,6.1,0,0,1,54.1,18.948a6.1,6.1,0,0,0-3.512,5.525V74.351Z" transform="translate(-43.283 -15.873)" fill="#80b4fb"/>
          <path id="Trazado_910449" data-name="Trazado 910449" d="M98.469,42.472V13.6a6.1,6.1,0,0,1,8.688-5.525,6.1,6.1,0,0,0-3.512,5.525V37.295A5.177,5.177,0,0,1,98.469,42.472Z" transform="translate(-84.137 -7.5)" fill="#80b4fb"/>
          <path id="Trazado_910450" data-name="Trazado 910450" d="M151.521,56.18V33.619a6.1,6.1,0,0,1,8.688-5.525,6.1,6.1,0,0,0-3.512,5.525V51A5.177,5.177,0,0,1,151.521,56.18Z" transform="translate(-124.991 -22.916)" fill="#80b4fb"/>
          <path id="Trazado_910451" data-name="Trazado 910451" d="M204.574,76.994V58.306a6.1,6.1,0,0,1,8.688-5.525,6.1,6.1,0,0,0-3.512,5.525V71.818A5.177,5.177,0,0,1,204.574,76.994Z" transform="translate(-165.845 -41.926)" fill="#80b4fb"/>
        </g>
        <path id="Trazado_910452" data-name="Trazado 910452" d="M15.146,125.885a7,7,0,0,0-7,7v16.526a14,14,0,0,0,14,14V132.887A7,7,0,0,0,15.146,125.885Z" transform="translate(-8.144 -98.664)" fill="#9dc6fb"/>
        <path id="Trazado_910453" data-name="Trazado 910453" d="M20.446,163.312a14,14,0,0,1-12.3-13.9V132.886a7.006,7.006,0,0,1,9.782-6.428,7.007,7.007,0,0,0-4.221,6.428v18.45a13.994,13.994,0,0,0,6.742,11.976Z" transform="translate(-8.144 -98.663)" fill="#80b4fb"/>
      </g>
    </g>
    <g id="Grupo_1113260" data-name="Grupo 1113260" transform="translate(0.644 0)">
      <path id="Trazado_910454" data-name="Trazado 910454" d="M110.736,80.372a1.725,1.725,0,0,0-1.613,3.049,10.312,10.312,0,0,1,5.458,10.091l-1.056,11.5H50.935V95.655h13.2A15.356,15.356,0,0,0,78.906,76.088l-.975-3.42a6.119,6.119,0,0,1,5.453-7.783l-.256,1.594a11.459,11.459,0,0,0,9.066,13.086l10.763,2.177a1.724,1.724,0,1,0,.684-3.381L92.877,76.184a8.019,8.019,0,0,1-6.344-9.158l5.206-32.37a1.725,1.725,0,0,0-1.7-2H61.459V18.105a7.828,7.828,0,0,0-12.24-6.463A7.834,7.834,0,0,0,41.436,4.6a7.754,7.754,0,0,0-4.572,1.474A7.829,7.829,0,0,0,22.182,4.435a7.821,7.821,0,0,0-12.967,5.89v3.155a1.725,1.725,0,1,0,3.449,0V10.324a4.375,4.375,0,0,1,8.749,0s0,0,0,0V36.7a1.725,1.725,0,1,0,3.449,0V10.331s0,0,0-.007v-2.5a4.375,4.375,0,1,1,8.749,0v4.6s0,0,0,.007v23.3a1.725,1.725,0,1,0,3.449,0V12.428s0,0,0,0a4.383,4.383,0,0,1,4.375-4.372,4.379,4.379,0,0,1,4.373,4.376v5.677c0,.007,0,.013,0,.02V37.458a1.725,1.725,0,1,0,3.449,0V18.1s0-.006,0-.01a4.375,4.375,0,0,1,8.751.011V57.672a10.4,10.4,0,0,1-4.569,8.615,1.724,1.724,0,0,0-.664,1.982l2.552,7.5H11.214l2.552-7.5a1.717,1.717,0,0,0,.069-.276,15.776,15.776,0,0,0,2.537.208,1.725,1.725,0,1,0,0-3.449A12.292,12.292,0,0,1,4.093,52.473V35.947a5.277,5.277,0,1,1,10.554,0v15.81a1.725,1.725,0,1,0,3.449,0V35.947a8.738,8.738,0,0,0-5.432-8.078V20.377a1.725,1.725,0,1,0-3.449,0v6.848A8.734,8.734,0,0,0,.644,35.947V52.473a15.75,15.75,0,0,0,9.764,14.55v.406L7.173,76.94a1.725,1.725,0,0,0,1.633,2.28H46.922l.563,3.018V116a1.725,1.725,0,0,0,1.725,1.725H68.5A1.725,1.725,0,0,0,70.224,116v-5.65l8.617,6.989a1.724,1.724,0,0,0,1.086.385H115.1A1.725,1.725,0,0,0,116.823,116v-9.19l1.193-12.985a13.752,13.752,0,0,0-7.28-13.456Zm-53-1.152a1.724,1.724,0,0,0,1.633-2.28l-2.925-8.6a13.846,13.846,0,0,0,5.015-10.668V36.107H88.012L83.941,61.419h-.124a9.57,9.57,0,0,0-9.2,12.194l.975,3.42A11.907,11.907,0,0,1,64.139,92.206h-13.2V82.078a1.72,1.72,0,0,0-.029-.316l-.474-2.542Zm-6.8,35.058v-5.819h15.84v5.819Zm29.6,0-7.175-5.819h40.01v5.819Z" transform="translate(-0.644 0)"/>
      <circle id="Elipse_12683" data-name="Elipse 12683" cx="1.725" cy="1.725" r="1.725" transform="translate(41.344 40.657)"/>
      <circle id="Elipse_12684" data-name="Elipse 12684" cx="1.725" cy="1.725" r="1.725" transform="translate(27.621 40.657)"/>
      <circle id="Elipse_12685" data-name="Elipse 12685" cx="1.725" cy="1.725" r="1.725" transform="translate(34.483 40.657)"/>
      <circle id="Elipse_12686" data-name="Elipse 12686" cx="1.725" cy="1.725" r="1.725" transform="translate(30.742 46.429)"/>
      <circle id="Elipse_12687" data-name="Elipse 12687" cx="1.725" cy="1.725" r="1.725" transform="translate(38.224 46.429)"/>
      <circle id="Elipse_12688" data-name="Elipse 12688" cx="1.725" cy="1.725" r="1.725" transform="translate(27.621 52.203)"/>
      <circle id="Elipse_12689" data-name="Elipse 12689" cx="1.725" cy="1.725" r="1.725" transform="translate(41.344 52.203)"/>
      <circle id="Elipse_12690" data-name="Elipse 12690" cx="1.725" cy="1.725" r="1.725" transform="translate(34.483 52.203)"/>
      <circle id="Elipse_12691" data-name="Elipse 12691" cx="1.725" cy="1.725" r="1.725" transform="translate(38.224 57.974)"/>
      <circle id="Elipse_12692" data-name="Elipse 12692" cx="1.725" cy="1.725" r="1.725" transform="translate(30.742 57.974)"/>
      <circle id="Elipse_12693" data-name="Elipse 12693" cx="1.725" cy="1.725" r="1.725" transform="translate(45.708 57.974)"/>
      <circle id="Elipse_12694" data-name="Elipse 12694" cx="1.725" cy="1.725" r="1.725" transform="translate(48.203 52.203)"/>
      <circle id="Elipse_12695" data-name="Elipse 12695" cx="1.725" cy="1.725" r="1.725" transform="translate(45.708 46.429)"/>
      <circle id="Elipse_12696" data-name="Elipse 12696" cx="1.725" cy="1.725" r="1.725" transform="translate(48.203 40.657)"/>
      <circle id="Elipse_12697" data-name="Elipse 12697" cx="1.725" cy="1.725" r="1.725" transform="translate(20.76 40.657)"/>
      <circle id="Elipse_12698" data-name="Elipse 12698" cx="1.725" cy="1.725" r="1.725" transform="translate(23.257 46.429)"/>
      <circle id="Elipse_12699" data-name="Elipse 12699" cx="1.725" cy="1.725" r="1.725" transform="translate(20.76 52.203)"/>
      <circle id="Elipse_12700" data-name="Elipse 12700" cx="1.725" cy="1.725" r="1.725" transform="translate(23.257 57.974)"/>
    </g>
  </g>
</svg>
