<svg xmlns="http://www.w3.org/2000/svg" width="109.875" height="115.809" viewBox="0 0 109.875 115.809">
  <g id="Page-1" transform="translate(-0.536)">
    <g id="_016---Bag" data-name="016---Bag" transform="translate(0.537 0)">
      <path id="Shape" d="M91.212,111.018c-19.3,1.93-34.743,1.93-34.743,1.93h-3.86s-15.441,0-34.743-1.93S1.132,90.288,2.426,85.926C8.332,66.065,12.346,21.614,13.6,6.308A5.752,5.752,0,0,1,19.353,1h5.018a1.239,1.239,0,0,1,1.235,1.216c0,.328.019.637.019.965v.058c1.525,53.639,56.3,53.639,57.827,0V3.181c0-.328.019-.637.019-.965A1.239,1.239,0,0,1,84.707,1h5.018a5.752,5.752,0,0,1,5.752,5.308c1.255,15.306,5.269,59.757,11.176,79.618,1.293,4.362,3.86,23.162-15.441,25.092Z" transform="translate(0.399 0.93)" fill="#ff9801"/>
      <path id="Shape-2" data-name="Shape" d="M82.509,85.926C76.6,66.065,72.588,21.614,71.334,6.308A5.752,5.752,0,0,0,65.582,1H60.563a1.187,1.187,0,0,0-.249.05,5.731,5.731,0,0,1,5.229,5.258C66.8,21.614,70.812,66.065,76.719,85.926c1.293,4.362,3.86,23.162-15.441,25.092-16.514,1.652-30.168,1.89-33.777,1.93h4.825s15.441,0,34.743-1.93S83.8,90.288,82.509,85.926Z" transform="translate(24.543 0.93)" fill="#f57c00"/>
      <path id="Shape-3" data-name="Shape" d="M71.847,2.16C70.322,55.8,15.545,55.8,14.02,2.16,15.564,38.948,70.3,38.948,71.847,2.16Z" transform="translate(12.005 2.009)" fill="#d84315"/>
      <path id="Shape-4" data-name="Shape" d="M15.852,64.19a1.634,1.634,0,0,1-.193-.01c-6.51-.65-8.458-3.551-9.1-4.5C3.788,55.543,4.437,49.016,5.191,46.5a1.93,1.93,0,0,1,3.7,1.1c-.6,2.015-.977,7.157.874,9.919.386.579,1.577,2.345,6.279,2.816a1.933,1.933,0,1,1-.193,3.86Z" transform="translate(3.186 42.006)" fill="#f5f5f5"/>
      <path id="Shape-5" data-name="Shape" d="M48.578,64.2a1.933,1.933,0,0,1-.193-3.86c4.7-.471,5.889-2.235,6.277-2.816,1.853-2.762,1.477-7.914.876-9.919a1.93,1.93,0,0,1,3.7-1.1c.751,2.509,1.4,9.043-1.368,13.175-.641.953-2.588,3.86-9.1,4.5a1.638,1.638,0,0,1-.191.019Z" transform="translate(42.261 42.002)" fill="#f5f5f5"/>
      <path id="Shape-6" data-name="Shape" d="M18.609,113.878c19.176,1.907,34.781,1.93,34.936,1.93h3.86c.154,0,15.76-.023,34.936-1.94,6.721-.672,11.679-3.326,14.74-7.887,4.5-6.707,3.511-15.8,2.357-19.676C103.514,66.4,99.449,20.633,98.347,7.082A7.665,7.665,0,0,0,90.652,0H85.634a3.15,3.15,0,0,0-3.156,3.108l-.027.934v.041c-.743,17.686-14.5,25.744-26.976,25.744S29.256,21.774,28.5,4.117V4.055l-.027-.936A3.15,3.15,0,0,0,25.311,0H20.292A7.665,7.665,0,0,0,12.6,7.082C11.5,20.633,7.436,66.4,1.512,86.306.354,90.178-.63,99.275,3.869,105.982c3.061,4.561,8.02,7.215,14.74,7.9ZM55.475,33.687A31.539,31.539,0,0,0,78.683,23.87C73.607,36.518,64.234,42.463,55.475,42.463s-18.13-5.945-23.206-18.589a31.544,31.544,0,0,0,23.206,9.813ZM5.21,87.407C11.082,67.69,15.027,24.885,16.451,7.394A3.827,3.827,0,0,1,20.3,3.86h4.329v.355c.832,28.929,16.564,42.108,30.848,42.108S85.512,33.129,86.315,4.161l.008-.3h4.329A3.827,3.827,0,0,1,94.5,7.394c1.424,17.491,5.37,60.3,11.241,80.012.782,2.629,1.971,10.706-1.865,16.425-2.388,3.559-6.4,5.644-11.921,6.2-18.973,1.9-34.4,1.92-34.55,1.92h-3.86c-.152,0-15.563-.021-34.55-1.92-5.522-.552-9.533-2.637-11.921-6.2C3.24,98.113,4.429,90.035,5.21,87.407Z" transform="translate(-0.537 0)"/>
    </g>
  </g>
</svg>
