<svg xmlns="http://www.w3.org/2000/svg" width="90" height="90" viewBox="0 0 90 90">
  <g id="Grupo_1113373" data-name="Grupo 1113373" transform="translate(-285 -1764.023)">
    <circle id="Elipse_12658" data-name="Elipse 12658" cx="45" cy="45" r="45" transform="translate(285 1764.023)" fill="#98e465"/>
    <g id="prueba_1_" data-name="prueba (1)" transform="translate(310.473 1784.299)">
      <g id="Grupo_1112290" data-name="Grupo 1112290" transform="translate(22.938 22.406)">
        <g id="Grupo_1112289" data-name="Grupo 1112289">
          <path id="Trazado_908929" data-name="Trazado 908929" d="M286.966,232a.966.966,0,1,0,.966.966A.966.966,0,0,0,286.966,232Z" transform="translate(-286 -232)" fill="#416b24"/>
        </g>
      </g>
      <g id="Grupo_1112292" data-name="Grupo 1112292" transform="translate(19.075 16.611)">
        <g id="Grupo_1112291" data-name="Grupo 1112291">
          <path id="Trazado_908930" data-name="Trazado 908930" d="M246.966,172a.966.966,0,1,0,.966.966A.966.966,0,0,0,246.966,172Z" transform="translate(-246 -172)" fill="#416b24"/>
        </g>
      </g>
      <g id="Grupo_1112294" data-name="Grupo 1112294" transform="translate(7.486 41.722)">
        <g id="Grupo_1112293" data-name="Grupo 1112293">
          <path id="Trazado_908931" data-name="Trazado 908931" d="M126.966,432a.966.966,0,1,0,.966.966A.966.966,0,0,0,126.966,432Z" transform="translate(-126 -432)" fill="#416b24"/>
        </g>
      </g>
      <g id="Grupo_1112296" data-name="Grupo 1112296" transform="translate(0)">
        <g id="Grupo_1112295" data-name="Grupo 1112295">
          <path id="Trazado_908932" data-name="Trazado 908932" d="M87.694,39.373l-12.4-22.048V5.629A2.9,2.9,0,0,0,74.326,0H62.737a2.9,2.9,0,0,0-.966,5.629v11.7l-12.4,22.048a6.76,6.76,0,0,0,5.892,10.075H81.8a6.76,6.76,0,0,0,5.892-10.075ZM63.579,18.051a.965.965,0,0,0,.124-.473V5.795h.966a.966.966,0,1,0,0-1.932H62.737a.966.966,0,1,1,0-1.932H74.326a.966.966,0,1,1,0,1.932H72.395a.966.966,0,1,0,0,1.932h.966V17.577a.965.965,0,0,0,.124.473l5.692,10.12a18.622,18.622,0,0,0-10.123,2.07,16.6,16.6,0,0,1-12.941,1.084ZM85.97,45.126A4.783,4.783,0,0,1,81.8,47.516H55.261a4.829,4.829,0,0,1-4.208-7.2l4.1-7.281a18.508,18.508,0,0,0,6.127,1.044q.463,0,.928-.023a18.751,18.751,0,0,0,7.738-2.1,16.673,16.673,0,0,1,10.409-1.7l5.66,10.062A4.784,4.784,0,0,1,85.97,45.126Z" transform="translate(-48.491)" fill="#416b24"/>
        </g>
      </g>
      <g id="Grupo_1112298" data-name="Grupo 1112298" transform="translate(13.28 22.406)">
        <g id="Grupo_1112297" data-name="Grupo 1112297">
          <path id="Trazado_908933" data-name="Trazado 908933" d="M188.9,232a2.9,2.9,0,1,0,2.9,2.9A2.9,2.9,0,0,0,188.9,232Zm0,3.863a.966.966,0,1,1,.966-.966A.967.967,0,0,1,188.9,235.863Z" transform="translate(-186 -232)" fill="#416b24"/>
        </g>
      </g>
      <g id="Grupo_1112300" data-name="Grupo 1112300" transform="translate(11.349 41.722)">
        <g id="Grupo_1112299" data-name="Grupo 1112299">
          <path id="Trazado_908934" data-name="Trazado 908934" d="M186.281,432H166.966a.966.966,0,1,0,0,1.932h19.316a.966.966,0,0,0,0-1.932Z" transform="translate(-166 -432)" fill="#416b24"/>
        </g>
      </g>
    </g>
  </g>
</svg>
