<svg xmlns="http://www.w3.org/2000/svg" width="65.503" height="68.498" viewBox="0 0 65.503 68.498">
  <g id="error" transform="translate(-11.195 0.001)">
    <g id="Grupo_1113199" data-name="Grupo 1113199" transform="translate(11.195 -0.001)">
      <path id="Trazado_910277" data-name="Trazado 910277" d="M343.975,58.745h0c-2.607-3.481-7.683-5.791-11.905-4.58-4.892,1.431-5.383,7.84.015,8.949,3.076.571,6.653.1,8.185,3.272a5.57,5.57,0,0,0,2.77,2.558C348.909,69.769,346.159,61.406,343.975,58.745Zm1.6,7.917a1.768,1.768,0,0,1-2.265,1.385c-1.577-.421-2.443-2.955-3.771-4.032-2.35-2.324-8.024-.516-9.979-3.526-1.688-2.979,1.752-5.967,4.807-5.715C340.495,54.7,346.011,60.667,345.579,66.662Z" transform="translate(-285.803 -46.637)" fill="#7d9ffb"/>
      <path id="Trazado_910278" data-name="Trazado 910278" d="M394.855,90.318c-1.135-.357-1.111-1.2-1.02-2.237a1.167,1.167,0,0,0-2.2-.724c-.146.185-.35.465-.5.48-.975-.519.108-2.837-2.047-2.881-1.586.039-1.393,1.831-.346,1.105a.544.544,0,0,1,.759-.023c.237.268.211.858.275,1.266.2,1.594,1.814,1.971,2.6.635.958-1.152.192,1.748.747,2.19.4,1.017,2.5,1.028,2.3,2.132a.469.469,0,1,0,.784.515C396.86,91.7,395.781,90.647,394.855,90.318Z" transform="translate(-337.526 -73.59)" fill="#7d9ffb"/>
      <path id="Trazado_910279" data-name="Trazado 910279" d="M350.32,76.291c-3.007-.634-3.992,2.812-.953,3.58a.471.471,0,0,0,.162-.91c-.6-.225-1.111-.524-1.092-1.107.141-.706,1.166-.745,1.758-.633A.469.469,0,0,0,350.32,76.291Z" transform="translate(-302.523 -66.017)" fill="#7d9ffb"/>
      <path id="Trazado_910280" data-name="Trazado 910280" d="M311.08,39.5l-1.469.052a9.572,9.572,0,0,0,.472-2l1.265-.395a.469.469,0,0,0-.28-.9l-.911.284a10.436,10.436,0,0,0-.081-1.58c.026-.009,1.156-.651,1.181-.663a.469.469,0,0,0-.46-.818l-.891.5a11.927,11.927,0,0,0-.555-1.8l1.023-1.124a.469.469,0,0,0-.694-.631l-.743.817a14.338,14.338,0,0,0-.893-1.561c.034-.031.54-.923.573-.97a.469.469,0,0,0-.81-.474l-.354.6a16.95,16.95,0,0,0-1.489-1.722l.531-1.153a.469.469,0,0,0-.852-.393l-.4.863a16.64,16.64,0,0,0-1.657-1.308c.051-.068.406-1.613.438-1.7a.469.469,0,0,0-.91-.228l-.35,1.394a15.545,15.545,0,0,0-2.2-1.1,8.736,8.736,0,0,0,.234-1.87.469.469,0,0,0-.938-.015,7.8,7.8,0,0,1-.183,1.558,13.59,13.59,0,0,0-2.4-.568l-.057-1.065a.469.469,0,0,0-.937.05l.049.919a11.294,11.294,0,0,0-2.742.151l-.037-.725a.469.469,0,0,0-.937.048l.045.883a11.34,11.34,0,0,0-1.475.5l-.542-1.272a.469.469,0,0,0-.863.368l.556,1.305a11.151,11.151,0,0,0-1.1.655l-1.062-1.456a.469.469,0,0,0-.758.553l1.066,1.462a10.307,10.307,0,0,0-1.562,1.574l-.009-.007-1.657-1.085a.469.469,0,0,0-.514.785l1.631,1.068a8.917,8.917,0,0,0-1.008,2.1l-2.022-.445a.469.469,0,0,0-.2.916l1.995.439a7.518,7.518,0,0,0-.112,1.851c.016-.053-2.1.115-2.15.106a.469.469,0,0,0,.057.937,21.245,21.245,0,0,0,2.206-.181,5.442,5.442,0,0,0,.64,1.713,8.736,8.736,0,0,0-1.808.544.469.469,0,0,0,.366.864,7.808,7.808,0,0,1,2.086-.559,4.074,4.074,0,0,0,.649.548l-1.759,1.727a.469.469,0,0,0,.657.67l1.958-1.922a7.243,7.243,0,0,0,2.076.5l-.608,1.373a.469.469,0,0,0,.858.38L291,37.2c.691.038,1.382.052,2.072.113l-.9,1.656a.469.469,0,0,0,.825.447l1.069-1.971a5.389,5.389,0,0,1,1.87.694l-1.493,1.806a.469.469,0,0,0,.723.6l1.543-1.866a12.611,12.611,0,0,1,1.428,1.357l-1.015,1.623a.469.469,0,0,0,.8.5l.872-1.395c.459.517.925,1.044,1.434,1.539l-.917,2.038a.469.469,0,0,0,.856.385l.795-1.766a7.629,7.629,0,0,0,1.544.984l-.2,1.268a.469.469,0,0,0,.927.143l.165-1.074a4.658,4.658,0,0,0,1.414.183l.234,1.919a.469.469,0,0,0,.932-.113l-.237-1.946a3.688,3.688,0,0,0,1.3-.7l.727.883a.469.469,0,0,0,.725-.6l-.782-.951a12.081,12.081,0,0,0,1.511-2.5c0,.07,1.808-.039,1.886-.03a.47.47,0,0,0-.034-.938Zm-6.191,4.028c-5.7-.371-5.668-7.646-13.144-7.225-1.587-.068-3.085-.132-4.236-1-1.708-1.285-1.833-3.829-1.226-5.65,1.154-3.463,4.9-6.084,8.9-6.232,5.909-.377,12.844,5.143,13.876,11.108a8.946,8.946,0,0,1-.72,5.613C307.442,41.94,306.56,43.435,304.889,43.524Z" transform="translate(-246.166 -18.276)" fill="#7d9ffb"/>
      <g id="Grupo_1113198" data-name="Grupo 1113198" transform="translate(2.44 21.488)">
        <path id="Trazado_910281" data-name="Trazado 910281" d="M84.384,181.284a14.51,14.51,0,0,0-5.564,1.248A17.409,17.409,0,0,0,76.06,177c1.793-2.352,4.655-1.746,6.983-.627,4.4,1.661,6.321-3.721,2.631-5.93-4.208-2.348-10.184-.219-12.867,3.626a8.854,8.854,0,0,0-1.186-.573c.092-2.716-2.617-5.324-4.735-6.106,1.409-2.825-1.527-5.7-3.879-6.5a.472.472,0,0,0-.568.705c.942,1.3.866,3.5-.6,4.363a17.659,17.659,0,0,0-4.152-.125c-2.835-2.694.313-5.52-1.536-5.184-2.695,1.265-4.6,3.836-3.441,6.509-2.894,1.379-4.864,4.38-4.137,7.46a11.769,11.769,0,0,0-1.852.87,7.605,7.605,0,0,0-12.389-1.758c-2.152,2.027-.387,5.048,2.282,3.746,2.388-1.829,5.4-2.684,6.9.67a14.044,14.044,0,0,0-2.464,4.054,7.65,7.65,0,0,0-11.115,2.761c-.981,1.616-.521,4.042,1.581,4.053,1.623.114,2.842-1.842,3.985-2.792a3.522,3.522,0,0,1,4.471.443,18.5,18.5,0,0,0,.9,7.757c-4.221-.289-9.215,3.249-9.1,7.677.306,2.89,3.622,3.047,5.109,1.019,1.508-2.262,2.592-4.82,5.734-4.908,6.716,11.967,25.379,12.6,33.231,1.514C81,199.186,79,204.7,81.558,206.553c7.421,2.552,5.992-10.623-3.284-11.273a20.286,20.286,0,0,0,1.324-7.824,3.7,3.7,0,0,1,6.133,1.066c.417,2.308,2.776,3.069,4.32,1.128C92.9,185.9,88.886,181.039,84.384,181.284Zm-1.866-10.839c2.67-.074,5.823,2.9,3.282,4.994-3.325,1.318-5.967-3.628-10.347.82a11.166,11.166,0,0,0-1.856-1.684,10.186,10.186,0,0,1,8.922-4.13ZM69.4,170.314a5.584,5.584,0,0,1-9.144-3.584C63.472,167.078,66.907,167.679,69.4,170.314Zm-5.472-6.049a4.217,4.217,0,0,0-.1-1.92c1.607.772,3.135,3.023,2.185,4.691a20.948,20.948,0,0,0-2.958-.866A3.388,3.388,0,0,0,63.927,164.264Zm-10.143-.421a5.462,5.462,0,0,1,1.763-1.774,4.983,4.983,0,0,0,.989,3.9,14.226,14.226,0,0,0-2.971.8A3.141,3.141,0,0,1,53.784,163.843Zm-.312,3.981a14.277,14.277,0,0,1,5.716-1.126c-.728,4.257-6.381,7.124-8.956,3.765A7.538,7.538,0,0,1,53.472,167.825Zm-3.714,3.532c3.094,3.258,8.492.832,9.9-3.088a6.518,6.518,0,0,0,10.292,2.808c1.875,3.423.03,6.187-3.915,7.084-5.134,1.345-18.881,1.644-16.281-6.8Zm-7.926,3.837c-2.043-.912-3.987.314-5.623,1.429-1.9.858-2.523-1-1.182-2.272a6.655,6.655,0,0,1,10.89,1.638,12.762,12.762,0,0,0-1.71,1.412A4.5,4.5,0,0,0,41.832,175.193Zm-6.894,10.269c-.79.578-1.319,1.41-2.037,2.023-1.841,1.533-3.269-.213-2.136-2.1a6.7,6.7,0,0,1,9.945-2.269,16.366,16.366,0,0,0-.6,2.443A4.4,4.4,0,0,0,34.938,185.462Zm3.075,14.159c-.717.909-1.146,2.023-1.861,2.9-2.116,2.517-4.475.092-3.029-2.552a8.167,8.167,0,0,1,8.1-4.576,19.514,19.514,0,0,0,.884,1.922A6.236,6.236,0,0,0,38.013,199.621Zm7.153.548c-4.216-4.895-5.669-12.313-3.013-18.18,1.312,3.62,5.98,3.017,8.882,4.337,7.805,4.607-1.5,12-.642,18.078A18.876,18.876,0,0,1,45.165,200.168Zm6.3,4.784c-1.255-4.913,4.353-9.432,3.589-14.453-1.422-7.729-8.5-4.17-11.765-8.295-1.6-2.56,3.511-5.948,5.575-6.7,1.807,3.7,7.131,4.028,10.724,4.335l-1.125,26.934A18.838,18.838,0,0,1,51.461,204.953ZM59.4,206.8l1.126-26.959c3.981-.127,10.325-.918,11.033-5.365,3.987,2.042,8.369,7.717,3.962,10.983-4.449,2.871-11.59,3.3-10.386,10.73.617,2.986,3.4,5.276,3.785,8.243A19.883,19.883,0,0,1,59.4,206.8Zm25.559-5.784c1.26,2.206-.075,6.114-2.87,4.756-2.228-1.986-.071-6.521-5.553-7.053a18.8,18.8,0,0,0,1.361-2.525A8.191,8.191,0,0,1,84.955,201.021ZM78.6,189.657a18.147,18.147,0,0,1-8.813,14.283c-.517-2.918-3.112-5.139-3.741-7.948-1.293-8.639,9.778-6.31,12.066-12.489A18.757,18.757,0,0,1,78.6,189.657Zm10.723-.6c-.748,1.057-2.311,1.06-2.565-.452a4.627,4.627,0,0,0-7.228-2.332,19.146,19.146,0,0,0-.464-2.83,13.8,13.8,0,0,1,5.3-1.222c3.737-.21,7.26,3.659,4.954,6.836Z" transform="translate(-29.436 -160.615)" fill="#7d9ffb"/>
      </g>
      <path id="Trazado_910282" data-name="Trazado 910282" d="M15.993,44.135a7.586,7.586,0,0,0,.9.675l-1.561,1.8a.469.469,0,0,0,.708.615l1.688-1.945a9.124,9.124,0,0,0,1.863.667l-.572,1.145a.469.469,0,0,0,.839.42l.691-1.383a10.29,10.29,0,0,0,1.716.1l-.1,1.569a.469.469,0,0,0,.936.059l.106-1.694a10.41,10.41,0,0,0,1.926-.406l.439,2.047a.469.469,0,0,0,.917-.2c-.024-.078-.436-2.1-.474-2.172a8.96,8.96,0,0,0,1.72-.955l.862,2.019a.469.469,0,0,0,.863-.368L28.5,43.864a7.286,7.286,0,0,0,1.083-1.242l1.348,1.191a.469.469,0,0,0,.621-.7l-1.473-1.3a8.225,8.225,0,0,0,.681-1.735l1.862.273a.469.469,0,0,0,.136-.928l-1.807-.265a8.241,8.241,0,0,0,.089-1.385l1.983-.426a.469.469,0,0,0-.2-.917l-1.861.4a7.483,7.483,0,0,0-.318-1.378l1.628-.645a.469.469,0,0,0-.346-.872l-1.621.642a8.709,8.709,0,0,0-.521-.982l1.436-1.025a.469.469,0,0,0-.545-.764l-1.425,1.018a8.9,8.9,0,0,0-.9-1l.982-1.28a.469.469,0,0,0-.745-.571l-.951,1.241a8.447,8.447,0,0,0-1.346-.852l.81-1.642a.469.469,0,0,0-.842-.415l-.825,1.673a10.348,10.348,0,0,0-1.567-.477l.429-2.046a.469.469,0,0,0-.918-.193l-.437,2.083a7.79,7.79,0,0,0-1.494-.035l-.262-1.727a.469.469,0,0,0-.928.141l.262,1.729a5.807,5.807,0,0,0-.934.307l-.491-1.224a.469.469,0,0,0-.871.349l.51,1.272a12.024,12.024,0,0,0-1.56.981l-1.145-1.449a.469.469,0,0,0-.736.582l1.15,1.456a9.442,9.442,0,0,0-1.332,1.4c-.051-.045-1.743-.812-1.8-.847a.469.469,0,0,0-.4.851l1.663.774a8.449,8.449,0,0,0-.7,1.425l-1.55-.325a.469.469,0,0,0-.193.918l1.46.307a7.987,7.987,0,0,0-.224,1.6l-1.81.388a.469.469,0,0,0,.2.918l1.631-.35a8.325,8.325,0,0,0,.351,1.827l-1.615.624a.469.469,0,0,0,.338.875l1.606-.62A7.935,7.935,0,0,0,14.67,42.6l-1.751,1.04a.469.469,0,0,0,.479.807l1.833-1.088a7.294,7.294,0,0,0,.761.777Zm.059-10.7c6.616-8.3,18.9,1.456,12.086,9.47C21.212,49.334,9.825,41.918,16.052,33.438Z" transform="translate(-11.195 -23.297)" fill="#7d9ffb"/>
      <path id="Trazado_910283" data-name="Trazado 910283" d="M58.772,77.4c6.578,2.527,10.639-7.121,4.3-10.056C56.857,65.315,52.262,74.4,58.772,77.4Zm-.038-8.543c4.778-3.337,8.953,3.35,5.017,6.907A4.294,4.294,0,1,1,58.734,68.856Z" transform="translate(-49.668 -58.08)" fill="#7d9ffb"/>
      <path id="Trazado_910284" data-name="Trazado 910284" d="M72.232,88.515c.588-.119,1.054-.678,1.6-.722.977.179-.364,1.284-.392,1.865a.469.469,0,0,0,.911.223c.742-1.169,1.441-2.864-.556-3.025-.582-.034-1.237.555-1.783.748-.983.163.5-1.982.811-2.218.436-.424-.243-1.1-.665-.662C71.069,85.667,69.631,88.812,72.232,88.515Z" transform="translate(-62.797 -73.265)" fill="#7d9ffb"/>
      <path id="Trazado_910285" data-name="Trazado 910285" d="M98.365,79.751c1.646.621.884,2.307,1.737,2.374a.469.469,0,0,0,.475-.463,3.01,3.01,0,0,0-1.867-2.783A.469.469,0,0,0,98.365,79.751Z" transform="translate(-86.452 -68.293)" fill="#7d9ffb"/>
      <path id="Trazado_910286" data-name="Trazado 910286" d="M105.928,108.135a.469.469,0,0,0-.869.353,1.765,1.765,0,0,0,2.2.972.469.469,0,0,0-.323-.881.839.839,0,0,1-1-.444Z" transform="translate(-92.466 -93.42)" fill="#7d9ffb"/>
      <path id="Trazado_910287" data-name="Trazado 910287" d="M185.441,6.022h0l1.8,0,.018,0a5,5,0,0,0,.143,1.419,4.21,4.21,0,0,0-1.728.788.469.469,0,0,0,.572.744,3.273,3.273,0,0,1,1.465-.635A5.042,5.042,0,0,0,188.53,9.6l-.771.8a.469.469,0,0,0,.677.649l.783-.817a5.116,5.116,0,0,0,1.759.848l-.29,1.431a.469.469,0,0,0,.92.186l.294-1.453a5.5,5.5,0,0,0,2.234-.25l.183,1.27a.469.469,0,0,0,.929-.134l-.219-1.513s0-.008,0-.012a4.971,4.971,0,0,0,.961-.687l1.239.763a.469.469,0,0,0,.492-.8l-1.1-.677a3.839,3.839,0,0,0,.58-1.226l1.6-.144a.469.469,0,0,0-.084-.934l-1.375.124a4.649,4.649,0,0,0-.738-2.613l1.481-1.039a.469.469,0,0,0-.539-.768L196.013,3.68a5.407,5.407,0,0,0-1.345-1l.92-1.394a.469.469,0,0,0-.783-.517L193.8,2.3a5.34,5.34,0,0,0-2.934-.544A2.4,2.4,0,0,1,190.45.452a.469.469,0,0,0-.938.008,3.3,3.3,0,0,0,.435,1.6A4.956,4.956,0,0,0,188.364,3.3l-1.286-.577a.469.469,0,0,0-.384.856l1.117.5a3.975,3.975,0,0,0-.416,1.028c.047-.049-1.918-.016-1.955-.023a.469.469,0,0,0,0,.939Zm6.1-3.387a6.758,6.758,0,0,1,4.006,1.93,3.366,3.366,0,0,1-1.262,5.368,4.489,4.489,0,0,1-4.6-.519,4.062,4.062,0,0,1-1.307-4.335,3.677,3.677,0,0,1,3.163-2.444Z" transform="translate(-161.734 0.001)" fill="#7d9ffb"/>
      <path id="Trazado_910288" data-name="Trazado 910288" d="M216.382,34.628a2.4,2.4,0,0,0,1.375-4.3C214.314,28.225,212.232,34.328,216.382,34.628Zm-.738-3.522c1.957-1.285,3.142,2.211.907,2.573A1.4,1.4,0,0,1,215.644,31.105Z" transform="translate(-186.938 -25.889)" fill="#7d9ffb"/>
      <path id="Trazado_910289" data-name="Trazado 910289" d="M248.462,37.025a.469.469,0,0,0,.663-.009,3.763,3.763,0,0,0,.768-3.933.469.469,0,0,0-.869.353C249.887,35.483,247.858,36.366,248.462,37.025Z" transform="translate(-216.62 -28.408)" fill="#7d9ffb"/>
    </g>
  </g>
</svg>
