<svg xmlns="http://www.w3.org/2000/svg" width="136.419" height="131.512" viewBox="0 0 136.419 131.512">
  <g id="campo_1_" data-name="campo (1)" transform="translate(0 -9.172)">
    <g id="Grupo_1113231" data-name="Grupo 1113231" transform="translate(2.007 11.178)">
      <g id="Grupo_1113230" data-name="Grupo 1113230" transform="translate(0 0)">
        <g id="XMLID_310_" transform="translate(0.356 50.803)">
          <g id="Grupo_1113228" data-name="Grupo 1113228">
            <path id="Trazado_910327" data-name="Trazado 910327" d="M320.551,286.149l-35.4-20.073-8.947-1.409-21.237,12.276-.051,6.277-.134,8.9,24.475,14.122,12.867-1.864,28.44-16.558A.962.962,0,0,0,320.551,286.149Z" transform="translate(-188.988 -249.132)" fill="#e19974"/>
            <path id="Trazado_910328" data-name="Trazado 910328" d="M76.627,269.79,55.355,256.605l-10.734,3.622-35.3,20.017a.961.961,0,0,0-.008,1.667L37.6,298.383h0l14.459-1.026s22.413-13.678,22.747-14.107-.051-5.935-.051-5.935Z" transform="translate(-8.83 -243.227)" fill="#e19974"/>
            <path id="Trazado_910329" data-name="Trazado 910329" d="M203,223.535l-30.235,17.144-30.134-17.088,29.759-16.874a.955.955,0,0,1,.95,0Z" transform="translate(-106.838 -206.591)" fill="#e8ad8c"/>
            <path id="Trazado_910330" data-name="Trazado 910330" d="M54.872,295.637c-1.714,1.048-2.813,1.719-2.813,1.719L37.6,298.383h0L9.31,281.91a.961.961,0,0,1,.008-1.667l35.3-20.017,10.734-3.622,7.916,4.907L39.508,275.034a6.623,6.623,0,0,0-.1,11.456Z" transform="translate(-8.831 -243.227)" fill="#dc8758"/>
            <path id="Trazado_910331" data-name="Trazado 910331" d="M190.692,355.092l.051.086L154.118,376.5a.959.959,0,0,1-.966,0l-36.773-21.41,37.155-21.068Z" transform="translate(-87.61 -299.936)" fill="#e8ad8c"/>
            <g id="Grupo_1113227" data-name="Grupo 1113227" transform="translate(28.769 0)">
              <path id="Trazado_910332" data-name="Trazado 910332" d="M137.84,395.179h0l-10.318-6.009-11.14,6.316,36.773,21.41a.959.959,0,0,0,.966,0l10.512-6.12Z" transform="translate(-116.379 -340.331)" fill="#e19974"/>
              <path id="Trazado_910333" data-name="Trazado 910333" d="M164.09,223.284l19.232-10.9-9.984-5.661a.955.955,0,0,0-.95,0l-29.759,16.874,10.458,5.93Z" transform="translate(-135.607 -206.592)" fill="#e19974"/>
            </g>
          </g>
        </g>
        <path id="Trazado_910334" data-name="Trazado 910334" d="M394.343,74.359h-9.552V69.278a18.762,18.762,0,0,1,18.762-18.762h8.108a1.444,1.444,0,0,1,1.444,1.444V55.6A18.762,18.762,0,0,1,394.343,74.359Z" transform="translate(-283.867 -41.463)" fill="#bbec6c"/>
        <path id="Trazado_910335" data-name="Trazado 910335" d="M321.482,119.753h7.576v-5.794a13.442,13.442,0,0,0-13.442-13.442H309.2a1.163,1.163,0,0,0-1.163,1.163v4.631a13.442,13.442,0,0,0,13.442,13.443Z" transform="translate(-227.647 -78.088)" fill="#bbec6c"/>
        <path id="Trazado_910336" data-name="Trazado 910336" d="M315.665,106.311V101.68a1.162,1.162,0,0,1,.888-1.127c-.31-.021-.622-.036-.938-.036H309.2a1.163,1.163,0,0,0-1.163,1.163v4.631a13.442,13.442,0,0,0,13.442,13.442h7.576A13.442,13.442,0,0,1,315.665,106.311Z" transform="translate(-227.647 -78.089)" fill="#a2e62e"/>
        <path id="Trazado_910337" data-name="Trazado 910337" d="M393.456,208.567h-6.844v-4.092a8.406,8.406,0,0,1,8.406-8.406h5.06a1.783,1.783,0,0,1,1.783,1.783v2.309a8.406,8.406,0,0,1-8.406,8.406Z" transform="translate(-285.201 -148.081)" fill="#bbec6c"/>
        <path id="Trazado_910338" data-name="Trazado 910338" d="M68.783,212.4H64.046a9.279,9.279,0,0,1-9.279-9.279v-3.037a1.7,1.7,0,0,1,1.7-1.7H59.5a9.279,9.279,0,0,1,9.279,9.279Z" transform="translate(-42.123 -149.776)" fill="#bbec6c"/>
        <path id="Trazado_910339" data-name="Trazado 910339" d="M59.2,203.12v-3.037a1.7,1.7,0,0,1,1.286-1.646,9.364,9.364,0,0,0-.985-.052H56.465a1.7,1.7,0,0,0-1.7,1.7v3.037a9.279,9.279,0,0,0,9.279,9.279h4.435A9.28,9.28,0,0,1,59.2,203.12Z" transform="translate(-42.123 -149.777)" fill="#a2e62e"/>
        <g id="Grupo_1113229" data-name="Grupo 1113229" transform="translate(26.659 30.952)">
          <path id="Trazado_910340" data-name="Trazado 910340" d="M111.96,204.844h-4.8v-4.013a6.639,6.639,0,0,1,6.639-6.639h3.132a1.665,1.665,0,0,1,1.665,1.665V198.2A6.639,6.639,0,0,1,111.96,204.844Z" transform="translate(-107.162 -177.658)" fill="#bbec6c"/>
          <path id="Trazado_910341" data-name="Trazado 910341" d="M223.773,399.575h4.867v-3.783a4.679,4.679,0,0,0-4.679-4.679H220.9a1.8,1.8,0,0,0-1.8,1.8v1.98A4.679,4.679,0,0,0,223.773,399.575Z" transform="translate(-189.152 -321.903)" fill="#bbec6c"/>
          <path id="Trazado_910342" data-name="Trazado 910342" d="M223.773,140.845h4.867v-3.783a4.679,4.679,0,0,0-4.679-4.679H220.9a1.8,1.8,0,0,0-1.8,1.8v1.98A4.679,4.679,0,0,0,223.773,140.845Z" transform="translate(-189.152 -132.383)" fill="#bbec6c"/>
          <path id="Trazado_910343" data-name="Trazado 910343" d="M259.646,154.692h-4.867v-3.783a4.679,4.679,0,0,1,4.679-4.679h3.064a1.8,1.8,0,0,1,1.8,1.8v1.98A4.679,4.679,0,0,1,259.646,154.692Z" transform="translate(-215.292 -142.526)" fill="#bbec6c"/>
          <path id="Trazado_910344" data-name="Trazado 910344" d="M259.326,402.53h-4.547v-3.089a4.293,4.293,0,0,1,4.293-4.293H262.3a1.317,1.317,0,0,1,1.317,1.317v1.772A4.293,4.293,0,0,1,259.326,402.53Z" transform="translate(-215.292 -324.859)" fill="#bbec6c"/>
        </g>
        <circle id="Elipse_12675" data-name="Elipse 12675" cx="6.764" cy="6.764" r="6.764" fill="#f37c7c"/>
      </g>
    </g>
    <g id="Grupo_1113232" data-name="Grupo 1113232" transform="translate(0 9.172)">
      <path id="Trazado_910345" data-name="Trazado 910345" d="M135.889,119.376,106.4,102.655V95.794h4.838a10.425,10.425,0,0,0,10.413-10.413V83.073a3.794,3.794,0,0,0-3.79-3.79H112.8a10.358,10.358,0,0,0-6.4,2.208s-.046-13.625-.126-14.262h7.672a20.6,20.6,0,0,0,8.667-1.9,2.006,2.006,0,0,0-1.676-3.645,16.615,16.615,0,0,1-6.991,1.529H106.4V60.142a16.775,16.775,0,0,1,16.756-16.756H130.7v3.075a16.582,16.582,0,0,1-3.566,10.326,2.006,2.006,0,1,0,3.158,2.476,20.559,20.559,0,0,0,4.421-12.8V42.824a3.455,3.455,0,0,0-3.451-3.45h-8.108A20.792,20.792,0,0,0,102.43,58.848a15.412,15.412,0,0,0-11.48-5.124H84.537a3.173,3.173,0,0,0-3.17,3.17v4.631A15.466,15.466,0,0,0,96.816,76.973h5.57V100.38L71.133,82.66V78.427h2.861a6.693,6.693,0,0,0,6.685-6.685v-1.98a3.813,3.813,0,0,0-3.809-3.809H73.805a6.64,6.64,0,0,0-3.059.744,6.7,6.7,0,0,0-6.3-4.448H61.383a3.813,3.813,0,0,0-3.809,3.809v1.98a6.693,6.693,0,0,0,6.685,6.685H67.12v8.2L31.645,103.04V93.446h2.792A8.655,8.655,0,0,0,43.082,84.8V82.454a3.676,3.676,0,0,0-3.672-3.672H36.278a8.653,8.653,0,0,0-7.688,4.7A11.254,11.254,0,0,0,20.36,79.9H17.323a3.709,3.709,0,0,0-3.7,3.7v3.037A11.3,11.3,0,0,0,24.9,97.931h2.73v7.384l-7.822,4.435a2.006,2.006,0,0,0,1.979,3.491l5.843-3.313v13.019a2.006,2.006,0,1,0,4.012,0V107.652l7.481-4.241,26.067,14.78L32.116,136.945,6.4,121.969l7.277-4.126a2.006,2.006,0,0,0-1.979-3.491l-8.86,5.024a2.967,2.967,0,0,0-.029,5.145L31.1,141l.006,0,36.758,21.4a2.972,2.972,0,0,0,2.986,0l47.876-27.876a2.006,2.006,0,1,0-2.019-3.468L106.507,137,73.328,118.19,99.5,103.353l2.89,1.638v15.147a2.006,2.006,0,1,0,4.012,0V107.267l25.929,14.7-7.591,4.42a2.006,2.006,0,1,0,2.019,3.468l9.163-5.335a2.967,2.967,0,0,0-.029-5.145ZM112.8,83.3h4.838v2.086a6.408,6.408,0,0,1-6.4,6.4H106.4V89.7A6.408,6.408,0,0,1,112.8,83.3ZM96.816,72.96A11.449,11.449,0,0,1,85.38,61.524V57.736H90.95a11.449,11.449,0,0,1,11.436,11.436V72.96ZM31.646,87.426a4.638,4.638,0,0,1,4.633-4.633H39.07V84.8a4.638,4.638,0,0,1-4.633,4.633H31.646ZM24.9,93.918a7.281,7.281,0,0,1-7.273-7.273v-2.73h2.73a7.281,7.281,0,0,1,7.273,7.273v2.73Zm48.9-23.954h2.86v1.777a2.675,2.675,0,0,1-2.672,2.673H71.133V72.637A2.675,2.675,0,0,1,73.806,69.964ZM61.588,68.037V66.26h2.86a2.676,2.676,0,0,1,2.673,2.673v1.777H64.26A2.675,2.675,0,0,1,61.588,68.037Zm40.906,71.3L69.362,158.631,36.13,139.282,69.261,120.5ZM69.261,115.884,43.194,101.1,67.121,87.537V101.1a2.006,2.006,0,0,0,4.012,0V87.272l24.3,13.776Z" transform="translate(-0.974 -31.295)"/>
      <path id="Trazado_910346" data-name="Trazado 910346" d="M218.28,396.087h2.861v4.581a2.006,2.006,0,0,0,4.012,0v-4.581h2.541a6.306,6.306,0,0,0,6.3-6.3v-1.772a3.327,3.327,0,0,0-3.324-3.324H227.44a6.266,6.266,0,0,0-3.848,1.317,6.673,6.673,0,0,0-5.123-2.4H215.4a3.813,3.813,0,0,0-3.809,3.809v1.98A6.693,6.693,0,0,0,218.28,396.087Zm9.16-7.382h2.541v1.083a2.289,2.289,0,0,1-2.287,2.287h-2.541v-1.083A2.289,2.289,0,0,1,227.44,388.705Zm-11.832-1.08h2.86a2.675,2.675,0,0,1,2.673,2.672v1.777H218.28a2.675,2.675,0,0,1-2.672-2.672Z" transform="translate(-154.994 -283.451)"/>
      <path id="Trazado_910347" data-name="Trazado 910347" d="M8.77,26.712a8.783,8.783,0,0,0,8.536-6.764H27.834L48.642,40.757a2.006,2.006,0,1,0,2.838-2.837l-21.4-21.4a2.007,2.007,0,0,0-1.419-.587H17.306A8.769,8.769,0,1,0,8.77,26.712Zm0-13.528a4.758,4.758,0,1,1-4.758,4.757A4.763,4.763,0,0,1,8.77,13.184Z" transform="translate(0 -9.172)"/>
      <path id="Trazado_910348" data-name="Trazado 910348" d="M71.712,90.863H60.772a2.006,2.006,0,1,0,0,4.012h10.94a2.006,2.006,0,1,0,0-4.012Z" transform="translate(-43.046 -69.011)"/>
      <path id="Trazado_910349" data-name="Trazado 910349" d="M39.142,121.984H16.309a2.006,2.006,0,0,0,0,4.012H39.142a2.006,2.006,0,1,0,0-4.012Z" transform="translate(-10.477 -91.807)"/>
      <path id="Trazado_910350" data-name="Trazado 910350" d="M39.142,153.1H16.309a2.006,2.006,0,0,0,0,4.012H39.142a2.006,2.006,0,1,0,0-4.012Z" transform="translate(-10.477 -114.603)"/>
      <path id="Trazado_910351" data-name="Trazado 910351" d="M16.309,94.875h4.658a2.006,2.006,0,1,0,0-4.012H16.309a2.006,2.006,0,1,0,0,4.012Z" transform="translate(-10.477 -69.011)"/>
    </g>
  </g>
</svg>
