<svg id="Page-1" xmlns="http://www.w3.org/2000/svg" width="64.667" height="77.6" viewBox="0 0 64.667 77.6">
  <g id="_070---Pesticide" data-name="070---Pesticide" transform="translate(0 0)">
    <path id="Shape" d="M24.52,1V4.88a3.88,3.88,0,0,1-3.88,3.88H12.88A3.88,3.88,0,0,1,9,4.88V1Z" transform="translate(2.64 0.293)" fill="#7f8e94"/>
    <path id="Shape-2" data-name="Shape" d="M24.52,13.587V18.76H9V13.587A2.594,2.594,0,0,1,11.587,11H21.933A2.594,2.594,0,0,1,24.52,13.587Z" transform="translate(2.64 3.227)" fill="#60a917"/>
    <path id="Shape-3" data-name="Shape" d="M37.213,53v3.88a3.88,3.88,0,0,1-3.88,3.88H4.88A3.88,3.88,0,0,1,1,56.88V53Z" transform="translate(0.293 15.546)" fill="#008a00"/>
    <path id="Shape-4" data-name="Shape" d="M37.213,29.494V63.56H1V29.494a5.173,5.173,0,0,1,1.513-3.66L11.347,17h15.52L35.7,25.833a5.173,5.173,0,0,1,1.513,3.66Z" transform="translate(0.293 4.987)" fill="#a4c400"/>
    <path id="Shape-5" data-name="Shape" d="M32.227,29.494V63.56h-3.88V29.494a5.173,5.173,0,0,0-1.513-3.66L18,17h3.88l8.833,8.833a5.173,5.173,0,0,1,1.513,3.66Z" transform="translate(5.28 4.987)" fill="#90ac00"/>
    <path id="Shape-6" data-name="Shape" d="M30.76,53v3.88a3.88,3.88,0,0,1-3.88,3.88H23a3.88,3.88,0,0,0,3.88-3.88V53Z" transform="translate(6.747 15.546)" fill="#007900"/>
    <circle id="Oval" cx="13" cy="13" r="13" transform="translate(6 36)" fill="#f5f5f5"/>
    <path id="Shape-7" data-name="Shape" d="M15.44,28a12.957,12.957,0,0,0-1.94.162,12.915,12.915,0,0,1,0,25.543A12.927,12.927,0,1,0,15.44,28Z" transform="translate(3.96 8.213)" fill="#cfd8dc"/>
    <path id="Shape-8" data-name="Shape" d="M26.218,30.93,7.93,49.218" transform="translate(2.326 9.073)" fill="none" stroke="#000" stroke-linejoin="round" stroke-width="2" fill-rule="evenodd"/>
    <g id="Grupo_1113303" data-name="Grupo 1113303">
      <path id="Shape-9" data-name="Shape" d="M18.985,41.984c-1.284,1.283-3.72.932-5.432-.776s-2.069-4.148-.776-5.432,3.72-.944,5.432.776S20.269,40.691,18.985,41.984Z" transform="translate(3.519 10.266)" fill="#ff9801"/>
      <path id="Rectangle-path" d="M13,7h5.173v5.173H13Z" transform="translate(3.813 2.053)" fill="#37474f"/>
      <path id="Shape-10" data-name="Shape" d="M41.933,39.587V48.64a2.594,2.594,0,0,1-2.587,2.587H29V37H39.347A2.594,2.594,0,0,1,41.933,39.587Z" transform="translate(8.507 10.853)" fill="#607d8b"/>
      <path id="Shape-11" data-name="Shape" d="M37.88,37H34a2.594,2.594,0,0,1,2.587,2.587V48.64A2.594,2.594,0,0,1,34,51.227h3.88a2.594,2.594,0,0,0,2.587-2.587V39.587A2.594,2.594,0,0,0,37.88,37Z" transform="translate(9.973 10.853)" fill="#37474f"/>
      <path id="Shape-12" data-name="Shape" d="M39.347,33.173V39.64H34.173V34.467a1.293,1.293,0,0,0-1.293-1.293H29V28h5.173A5.173,5.173,0,0,1,39.347,33.173Z" transform="translate(8.507 8.213)" fill="#ffdc00"/>
      <path id="Shape-13" data-name="Shape" d="M52.4,25V59.273a9.7,9.7,0,0,1-19.4,0V54.747h5.173v4.527a4.527,4.527,0,1,0,9.053,0V25Z" transform="translate(9.68 7.333)" fill="#ffdc00"/>
      <rect id="Rectangle-path-2" data-name="Rectangle-path" width="7" height="10" rx="1" transform="translate(56 22)" fill="#607d8b"/>
      <path id="Shape-14" data-name="Shape" d="M50.76,7.293v6.648a9.053,9.053,0,0,1-.272,2.2l-1.022,4.087H44.293L43.272,16.14a9.053,9.053,0,0,1-.272-2.2V7.293A1.293,1.293,0,0,1,44.293,6h5.173A1.293,1.293,0,0,1,50.76,7.293Z" transform="translate(12.613 1.76)" fill="#cfd8dc"/>
      <path id="Shape-15" data-name="Shape" d="M14.227,12.933a3.88,3.88,0,0,0-3.88,3.88v4.638L1.895,29.9A6.427,6.427,0,0,0,0,34.476v37.95A5.173,5.173,0,0,0,5.173,77.6H33.627A5.173,5.173,0,0,0,38.8,72.426V63.373h2.587v3.233a10.993,10.993,0,1,0,21.987,0V33.267a2.578,2.578,0,0,0,1.293-2.227V23.28A2.587,2.587,0,0,0,63.609,21.2l.749-3a10.314,10.314,0,0,0,.309-2.508V9.053A2.587,2.587,0,0,0,62.08,6.467H60.787V1.293a1.293,1.293,0,1,0-2.587,0V6.467H56.907A2.587,2.587,0,0,0,54.32,9.053V15.7a10.314,10.314,0,0,0,.309,2.508l.749,3A2.587,2.587,0,0,0,54.32,23.28v7.76a2.578,2.578,0,0,0,1.293,2.227V66.606a3.233,3.233,0,1,1-6.467,0V63.135a3.88,3.88,0,0,0,2.587-3.642V50.44A3.88,3.88,0,0,0,49.147,46.8V41.387A6.474,6.474,0,0,0,42.68,34.92H38.8v-.444A6.427,6.427,0,0,0,36.905,29.9l-8.452-8.452V16.813a3.88,3.88,0,0,0-3.88-3.88H23.28V10.347a5.173,5.173,0,0,0,5.173-5.173V1.293A1.293,1.293,0,0,0,27.16,0H11.64a1.293,1.293,0,0,0-1.293,1.293v3.88a5.173,5.173,0,0,0,5.173,5.173v2.587ZM41.387,46.56H38.8V42.68h2.587Zm15.52-15.52V23.28H62.08v7.76Zm0-21.987H62.08V15.7a7.826,7.826,0,0,1-.232,1.882l-.777,3.112H57.915l-.776-3.112a7.826,7.826,0,0,1-.233-1.882ZM52.38,72.426a5.826,5.826,0,0,0,5.82-5.82V33.627h2.587v32.98a8.407,8.407,0,1,1-16.813,0V63.373H46.56v3.233A5.826,5.826,0,0,0,52.38,72.426ZM49.147,59.493a1.293,1.293,0,0,1-1.293,1.293H38.8V49.147h9.053a1.293,1.293,0,0,1,1.293,1.293ZM42.68,37.507a3.88,3.88,0,0,1,3.88,3.88V46.56H43.973V42.68a2.587,2.587,0,0,0-2.587-2.587H38.8V37.507Zm-6.467-3.03V67.253h-3.88a1.293,1.293,0,0,0,0,2.587h3.88v2.587a2.587,2.587,0,0,1-2.587,2.587H5.173a2.587,2.587,0,0,1-2.587-2.587V69.84H27.16a1.293,1.293,0,0,0,0-2.587H2.587V34.476a3.859,3.859,0,0,1,1.137-2.744l8.452-8.452H26.624l8.452,8.452A3.854,3.854,0,0,1,36.213,34.476ZM25.867,16.813v3.88H12.933v-3.88a1.293,1.293,0,0,1,1.293-1.293H24.573A1.293,1.293,0,0,1,25.867,16.813ZM12.933,5.173V2.587H25.867V5.173A2.587,2.587,0,0,1,23.28,7.76H15.52A2.587,2.587,0,0,1,12.933,5.173Zm5.173,5.173h2.587v2.587H18.107Z" transform="translate(0 0)"/>
      <path id="Shape-16" data-name="Shape" d="M23.227,21H10.293a1.293,1.293,0,1,0,0,2.587H23.227a1.293,1.293,0,1,0,0-2.587Z" transform="translate(2.64 6.16)"/>
      <path id="Shape-17" data-name="Shape" d="M23.227,38.467H21.373a6.974,6.974,0,0,0-3.32-3.316V33.293a1.293,1.293,0,0,0-2.587,0V34.6a4.294,4.294,0,0,0-1.636.4l-1.33-1.33A1.293,1.293,0,0,0,10.672,35.5l1.337,1.337a4.268,4.268,0,0,0-.4,1.628H10.293a1.293,1.293,0,0,0,0,2.587h1.868A6.882,6.882,0,0,0,13.519,43a6.777,6.777,0,0,0,1.948,1.354v1.87a1.293,1.293,0,0,0,2.587,0V44.9a3.868,3.868,0,0,0,3.867-3.852h1.306a1.293,1.293,0,0,0,0-2.587Zm-4.278,3.492c-.751.749-2.431.388-3.6-.776A3.963,3.963,0,0,1,14.2,39.037a1.725,1.725,0,0,1,.37-1.456,1.542,1.542,0,0,1,1.1-.407,3.714,3.714,0,0,1,2.5,1.177C19.354,39.532,19.71,41.183,18.948,41.959Z" transform="translate(2.64 9.387)"/>
      <path id="Shape-18" data-name="Shape" d="M18.227,27A14.227,14.227,0,1,0,32.453,41.227,14.227,14.227,0,0,0,18.227,27Zm0,2.587a11.573,11.573,0,0,1,7.257,2.554L9.141,48.484a11.626,11.626,0,0,1,9.086-18.9Zm0,23.28a11.573,11.573,0,0,1-7.257-2.554L27.312,33.97a11.626,11.626,0,0,1-9.086,18.9Z" transform="translate(1.173 7.92)" fill="#f44335"/>
    </g>
  </g>
</svg>
