<svg xmlns="http://www.w3.org/2000/svg" width="80.411" height="114.032" viewBox="0 0 80.411 114.032">
  <g id="bolsa-de-basura_1_" data-name="bolsa-de-basura (1)" transform="translate(-23.806 -6.919)">
    <g id="Grupo_1113255" data-name="Grupo 1113255">
      <path id="Trazado_910426" data-name="Trazado 910426" d="M56.847,39.486s-6.272-17.863,1.5-30.818c4.772,6.75,10.909,6.409,19.972.839,1.917-.759,2.211,3.972,3.206,10.25a3,3,0,0,0,2.505,2.507c3.1.454,6.815.282,10.317,1.813,3.749,2.114-13.364,8.659-21.819,16.909Z" fill="#e6eeff"/>
      <ellipse id="Elipse_12682" data-name="Elipse 12682" cx="12.636" cy="7.636" rx="12.636" ry="7.636" transform="translate(51.666 34.03)" fill="#5c5f66"/>
      <path id="Trazado_910427" data-name="Trazado 910427" d="M101.987,102.705A19.07,19.07,0,0,1,85.4,118.249c-5.858.735-12.223.735-22.011.735-8.64.03-15.98.72-22.24.07A17.037,17.037,0,0,1,26.1,105.1C22.43,84.25,36.94,44.66,63.39,42.89,85.035,42.894,105.9,79.262,101.987,102.705Z" fill="#dae2f2"/>
    </g>
    <g id="Grupo_1113256" data-name="Grupo 1113256">
      <path id="Trazado_910428" data-name="Trazado 910428" d="M96.831,68.579a1.75,1.75,0,0,0-3.123,1.582c5.62,11.1,8.071,23.153,6.556,32.251a17.4,17.4,0,0,1-15.085,14.1c-1.433.183-2.895.321-4.468.42a1.751,1.751,0,0,0,.107,3.5h.112c1.649-.1,3.184-.247,4.689-.44a20.923,20.923,0,0,0,18.1-17c1.655-9.96-.855-22.5-6.888-34.413Z"/>
      <path id="Trazado_910429" data-name="Trazado 910429" d="M88.034,60.839a1.75,1.75,0,0,0,2.832-2.057A50.935,50.935,0,0,0,77.385,45.617a6.821,6.821,0,0,0,1.3-3.947,6.656,6.656,0,0,0-.725-2.937c9.172-6.759,18.717-10.217,18.663-13.959A2.586,2.586,0,0,0,95.2,22.555a1.4,1.4,0,0,0-.155-.078c-3.809-1.666-7.7-1.5-10.78-1.951a1.224,1.224,0,0,1-1.012-1.042c-1.043-6.522-1.178-10.247-3.278-11.461a2.6,2.6,0,0,0-2.3-.14,1.747,1.747,0,0,0-.274.136C67.352,14.2,63.089,12.342,59.778,7.66a1.724,1.724,0,0,0-1.493-.739,1.749,1.749,0,0,0-1.435.848C51.3,17,52.452,28.43,53.887,35.146c-2.538,1.717-3.967,4.042-3.967,6.524a6.688,6.688,0,0,0,.85,3.233c-20.382,11.22-29.42,43.32-26.393,60.5a18.886,18.886,0,0,0,16.6,15.386c.425.042.85.083,1.285.114h.128a1.75,1.75,0,0,0,.124-3.495c-.406-.029-.8-.068-1.184-.105a15.372,15.372,0,0,1-13.507-12.5C24.855,87.951,34.6,56.305,54.15,47.1a25.809,25.809,0,0,1,9.3-2.461,21.7,21.7,0,0,1,10.37,2.925c4.98,2.736,9.894,7.324,14.214,13.275ZM58.672,11.808c6.031,6.216,13.5,3.387,19.671-.268.5,1.575.912,5.05,1.458,8.488a4.74,4.74,0,0,0,3.972,3.963c2.8.415,5.824.333,8.682,1.244C89.685,27.5,82.01,31.415,75.815,36c-2.668-2.319-6.9-3.718-11.515-3.718A20.875,20.875,0,0,0,57.123,33.5c-1.109-5.668-1.839-14.291,1.549-21.692ZM63.39,41.14h-.119a29.166,29.166,0,0,0-9.334,2.22,3.272,3.272,0,0,1-.517-1.694c0-1.508,1.2-3.017,3.3-4.148A15.987,15.987,0,0,1,64.3,35.78c4.272,0,8.19,1.423,9.988,3.631a3.259,3.259,0,0,1,.027,4.473A24.542,24.542,0,0,0,63.39,41.14Z"/>
      <path id="Trazado_910430" data-name="Trazado 910430" d="M69.62,117.19a1.668,1.668,0,0,0-.326.032c-1.828.008-3.79.008-5.909.008-2.9.008-5.62.092-8.249.172l-1.607.049a1.75,1.75,0,1,0,.05,3.5h.052l1.612-.049c2.6-.079,5.3-.162,8.147-.17,2.244,0,4.317,0,6.24-.01a1.75,1.75,0,0,0,1.74-1.75v-.06a1.724,1.724,0,0,0-1.75-1.722Z"/>
      <path id="Trazado_910431" data-name="Trazado 910431" d="M35.693,94.21a1.784,1.784,0,0,0-1.84,1.656,34.945,34.945,0,0,0,.371,7.8A8.728,8.728,0,0,0,42,110.848a101.563,101.563,0,0,0,12.534.078,1.751,1.751,0,1,0-.111-3.5,100.448,100.448,0,0,1-12.061-.061,5.257,5.257,0,0,1-4.694-4.313,31.357,31.357,0,0,1-.321-7,1.753,1.753,0,0,0-1.654-1.842Z"/>
    </g>
  </g>
</svg>
