<svg xmlns="http://www.w3.org/2000/svg" width="90" height="90" viewBox="0 0 90 90">
  <g id="Grupo_1113375" data-name="Grupo 1113375" transform="translate(-285.257 -2046.826)">
    <circle id="Elipse_12654" data-name="Elipse 12654" cx="45" cy="45" r="45" transform="translate(285.257 2046.826)" fill="#98e465"/>
    <path id="machete" d="M18.111,35.148,49.448,3.81,47.98,2.831A16.907,16.907,0,0,0,25.007,6.887L9.841,27.044,7.867,29.019a4.349,4.349,0,0,0-.838,4.962L1.684,39.52A5.789,5.789,0,0,0,9.88,47.7l2.047-2.047L9.88,43.6c4.956-4.956,3.2-3.15,8.231-8.456ZM27.326,8.62l.011-.014A13.96,13.96,0,0,1,44.824,4.341L42.619,6.546A11.044,11.044,0,0,0,29.68,10.3L20.857,21.811l2.3,1.761L32,12.028a8.127,8.127,0,0,1,8.3-3.172L17.076,32.089l-4.228-4.228ZM5.787,43.6,7.833,45.65A2.894,2.894,0,0,1,3.74,41.557l7.178-7.44L9.913,33.112a1.449,1.449,0,0,1,0-2.047l1.023-1.024,4.12,4.12c-4.031,4.248-2.1,2.271-9.269,9.442Zm0,0" transform="matrix(-0.966, -0.259, 0.259, -0.966, 347.767, 2122.079)" fill="#416b24"/>
  </g>
</svg>
