<svg xmlns="http://www.w3.org/2000/svg" xmlns:xlink="http://www.w3.org/1999/xlink" width="136" height="136" viewBox="0 0 136 136">
  <defs>
    <filter id="Elipse_11661" x="0" y="0" width="136" height="136" filterUnits="userSpaceOnUse">
      <feOffset dy="3" input="SourceAlpha"/>
      <feGaussianBlur stdDeviation="3" result="blur"/>
      <feFlood flood-opacity="0.161"/>
      <feComposite operator="in" in2="blur"/>
      <feComposite in="SourceGraphic"/>
    </filter>
  </defs>
  <g id="Grupo_1113373" data-name="Grupo 1113373" transform="translate(-263 -3754.5)">
    <g id="Grupo_1113337" data-name="Grupo 1113337" transform="translate(-105 -2398.849)">
      <g transform="matrix(1, 0, 0, 1, 368, 6153.35)" filter="url(#Elipse_11661)">
        <circle id="Elipse_11661-2" data-name="Elipse 11661" cx="59" cy="59" r="59" transform="translate(9 6)" fill="#fff"/>
      </g>
    </g>
    <g id="agua-caliente" transform="translate(297.548 3758.652)">
      <path id="Trazado_910666" data-name="Trazado 910666" d="M60.878,251.283a4.264,4.264,0,0,0,4.077,3.066h32.26a2.694,2.694,0,0,0,2.576-1.938l7.328-25.364-.942-.061-3.83,1.946a6.525,6.525,0,0,1-6.261,0h0a6.525,6.525,0,0,0-6.262,0h0a6.524,6.524,0,0,1-6.262,0h0a6.525,6.525,0,0,0-6.262,0h0a6.525,6.525,0,0,1-6.262,0,6.525,6.525,0,0,0-6.262,0h0a6.525,6.525,0,0,1-6.262,0l-3.693-1.946h-.96Z" transform="translate(-46.764 -170.3)" fill="#97e4f9"/>
      <path id="Trazado_910667" data-name="Trazado 910667" d="M58.511,234.1a6.524,6.524,0,0,0,6.262,0h0a6.524,6.524,0,0,1,6.262,0,6.524,6.524,0,0,0,6.262,0h0a6.525,6.525,0,0,1,6.262,0h0a6.524,6.524,0,0,0,6.262,0h0a6.524,6.524,0,0,1,6.262,0h0a6.525,6.525,0,0,0,6.261,0l3.207-1.63,1.565-5.417-.942-.061-3.83,1.946a6.525,6.525,0,0,1-6.261,0h0a6.525,6.525,0,0,0-6.262,0h0a6.524,6.524,0,0,1-6.262,0h0a6.525,6.525,0,0,0-6.262,0h0a6.525,6.525,0,0,1-6.262,0,6.525,6.525,0,0,0-6.262,0h0a6.525,6.525,0,0,1-6.262,0l-3.693-1.946h-.96l1.587,5.492Z" transform="translate(-46.763 -170.302)" fill="#62d8f9"/>
      <path id="Trazado_910668" data-name="Trazado 910668" d="M66.862,194.656l-8.216,28.437a1.759,1.759,0,0,1-1.69,1.271H24.7a3.322,3.322,0,0,1-3.191-2.4l-7.89-27.309a1.58,1.58,0,0,0-1.518-1.141H9.081a1.58,1.58,0,0,0-1.518,2.018l9.387,32.489a3.322,3.322,0,0,0,3.191,2.4H60.336a3.322,3.322,0,0,0,3.191-2.4l9.387-32.489a1.58,1.58,0,0,0-1.518-2.018H68.38a1.58,1.58,0,0,0-1.518,1.141Z" transform="translate(-6.513 -141.239)" fill="#daeaef"/>
      <path id="Trazado_910669" data-name="Trazado 910669" d="M388.135,193.515H385.46l-9.97,34.507a3.322,3.322,0,0,1-3.191,2.4h4.776a3.322,3.322,0,0,0,3.191-2.4l9.387-32.489a1.58,1.58,0,0,0-1.518-2.018Z" transform="translate(-323.252 -141.239)" fill="#c9e2e7"/>
      <path id="Trazado_910670" data-name="Trazado 910670" d="M195.408,44.591a.988.988,0,1,0,1.577,1.191,6.364,6.364,0,0,0,0-7.86,4.4,4.4,0,0,1,0-5.494.988.988,0,1,0-1.583-1.183,6.364,6.364,0,0,0,0,7.86A4.4,4.4,0,0,1,195.408,44.591Z" transform="translate(-168.48 -0.002)"/>
      <path id="Trazado_910671" data-name="Trazado 910671" d="M104.133,44.591a.988.988,0,1,0,1.577,1.191,6.364,6.364,0,0,0,0-7.86,4.4,4.4,0,0,1,0-5.494.988.988,0,1,0-1.583-1.183,6.364,6.364,0,0,0,0,7.86A4.4,4.4,0,0,1,104.133,44.591Z" transform="translate(-89.23 -0.002)"/>
      <path id="Trazado_910672" data-name="Trazado 910672" d="M286.676,44.6l-.013.018a.988.988,0,0,0,1.6,1.163,6.364,6.364,0,0,0,0-7.858,4.4,4.4,0,0,1,0-5.494.988.988,0,1,0-1.583-1.183,6.364,6.364,0,0,0,0,7.86A4.4,4.4,0,0,1,286.676,44.6Z" transform="translate(-247.73 -0.001)"/>
      <path id="Trazado_910673" data-name="Trazado 910673" d="M377.951,44.6l-.013.018a.988.988,0,0,0,1.6,1.163,6.364,6.364,0,0,0,0-7.858,4.4,4.4,0,0,1,0-5.494.988.988,0,0,0-1.583-1.183,6.364,6.364,0,0,0,0,7.86A4.4,4.4,0,0,1,377.951,44.6Z" transform="translate(-326.98)"/>
      <path id="Trazado_910674" data-name="Trazado 910674" d="M64.882,186.016H61.866a2.58,2.58,0,0,0-2.467,1.855l-.827,2.861-3.437,1.746-.026.014a5.508,5.508,0,0,1-5.3.006l-.012-.007a7.481,7.481,0,0,0-7.21,0l0,0a5.513,5.513,0,0,1-5.308,0l0,0a7.48,7.48,0,0,0-7.21,0,5.513,5.513,0,0,1-5.314,0,7.481,7.481,0,0,0-7.2,0l-.006,0a5.554,5.554,0,0,1-.98.419.988.988,0,1,0,.6,1.883,7.531,7.531,0,0,0,1.325-.566l0,0a5.512,5.512,0,0,1,5.314,0,7.481,7.481,0,0,0,7.21,0,5.513,5.513,0,0,1,5.311,0l0,0a7.481,7.481,0,0,0,7.21,0l0,0a5.509,5.509,0,0,1,5.3,0l.012.007a7.48,7.48,0,0,0,7.2.008l1.778-.9-6.639,22.977a.775.775,0,0,1-.741.557H18.183a2.345,2.345,0,0,1-2.242-1.686l-6.3-21.817c1.129.593,2.051,1.075,2.143,1.117a.988.988,0,0,0,.827-1.795c-.191-.094-2.213-1.156-3.731-1.955l-.826-2.859a2.58,2.58,0,0,0-2.467-1.855H2.569A2.567,2.567,0,0,0,.1,189.3l9.386,32.488a4.33,4.33,0,0,0,4.14,3.113H53.822a4.33,4.33,0,0,0,4.14-3.113L61.426,209.8a.988.988,0,1,0-1.9-.548l-3.463,11.987a2.345,2.345,0,0,1-2.242,1.686H13.629a2.345,2.345,0,0,1-2.242-1.686L2,188.748a.591.591,0,0,1,.568-.756H5.585a.594.594,0,0,1,.568.427l7.89,27.308a4.33,4.33,0,0,0,4.14,3.113H50.442a2.76,2.76,0,0,0,2.639-1.985L61.3,188.42a.594.594,0,0,1,.568-.427h3.016a.591.591,0,0,1,.568.756l-4.63,16.024a.988.988,0,0,0,1.9.548l4.63-16.024a2.567,2.567,0,0,0-2.467-3.281Z" transform="translate(0 -134.728)"/>
    </g>
  </g>
</svg>
