<svg xmlns="http://www.w3.org/2000/svg" width="94.294" height="114.95" viewBox="0 0 94.294 114.95">
  <g id="gestion-de-residuos" transform="translate(-71.345 -32.385)">
    <path id="Trazado_910432" data-name="Trazado 910432" d="M181.417,203.694l7.454,27.524a4.591,4.591,0,0,0,4.482,3.429h9.661a4.592,4.592,0,0,0,4.482-3.429l7.454-27.524Z" transform="translate(-81.02 -126.095)" fill="#19cfba" fill-rule="evenodd"/>
    <path id="Trazado_910433" data-name="Trazado 910433" d="M186.219,135.047l-4.8,14.407H214.95l-4.8-14.407a7.122,7.122,0,0,0-6.852-4.938C198.066,130.512,188.166,128.059,186.219,135.047Z" transform="translate(-81.02 -71.855)" fill="#60b7fe" fill-rule="evenodd"/>
    <path id="Trazado_910434" data-name="Trazado 910434" d="M234.938,130.4c-.154-.02-10.9-.02-11.05,0,.038,9.138-1.306,9.287,8.461,9.017a2.6,2.6,0,0,0,2.588-2.588Z" transform="translate(-112.25 -72.133)" fill="#fa6e85" fill-rule="evenodd"/>
    <path id="Trazado_910435" data-name="Trazado 910435" d="M173.2,189.034h35.387a1.657,1.657,0,0,1,1.652,1.652c-.173,1.388.705,4.847-1.652,4.8H173.2c-2.325.053-1.522-3.412-1.652-4.8A1.657,1.657,0,0,1,173.2,189.034Z" transform="translate(-73.734 -115.304)" fill="#ffbf31" fill-rule="evenodd"/>
    <path id="Trazado_910436" data-name="Trazado 910436" d="M147.677,348.269c4.225.478,27.271-9.426,31.567-10.7,1.889-.707,3.925-.586,5.208.971,1.534,1.648,1.757,4.591-.156,5.848-10.885,6.164-29.023,22.091-41.72,23.519-4.893.4-9.733-1.392-14.633-2.1-8.743-1.26-18.135-.847-27.033-.808V345.6c4.312-1.139,8.426-1.958,12.513-3.071,5.87-1.6,9.954-6.3,16.457-4.337l14.777,4.455a4.528,4.528,0,0,1,3.02,5.626Z" transform="translate(-21.762 -224.33)" fill="#f0b16e" fill-rule="evenodd"/>
    <path id="Trazado_910437" data-name="Trazado 910437" d="M80.36,350.76h7.277a2.433,2.433,0,0,1,2.426,2.426v24.257a2.433,2.433,0,0,1-2.426,2.426H80.36a2.433,2.433,0,0,1-2.426-2.426V353.186A2.433,2.433,0,0,1,80.36,350.76Z" transform="translate(-4.85 -234.345)" fill="#60b7fe" fill-rule="evenodd"/>
    <path id="Trazado_910438" data-name="Trazado 910438" d="M162.146,117.627a1.334,1.334,0,0,1-.567.97l-23.926,15.771c-4.9,3.233-11.259,7-16.977,7.465-4.613.375-9.524-1.424-14.242-2.086a128.319,128.319,0,0,0-19.477-.9V121.159a40.074,40.074,0,0,0,10.97-3.713c3.242-1.625,6.044-3.031,9.694-1.928l14.777,4.453a2.8,2.8,0,0,1,1.854,3.458c-.973,2.74-3.885,1.8-6.063,1.27-3.969-.853-7.252-1.848-11.064-1.281a1.741,1.741,0,0,0,.5,3.446,12.392,12.392,0,0,1,2.973-.086c4.951.2,13.164,4.913,16.5-1.188,3.647.272,27.175-9.57,31-10.728a2.767,2.767,0,0,1,4.049,2.766Zm-78.67,25.464a.694.694,0,0,1-.685.685H75.512a.7.7,0,0,1-.687-.685V118.834a.7.7,0,0,1,.687-.684H82.79a.694.694,0,0,1,.685.684Zm80.753-29.764c-1.647-2.176-4.4-2.836-7.353-1.727-1.915.569-27.838,10.827-29.055,10.406a6.3,6.3,0,0,0-4.419-5.368l-14.778-4.453c-8.72-2.365-13.828,4.629-21.849,5.437-1.026-4.369-8.147-2.634-11.262-2.954a4.172,4.172,0,0,0-4.167,4.166v24.258c.112,5.811,7.8,3.854,11.445,4.166a4.294,4.294,0,0,0,4.166-4.931c8.641-.048,15.9-.035,23.731,1.789,10.2,3.38,20.348-.769,28.882-6.84L163.5,121.5c2.7-1.718,2.743-5.835.733-8.176Zm-90.9-14.189a8.861,8.861,0,0,1,0-10.132l9.779-14.922c1.208-1.9,4.179.031,2.912,1.91L76.241,90.914a5.453,5.453,0,0,0,0,6.3c2.495,4.673,10.984,3.076,15.337,3.33-2.526-1.011-1.131-4.6,1.324-3.3l5.444,3.565a2.02,2.02,0,0,1,.207.153s0,0,0,0a1.729,1.729,0,0,1,.6,1.3v.026a1.736,1.736,0,0,1-.81,1.46c-.627.286-5.734,4.085-6.4,3.848-2.151-.085-2.268-2.857-.371-3.578-5.841-.021-14.947,1.095-18.241-4.89Zm65.913-30.145c0-.014.815-5.92.82-5.932v0a1.656,1.656,0,0,1,.045-.211,1.743,1.743,0,0,1,.688-.972h0a.2.2,0,0,1,.032-.023c.011-.007,0,0,0,0h0a1.716,1.716,0,0,1,1.192-.264,1.663,1.663,0,0,1,.385.1l6.265,2.335c2.4,1.209.786,4.656-2.464,2.8l14.776,22.178a8.923,8.923,0,0,1,0,10.144c-3.8,7.218-17.539,4.36-24.076,4.89-2.251.028-2.263-3.511,0-3.482h14.468a7.8,7.8,0,0,0,6.7-3.33,5.405,5.405,0,0,0,0-6.294L142.885,68.093c.077,3.87-3.732,3.54-3.639.9ZM88.177,60.056c.018.121.81,5.886.831,6,0,.006,0,.008,0,.014.006.021.01.039.014.06v0a0,0,0,0,1,0,0v.007a1.724,1.724,0,0,0,.683,1.009h0a1.743,1.743,0,0,0,1.317.3c0-.005.01,0,.011,0h.01a.016.016,0,0,1,.01,0s0,0,0,0,.008,0,.014,0a1.469,1.469,0,0,0,.274-.081l6.264-2.334c2.394-1.194.8-4.66-2.472-2.792L110.458,39.2c2.645-4.4,10.791-4.406,13.409-.012l10.312,15.776c1.2,1.9,4.182-.029,2.915-1.906L126.778,37.282a11.887,11.887,0,0,0-19.22-.012L91.815,60.95C91.892,57.082,88.082,57.419,88.177,60.056ZM124.8,104.662a2.839,2.839,0,0,1-2.8,2.144h-9.662a2.837,2.837,0,0,1-2.8-2.144l-6.161-22.749H130.96Zm-25.24-29.2h35.212v2.968H99.559Zm7.294-11.728a5.41,5.41,0,0,1,3.047-3.321c-.546,9.474,2.134,8.644,10.2,8.6,4.936-.228,4.392-5.028,4.33-8.6,3.494.967,4.529,8.843,5.795,11.569H104.1Zm6.528-3.748h7.571c.054,7.645.7,5.121-6.723,5.547a.859.859,0,0,1-.847-.848Zm21.478,12h-.96c-4.851-16.129-5.317-15.823-21.845-15.476-8.274-.319-9.454,9.65-11.619,15.476-2.163-.3-4.379,1.054-4.355,3.393-.111,2.92-.3,6.587,3.687,6.537l6.408,23.659c1.512,6.7,11.011,4.317,15.823,4.715a6.317,6.317,0,0,0,6.16-4.715l6.409-23.659a3.423,3.423,0,0,0,3.686-3.392c.091-2.744.345-6.395-3.392-6.537Z" fill="#1e2f3f" fill-rule="evenodd"/>
  </g>
</svg>
