<svg xmlns="http://www.w3.org/2000/svg" width="190" height="98" viewBox="0 0 190 98">
  <g id="Grupo_1112306" data-name="Grupo 1112306" transform="translate(-285.128 -3595.872)">
    <g id="Grupo_1112262" data-name="Grupo 1112262" transform="translate(105.128 3159.872)">
      <g id="Grupo_1111711" data-name="Grupo 1111711" transform="translate(180 436)">
        <g id="Grupo_1111655" data-name="Grupo 1111655">
          <rect id="Rectángulo_405035" data-name="Rectángulo 405035" width="190" height="98" fill="#e6f8db"/>
        </g>
      </g>
    </g>
    <g id="hoja" transform="translate(357.001 3611.616)">
      <g id="Grupo_1112305" data-name="Grupo 1112305" transform="translate(0.976 0.936)">
        <path id="Trazado_908935" data-name="Trazado 908935" d="M24.973,70.639,33.9,73.662a8.112,8.112,0,0,0,8-2.054q.884-.742,1.753-1.5.718-.626,1.409-1.247a.645.645,0,0,0,.179-.692,13.2,13.2,0,0,0-5.758-7.035.39.39,0,0,1,.116-.718A19.015,19.015,0,0,1,51.7,61.789a.647.647,0,0,0,.744-.142c2.126-2.255,4.095-4.514,5.92-6.754l.185-1,1.035-.52A126.915,126.915,0,0,0,69.15,39.421a.647.647,0,0,0-.085-.771c-.794-.855-3.178-2.9-8.181-3.462a16.316,16.316,0,0,0-2.1-.087l-3.494.514,4.024-4.29,3.741-.464a21.48,21.48,0,0,1,4.077-.386,17.514,17.514,0,0,1,5.794.842.653.653,0,0,0,.772-.337q1.431-2.916,2.71-5.911l-.078-1.113.831-.685q.679-1.66,1.312-3.341a7.669,7.669,0,0,0-.029-5.582l-2.81-2.017L74.045,9.956c-1.753-.69-3.96.213-5.787.916,0,0-.99.094-1.1.138a2.59,2.59,0,0,0-1.637,2.345,12.42,12.42,0,0,1-.249,1.83c-.368,1.6-1.573,2.537-2.213,2.329a4.77,4.77,0,0,0-2.107-2.657c-.054-.031-.5.074-.556.046-1.079-.567-2.1-.134-3.19.4A115.548,115.548,0,0,0,45.566,22.06a119.7,119.7,0,0,0-10.5,7.583,2.841,2.841,0,0,0-.971,2.9,16.89,16.89,0,0,1,.022,5.893A6.573,6.573,0,0,1,30.722,42.7a18.321,18.321,0,0,0-3.481-2.382c-.414-.218-.819-.41-1.211-.581l-2.475.162-5.365,6.285c-2.65,3.206-3.2,5.379-2.376,8.22l4.7,13.311Z" transform="translate(-14.426 -9.384)" fill="#9cd169"/>
        <g id="Grupo_1112303" data-name="Grupo 1112303">
          <path id="Trazado_908936" data-name="Trazado 908936" d="M105.55,28.74,49.056,83.693l2.768,2.7,2.381.807c11.48-11.8,22.335-23.736,33.816-35.538a16.492,16.492,0,0,0-2.949.269l3.471-3.6a38.511,38.511,0,0,1,3.748-.906c5.172-5.317,10.216-11.2,15.388-16.513a4.851,4.851,0,0,0-.773-1.555Z" transform="translate(-43.658 -25.942)" fill="#8cc951"/>
          <g id="Grupo_1112302" data-name="Grupo 1112302" transform="translate(16.296)">
            <path id="Trazado_908937" data-name="Trazado 908937" d="M381.884,15.332a.885.885,0,0,0,1.384.067,8.3,8.3,0,0,0,1.553-2.428,6.384,6.384,0,0,0,.409-2.188,1.3,1.3,0,0,1,.711-1.171c1.676-.85,4.362-2.115,6.927-1.836a7.158,7.158,0,0,0-5.564-.022q-.82.308-1.634.628l-.33.13a2.587,2.587,0,0,0-1.636,2.342,6.807,6.807,0,0,1-.172,1.364,6.681,6.681,0,0,1-1.649,3.115Z" transform="translate(-349.546 -7.204)" fill="#8cc951"/>
            <path id="Trazado_908938" data-name="Trazado 908938" d="M135.786,68.189a11.511,11.511,0,0,1-2.84,5.588l.742.569a1.367,1.367,0,0,0,1.871-.193,13,13,0,0,0,2.565-5.185,11.5,11.5,0,0,0-.359-5.74,1.3,1.3,0,0,1,.413-1.417A124.875,124.875,0,0,1,149.7,53.48c4.256-2.723,13.478-7.552,13.478-7.552q-.081-.047-.162-.089a3.829,3.829,0,0,0-3.465-.006,124.861,124.861,0,0,0-11.3,6.3l-.393,1.035-1.251.012c-3.771,2.451-7.13,4.924-10.092,7.3a2.587,2.587,0,0,0-.891,2.66A11.458,11.458,0,0,1,135.786,68.189Z" transform="translate(-132.946 -40.456)" fill="#8cc951"/>
          </g>
          <path id="Trazado_908939" data-name="Trazado 908939" d="M68.946,13.474l-.371-1.107a6.843,6.843,0,0,0-1.454-.76L13.391,62.683a.65.65,0,0,1-1.07-.263L10.141,55.8c-.825-2.841-.016-4.756,2.076-6.848q3.3-3.925,6.889-7.553a18.459,18.459,0,0,0-1.916-.712.648.648,0,0,0-.652.165q-1.361,1.383-2.681,2.81c-.212.229-.163.848-.373,1.078-.232.254-.722.12-.952.376q-1.35,1.505-2.653,3.057a8.112,8.112,0,0,0-2.054,8L11.6,67.522l2.5,2.436C32.553,50.99,68.946,13.474,68.946,13.474Z" transform="translate(-7.503 -11.036)" fill="#8cc951"/>
        </g>
        <g id="Grupo_1112304" data-name="Grupo 1112304" transform="translate(0.764 1.332)">
          <path id="Trazado_908940" data-name="Trazado 908940" d="M13.62,75.627l60.073-58.17a7.645,7.645,0,0,1,1.233.96,12.308,12.308,0,0,1,.943,1.117S37.142,59.759,17.719,79.726a.779.779,0,0,1-1.11.008l-3-3A.779.779,0,0,1,13.62,75.627Z" transform="translate(-13.384 -17.457)" fill="#acd980"/>
        </g>
      </g>
      <path id="Trazado_908941" data-name="Trazado 908941" d="M63.981,2.615,63.9,2.533A8.652,8.652,0,0,0,54.688.574c-.548.206-1.1.419-1.647.633-.711.279-1.429.568-2.134.859a.974.974,0,0,0-.58,1.1,5.929,5.929,0,0,1-.017,2.56A5.831,5.831,0,0,1,49.756,7.2a5.518,5.518,0,0,0-1.765-1.631,5.611,5.611,0,0,0-3.106-.74.972.972,0,0,0-.371.095c-1.257.6-2.521,1.236-3.756,1.881a.974.974,0,1,0,.9,1.727c1.155-.6,2.335-1.2,3.511-1.762h.011a3.647,3.647,0,0,1,1.833.485,3.787,3.787,0,0,1,1.666,2.107.974.974,0,0,0,1.646.367,7.81,7.81,0,0,0,2.035-6.149c.463-.188.928-.374,1.391-.555.536-.21,1.082-.42,1.628-.625a6.7,6.7,0,0,1,4.85.018L35.122,26.837a18.108,18.108,0,0,0-2.055-13.375c1.536-.965,3.1-1.9,4.674-2.8a.974.974,0,0,0-.963-1.694c-1.893,1.076-3.782,2.217-5.616,3.39A126.339,126.339,0,0,0,18.826,21.35a.974.974,0,0,0-.28,1.124,10.61,10.61,0,0,1,.609,6.009,10.435,10.435,0,0,1-2,4.412,19.282,19.282,0,0,0-6.6-3.362.974.974,0,0,0-.96.251c-2.31,2.331-4.75,4.991-6.961,7.626a9.086,9.086,0,0,0-2.27,8.929c.013.045,3.581,10.784,3.591,10.816L.73,60.291a.974.974,0,1,0,1.359,1.4L23.715,40.651a.974.974,0,0,0-1.359-1.4l-9.385,9.129a20.035,20.035,0,0,0-.521-4.87,25.476,25.476,0,0,0-4.244-9.468q1.165-1.254,2.359-2.472a17.333,17.333,0,0,1,6.067,3.419.974.974,0,0,0,1.354-.073,12.419,12.419,0,0,0,3.081-6.064,12.563,12.563,0,0,0-.463-6.444,124.437,124.437,0,0,1,10.819-7.9,16.179,16.179,0,0,1,.534,15.4l-6.341,6.168a.974.974,0,1,0,1.359,1.4l6.477-6.3.012-.012L61.982,3.427a6.683,6.683,0,0,1,.539.483l.082.082a6.684,6.684,0,0,1,.483.539L4.826,64.424a.974.974,0,1,0,1.4,1.359L9.42,62.5l5.975,2.031a.974.974,0,1,0,.627-1.845l-5.1-1.733L29.217,42.143a21.4,21.4,0,0,1,8.961.474,17.094,17.094,0,0,1,6.086,3.08q-2.794,3.441-5.814,6.661a19.995,19.995,0,0,0-13.556-1.087.974.974,0,0,0-.175,1.814,12.344,12.344,0,0,1,3.989,3.14,12.168,12.168,0,0,1,2.084,3.61c-.409.366-.822.731-1.234,1.091-.572.5-1.157,1-1.739,1.488q-.033.027-.062.057a7.137,7.137,0,0,1-7.018,1.813l-.459-.156a.974.974,0,1,0-.627,1.845l.48.163.042.013A9.084,9.084,0,0,0,29.1,63.88c.58-.488,1.164-.987,1.735-1.485S32,61.37,32.575,60.854a.974.974,0,0,0,.276-1.013,14.143,14.143,0,0,0-5.088-7.167,18.049,18.049,0,0,1,10.475,1.742.974.974,0,0,0,1.14-.2,127.1,127.1,0,0,0,17.394-23.14.974.974,0,0,0-.147-1.178l-.027-.028a13.729,13.729,0,0,0-3.623-2.643.974.974,0,0,0-.877,1.74,11.783,11.783,0,0,1,2.6,1.783A126.159,126.159,0,0,1,45.48,44.175a19.058,19.058,0,0,0-6.79-3.438,24.492,24.492,0,0,0-7.335-.791L43.188,27.781a31.767,31.767,0,0,1,4.2-.068c.243.013.488.033.729.061a.974.974,0,0,0,.222-1.936c-.281-.032-.566-.056-.849-.071-.838-.044-1.621-.05-2.3-.038l1.577-1.621.014,0a23.138,23.138,0,0,1,6.9-1.1,17.237,17.237,0,0,1,6.054.959.975.975,0,0,0,1.155-.5,126.307,126.307,0,0,0,5.056-11.628,8.654,8.654,0,0,0-1.956-9.218ZM10.55,43.941c.709,3.145.634,5.872-.189,6.946,0,0-4.757,4.624-4.855,4.759L2.229,45.778a7.138,7.138,0,0,1,1.812-7.021c.8-.937,1.879-2.2,2.828-3.247a23.688,23.688,0,0,1,3.681,8.431ZM59.5,21.858a18.221,18.221,0,0,0-5.8-.805,21.577,21.577,0,0,0-4.367.41l5.9-6.066a14.662,14.662,0,0,1,3.613-.051,14.984,14.984,0,0,1,3.287.731c-.831,1.951-1.71,3.883-2.636,5.78Zm4.618-10.719q-.592,1.573-1.231,3.137a16.871,16.871,0,0,0-3.823-.868,16.556,16.556,0,0,0-1.8-.1L64.1,6.283A6.71,6.71,0,0,1,64.115,11.139Z" transform="translate(0)"/>
    </g>
  </g>
</svg>
