<svg xmlns="http://www.w3.org/2000/svg" width="64.824" height="64.332" viewBox="0 0 64.824 64.332">
  <g id="plantas" transform="translate(-6.459 -7.55)" opacity="0.5">
    <g id="Grupo_1113211" data-name="Grupo 1113211" transform="translate(7.5 8.3)">
      <g id="Grupo_1113207" data-name="Grupo 1113207" transform="translate(35.163 25.81)">
        <g id="Grupo_1113206" data-name="Grupo 1113206" transform="translate(9.544 11.409)">
          <line id="Línea_261" data-name="Línea 261" y1="16.087" fill="none" stroke="#7d9ffb" stroke-linecap="round" stroke-linejoin="round" stroke-miterlimit="10" stroke-width="1.5"/>
          <line id="Línea_262" data-name="Línea 262" y1="16.087" transform="translate(3.43)" fill="none" stroke="#7d9ffb" stroke-linecap="round" stroke-linejoin="round" stroke-miterlimit="10" stroke-width="1.5"/>
        </g>
        <path id="Trazado_910311" data-name="Trazado 910311" d="M389.941,366.607a5.367,5.367,0,0,1,4.049-1.348,5.367,5.367,0,0,1-1.348,4.049,4.44,4.44,0,0,1-3.84,1.139v-.866A5.6,5.6,0,0,1,389.941,366.607Z" transform="translate(-375.828 -345.99)" fill="none" stroke="#7d9ffb" stroke-linecap="round" stroke-linejoin="round" stroke-miterlimit="10" stroke-width="1.5"/>
        <path id="Trazado_910312" data-name="Trazado 910312" d="M322.279,338.23a5.683,5.683,0,0,0-4.287-1.427,5.683,5.683,0,0,0,1.427,4.287,4.7,4.7,0,0,0,4.066,1.206v-.917A5.933,5.933,0,0,0,322.279,338.23Z" transform="translate(-313.94 -321.125)" fill="none" stroke="#7d9ffb" stroke-linecap="round" stroke-linejoin="round" stroke-miterlimit="10" stroke-width="1.5"/>
        <path id="Trazado_910313" data-name="Trazado 910313" d="M380.673,213.7a12.6,12.6,0,0,1,5.766-.914s.607,5.235-2.915,8.757a9.6,9.6,0,0,1-8.3,2.462v-1.873a13.4,13.4,0,0,1,1.9-5.765" transform="translate(-363.961 -212.748)" fill="none" stroke="#7d9ffb" stroke-linecap="round" stroke-linejoin="round" stroke-miterlimit="10" stroke-width="1.5"/>
        <path id="Trazado_910314" data-name="Trazado 910314" d="M294.83,215.7c-3.522-3.522-8.757-2.915-8.757-2.915s-.607,5.235,2.915,8.757a9.6,9.6,0,0,0,8.3,2.462v-1.873S296.942,217.814,294.83,215.7Z" transform="translate(-286.034 -212.748)" fill="none" stroke="#7d9ffb" stroke-linecap="round" stroke-linejoin="round" stroke-miterlimit="10" stroke-width="1.5"/>
        <path id="Trazado_910315" data-name="Trazado 910315" d="M308.788,213.063l-11.219,11.219-11.219-11.219" transform="translate(-286.309 -213.023)" fill="none" stroke="#7d9ffb" stroke-linecap="round" stroke-linejoin="round" stroke-miterlimit="10" stroke-width="1.5"/>
      </g>
      <g id="Grupo_1113208" data-name="Grupo 1113208" transform="translate(18.766 0)">
        <line id="Línea_263" data-name="Línea 263" y1="9.621" transform="translate(3.43 28.743)" fill="none" stroke="#7d9ffb" stroke-linecap="round" stroke-linejoin="round" stroke-miterlimit="10" stroke-width="1.5"/>
        <path id="Trazado_910316" data-name="Trazado 910316" d="M156.15,29.527V10.014a1.715,1.715,0,0,1,3.43,0V29.527" transform="translate(-156.15 -8.3)" fill="none" stroke="#7d9ffb" stroke-linecap="round" stroke-linejoin="round" stroke-miterlimit="10" stroke-width="1.5"/>
        <line id="Línea_264" data-name="Línea 264" y1="4.131" transform="translate(0 46.729)" fill="none" stroke="#7d9ffb" stroke-linecap="round" stroke-linejoin="round" stroke-miterlimit="10" stroke-width="1.5"/>
        <line id="Línea_265" data-name="Línea 265" y1="4.131" transform="translate(3.43 46.729)" fill="none" stroke="#7d9ffb" stroke-linecap="round" stroke-linejoin="round" stroke-miterlimit="10" stroke-width="1.5"/>
        <line id="Línea_266" data-name="Línea 266" y1="9.619" transform="translate(0 28.743)" fill="none" stroke="#7d9ffb" stroke-linecap="round" stroke-linejoin="round" stroke-miterlimit="10" stroke-width="1.5"/>
      </g>
      <path id="Trazado_910317" data-name="Trazado 910317" d="M184.458,66.288a5.367,5.367,0,0,1,4.049-1.348,5.367,5.367,0,0,1-1.348,4.049,4.44,4.44,0,0,1-3.84,1.139v-.866A5.6,5.6,0,0,1,184.458,66.288Z" transform="translate(-161.123 -57.774)" fill="none" stroke="#7d9ffb" stroke-linecap="round" stroke-linejoin="round" stroke-miterlimit="10" stroke-width="1.5"/>
      <path id="Trazado_910318" data-name="Trazado 910318" d="M116.8,37.912a5.683,5.683,0,0,0-4.287-1.427,5.683,5.683,0,0,0,1.427,4.287A4.7,4.7,0,0,0,118,41.978v-.917A5.932,5.932,0,0,0,116.8,37.912Z" transform="translate(-99.234 -32.91)" fill="none" stroke="#7d9ffb" stroke-linecap="round" stroke-linejoin="round" stroke-miterlimit="10" stroke-width="1.5"/>
      <g id="Grupo_1113209" data-name="Grupo 1113209" transform="translate(9.222 17.335)">
        <path id="Trazado_910319" data-name="Trazado 910319" d="M172.2,148.568c3.522-3.522,8.757-2.915,8.757-2.915s.607,5.235-2.915,8.757a9.6,9.6,0,0,1-8.3,2.462V155S170.088,150.679,172.2,148.568Z" transform="translate(-158.478 -145.613)" fill="none" stroke="#7d9ffb" stroke-linecap="round" stroke-linejoin="round" stroke-miterlimit="10" stroke-width="1.5"/>
        <path id="Trazado_910320" data-name="Trazado 910320" d="M89.347,148.568c-3.522-3.522-8.757-2.915-8.757-2.915s-.607,5.235,2.915,8.757a9.6,9.6,0,0,0,8.3,2.462V155S91.459,150.679,89.347,148.568Z" transform="translate(-80.551 -145.613)" fill="none" stroke="#7d9ffb" stroke-linecap="round" stroke-linejoin="round" stroke-miterlimit="10" stroke-width="1.5"/>
        <path id="Trazado_910321" data-name="Trazado 910321" d="M103.3,145.928,92.085,157.147,80.866,145.928" transform="translate(-80.826 -145.888)" fill="none" stroke="#7d9ffb" stroke-linecap="round" stroke-linejoin="round" stroke-miterlimit="10" stroke-width="1.5"/>
      </g>
      <g id="Grupo_1113210" data-name="Grupo 1113210" transform="translate(7.153 33.228)">
        <path id="Trazado_910322" data-name="Trazado 910322" d="M172.653,275c4.169-4.169,10.367-3.451,10.367-3.451s.718,6.2-3.451,10.366a11.367,11.367,0,0,1-9.83,2.915v-2.217S170.153,277.5,172.653,275Z" transform="translate(-156.409 -271.504)" fill="none" stroke="#7d9ffb" stroke-linecap="round" stroke-linejoin="round" stroke-miterlimit="10" stroke-width="1.5"/>
        <path id="Trazado_910323" data-name="Trazado 910323" d="M67.657,281.916a11.367,11.367,0,0,0,9.83,2.915v-2.217S77.072,277.5,74.572,275c-4.169-4.169-10.367-3.451-10.367-3.451a14.939,14.939,0,0,0,1,6.641" transform="translate(-64.158 -271.503)" fill="none" stroke="#7d9ffb" stroke-linecap="round" stroke-linejoin="round" stroke-miterlimit="10" stroke-width="1.5"/>
        <path id="Trazado_910324" data-name="Trazado 910324" d="M91.095,271.877,77.813,285.159,64.532,271.877" transform="translate(-64.485 -271.83)" fill="none" stroke="#7d9ffb" stroke-linecap="round" stroke-linejoin="round" stroke-miterlimit="10" stroke-width="1.5"/>
      </g>
      <path id="Trazado_910325" data-name="Trazado 910325" d="M245.94,438.382l12.231-8.194a7.348,7.348,0,0,1,8.18,0l12.231,8.194" transform="translate(-215.838 -375.841)" fill="none" stroke="#7d9ffb" stroke-linecap="round" stroke-linejoin="round" stroke-miterlimit="10" stroke-width="1.5"/>
      <path id="Trazado_910326" data-name="Trazado 910326" d="M7.5,421.733l4.971-3.332a3.525,3.525,0,0,1,2.858-5.326,10.123,10.123,0,0,0,7.519-1.625,9.221,9.221,0,0,1,10.265,0l9.918,6.644" transform="translate(-7.5 -359.192)" fill="none" stroke="#7d9ffb" stroke-linecap="round" stroke-linejoin="round" stroke-miterlimit="10" stroke-width="1.5"/>
      <line id="Línea_267" data-name="Línea 267" transform="translate(21.675 55.49)" fill="none" stroke="#7d9ffb" stroke-linecap="round" stroke-linejoin="round" stroke-miterlimit="10" stroke-width="1.5"/>
      <line id="Línea_268" data-name="Línea 268" transform="translate(18.022 57.822)" fill="none" stroke="#7d9ffb" stroke-linecap="round" stroke-linejoin="round" stroke-miterlimit="10" stroke-width="1.5"/>
    </g>
  </g>
</svg>
