<svg xmlns="http://www.w3.org/2000/svg" width="80.945" height="68.266" viewBox="0 0 80.945 68.266">
  <g id="calibre" transform="translate(-6.75 -46.41)">
    <path id="Trazado_910475" data-name="Trazado 910475" d="M242.952,147.8h0a2.483,2.483,0,0,1-2.483-2.483v-2.483a2.483,2.483,0,0,1,2.483-2.483h0a2.483,2.483,0,0,1,2.483,2.483v2.483A2.483,2.483,0,0,1,242.952,147.8Z" transform="translate(-195.729 -78.292)" fill="#0055a3"/>
    <path id="Trazado_910476" data-name="Trazado 910476" d="M147.622,187.283h0a2.483,2.483,0,0,1-3.511,0l-1.755-1.755a2.483,2.483,0,0,1,0-3.511h0a2.483,2.483,0,0,1,3.511,0l1.755,1.755A2.482,2.482,0,0,1,147.622,187.283Z" transform="translate(-112.688 -112.689)" fill="#0055a3"/>
    <path id="Trazado_910477" data-name="Trazado 910477" d="M329.054,187.283h0a2.483,2.483,0,0,0,3.511,0l1.755-1.755a2.483,2.483,0,0,0,0-3.511h0a2.483,2.483,0,0,0-3.511,0l-1.755,1.755A2.482,2.482,0,0,0,329.054,187.283Z" transform="translate(-269.543 -112.689)" fill="#0055a3"/>
    <path id="Trazado_910478" data-name="Trazado 910478" d="M108.136,282.612h0a2.483,2.483,0,0,1-2.483,2.483h-2.483a2.483,2.483,0,0,1-2.483-2.483h0a2.483,2.483,0,0,1,2.483-2.483h2.483A2.483,2.483,0,0,1,108.136,282.612Z" transform="translate(-78.292 -195.729)" fill="#0055a3"/>
    <path id="Trazado_910479" data-name="Trazado 910479" d="M147.623,368.714h0a2.483,2.483,0,0,1,0,3.511l-1.755,1.755a2.483,2.483,0,0,1-3.511,0h0a2.483,2.483,0,0,1,0-3.511l1.755-1.755A2.482,2.482,0,0,1,147.623,368.714Z" transform="translate(-112.689 -269.543)" fill="#0055a3"/>
    <path id="Trazado_910480" data-name="Trazado 910480" d="M364.719,282.612h0a2.483,2.483,0,0,0,2.483,2.483h2.483a2.483,2.483,0,0,0,2.483-2.483h0a2.483,2.483,0,0,0-2.483-2.483H367.2A2.483,2.483,0,0,0,364.719,282.612Z" transform="translate(-300.118 -195.729)" fill="#0055a3"/>
    <path id="Trazado_910481" data-name="Trazado 910481" d="M329.054,368.714h0a2.483,2.483,0,0,0,0,3.511l1.755,1.755a2.483,2.483,0,0,0,3.511,0h0a2.483,2.483,0,0,0,0-3.511l-1.755-1.755A2.482,2.482,0,0,0,329.054,368.714Z" transform="translate(-269.543 -269.543)" fill="#0055a3"/>
    <path id="Trazado_910482" data-name="Trazado 910482" d="M19.134,119.944A39.6,39.6,0,0,0,7.5,148.032l4.965,2.483,4.965-2.483h0a29.7,29.7,0,0,1,8.726-21.066l-1.278-6.243Z" transform="translate(0 -61.15)" fill="#fe9738"/>
    <path id="Trazado_910483" data-name="Trazado 910483" d="M406.443,148.032a39.6,39.6,0,0,0-11.634-28.088l-5.744.779-1.278,6.243a29.7,29.7,0,0,1,8.726,21.066L401.478,153Z" transform="translate(-319.498 -61.15)" fill="#01c0fa"/>
    <path id="Trazado_910484" data-name="Trazado 910484" d="M108.372,57.091l2.483-4.965-2.483-4.965A39.6,39.6,0,0,0,80.284,58.794l7.022,7.022A29.7,29.7,0,0,1,108.372,57.091Z" transform="translate(-61.15 0)" fill="#fed402"/>
    <path id="Trazado_910485" data-name="Trazado 910485" d="M17.4,321.9A39.572,39.572,0,0,1,7.5,295.66h9.931a29.676,29.676,0,0,0,7.2,19.425,2.4,2.4,0,0,1-.109,3.274L20.884,322A2.392,2.392,0,0,1,17.4,321.9Z" transform="translate(0 -208.777)" fill="#fe0364"/>
    <path id="Trazado_910486" data-name="Trazado 910486" d="M411.348,295.66a39.571,39.571,0,0,1-9.9,26.241,2.392,2.392,0,0,1-3.483.1l-3.64-3.64a2.4,2.4,0,0,1-.109-3.274,29.676,29.676,0,0,0,7.2-19.425Z" transform="translate(-324.403 -208.777)" fill="#05e39c"/>
    <path id="Trazado_910487" data-name="Trazado 910487" d="M256,47.16v9.931a29.7,29.7,0,0,1,21.066,8.726l7.022-7.022A39.6,39.6,0,0,0,256,47.16Z" transform="translate(-208.777 0)" fill="#0067c5"/>
    <path id="Trazado_910488" data-name="Trazado 910488" d="M422.586,119.944l-1.737.235a39.814,39.814,0,0,1,7.849,32.26l.557.558,4.965-4.965A39.6,39.6,0,0,0,422.586,119.944Z" transform="translate(-347.276 -61.15)" fill="#08a9f1"/>
    <path id="Trazado_910489" data-name="Trazado 910489" d="M408.126,295.66a39.509,39.509,0,0,1-7.272,19.9,5.605,5.605,0,0,1-5.205,2.314,2.394,2.394,0,0,0,.376.487l3.64,3.64a2.392,2.392,0,0,0,3.483-.1,39.571,39.571,0,0,0,9.9-26.241Z" transform="translate(-326.103 -208.777)" fill="#0ed290"/>
    <path id="Trazado_910490" data-name="Trazado 910490" d="M385.765,86.876l1.083-1.083a39.87,39.87,0,0,0-8.537-6.5A39.965,39.965,0,0,1,385.765,86.876Z" transform="translate(-311.538 -26.998)" fill="#0055a3"/>
    <path id="Trazado_910491" data-name="Trazado 910491" d="M223.548,210.859a8.037,8.037,0,0,1,2.893-3.191,74.081,74.081,0,0,0,9.187-6.889l9.005-7.914a1.2,1.2,0,0,0-1.176-2.036L232.1,194.671a74.088,74.088,0,0,0-10.675,4.572,7.785,7.785,0,0,1-4.1.85,7.448,7.448,0,1,0,6.22,10.767Z" transform="translate(-169.663 -120.645)" fill="#b2caec"/>
    <path id="Trazado_910492" data-name="Trazado 910492" d="M250.414,190.828l-10.632,3.6-3.592,3.157A74.07,74.07,0,0,1,227,204.47a8.038,8.038,0,0,0-2.893,3.191,7.455,7.455,0,0,1-6.387,4.113,7.449,7.449,0,0,0,12.781-.916,8.037,8.037,0,0,1,2.893-3.191,74.081,74.081,0,0,0,9.187-6.889l9.005-7.914A1.2,1.2,0,0,0,250.414,190.828Z" transform="translate(-176.619 -120.645)" fill="#82aee3"/>
    <circle id="Elipse_12704" data-name="Elipse 12704" cx="2.483" cy="2.483" r="2.483" transform="translate(44.74 84.4)" fill="#0067c5"/>
    <path id="Trazado_910493" data-name="Trazado 910493" d="M248.368,288.153a2.483,2.483,0,0,0,2.887-4,7.932,7.932,0,0,0-1.4,1.974A7.405,7.405,0,0,1,248.368,288.153Z" transform="translate(-202.365 -199.108)" fill="#0055a3"/>
    <path id="Trazado_910494" data-name="Trazado 910494" d="M242.952,147.8h0a2.483,2.483,0,0,1-2.483-2.483v-2.483a2.483,2.483,0,0,1,2.483-2.483h0a2.483,2.483,0,0,1,2.483,2.483v2.483A2.483,2.483,0,0,1,242.952,147.8Z" transform="translate(-195.729 -78.292)" fill="none" stroke="#000" stroke-linecap="round" stroke-linejoin="round" stroke-miterlimit="10" stroke-width="1.5"/>
    <path id="Trazado_910495" data-name="Trazado 910495" d="M147.622,187.283h0a2.483,2.483,0,0,1-3.511,0l-1.755-1.755a2.483,2.483,0,0,1,0-3.511h0a2.483,2.483,0,0,1,3.511,0l1.755,1.755A2.482,2.482,0,0,1,147.622,187.283Z" transform="translate(-112.688 -112.689)" fill="none" stroke="#000" stroke-linecap="round" stroke-linejoin="round" stroke-miterlimit="10" stroke-width="1.5"/>
    <path id="Trazado_910496" data-name="Trazado 910496" d="M108.136,282.612h0a2.483,2.483,0,0,1-2.483,2.483h-2.483a2.483,2.483,0,0,1-2.483-2.483h0a2.483,2.483,0,0,1,2.483-2.483h2.483A2.483,2.483,0,0,1,108.136,282.612Z" transform="translate(-78.292 -195.729)" fill="none" stroke="#000" stroke-linecap="round" stroke-linejoin="round" stroke-miterlimit="10" stroke-width="1.5"/>
    <path id="Trazado_910497" data-name="Trazado 910497" d="M147.623,368.714h0a2.483,2.483,0,0,1,0,3.511l-1.755,1.755a2.483,2.483,0,0,1-3.511,0h0a2.483,2.483,0,0,1,0-3.511l1.755-1.755A2.482,2.482,0,0,1,147.623,368.714Z" transform="translate(-112.689 -269.543)" fill="none" stroke="#000" stroke-linecap="round" stroke-linejoin="round" stroke-miterlimit="10" stroke-width="1.5"/>
    <path id="Trazado_910498" data-name="Trazado 910498" d="M364.719,282.612h0a2.483,2.483,0,0,0,2.483,2.483h2.483a2.483,2.483,0,0,0,2.483-2.483h0a2.483,2.483,0,0,0-2.483-2.483H367.2A2.483,2.483,0,0,0,364.719,282.612Z" transform="translate(-300.118 -195.729)" fill="none" stroke="#000" stroke-linecap="round" stroke-linejoin="round" stroke-miterlimit="10" stroke-width="1.5"/>
    <path id="Trazado_910499" data-name="Trazado 910499" d="M329.054,368.714h0a2.483,2.483,0,0,0,0,3.511l1.755,1.755a2.483,2.483,0,0,0,3.511,0h0a2.483,2.483,0,0,0,0-3.511l-1.755-1.755A2.482,2.482,0,0,0,329.054,368.714Z" transform="translate(-269.543 -269.543)" fill="none" stroke="#000" stroke-linecap="round" stroke-linejoin="round" stroke-miterlimit="10" stroke-width="1.5"/>
    <path id="Trazado_910500" data-name="Trazado 910500" d="M82.931,104.809q-1.378,1.15-2.647,2.419l7.022,7.022a29.7,29.7,0,0,1,21.066-8.726" transform="translate(-61.15 -48.434)" fill="none" stroke="#000" stroke-linecap="round" stroke-linejoin="round" stroke-miterlimit="10" stroke-width="1.5"/>
    <path id="Trazado_910501" data-name="Trazado 910501" d="M146.8,47.16a39.537,39.537,0,0,0-20.776,5.86" transform="translate(-99.582 0)" fill="none" stroke="#000" stroke-linecap="round" stroke-linejoin="round" stroke-miterlimit="10" stroke-width="1.5"/>
    <path id="Trazado_910502" data-name="Trazado 910502" d="M17.4,321.9A39.572,39.572,0,0,1,7.5,295.66h9.931a29.676,29.676,0,0,0,7.2,19.425,2.4,2.4,0,0,1-.109,3.274L20.884,322A2.392,2.392,0,0,1,17.4,321.9Z" transform="translate(0 -208.777)" fill="none" stroke="#000" stroke-linecap="round" stroke-linejoin="round" stroke-miterlimit="10" stroke-width="1.5"/>
    <path id="Trazado_910503" data-name="Trazado 910503" d="M411.348,295.66a39.571,39.571,0,0,1-9.9,26.241,2.392,2.392,0,0,1-3.483.1l-3.64-3.64a2.4,2.4,0,0,1-.109-3.274,29.676,29.676,0,0,0,7.2-19.425Z" transform="translate(-324.403 -208.777)" fill="none" stroke="#000" stroke-linecap="round" stroke-linejoin="round" stroke-miterlimit="10" stroke-width="1.5"/>
    <path id="Trazado_910504" data-name="Trazado 910504" d="M256,47.16v9.931a29.7,29.7,0,0,1,21.066,8.726l7.022-7.022A39.6,39.6,0,0,0,256,47.16Z" transform="translate(-208.777 0)" fill="none" stroke="#000" stroke-linecap="round" stroke-linejoin="round" stroke-miterlimit="10" stroke-width="1.5"/>
    <circle id="Elipse_12705" data-name="Elipse 12705" cx="2.483" cy="2.483" r="2.483" transform="translate(44.74 84.4)" fill="none" stroke="#000" stroke-linecap="round" stroke-linejoin="round" stroke-miterlimit="10" stroke-width="1.5"/>
    <path id="Trazado_910505" data-name="Trazado 910505" d="M240.7,196.32l3.932-3.456a1.2,1.2,0,0,0-1.176-2.036L232.1,194.67a74.088,74.088,0,0,0-10.675,4.572,7.785,7.785,0,0,1-4.1.85,7.448,7.448,0,1,0,6.22,10.767,8.037,8.037,0,0,1,2.893-3.191,74.083,74.083,0,0,0,9.187-6.889l.883-.776" transform="translate(-169.663 -120.645)" fill="none" stroke="#000" stroke-linecap="round" stroke-linejoin="round" stroke-miterlimit="10" stroke-width="1.5"/>
    <line id="Línea_271" data-name="Línea 271" y1="3.724" x2="6.45" transform="translate(49.372 81.917)" fill="none" stroke="#000" stroke-linecap="round" stroke-linejoin="round" stroke-miterlimit="10" stroke-width="1.5"/>
    <path id="Trazado_910506" data-name="Trazado 910506" d="M69.625,184.939a29.7,29.7,0,0,1,8.726-21.066" transform="translate(-52.194 -98.057)" fill="none" stroke="#000" stroke-linecap="round" stroke-linejoin="round" stroke-miterlimit="10" stroke-width="1.5"/>
    <path id="Trazado_910507" data-name="Trazado 910507" d="M19.134,119.944A39.6,39.6,0,0,0,7.5,148.032" transform="translate(0 -61.15)" fill="none" stroke="#000" stroke-linecap="round" stroke-linejoin="round" stroke-miterlimit="10" stroke-width="1.5"/>
    <path id="Trazado_910508" data-name="Trazado 910508" d="M333.724,186.125l.6-.6a2.483,2.483,0,0,0,0-3.511h0a2.483,2.483,0,0,0-3.511,0l-1.755,1.755a2.485,2.485,0,0,0,.412,3.844" transform="translate(-269.544 -112.689)" fill="none" stroke="#000" stroke-linecap="round" stroke-linejoin="round" stroke-miterlimit="10" stroke-width="1.5"/>
    <path id="Trazado_910509" data-name="Trazado 910509" d="M433.555,121.911q-.886-1.014-1.839-1.967" transform="translate(-356.405 -61.15)" fill="none" stroke="#000" stroke-linecap="round" stroke-linejoin="round" stroke-miterlimit="10" stroke-width="1.5"/>
    <path id="Trazado_910510" data-name="Trazado 910510" d="M470.849,181.956a39.537,39.537,0,0,0-6.4-21.634" transform="translate(-383.904 -95.073)" fill="none" stroke="#000" stroke-linecap="round" stroke-linejoin="round" stroke-miterlimit="10" stroke-width="1.5"/>
    <path id="Trazado_910511" data-name="Trazado 910511" d="M421.915,210.675a29.665,29.665,0,0,1,3.271,13.585" transform="translate(-348.171 -137.377)" fill="none" stroke="#000" stroke-linecap="round" stroke-linejoin="round" stroke-miterlimit="10" stroke-width="1.5"/>
    <path id="Trazado_910512" data-name="Trazado 910512" d="M387.787,163.873a29.93,29.93,0,0,1,3.957,4.891" transform="translate(-319.498 -98.057)" fill="none" stroke="#000" stroke-linecap="round" stroke-linejoin="round" stroke-miterlimit="10" stroke-width="1.5"/>
  </g>
</svg>
