<svg xmlns="http://www.w3.org/2000/svg" xmlns:xlink="http://www.w3.org/1999/xlink" width="136" height="136" viewBox="0 0 136 136">
  <defs>
    <filter id="Elipse_11661" x="0" y="0" width="136" height="136" filterUnits="userSpaceOnUse">
      <feOffset dy="3" input="SourceAlpha"/>
      <feGaussianBlur stdDeviation="3" result="blur"/>
      <feFlood flood-opacity="0.161"/>
      <feComposite operator="in" in2="blur"/>
      <feComposite in="SourceGraphic"/>
    </filter>
  </defs>
  <g id="Grupo_1113375" data-name="Grupo 1113375" transform="translate(-893 -3754.5)">
    <g id="Grupo_1113340" data-name="Grupo 1113340" transform="translate(525 -2398.849)">
      <g transform="matrix(1, 0, 0, 1, 368, 6153.35)" filter="url(#Elipse_11661)">
        <circle id="Elipse_11661-2" data-name="Elipse 11661" cx="59" cy="59" r="59" transform="translate(9 6)" fill="#fff"/>
      </g>
    </g>
    <g id="platano_4_" data-name="platano (4)" transform="translate(927.5 3789.499)">
      <path id="Trazado_910690" data-name="Trazado 910690" d="M47,13a28.619,28.619,0,0,0-.3-10.158A1.474,1.474,0,0,1,48.131,1h1.46a1.475,1.475,0,0,1,1.476,1.36A28.107,28.107,0,0,0,54,13l-1,1H48Z" fill="#7f4842"/>
      <path id="Trazado_910691" data-name="Trazado 910691" d="M5.1,54.24a11.174,11.174,0,0,1-3.66-2.53A1.874,1.874,0,0,1,1,50.5V48.34a1.771,1.771,0,0,1,1.14-1.69c.27-.09,1.87-.55,3.34-.97L6,47v7Z" fill="#7f4842"/>
      <path id="Trazado_910692" data-name="Trazado 910692" d="M59,25.84C59,36.53,53,59,19,59A27,27,0,0,1,6.6,56.151,3.017,3.017,0,0,1,5,53.469V47.331a3.039,3.039,0,0,1,2.619-3.014A31.742,31.742,0,0,1,12,44.02c17,0,32-7.49,35-31.02h7S59,15.14,59,25.84Z" fill="#ffc625"/>
      <g id="Grupo_1113358" data-name="Grupo 1113358">
        <path id="Trazado_910693" data-name="Trazado 910693" d="M54.761,12.278a27.266,27.266,0,0,1-2.7-10A2.487,2.487,0,0,0,49.592,0H48.131a2.474,2.474,0,0,0-2.4,3.094,27.664,27.664,0,0,1,.277,9.79,51.3,51.3,0,0,1-1.331,6.855,1,1,0,1,0,1.931.522A52.36,52.36,0,0,0,47.874,14h5.873C54.524,14.478,58,17.1,58,25.84,58,31.21,56.12,58,19,58A26.209,26.209,0,0,1,7.059,55.265,2.006,2.006,0,0,1,6,53.47V47.331a2.049,2.049,0,0,1,1.758-2.023A30.6,30.6,0,0,1,12,45.02c16.614,0,28.123-7.146,33.282-20.664a1,1,0,0,0-1.869-.712C38.507,36.5,27.938,43.02,12,43.02a32.744,32.744,0,0,0-4.52.307A4.024,4.024,0,0,0,4.907,44.8c-2.74.784-3,.871-3.1.9A2.769,2.769,0,0,0,0,48.34V50.5a2.87,2.87,0,0,0,.674,1.853,11.438,11.438,0,0,0,3.607,2.6,3.947,3.947,0,0,0,1.85,2.088A27.819,27.819,0,0,0,19,60c15.146,0,26.424-4.352,33.521-12.934A34.044,34.044,0,0,0,60,25.84c0-9.683-3.991-12.818-5.239-13.562ZM47.747,2.187A.473.473,0,0,1,48.131,2h1.461a.472.472,0,0,1,.477.438A30.154,30.154,0,0,0,52.4,12H48.1a28.265,28.265,0,0,0-.432-9.407.461.461,0,0,1,.079-.406ZM2.2,51.063A.868.868,0,0,1,2,50.5V48.34a.775.775,0,0,1,.458-.741c.084-.028.423-.131,1.56-.459,0,.064-.018.126-.018.191v5.176a8.037,8.037,0,0,1-1.8-1.444Z" fill="#262626"/>
        <path id="Trazado_910694" data-name="Trazado 910694" d="M12.715,47.023a1,1,0,0,0,0,2c19.035,0,32.262-9.139,37.243-25.736a1,1,0,0,0-1.916-.574C43.269,38.617,31.053,47.023,12.715,47.023Z" fill="#262626"/>
      </g>
    </g>
  </g>
</svg>
