<svg xmlns="http://www.w3.org/2000/svg" width="190.5" height="90.084" viewBox="0 0 190.5 90.084">
  <g id="Grupo_1112227" data-name="Grupo 1112227" transform="translate(-180 -622.449)">
    <path id="Trazado_903846" data-name="Trazado 903846" d="M0,1C10.553,1,10.553,8.589,21.107,8.589S31.661,1,42.215,1,52.769,8.589,63.323,8.589,73.878,1,84.434,1s10.553,7.589,21.105,7.589S116.1,1,126.653,1s10.553,7.589,21.105,7.589S158.318,1,168.88,1,179.44,8.589,190,8.589" transform="translate(180.5 622.449)" fill="none" stroke="#7d9ffb" stroke-miterlimit="10" stroke-width="2"/>
    <path id="Trazado_903847" data-name="Trazado 903847" d="M0,13.79c10.553,0,10.553,7.589,21.107,7.589S31.661,13.79,42.215,13.79s10.554,7.589,21.108,7.589S73.878,13.79,84.434,13.79s10.553,7.589,21.105,7.589S116.1,13.79,126.653,13.79s10.553,7.589,21.105,7.589,10.56-7.589,21.122-7.589,10.56,7.589,21.12,7.589" transform="translate(180 624.805)" fill="none" stroke="#7d9ffb" stroke-miterlimit="10" stroke-width="2"/>
    <path id="Trazado_903848" data-name="Trazado 903848" d="M0,26.58c10.553,0,10.553,7.589,21.107,7.589S31.661,26.58,42.215,26.58s10.554,7.589,21.108,7.589S73.878,26.58,84.434,26.58s10.553,7.589,21.105,7.589S116.1,26.58,126.653,26.58s10.553,7.589,21.105,7.589,10.56-7.589,21.122-7.589,10.56,7.589,21.12,7.589" transform="translate(180 626.979)" fill="none" stroke="#7d9ffb" stroke-miterlimit="10" stroke-width="2"/>
    <path id="Trazado_903849" data-name="Trazado 903849" d="M0,1C10.553,1,10.553,8.589,21.107,8.589S31.661,1,42.215,1,52.769,8.589,63.323,8.589,73.878,1,84.434,1s10.553,7.589,21.105,7.589S116.1,1,126.653,1s10.553,7.589,21.105,7.589S158.318,1,168.88,1,179.44,8.589,190,8.589" transform="translate(180 669.402)" fill="none" stroke="#7d9ffb" stroke-miterlimit="10" stroke-width="2"/>
    <path id="Trazado_903850" data-name="Trazado 903850" d="M0,13.79c10.553,0,10.553,7.589,21.107,7.589S31.661,13.79,42.215,13.79s10.554,7.589,21.108,7.589S73.878,13.79,84.434,13.79s10.553,7.589,21.105,7.589S116.1,13.79,126.653,13.79s10.553,7.589,21.105,7.589,10.56-7.589,21.122-7.589,10.56,7.589,21.12,7.589" transform="translate(180.5 673.311)" fill="none" stroke="#7d9ffb" stroke-miterlimit="10" stroke-width="2"/>
    <path id="Trazado_903851" data-name="Trazado 903851" d="M0,26.58c10.553,0,10.553,7.589,21.107,7.589S31.661,26.58,42.215,26.58s10.554,7.589,21.108,7.589S73.878,26.58,84.434,26.58s10.553,7.589,21.105,7.589S116.1,26.58,126.653,26.58s10.553,7.589,21.105,7.589,10.56-7.589,21.122-7.589,10.56,7.589,21.12,7.589" transform="translate(180.5 677.364)" fill="none" stroke="#7d9ffb" stroke-miterlimit="10" stroke-width="2"/>
  </g>
</svg>
