<svg xmlns="http://www.w3.org/2000/svg" width="76.333" height="72.341" viewBox="0 0 76.333 72.341">
  <g id="capacitacion_2_" data-name="capacitacion (2)" transform="translate(-8 -20.97)">
    <g id="Grupo_1113287" data-name="Grupo 1113287" transform="translate(9.232 22.199)">
      <g id="Grupo_1113279" data-name="Grupo 1113279" transform="translate(28.883 0)">
        <g id="Grupo_1113278" data-name="Grupo 1113278">
          <path id="Trazado_910513" data-name="Trazado 910513" d="M203.678,33.486a4.545,4.545,0,0,1,4.532-4.532h35.923a4.546,4.546,0,0,1,4.532,4.532V60.7a4.546,4.546,0,0,1-4.532,4.532H208.21a4.546,4.546,0,0,1-4.532-4.532Z" transform="translate(-203.678 -28.954)" fill="#eceff1" fill-rule="evenodd"/>
        </g>
        <path id="Trazado_910514" data-name="Trazado 910514" d="M456.551,28.954h1.539a4.546,4.546,0,0,1,4.532,4.532V60.7a4.546,4.546,0,0,1-4.532,4.532h-1.539a4.546,4.546,0,0,0,4.532-4.532V33.486A4.546,4.546,0,0,0,456.551,28.954Z" transform="translate(-417.635 -28.954)" fill="#d1d1d6" fill-rule="evenodd"/>
      </g>
      <g id="Grupo_1113286" data-name="Grupo 1113286" transform="translate(0 2.289)">
        <g id="Grupo_1113280" data-name="Grupo 1113280" transform="translate(47.895 0.789)">
          <path id="Trazado_910515" data-name="Trazado 910515" d="M340.429,50.78a9.406,9.406,0,0,1,2.754,1.142l1.79-.795,2.109,2.109-.795,1.789a9.4,9.4,0,0,1,1.142,2.755l1.826.7v2.983l-1.826.7a9.407,9.407,0,0,1-1.142,2.754l.795,1.79-2.109,2.109-1.789-.795a9.4,9.4,0,0,1-2.755,1.142l-.7,1.826h-2.983l-.7-1.826a9.406,9.406,0,0,1-2.754-1.142l-1.79.795-2.109-2.109.795-1.789a9.4,9.4,0,0,1-1.142-2.755l-1.826-.7V58.483l1.826-.7a9.4,9.4,0,0,1,1.142-2.754l-.795-1.789,2.109-2.109,1.79.795a9.409,9.409,0,0,1,2.754-1.142l.7-1.826h2.983Z" transform="translate(-327.215 -48.954)" fill="#ffe177" fill-rule="evenodd"/>
          <path id="Trazado_910516" data-name="Trazado 910516" d="M355.314,68.029l-1.789.795-.276-.275,1.678-.745Q355.118,67.921,355.314,68.029Zm7.142-17.246a9.406,9.406,0,0,1,2.754,1.142l-.509.226a12.4,12.4,0,0,0-3.141-1.368l-.7-1.826h.9Zm2.754,17.246a9.4,9.4,0,0,1-2.755,1.142l-.7,1.826h-.9l.7-1.826A12.4,12.4,0,0,0,364.7,67.8ZM353.249,51.406l.275-.275,1.79.795q-.2.108-.387.226Zm13.131,0,.62-.275,2.109,2.109-.795,1.789a9.4,9.4,0,0,1,1.142,2.755l1.826.7v2.983l-1.826.7a9.406,9.406,0,0,1-1.142,2.754l.795,1.79L367,68.823l-.62-.275,1.834-1.834-.795-1.79a9.406,9.406,0,0,0,1.142-2.754l1.826-.7V58.485l-1.826-.7a9.4,9.4,0,0,0-1.142-2.755l.795-1.789Z" transform="translate(-349.243 -48.957)" fill="#ffd064" fill-rule="evenodd"/>
          <circle id="Elipse_12706" data-name="Elipse 12706" cx="5.843" cy="5.843" r="5.843" transform="translate(5.176 5.177)" fill="#eceff1"/>
          <path id="Trazado_910517" data-name="Trazado 910517" d="M366.694,82.592a5.843,5.843,0,0,0,0,11.687q.235,0,.465-.018a5.844,5.844,0,0,1,0-11.65Q366.929,82.592,366.694,82.592Z" transform="translate(-355.675 -77.415)" fill="#d1d1d6" fill-rule="evenodd"/>
        </g>
        <g id="Grupo_1113281" data-name="Grupo 1113281" transform="translate(30.056 43.569)">
          <path id="Trazado_910518" data-name="Trazado 910518" d="M211.878,389.864H225.3a.574.574,0,0,0,.564-.691,7.426,7.426,0,0,0-14.549,0A.574.574,0,0,0,211.878,389.864Z" transform="translate(-211.301 -374.574)" fill="#8ac9fe" fill-rule="evenodd"/>
          <path id="Trazado_910519" data-name="Trazado 910519" d="M260.436,389.864h1.312a.574.574,0,0,0,.564-.691,7.427,7.427,0,0,0-7.274-5.934q-.331,0-.656.029A7.428,7.428,0,0,1,261,389.173.574.574,0,0,1,260.436,389.864Z" transform="translate(-247.752 -374.574)" fill="#60b7ff" fill-rule="evenodd"/>
          <circle id="Elipse_12707" data-name="Elipse 12707" cx="3.754" cy="3.754" r="3.754" transform="translate(2.403 2.875) rotate(-22.514)" fill="#f6dccd"/>
          <path id="Trazado_910520" data-name="Trazado 910520" d="M255.771,334.458a3.754,3.754,0,1,1-.523,7.471,3.754,3.754,0,0,0,0-7.434A3.809,3.809,0,0,1,255.771,334.458Z" transform="translate(-248.485 -333.3)" fill="#f1cbbc" fill-rule="evenodd"/>
        </g>
        <g id="Grupo_1113282" data-name="Grupo 1113282" transform="translate(46.372 11.824)">
          <path id="Trazado_910521" data-name="Trazado 910521" d="M325.281,120.655l-7.962,3.412v6.757a9.65,9.65,0,0,0,7.962,9.464,9.65,9.65,0,0,0,7.962-9.464v-6.757Z" transform="translate(-317.319 -120.655)" fill="#6cf5c2" fill-rule="evenodd"/>
          <path id="Trazado_910522" data-name="Trazado 910522" d="M364.821,120.655l-.769.33,7.192,3.082v6.757a9.654,9.654,0,0,1-7.192,9.3c.253.066.509.122.769.168a9.65,9.65,0,0,0,7.962-9.464v-6.757Z" transform="translate(-356.86 -120.655)" fill="#00e499" fill-rule="evenodd"/>
        </g>
        <g id="Grupo_1113283" data-name="Grupo 1113283" transform="translate(44.677 44.17)">
          <path id="Trazado_910523" data-name="Trazado 910523" d="M306.881,389.864H320.3a.574.574,0,0,0,.565-.691,7.426,7.426,0,0,0-14.549,0A.574.574,0,0,0,306.881,389.864Z" transform="translate(-306.304 -375.175)" fill="#8ac9fe" fill-rule="evenodd"/>
          <path id="Trazado_910524" data-name="Trazado 910524" d="M355.44,389.864h1.312a.574.574,0,0,0,.565-.691,7.427,7.427,0,0,0-7.274-5.934q-.332,0-.656.029A7.428,7.428,0,0,1,356,389.173.574.574,0,0,1,355.44,389.864Z" transform="translate(-342.756 -375.175)" fill="#60b7ff" fill-rule="evenodd"/>
          <circle id="Elipse_12708" data-name="Elipse 12708" cx="3.754" cy="3.754" r="3.754" transform="matrix(0.16, -0.987, 0.987, 0.16, 2.966, 7.41)" fill="#f6dccd"/>
          <path id="Trazado_910525" data-name="Trazado 910525" d="M350.775,334.458a3.754,3.754,0,1,1-.523,7.471,3.754,3.754,0,0,0,0-7.434A3.806,3.806,0,0,1,350.775,334.458Z" transform="translate(-343.489 -333.901)" fill="#f1cbbc" fill-rule="evenodd"/>
        </g>
        <g id="Grupo_1113284" data-name="Grupo 1113284" transform="translate(59.298 44.172)">
          <path id="Trazado_910526" data-name="Trazado 910526" d="M401.885,389.864H415.3a.574.574,0,0,0,.565-.691,7.426,7.426,0,0,0-14.549,0A.574.574,0,0,0,401.885,389.864Z" transform="translate(-401.308 -375.176)" fill="#8ac9fe" fill-rule="evenodd"/>
          <path id="Trazado_910527" data-name="Trazado 910527" d="M450.444,389.864h1.312a.574.574,0,0,0,.565-.691,7.427,7.427,0,0,0-7.274-5.934q-.332,0-.656.029a7.428,7.428,0,0,1,6.618,5.906A.574.574,0,0,1,450.444,389.864Z" transform="translate(-437.76 -375.176)" fill="#60b7ff" fill-rule="evenodd"/>
          <circle id="Elipse_12709" data-name="Elipse 12709" cx="3.754" cy="3.754" r="3.754" transform="matrix(0.16, -0.987, 0.987, 0.16, 2.963, 7.41)" fill="#f6dccd"/>
          <path id="Trazado_910528" data-name="Trazado 910528" d="M445.778,334.458a3.754,3.754,0,1,1-.523,7.471,3.754,3.754,0,0,0,0-7.434A3.807,3.807,0,0,1,445.778,334.458Z" transform="translate(-438.492 -333.902)" fill="#f1cbbc" fill-rule="evenodd"/>
        </g>
        <g id="Grupo_1113285" data-name="Grupo 1113285">
          <path id="Trazado_910529" data-name="Trazado 910529" d="M23.84,171.059H37.175a1.492,1.492,0,0,0,1.489-1.487l.066-41.062,3.425-4.142H50.8a2.379,2.379,0,0,0,1.626-.639l6.6-5.158a2.379,2.379,0,1,0-2.929-3.75l-6.1,4.77H23.484c-3.294,0-7.391,2.113-7.41,5.843L16,140.181a6.022,6.022,0,0,0,6.236,5.842l.114,23.553a1.492,1.492,0,0,0,1.489,1.482Z" transform="translate(-16 -103.469)" fill="#8ac9fe" fill-rule="evenodd"/>
          <path id="Trazado_910530" data-name="Trazado 910530" d="M58.124,345.375H71.46a1.492,1.492,0,0,0,1.489-1.487l.038-23.548H56.521l.114,23.553A1.492,1.492,0,0,0,58.124,345.375Z" transform="translate(-50.285 -277.785)" fill="#837683" fill-rule="evenodd"/>
          <path id="Trazado_910531" data-name="Trazado 910531" d="M177.743,125.278h8.644a2.379,2.379,0,0,0,1.626-.639l6.6-5.158a2.379,2.379,0,1,0-2.929-3.75l-6.1,4.77h-9.27v6.511Z" transform="translate(-151.638 -104.238)" fill="#8ac9fe" fill-rule="evenodd"/>
          <path id="Trazado_910532" data-name="Trazado 910532" d="M75.1,43.825c3.546,0,6.42,2.021,6.42,6.681s-2.874,8.438-6.42,8.438-6.42-3.778-6.42-8.438,2.874-6.681,6.42-6.681Z" transform="translate(-60.574 -43.825)" fill="#f6dccd" fill-rule="evenodd"/>
          <path id="Trazado_910533" data-name="Trazado 910533" d="M106.167,43.825c3.546,0,6.42,2.021,6.42,6.681s-2.874,8.438-6.42,8.438a4.964,4.964,0,0,1-.769-.06c3.183-.5,5.65-4.06,5.65-8.377s-2.468-6.369-5.65-6.647Q105.776,43.825,106.167,43.825Z" transform="translate(-91.64 -43.825)" fill="#f1cbbc" fill-rule="evenodd"/>
        </g>
      </g>
    </g>
    <path id="Trazado_910534" data-name="Trazado 910534" d="M70.058,82.027a6.083,6.083,0,0,1,5.754-4.077h.007a6.085,6.085,0,0,1,5.754,4.077Zm3.283-9.014a2.474,2.474,0,1,1,2.475,2.475h0A2.478,2.478,0,0,1,73.341,73.013Zm-17.9,9.014a6.085,6.085,0,0,1,5.755-4.077H61.2a6.085,6.085,0,0,1,5.755,4.077Zm3.284-9.014A2.474,2.474,0,1,1,61.2,75.488h0a2.478,2.478,0,0,1-2.472-2.475Zm-17.9,9.014a6.084,6.084,0,0,1,5.754-4.077h.007a6.084,6.084,0,0,1,5.755,4.077ZM44.1,73.013a2.475,2.475,0,1,1,2.476,2.475h0A2.479,2.479,0,0,1,44.1,73.013Zm35.387,3.3a4.937,4.937,0,1,0-7.341,0,8.537,8.537,0,0,0-3.64,3.275,8.555,8.555,0,0,0-3.64-3.275,4.936,4.936,0,1,0-7.342,0,8.553,8.553,0,0,0-3.64,3.275,8.54,8.54,0,0,0-3.64-3.275,4.937,4.937,0,1,0-7.34,0,8.53,8.53,0,0,0-4.84,6.817,1.229,1.229,0,0,0,1.223,1.362H83.1a1.229,1.229,0,0,0,1.223-1.362A8.532,8.532,0,0,0,79.486,76.31ZM62.9,46.51l3.951-3.584A1.231,1.231,0,0,1,68.51,44.75l-4.819,4.372a1.23,1.23,0,0,1-1.7-.04L60.01,47.1a1.231,1.231,0,0,1,1.74-1.742Zm15.03-9.566V35.653l-1.036-.4a1.225,1.225,0,0,1-.756-.863,8.175,8.175,0,0,0-.992-2.394,1.227,1.227,0,0,1-.077-1.145l.451-1.016-.914-.914-1.016.451a1.236,1.236,0,0,1-1.147-.076,8.1,8.1,0,0,0-2.393-.992,1.234,1.234,0,0,1-.863-.756l-.4-1.037H67.5l-.4,1.037a1.229,1.229,0,0,1-.864.756,8.127,8.127,0,0,0-2.393.992,1.23,1.23,0,0,1-1.146.076l-1.016-.451-.915.914.451,1.016a1.225,1.225,0,0,1-.077,1.145,8.131,8.131,0,0,0-.991,2.394,1.231,1.231,0,0,1-.756.863l-1.037.4v1.291l.32.123,2.4-1.028a7.074,7.074,0,1,1,11.679,5.62v1.51a1.22,1.22,0,0,1,.838.057l1.016.451.914-.914-.451-1.017a1.227,1.227,0,0,1,.075-1.145,8.085,8.085,0,0,0,.992-2.393,1.23,1.23,0,0,1,.756-.864Zm-5.82,1.7a1.143,1.143,0,0,0-.1-.052L64.05,35.181a1.245,1.245,0,0,0-.354-.091,4.612,4.612,0,1,1,8.418,3.556ZM70.3,46.483V40.536l-6.73-2.884-.762.326-.006,0-5.963,2.555v5.947a8.472,8.472,0,0,0,6.732,8.21A8.472,8.472,0,0,0,70.3,46.483Zm9.314-12.824-1.245-.478a10.607,10.607,0,0,0-.786-1.9l.54-1.219a1.228,1.228,0,0,0-.253-1.37l-2.111-2.11a1.23,1.23,0,0,0-1.369-.254l-1.219.542a10.53,10.53,0,0,0-1.9-.788l-.479-1.245a1.23,1.23,0,0,0-1.148-.788H66.654a1.233,1.233,0,0,0-1.148.788l-.478,1.245a10.47,10.47,0,0,0-1.9.788l-1.22-.542a1.228,1.228,0,0,0-1.37.254l-2.11,2.11a1.228,1.228,0,0,0-.254,1.37l.542,1.219a10.556,10.556,0,0,0-.788,1.9l-1.245.478a1.232,1.232,0,0,0-.788,1.148v2.984a1.219,1.219,0,0,0,.083.434l-.861.369a1.231,1.231,0,0,0-.746,1.131v6.758a10.88,10.88,0,0,0,8.981,10.676,1.231,1.231,0,0,0,.213.019,1.184,1.184,0,0,0,.211-.019,10.879,10.879,0,0,0,8.981-10.676v-.55c.138-.065.275-.132.408-.2l1.219.542a1.209,1.209,0,0,0,.5.106,1.231,1.231,0,0,0,.871-.36l2.11-2.11a1.228,1.228,0,0,0,.253-1.37l-.541-1.22a10.5,10.5,0,0,0,.787-1.9l1.245-.479a1.231,1.231,0,0,0,.787-1.148V34.807a1.23,1.23,0,0,0-.787-1.148ZM24.74,68.293V92.08a1.231,1.231,0,1,1-2.463,0V68.293a1.231,1.231,0,1,1,2.463,0ZM81.871,53.949V26.733a3.305,3.305,0,0,0-3.3-3.3H42.646a3.306,3.306,0,0,0-3.3,3.3V39.381H42.8l5.77-4.509a3.611,3.611,0,1,1,4.446,5.691L46.452,45.69a3.608,3.608,0,0,1-2.423.93H39.345v7.329a3.305,3.305,0,0,0,3.3,3.3H78.57a3.3,3.3,0,0,0,3.3-3.3ZM18.57,31.17c0-4.742,3.251-5.45,5.188-5.45s5.189.708,5.189,5.45c0,3.974-2.328,7.205-5.189,7.205S18.57,35.144,18.57,31.17Zm60-10.2H42.646a5.77,5.77,0,0,0-5.764,5.763V39.381H27.791a10.436,10.436,0,0,0,3.619-8.21c0-4.88-2.932-7.912-7.652-7.912s-7.651,3.032-7.651,7.912a10.438,10.438,0,0,0,3.618,8.21H16.716c-4.14,0-8.621,2.7-8.642,7.068L8,61.2a6.846,6.846,0,0,0,2.034,4.889,7.51,7.51,0,0,0,4.322,2.125V92.08a1.231,1.231,0,1,0,2.463,0V46.448a1.231,1.231,0,1,0-2.463,0V65.716a5.013,5.013,0,0,1-2.576-1.367,4.406,4.406,0,0,1-1.317-3.141l.074-14.747c.014-3.013,3.6-4.618,6.179-4.618H43.221a1.228,1.228,0,0,0,.759-.26l6.1-4.771a1.148,1.148,0,1,1,1.414,1.81l-6.6,5.157c-.028.022-.054.045-.08.069a1.149,1.149,0,0,1-.788.309H35.385a1.229,1.229,0,0,0-.948.446l-3.424,4.143a1.228,1.228,0,0,0-.283.782l-.068,42.55a1.231,1.231,0,0,0,1.228,1.233h0a1.232,1.232,0,0,0,1.231-1.23l.067-42.106,2.773-3.355h.917v7.329a5.77,5.77,0,0,0,5.764,5.763H78.57a5.77,5.77,0,0,0,5.763-5.763V26.733A5.77,5.77,0,0,0,78.57,20.97Z" fill="#242222" fill-rule="evenodd"/>
  </g>
</svg>
