<svg id="Grupo_1113253" data-name="Grupo 1113253" xmlns="http://www.w3.org/2000/svg" xmlns:xlink="http://www.w3.org/1999/xlink" width="149.454" height="130.343" viewBox="0 0 149.454 130.343">
  <defs>
    <clipPath id="clip-path">
      <rect id="Rectángulo_405840" data-name="Rectángulo 405840" width="149.454" height="130.343" fill="none"/>
    </clipPath>
  </defs>
  <g id="Grupo_1113252" data-name="Grupo 1113252" clip-path="url(#clip-path)">
    <path id="Trazado_910419" data-name="Trazado 910419" d="M30.8,25.256s74.87-1.821,94.434,64.961" fill="none" stroke="#161615" stroke-miterlimit="10" stroke-width="2"/>
    <path id="Trazado_910420" data-name="Trazado 910420" d="M1.571,21.343l49.043,108h8.87l46.746-108H92.376l-37.03,92.051L15.388,21.7Z" fill="#ffb01a"/>
    <path id="Trazado_910421" data-name="Trazado 910421" d="M1.571,21.343l49.043,108h8.87l46.746-108H92.376l-37.03,92.051L15.388,21.7Z" fill="none" stroke="#161615" stroke-miterlimit="10" stroke-width="2"/>
    <path id="Trazado_910422" data-name="Trazado 910422" d="M35.758,5.957A4.957,4.957,0,1,1,30.8,1a4.957,4.957,0,0,1,4.957,4.957" fill="#59bddb"/>
    <path id="Trazado_910423" data-name="Trazado 910423" d="M35.758,5.957A4.957,4.957,0,1,1,30.8,1,4.957,4.957,0,0,1,35.758,5.957Z" fill="none" stroke="#161615" stroke-miterlimit="10" stroke-width="2"/>
    <path id="Trazado_910424" data-name="Trazado 910424" d="M148.454,82.131a4.956,4.956,0,1,1-4.957-4.957,4.957,4.957,0,0,1,4.957,4.957" fill="#a33684"/>
    <path id="Trazado_910425" data-name="Trazado 910425" d="M148.454,82.131a4.956,4.956,0,1,1-4.957-4.957A4.957,4.957,0,0,1,148.454,82.131Z" fill="none" stroke="#161615" stroke-miterlimit="10" stroke-width="2"/>
    <line id="Línea_269" data-name="Línea 269" y1="4.435" x2="12.783" transform="translate(118.845 87.087)" fill="none" stroke="#161615" stroke-miterlimit="10" stroke-width="2"/>
    <line id="Línea_270" data-name="Línea 270" y2="16.957" transform="translate(30.802 17.174)" fill="none" stroke="#161615" stroke-miterlimit="10" stroke-width="2"/>
  </g>
</svg>
