<svg xmlns="http://www.w3.org/2000/svg" width="125.167" height="89.23" viewBox="0 0 125.167 89.23">
  <g id="longitud" transform="translate(0 -73.5)">
    <path id="Trazado_910377" data-name="Trazado 910377" d="M19.723,121H49.059a12.223,12.223,0,0,1,12.223,12.223v36.67H19.723A12.223,12.223,0,0,1,7.5,157.67V133.223A12.223,12.223,0,0,1,19.723,121Z" transform="translate(-5.667 -35.888)" fill="#746bf9"/>
    <path id="Trazado_910378" data-name="Trazado 910378" d="M227.5,251h9.779v17.113H227.5Z" transform="translate(-171.884 -134.107)" fill="#ff4387"/>
    <path id="Trazado_910379" data-name="Trazado 910379" d="M0,0H57.938V9.779H0Z" transform="translate(123.333 130.338) rotate(180)" fill="#ffb332"/>
    <path id="Trazado_910380" data-name="Trazado 910380" d="M474.5,266h7.334v15.89a3.667,3.667,0,0,1-7.334,0Z" transform="translate(-358.501 -145.44)" fill="#47477f"/>
    <path id="Trazado_910381" data-name="Trazado 910381" d="M7.5,381H129v12.223H7.5Z" transform="translate(-5.667 -232.327)" fill="#ffb332"/>
    <path id="Trazado_910382" data-name="Trazado 910382" d="M92.389,81h4.889a4.889,4.889,0,0,1,4.889,4.889v4.889H87.5V85.889A4.889,4.889,0,0,1,92.389,81Z" transform="translate(-66.109 -5.667)" fill="#ff4387"/>
    <path id="Trazado_910383" data-name="Trazado 910383" d="M169.945,121H167.5v48.893h14.668v-36.67A12.223,12.223,0,0,0,169.945,121Z" transform="translate(-126.552 -35.888)" fill="#47477f"/>
    <rect id="Rectángulo_405839" data-name="Rectángulo 405839" width="17.113" height="24.447" rx="8.556" transform="translate(12.834 97.335)" fill="#ff4387"/>
    <g id="Grupo_1113234" data-name="Grupo 1113234" transform="translate(0 73.5)">
      <path id="Trazado_910384" data-name="Trazado 910384" d="M123.333,118.726h-56.1v-1.833a1.834,1.834,0,0,0-1.833-1.833H57.449V97.335A14.071,14.071,0,0,0,43.393,83.279h-5.5V80.223A6.733,6.733,0,0,0,31.169,73.5H26.28a6.733,6.733,0,0,0-6.723,6.723v3.056h-5.5A14.071,14.071,0,0,0,0,97.335v24.447a14.071,14.071,0,0,0,14.057,14.057H65.395a1.834,1.834,0,0,0,1.833-1.833v-1.833h46.937v4.278a5.5,5.5,0,0,0,11,0V120.56a1.833,1.833,0,0,0-1.833-1.833ZM23.224,80.223a3.061,3.061,0,0,1,3.056-3.056h4.889a3.061,3.061,0,0,1,3.056,3.056v3.056h-11ZM3.667,121.782V97.335a10.4,10.4,0,0,1,10.39-10.39H39.115v45.226H14.057A10.4,10.4,0,0,1,3.667,121.782Zm50.115,10.39h-11V86.946h.611a10.4,10.4,0,0,1,10.39,10.39Zm9.779,0H57.449V118.726h6.112Zm3.667-3.667v-6.112H73.34v1.833a1.833,1.833,0,0,0,3.667,0v-1.833h6.112v1.833a1.833,1.833,0,0,0,3.667,0v-1.833H92.9v1.833a1.833,1.833,0,1,0,3.667,0v-1.833h6.112v1.833a1.833,1.833,0,0,0,3.667,0v-1.833h7.823V128.5ZM121.5,136.45a1.833,1.833,0,1,1-3.667,0V122.393H121.5Z" transform="translate(0 -73.5)" fill="#2d2d59"/>
      <path id="Trazado_910385" data-name="Trazado 910385" d="M123.333,373.5H1.833A1.833,1.833,0,0,0,0,375.333v12.223a1.833,1.833,0,0,0,1.833,1.833h121.5a1.833,1.833,0,0,0,1.833-1.833V375.333a1.833,1.833,0,0,0-1.833-1.833ZM121.5,385.723H3.667v-8.556H121.5Z" transform="translate(0 -300.16)" fill="#2d2d59"/>
      <path id="Trazado_910386" data-name="Trazado 910386" d="M59.057,163.5H51.723A6.733,6.733,0,0,0,45,170.223v14.668a6.733,6.733,0,0,0,6.723,6.723h7.334a6.733,6.733,0,0,0,6.723-6.723V170.223A6.733,6.733,0,0,0,59.057,163.5Zm3.056,21.391a3.061,3.061,0,0,1-3.056,3.056H51.723a3.061,3.061,0,0,1-3.056-3.056V170.223a3.061,3.061,0,0,1,3.056-3.056h7.334a3.061,3.061,0,0,1,3.056,3.056Z" transform="translate(-33.999 -141.498)" fill="#2d2d59"/>
      <path id="Trazado_910387" data-name="Trazado 910387" d="M81.833,193.5A1.833,1.833,0,0,0,80,195.333v9.779a1.833,1.833,0,1,0,3.667,0v-9.779A1.833,1.833,0,0,0,81.833,193.5Z" transform="translate(-60.443 -164.164)" fill="#2d2d59"/>
      <path id="Trazado_910388" data-name="Trazado 910388" d="M41.833,402.167h4.889a1.833,1.833,0,1,0,0-3.667H41.833a1.833,1.833,0,1,0,0,3.667Z" transform="translate(-30.221 -319.049)" fill="#2d2d59"/>
      <path id="Trazado_910389" data-name="Trazado 910389" d="M98.544,402.167h4.889a1.833,1.833,0,1,0,0-3.667H98.544a1.833,1.833,0,1,0,0,3.667Z" transform="translate(-73.068 -319.049)" fill="#2d2d59"/>
      <path id="Trazado_910390" data-name="Trazado 910390" d="M155.263,402.167h4.889a1.833,1.833,0,1,0,0-3.667h-4.889a1.833,1.833,0,1,0,0,3.667Z" transform="translate(-115.922 -319.049)" fill="#2d2d59"/>
      <path id="Trazado_910391" data-name="Trazado 910391" d="M211.973,402.167h4.889a1.833,1.833,0,1,0,0-3.667h-4.889a1.833,1.833,0,1,0,0,3.667Z" transform="translate(-158.768 -319.049)" fill="#2d2d59"/>
      <path id="Trazado_910392" data-name="Trazado 910392" d="M382.124,402.167h4.889a1.833,1.833,0,1,0,0-3.667h-4.889a1.833,1.833,0,1,0,0,3.667Z" transform="translate(-287.322 -319.049)" fill="#2d2d59"/>
      <path id="Trazado_910393" data-name="Trazado 910393" d="M325.4,402.167h4.889a1.833,1.833,0,1,0,0-3.667H325.4a1.833,1.833,0,1,0,0,3.667Z" transform="translate(-244.468 -319.049)" fill="#2d2d59"/>
      <path id="Trazado_910394" data-name="Trazado 910394" d="M268.693,402.167h4.889a1.833,1.833,0,0,0,0-3.667h-4.889a1.833,1.833,0,0,0,0,3.667Z" transform="translate(-201.622 -319.049)" fill="#2d2d59"/>
      <path id="Trazado_910395" data-name="Trazado 910395" d="M438.834,402.167h4.889a1.833,1.833,0,1,0,0-3.667h-4.889a1.833,1.833,0,1,0,0,3.667Z" transform="translate(-330.168 -319.049)" fill="#2d2d59"/>
    </g>
  </g>
</svg>
