<svg xmlns="http://www.w3.org/2000/svg" xmlns:xlink="http://www.w3.org/1999/xlink" width="1240" height="873" viewBox="0 0 1240 873">
  <defs>
    <clipPath id="clip-path">
      <rect id="Rectángulo_401216" data-name="Rectángulo 401216" width="21.329" height="18.792" fill="none" stroke="#166340" stroke-width="1"/>
    </clipPath>
    <clipPath id="clip-path-3">
      <rect id="Rectángulo_401216-3" data-name="Rectángulo 401216" width="14.828" height="13.065" fill="none" stroke="#166340" stroke-width="1"/>
    </clipPath>
    <clipPath id="clip-path-7">
      <rect id="Rectángulo_401216-7" data-name="Rectángulo 401216" width="14.828" height="13.065" fill="none" stroke="#98e465" stroke-width="1"/>
    </clipPath>
    <clipPath id="clip-path-13">
      <rect id="Rectángulo_401216-13" data-name="Rectángulo 401216" width="14.828" height="13.065" fill="none" stroke="#7d9ffb" stroke-width="1"/>
    </clipPath>
    <clipPath id="clip-path-18">
      <rect id="Rectángulo_401216-18" data-name="Rectángulo 401216" width="14.828" height="13.065" fill="none" stroke="#f59f7c" stroke-width="1"/>
    </clipPath>
  </defs>
  <g id="Grupo_1113373" data-name="Grupo 1113373" transform="translate(-180 -456)">
    <rect id="Rectángulo_388651" data-name="Rectángulo 388651" width="1240" height="873" rx="20" transform="translate(180 456)" fill="#fcfcfc"/>
    <rect id="Rectángulo_401217" data-name="Rectángulo 401217" width="220.368" height="66.018" rx="11" transform="translate(227.09 678.633)" fill="#98e465"/>
    <rect id="Rectángulo_405232" data-name="Rectángulo 405232" width="157.368" height="66.018" rx="11" transform="translate(483.754 679.117)" fill="#98e465"/>
    <rect id="Rectángulo_405234" data-name="Rectángulo 405234" width="248.368" height="46.373" rx="11" transform="translate(1116.754 679.117)" fill="#f59f7c"/>
    <rect id="Rectángulo_405233" data-name="Rectángulo 405233" width="313.516" height="66.018" rx="11" transform="translate(733.984 678.558)" fill="#7d9ffb"/>
    <g id="Grupo_1112248" data-name="Grupo 1112248" transform="translate(-6.98 -6)">
      <rect id="Rectángulo_34091" data-name="Rectángulo 34091" width="460.367" height="85" rx="11" transform="translate(600.631 514.53)" fill="#166340"/>
      <text id="Buenas_prácticas_agrícolas_y_competitividad_productiva_del_cultivo_del_plátano_" data-name="Buenas prácticas agrícolas y competitividad
 productiva del cultivo del plátano " transform="translate(826.418 550.53)" fill="#fff" font-size="20" font-family="Roboto-Black, Roboto" font-weight="800"><tspan x="-199.497" y="0">Buenas prácticas agrícolas y competitividad</tspan><tspan x="-154.634" y="27" xml:space="preserve"> productiva del cultivo del plátano </tspan></text>
    </g>
    <text id="Manejo_del_cultivo_del_plátano_" data-name="Manejo del cultivo
 del plátano
" transform="translate(337.273 707.274)" fill="#12263f" font-size="16" font-family="Roboto-Bold, Roboto" font-weight="700"><tspan x="-65.742" y="0">Manejo del cultivo</tspan><tspan x="-41.848" y="24" xml:space="preserve"> del plátano</tspan><tspan x="0" y="48"></tspan></text>
    <text id="Cosecha_y_poscosecha_" data-name="Cosecha y 
poscosecha
" transform="translate(560.008 707.274)" fill="#12263f" font-size="16" font-family="Roboto-Bold, Roboto" font-weight="700"><tspan x="-39.133" y="0">Cosecha y </tspan><tspan x="-43.211" y="24">poscosecha</tspan><tspan x="0" y="48"></tspan></text>
    <text id="Seguridad_y_bienestar_social_" data-name="Seguridad y bienestar social " transform="translate(1237.438 708.627)" fill="#fff" font-size="16" font-family="Roboto-Bold, Roboto" font-weight="700"><tspan x="-103.73" y="0">Seguridad y bienestar social </tspan></text>
    <text id="Bienestar_laboral_y_seguridad_de_los_trabajadores" data-name="Bienestar laboral y 
seguridad de los trabajadores" transform="translate(893.668 706.067)" fill="#fff" font-size="16" font-family="Roboto-Bold, Roboto" font-weight="700"><tspan x="-69.02" y="0">Bienestar laboral y </tspan><tspan x="-106.73" y="24">seguridad de los trabajadores</tspan></text>
    <g id="Grupo_1099078" data-name="Grupo 1099078" transform="translate(808.516 595.44)">
      <path id="Trazado_873496" data-name="Trazado 873496" d="M-11801-8646v40.334" transform="translate(11811.664 8646.002)" fill="none" stroke="#166340" stroke-width="2"/>
    </g>
    <g id="Grupo_1112194" data-name="Grupo 1112194" transform="translate(538.68 638.019)">
      <path id="Trazado_873496-2" data-name="Trazado 873496" d="M-11801-8646v37.6" transform="translate(11811.664 8646.002)" fill="none" stroke="#166340" stroke-width="2"/>
      <g id="Grupo_1099075" data-name="Grupo 1099075" transform="translate(0 21.822)">
        <g id="Grupo_1099074" data-name="Grupo 1099074" clip-path="url(#clip-path)">
          <path id="Trazado_873497" data-name="Trazado 873497" d="M21.182.857A21.249,21.249,0,0,0,10.848,19.1,21.248,21.248,0,0,0,.514.857" transform="translate(-0.184 -0.306)" fill="none" stroke="#166340" stroke-miterlimit="10" stroke-width="2"/>
        </g>
      </g>
    </g>
    <g id="Grupo_1112247" data-name="Grupo 1112247" transform="translate(353.341 635.804)">
      <path id="Trazado_873496-3" data-name="Trazado 873496" d="M-11801-8646v37.6" transform="translate(11811.664 8646.002)" fill="none" stroke="#166340" stroke-width="2"/>
      <g id="Grupo_1099075-2" data-name="Grupo 1099075" transform="translate(0 21.822)">
        <g id="Grupo_1099074-2" data-name="Grupo 1099074" clip-path="url(#clip-path)">
          <path id="Trazado_873497-2" data-name="Trazado 873497" d="M21.182.857A21.249,21.249,0,0,0,10.848,19.1,21.248,21.248,0,0,0,.514.857" transform="translate(-0.184 -0.306)" fill="none" stroke="#166340" stroke-miterlimit="10" stroke-width="2"/>
        </g>
      </g>
    </g>
    <g id="Grupo_1112197" data-name="Grupo 1112197" transform="translate(237.627 781.469) rotate(-90)">
      <path id="Trazado_873496-4" data-name="Trazado 873496" d="M-11801-8646v18.041" transform="translate(11808.414 8646.002)" fill="none" stroke="#166340" stroke-width="2"/>
      <g id="Grupo_1099075-3" data-name="Grupo 1099075" transform="translate(0 7.069)">
        <g id="Grupo_1099074-3" data-name="Grupo 1099074" clip-path="url(#clip-path-3)">
          <path id="Trazado_873497-3" data-name="Trazado 873497" d="M14.883.857A14.773,14.773,0,0,0,7.7,13.539,14.772,14.772,0,0,0,.514.857" transform="translate(-0.284 -0.474)" fill="none" stroke="#166340" stroke-miterlimit="10" stroke-width="2"/>
        </g>
      </g>
    </g>
    <g id="Grupo_1113365" data-name="Grupo 1113365" transform="translate(494.094 783.272) rotate(-90)">
      <path id="Trazado_873496-5" data-name="Trazado 873496" d="M-11801-8646v18.041" transform="translate(11808.414 8646.002)" fill="none" stroke="#166340" stroke-width="2"/>
      <g id="Grupo_1099075-4" data-name="Grupo 1099075" transform="translate(0 7.069)">
        <g id="Grupo_1099074-4" data-name="Grupo 1099074" clip-path="url(#clip-path-3)">
          <path id="Trazado_873497-4" data-name="Trazado 873497" d="M14.883.857A14.773,14.773,0,0,0,7.7,13.539,14.772,14.772,0,0,0,.514.857" transform="translate(-0.284 -0.474)" fill="none" stroke="#166340" stroke-miterlimit="10" stroke-width="2"/>
        </g>
      </g>
    </g>
    <g id="Grupo_1113361" data-name="Grupo 1113361" transform="translate(237.627 1138.361) rotate(-90)">
      <path id="Trazado_873496-6" data-name="Trazado 873496" d="M-11801-8646v18.041" transform="translate(11808.414 8646.002)" fill="none" stroke="#166340" stroke-width="2"/>
      <g id="Grupo_1099075-5" data-name="Grupo 1099075" transform="translate(0 7.069)">
        <g id="Grupo_1099074-5" data-name="Grupo 1099074" clip-path="url(#clip-path-3)">
          <path id="Trazado_873497-5" data-name="Trazado 873497" d="M14.883.857A14.773,14.773,0,0,0,7.7,13.539,14.772,14.772,0,0,0,.514.857" transform="translate(-0.284 -0.474)" fill="none" stroke="#166340" stroke-miterlimit="10" stroke-width="2"/>
        </g>
      </g>
    </g>
    <g id="Grupo_1113366" data-name="Grupo 1113366" transform="translate(494.094 973.103) rotate(-90)">
      <path id="Trazado_873496-7" data-name="Trazado 873496" d="M-11801-8646v18.041" transform="translate(11808.414 8646.002)" fill="none" stroke="#166340" stroke-width="2"/>
      <g id="Grupo_1099075-6" data-name="Grupo 1099075" transform="translate(0 7.069)">
        <g id="Grupo_1099074-6" data-name="Grupo 1099074" clip-path="url(#clip-path-3)">
          <path id="Trazado_873497-6" data-name="Trazado 873497" d="M14.883.857A14.773,14.773,0,0,0,7.7,13.539,14.772,14.772,0,0,0,.514.857" transform="translate(-0.284 -0.474)" fill="none" stroke="#166340" stroke-miterlimit="10" stroke-width="2"/>
        </g>
      </g>
    </g>
    <g id="Grupo_1113359" data-name="Grupo 1113359" transform="translate(261.206 879.572) rotate(-90)">
      <path id="Trazado_873496-8" data-name="Trazado 873496" d="M-11801-8646v18.041" transform="translate(11808.414 8646.002)" fill="none" stroke="#98e465" stroke-width="2"/>
      <g id="Grupo_1099075-7" data-name="Grupo 1099075" transform="translate(0 7.069)">
        <g id="Grupo_1099074-7" data-name="Grupo 1099074" clip-path="url(#clip-path-7)">
          <path id="Trazado_873497-7" data-name="Trazado 873497" d="M14.883.857A14.773,14.773,0,0,0,7.7,13.539,14.772,14.772,0,0,0,.514.857" transform="translate(-0.284 -0.474)" fill="none" stroke="#98e465" stroke-miterlimit="10" stroke-width="2"/>
        </g>
      </g>
    </g>
    <g id="Grupo_1113363" data-name="Grupo 1113363" transform="translate(517.85 1071.205) rotate(-90)">
      <path id="Trazado_873496-9" data-name="Trazado 873496" d="M-11801-8646v18.041" transform="translate(11808.414 8646.002)" fill="none" stroke="#98e465" stroke-width="2"/>
      <g id="Grupo_1099075-8" data-name="Grupo 1099075" transform="translate(0 7.069)">
        <g id="Grupo_1099074-8" data-name="Grupo 1099074" clip-path="url(#clip-path-7)">
          <path id="Trazado_873497-8" data-name="Trazado 873497" d="M14.883.857A14.773,14.773,0,0,0,7.7,13.539,14.772,14.772,0,0,0,.514.857" transform="translate(-0.284 -0.474)" fill="none" stroke="#98e465" stroke-miterlimit="10" stroke-width="2"/>
        </g>
      </g>
    </g>
    <g id="Grupo_1113362" data-name="Grupo 1113362" transform="translate(349.195 1156.309)">
      <path id="Trazado_873496-10" data-name="Trazado 873496" d="M-11801-8646v18.041" transform="translate(11808.414 8646.002)" fill="none" stroke="#98e465" stroke-width="2"/>
      <g id="Grupo_1099075-9" data-name="Grupo 1099075" transform="translate(0 7.069)">
        <g id="Grupo_1099074-9" data-name="Grupo 1099074" clip-path="url(#clip-path-7)">
          <path id="Trazado_873497-9" data-name="Trazado 873497" d="M14.883.857A14.773,14.773,0,0,0,7.7,13.539,14.772,14.772,0,0,0,.514.857" transform="translate(-0.284 -0.474)" fill="none" stroke="#98e465" stroke-miterlimit="10" stroke-width="2"/>
        </g>
      </g>
    </g>
    <g id="Grupo_1113367" data-name="Grupo 1113367" transform="translate(584.733 797.682)">
      <path id="Trazado_873496-11" data-name="Trazado 873496" d="M-11801-8646v18.041" transform="translate(11808.414 8646.002)" fill="none" stroke="#98e465" stroke-width="2"/>
      <g id="Grupo_1099075-10" data-name="Grupo 1099075" transform="translate(0 7.069)">
        <g id="Grupo_1099074-10" data-name="Grupo 1099074" clip-path="url(#clip-path-7)">
          <path id="Trazado_873497-10" data-name="Trazado 873497" d="M14.883.857A14.773,14.773,0,0,0,7.7,13.539,14.772,14.772,0,0,0,.514.857" transform="translate(-0.284 -0.474)" fill="none" stroke="#98e465" stroke-miterlimit="10" stroke-width="2"/>
        </g>
      </g>
    </g>
    <g id="Grupo_1113360" data-name="Grupo 1113360" transform="translate(261.205 1030.91) rotate(-90)">
      <path id="Trazado_873496-12" data-name="Trazado 873496" d="M-11801-8646v18.041" transform="translate(11808.414 8646.002)" fill="none" stroke="#98e465" stroke-width="2"/>
      <g id="Grupo_1099075-11" data-name="Grupo 1099075" transform="translate(0 7.069)">
        <g id="Grupo_1099074-11" data-name="Grupo 1099074" clip-path="url(#clip-path-7)">
          <path id="Trazado_873497-11" data-name="Trazado 873497" d="M14.883.857A14.773,14.773,0,0,0,7.7,13.539,14.772,14.772,0,0,0,.514.857" transform="translate(-0.284 -0.474)" fill="none" stroke="#98e465" stroke-miterlimit="10" stroke-width="2"/>
        </g>
      </g>
    </g>
    <g id="Grupo_1113364" data-name="Grupo 1113364" transform="translate(517.008 1189.934) rotate(-90)">
      <path id="Trazado_873496-13" data-name="Trazado 873496" d="M-11801-8646v18.041" transform="translate(11808.414 8646.002)" fill="none" stroke="#98e465" stroke-width="2"/>
      <g id="Grupo_1099075-12" data-name="Grupo 1099075" transform="translate(0 7.069)">
        <g id="Grupo_1099074-12" data-name="Grupo 1099074" clip-path="url(#clip-path-7)">
          <path id="Trazado_873497-12" data-name="Trazado 873497" d="M14.883.857A14.773,14.773,0,0,0,7.7,13.539,14.772,14.772,0,0,0,.514.857" transform="translate(-0.284 -0.474)" fill="none" stroke="#98e465" stroke-miterlimit="10" stroke-width="2"/>
        </g>
      </g>
    </g>
    <g id="Grupo_1112239" data-name="Grupo 1112239" transform="translate(747.668 952.814) rotate(-90)">
      <path id="Trazado_873496-14" data-name="Trazado 873496" d="M-11801-8646v19.557" transform="translate(11808.414 8646.002)" fill="none" stroke="#7d9ffb" stroke-width="2"/>
      <g id="Grupo_1099075-13" data-name="Grupo 1099075" transform="translate(0 8.584)">
        <g id="Grupo_1099074-13" data-name="Grupo 1099074" clip-path="url(#clip-path-13)">
          <path id="Trazado_873497-13" data-name="Trazado 873497" d="M14.883.857A14.773,14.773,0,0,0,7.7,13.539,14.772,14.772,0,0,0,.514.857" transform="translate(-0.284 -0.474)" fill="none" stroke="#7d9ffb" stroke-miterlimit="10" stroke-width="2"/>
        </g>
      </g>
    </g>
    <g id="Grupo_1113369" data-name="Grupo 1113369" transform="translate(911.165 951.566) rotate(-90)">
      <path id="Trazado_873496-15" data-name="Trazado 873496" d="M-11801-8646v19.557" transform="translate(11808.414 8646.002)" fill="none" stroke="#7d9ffb" stroke-width="2"/>
      <g id="Grupo_1099075-14" data-name="Grupo 1099075" transform="translate(0 8.584)">
        <g id="Grupo_1099074-14" data-name="Grupo 1099074" clip-path="url(#clip-path-13)">
          <path id="Trazado_873497-14" data-name="Trazado 873497" d="M14.883.857A14.773,14.773,0,0,0,7.7,13.539,14.772,14.772,0,0,0,.514.857" transform="translate(-0.284 -0.474)" fill="none" stroke="#7d9ffb" stroke-miterlimit="10" stroke-width="2"/>
        </g>
      </g>
    </g>
    <g id="Grupo_1113368" data-name="Grupo 1113368" transform="translate(749.78 1060.743) rotate(-90)">
      <path id="Trazado_873496-16" data-name="Trazado 873496" d="M-11801-8646v19.557" transform="translate(11808.414 8646.002)" fill="none" stroke="#7d9ffb" stroke-width="2"/>
      <g id="Grupo_1099075-15" data-name="Grupo 1099075" transform="translate(0 8.584)">
        <g id="Grupo_1099074-15" data-name="Grupo 1099074" clip-path="url(#clip-path-13)">
          <path id="Trazado_873497-15" data-name="Trazado 873497" d="M14.883.857A14.773,14.773,0,0,0,7.7,13.539,14.772,14.772,0,0,0,.514.857" transform="translate(-0.284 -0.474)" fill="none" stroke="#7d9ffb" stroke-miterlimit="10" stroke-width="2"/>
        </g>
      </g>
    </g>
    <g id="Grupo_1113370" data-name="Grupo 1113370" transform="translate(912.595 1038.209) rotate(-90)">
      <path id="Trazado_873496-17" data-name="Trazado 873496" d="M-11801-8646v19.557" transform="translate(11808.414 8646.002)" fill="none" stroke="#7d9ffb" stroke-width="2"/>
      <g id="Grupo_1099075-16" data-name="Grupo 1099075" transform="translate(0 8.584)">
        <g id="Grupo_1099074-16" data-name="Grupo 1099074" clip-path="url(#clip-path-13)">
          <path id="Trazado_873497-16" data-name="Trazado 873497" d="M14.883.857A14.773,14.773,0,0,0,7.7,13.539,14.772,14.772,0,0,0,.514.857" transform="translate(-0.284 -0.474)" fill="none" stroke="#7d9ffb" stroke-miterlimit="10" stroke-width="2"/>
        </g>
      </g>
    </g>
    <g id="Grupo_1112225" data-name="Grupo 1112225" transform="translate(1133.438 787.914) rotate(-90)">
      <path id="Trazado_873496-18" data-name="Trazado 873496" d="M-11801-8646v31.205" transform="translate(11808.414 8646.002)" fill="none" stroke="#166340" stroke-width="2"/>
      <g id="Grupo_1099075-17" data-name="Grupo 1099075" transform="translate(0 20.233)">
        <g id="Grupo_1099074-17" data-name="Grupo 1099074" clip-path="url(#clip-path-3)">
          <path id="Trazado_873497-17" data-name="Trazado 873497" d="M14.883.857A14.773,14.773,0,0,0,7.7,13.539,14.772,14.772,0,0,0,.514.857" transform="translate(-0.284 -0.474)" fill="none" stroke="#166340" stroke-miterlimit="10" stroke-width="2"/>
        </g>
      </g>
    </g>
    <g id="Grupo_1113371" data-name="Grupo 1113371" transform="translate(23.65 24.512)">
      <path id="Trazado_873496-19" data-name="Trazado 873496" d="M-11801-8646v16.8" transform="translate(9804.032 -10939.189) rotate(-90)" fill="none" stroke="#f59f7c" stroke-width="2"/>
      <g id="Grupo_1099075-18" data-name="Grupo 1099075" transform="translate(1163.862 869.225) rotate(-90)">
        <g id="Grupo_1099074-18" data-name="Grupo 1099074" clip-path="url(#clip-path-18)">
          <path id="Trazado_873497-18" data-name="Trazado 873497" d="M14.883.857A14.773,14.773,0,0,0,7.7,13.539,14.772,14.772,0,0,0,.514.857" transform="translate(-0.284 -0.474)" fill="none" stroke="#f59f7c" stroke-miterlimit="10" stroke-width="2"/>
        </g>
      </g>
    </g>
    <g id="Grupo_1113372" data-name="Grupo 1113372" transform="translate(24.59 121.824)">
      <path id="Trazado_873496-20" data-name="Trazado 873496" d="M-11801-8646v16.8" transform="translate(9804.032 -10939.189) rotate(-90)" fill="none" stroke="#f59f7c" stroke-width="2"/>
      <g id="Grupo_1099075-19" data-name="Grupo 1099075" transform="translate(1163.862 869.225) rotate(-90)">
        <g id="Grupo_1099074-19" data-name="Grupo 1099074" clip-path="url(#clip-path-18)">
          <path id="Trazado_873497-19" data-name="Trazado 873497" d="M14.883.857A14.773,14.773,0,0,0,7.7,13.539,14.772,14.772,0,0,0,.514.857" transform="translate(-0.284 -0.474)" fill="none" stroke="#f59f7c" stroke-miterlimit="10" stroke-width="2"/>
        </g>
      </g>
    </g>
    <g id="Grupo_1112230" data-name="Grupo 1112230" transform="translate(1133.438 1074.324) rotate(-90)">
      <path id="Trazado_873496-21" data-name="Trazado 873496" d="M-11801-8646v31.205" transform="translate(11808.414 8646.002)" fill="none" stroke="#166340" stroke-width="2"/>
      <g id="Grupo_1099075-20" data-name="Grupo 1099075" transform="translate(0 20.233)">
        <g id="Grupo_1099074-20" data-name="Grupo 1099074" clip-path="url(#clip-path-3)">
          <path id="Trazado_873497-20" data-name="Trazado 873497" d="M14.883.857A14.773,14.773,0,0,0,7.7,13.539,14.772,14.772,0,0,0,.514.857" transform="translate(-0.284 -0.474)" fill="none" stroke="#166340" stroke-miterlimit="10" stroke-width="2"/>
        </g>
      </g>
    </g>
    <g id="Grupo_1112195" data-name="Grupo 1112195" transform="translate(884.004 638.019)">
      <path id="Trazado_873496-22" data-name="Trazado 873496" d="M-11801-8646v37.529" transform="translate(11811.664 8646.002)" fill="none" stroke="#166340" stroke-width="2"/>
      <g id="Grupo_1099075-21" data-name="Grupo 1099075" transform="translate(0 21.747)">
        <g id="Grupo_1099074-21" data-name="Grupo 1099074" clip-path="url(#clip-path)">
          <path id="Trazado_873497-21" data-name="Trazado 873497" d="M21.182.857A21.249,21.249,0,0,0,10.848,19.1,21.248,21.248,0,0,0,.514.857" transform="translate(-0.184 -0.306)" fill="none" stroke="#166340" stroke-miterlimit="10" stroke-width="2"/>
        </g>
      </g>
    </g>
    <path id="Trazado_873496-23" data-name="Trazado 873496" d="M-11801-8646v37.529" transform="translate(13045.646 9284.021)" fill="none" stroke="#166340" stroke-width="2"/>
    <g id="Grupo_1099075-22" data-name="Grupo 1099075" transform="translate(1233.982 659.766)">
      <g id="Grupo_1099074-22" data-name="Grupo 1099074" clip-path="url(#clip-path)">
        <path id="Trazado_873497-22" data-name="Trazado 873497" d="M21.182.857A21.249,21.249,0,0,0,10.848,19.1,21.248,21.248,0,0,0,.514.857" transform="translate(-0.184 -0.306)" fill="none" stroke="#166340" stroke-miterlimit="10" stroke-width="2"/>
      </g>
    </g>
    <g id="Grupo_1112237" data-name="Grupo 1112237" transform="translate(797.85 778.896)">
      <path id="Trazado_873496-24" data-name="Trazado 873496" d="M-11801-8646v37.529" transform="translate(11811.664 8646.002)" fill="none" stroke="#166340" stroke-width="2"/>
      <g id="Grupo_1099075-23" data-name="Grupo 1099075" transform="translate(0 21.747)">
        <g id="Grupo_1099074-23" data-name="Grupo 1099074" clip-path="url(#clip-path)">
          <path id="Trazado_873497-23" data-name="Trazado 873497" d="M21.182.857A21.249,21.249,0,0,0,10.848,19.1,21.248,21.248,0,0,0,.514.857" transform="translate(-0.184 -0.306)" fill="none" stroke="#166340" stroke-miterlimit="10" stroke-width="2"/>
        </g>
      </g>
    </g>
    <g id="Grupo_1112238" data-name="Grupo 1112238" transform="translate(960.85 778)">
      <path id="Trazado_873496-25" data-name="Trazado 873496" d="M-11801-8646v36.247" transform="translate(11811.664 8646.002)" fill="none" stroke="#166340" stroke-width="2"/>
      <g id="Grupo_1099075-24" data-name="Grupo 1099075" transform="translate(0 20.464)">
        <g id="Grupo_1099074-24" data-name="Grupo 1099074" clip-path="url(#clip-path)">
          <path id="Trazado_873497-24" data-name="Trazado 873497" d="M21.182.857A21.249,21.249,0,0,0,10.848,19.1,21.248,21.248,0,0,0,.514.857" transform="translate(-0.184 -0.306)" fill="none" stroke="#166340" stroke-miterlimit="10" stroke-width="2"/>
        </g>
      </g>
    </g>
    <path id="Trazado_875994" data-name="Trazado 875994" d="M6.413,0H163a6.293,6.293,0,0,1,6.413,6.167v134.04A6.293,6.293,0,0,1,163,146.375H6.413A6.293,6.293,0,0,1,0,140.207V6.167A6.293,6.293,0,0,1,6.413,0Z" transform="translate(286.043 807.053)" fill="#f2faeb"/>
    <path id="Trazado_910708" data-name="Trazado 910708" d="M6.413,0H163c3.542,0,6.413,2.155,6.413,4.813V109.42c0,2.658-2.871,4.813-6.413,4.813H6.413C2.871,114.233,0,112.078,0,109.42V4.813C0,2.155,2.871,0,6.413,0Z" transform="translate(514.227 817.571)" fill="#f2faeb"/>
    <path id="Trazado_910707" data-name="Trazado 910707" d="M7.353,0H186.9c4.061,0,7.353.869,7.353,1.94V44.114c0,1.072-3.292,1.94-7.353,1.94H7.353C3.292,46.055,0,45.186,0,44.114V1.94C0,.869,3.292,0,7.353,0Z" transform="translate(261.205 1176.442)" fill="#f2faeb"/>
    <path id="Trazado_910714" data-name="Trazado 910714" d="M5.513,0H140.146c3.045,0,5.513,1.639,5.513,3.66V83.205c0,2.021-2.468,3.66-5.513,3.66H5.513C2.468,86.865,0,85.227,0,83.205V3.66C0,1.639,2.468,0,5.513,0Z" transform="translate(537.982 1142.802)" fill="#f2faeb"/>
    <path id="Trazado_910704" data-name="Trazado 910704" d="M6.413,0H163c3.542,0,6.413.807,6.413,1.8V40.992c0,1-2.871,1.8-6.413,1.8H6.413c-3.542,0-6.413-.807-6.413-1.8V1.8C0,.807,2.871,0,6.413,0Z" transform="translate(257.762 756.621)" fill="#cef0b6"/>
    <path id="Trazado_910709" data-name="Trazado 910709" d="M6.413,0H163c3.542,0,6.413.807,6.413,1.8V40.992c0,1-2.871,1.8-6.413,1.8H6.413c-3.542,0-6.413-.807-6.413-1.8V1.8C0,.807,2.871,0,6.413,0Z" transform="translate(514.227 758.424)" fill="#cef0b6"/>
    <path id="Trazado_910706" data-name="Trazado 910706" d="M7.483,0h182.73c4.133,0,7.483.807,7.483,1.8V40.992c0,1-3.35,1.8-7.483,1.8H7.483C3.35,42.795,0,41.988,0,40.992V1.8C0,.807,3.35,0,7.483,0Z" transform="translate(257.762 1113.514)" fill="#cef0b6"/>
    <path id="Trazado_910712" data-name="Trazado 910712" d="M6.413,0H163c3.542,0,6.413.807,6.413,1.8V40.992c0,1-2.871,1.8-6.413,1.8H6.413c-3.542,0-6.413-.807-6.413-1.8V1.8C0,.807,2.871,0,6.413,0Z" transform="translate(514.227 948.254)" fill="#cef0b6"/>
    <path id="Trazado_910703" data-name="Trazado 910703" d="M6.413,0H163c3.542,0,6.413,2.593,6.413,5.792V131.677c0,3.2-2.871,5.792-6.413,5.792H6.413c-3.542,0-6.413-2.593-6.413-5.792V5.792C0,2.593,2.871,0,6.413,0Z" transform="translate(286.043 962.176)" fill="#f2faeb"/>
    <path id="Trazado_910710" data-name="Trazado 910710" d="M5.513,0H140.146a5.658,5.658,0,0,1,5.513,5.792V131.677a5.658,5.658,0,0,1-5.513,5.792H5.513A5.658,5.658,0,0,1,0,131.677V5.792A5.658,5.658,0,0,1,5.513,0Z" transform="translate(537.982 1000.893)" fill="#f2faeb"/>
    <path id="Trazado_908877" data-name="Trazado 908877" d="M4.261,0H108.312a4.2,4.2,0,0,1,4.261,4.138V94.082a4.2,4.2,0,0,1-4.261,4.138H4.261A4.2,4.2,0,0,1,0,94.082V4.138A4.2,4.2,0,0,1,4.261,0Z" transform="translate(771.43 899.145)" fill="#f1f4fe"/>
    <path id="Trazado_910717" data-name="Trazado 910717" d="M5.541,0H140.849c3.06,0,5.541,1.853,5.541,4.138V94.082c0,2.285-2.481,4.138-5.541,4.138H5.541C2.481,98.22,0,96.367,0,94.082V4.138C0,1.853,2.481,0,5.541,0Z" transform="translate(934.927 897.896)" fill="#f1f4fe"/>
    <path id="Trazado_910715" data-name="Trazado 910715" d="M4.261,0H108.312a4.2,4.2,0,0,1,4.261,4.138V94.082a4.2,4.2,0,0,1-4.261,4.138H4.261A4.2,4.2,0,0,1,0,94.082V4.138A4.2,4.2,0,0,1,4.261,0Z" transform="translate(769.317 1004.219)" fill="#f1f4fe"/>
    <path id="Trazado_910716" data-name="Trazado 910716" d="M4.261,0H108.312c2.353,0,4.261,1.066,4.261,2.381V54.143c0,1.315-1.908,2.381-4.261,2.381H4.261C1.908,56.524,0,55.458,0,54.143V2.381C0,1.066,1.908,0,4.261,0Z" transform="translate(932.814 1002.971)" fill="#f1f4fe"/>
    <path id="Trazado_908875" data-name="Trazado 908875" d="M5.232,0H133c2.89,0,5.232,1.282,5.232,2.863V65.092c0,1.581-2.343,2.863-5.232,2.863H5.232C2.343,67.955,0,66.673,0,65.092V2.863C0,1.282,2.343,0,5.232,0Z" transform="translate(741.836 819.672)" fill="#cbd8fe"/>
    <path id="Trazado_908876" data-name="Trazado 908876" d="M5.232,0H133c2.89,0,5.232,1.282,5.232,2.863V65.092c0,1.581-2.343,2.863-5.232,2.863H5.232C2.343,67.955,0,66.673,0,65.092V2.863C0,1.282,2.343,0,5.232,0Z" transform="translate(909.27 818.424)" fill="#cbd8fe"/>
    <path id="Trazado_908822" data-name="Trazado 908822" d="M6.413,0H163c3.542,0,6.413,1.279,6.413,2.857v62.1c0,1.578-2.871,2.857-6.413,2.857H6.413C2.871,67.815,0,66.536,0,64.958V2.857C0,1.279,2.871,0,6.413,0Z" transform="translate(1166.734 749.587)" fill="#fbd8ca"/>
    <path id="Trazado_908821" data-name="Trazado 908821" d="M7.663,0H194.786c4.232,0,7.663,1.525,7.663,3.405V77.423c0,1.881-3.431,3.405-7.663,3.405H7.663C3.431,80.828,0,79.3,0,77.423V3.405C0,1.525,3.431,0,7.663,0Z" transform="translate(1167.5 1027.505)" fill="#fbd8ca"/>
    <path id="Trazado_908886" data-name="Trazado 908886" d="M6.45,0H163.943c3.562,0,6.45,2.217,6.45,4.952V112.578c0,2.735-2.888,4.952-6.45,4.952H6.45c-3.562,0-6.45-2.217-6.45-4.952V4.952C0,2.217,2.888,0,6.45,0Z" transform="translate(1202.518 827.614)" fill="#fef6f2"/>
    <path id="Trazado_910719" data-name="Trazado 910719" d="M6.45,0H163.943c3.562,0,6.45,1.274,6.45,2.845V64.671c0,1.571-2.888,2.845-6.45,2.845H6.45C2.888,67.516,0,66.242,0,64.671V2.845C0,1.274,2.888,0,6.45,0Z" transform="translate(1199.557 952.814)" fill="#fef6f2"/>
    <text id="Métodos_de_control_de_arvenses_plateo_desmanche_o_regulación_de_la_población._" data-name="Métodos de control de arvenses, plateo, desmanche o regulación de la población. 
" transform="translate(296.043 820.545)" fill="#12263f" font-size="16" font-family="Roboto-Regular, Roboto"><tspan x="5.763" y="17">Métodos de control </tspan><tspan x="4.712" y="41">de arvenses, plateo, </tspan><tspan x="26.876" y="65">desmanche o </tspan><tspan x="18.658" y="89">regulación de la </tspan><tspan x="37.861" y="113">población. </tspan></text>
    <text id="Indicadores_de_recolección_color_según_grado_de_madurez." data-name="Indicadores de recolección, color según grado de madurez." transform="translate(524.227 831.063)" fill="#12263f" font-size="16" font-family="Roboto-Regular, Roboto"><tspan x="22.447" y="17">Indicadores de </tspan><tspan x="12.224" y="41">recolección, color </tspan><tspan x="20.052" y="65">según grado de </tspan></text>
    <text id="Manejo_fitosanitario._" data-name="Manejo fitosanitario.
" transform="translate(271.205 1189.935)" fill="#12263f" font-size="16" font-family="Roboto-Regular, Roboto"><tspan x="14.24" y="17">Manejo fitosanitario.</tspan></text>
    <text id="Presentación_empacado_y_transporte._" data-name="Presentación, empacado y transporte.
" transform="translate(547.982 1156.309)" fill="#12263f" font-size="16" font-family="Roboto-Regular, Roboto"><tspan x="14.616" y="17">Presentación, </tspan><tspan x="19.557" y="41">empacado y </tspan><tspan x="24.061" y="65">transporte.</tspan></text>
    <text id="Control_de_malezas" data-name="Control de malezas" transform="translate(267.762 770.113)" fill="#12263f" font-size="16" font-family="Roboto-Regular, Roboto"><tspan x="6.279" y="17">Control de malezas</tspan></text>
    <text id="Cosecha_" data-name="Cosecha
" transform="translate(524.227 771.916)" fill="#12263f" font-size="16" font-family="Roboto-Regular, Roboto"><tspan x="43.826" y="17">Cosecha</tspan></text>
    <text id="Plagas_y_enfermedades_" data-name="Plagas y enfermedades
" transform="translate(271.205 1124.998)" fill="#12263f" font-size="16" font-family="Roboto-Regular, Roboto"><tspan x="1.99" y="17">Plagas y enfermedades</tspan></text>
    <text id="Pososecha_" data-name="Pososecha
" transform="translate(527.672 959.738)" fill="#12263f" font-size="16" font-family="Roboto-Regular, Roboto"><tspan x="31.708" y="17">Pososecha</tspan></text>
    <text id="Desguasque_deshoje_amarre_embolse_y_encinte_desflore_desdede_y_desbacote._" data-name="Desguasque, deshoje, amarre, embolse y encinte, desflore, desdede y desbacote.
" transform="translate(295.65 973.721)" fill="#12263f" font-size="16" font-family="Roboto-Regular, Roboto"><tspan x="29.154" y="17">Desguasque, </tspan><tspan x="16.423" y="41">deshoje, amarre, </tspan><tspan x="8.935" y="65">embolse y encinte, </tspan><tspan x="6.287" y="89">desflore, desdede y </tspan></text>
    <text id="Selección_y_clasificación_preparación_desdede_y_desleche." data-name="Selección y clasificación, preparación, desdede y desleche." transform="translate(545.834 1012.438)" fill="#12263f" font-size="16" font-family="Roboto-Regular, Roboto"><tspan x="23.681" y="17">Selección y </tspan><tspan x="17.712" y="41">clasificación, </tspan><tspan x="20.052" y="65">preparación, </tspan><tspan x="27.763" y="89">desdede y </tspan></text>
    <path id="Trazado_908826" data-name="Trazado 908826" d="M-10705-8894.087" transform="translate(11053.65 9529.861)" fill="none" stroke="#707070" stroke-width="1"/>
    <path id="Trazado_908827" data-name="Trazado 908827" d="M-10775.877-8783.939v386.372" transform="translate(11013.504 9528.515)" fill="none" stroke="#166340" stroke-width="2"/>
    <path id="Trazado_910713" data-name="Trazado 910713" d="M-10775.877-8783.939v219.31" transform="translate(11269.971 9530.318)" fill="none" stroke="#166340" stroke-width="2"/>
    <path id="Trazado_910705" data-name="Trazado 910705" d="M-10775.877-8783.939V-8558.3" transform="translate(11037.084 9583.355)" fill="none" stroke="#98e465" stroke-width="2"/>
    <path id="Trazado_910711" data-name="Trazado 910711" d="M-10775.877-8783.939v191.471" transform="translate(11293.727 9774.988)" fill="none" stroke="#98e465" stroke-width="2"/>
    <path id="Trazado_908892" data-name="Trazado 908892" d="M-10775.877-8783.939v164.576" transform="translate(11524.975 9671.566)" fill="none" stroke="#7d9ffb" stroke-width="2"/>
    <path id="Trazado_910718" data-name="Trazado 910718" d="M-10775.877-8783.939v145.311" transform="translate(11688.471 9670.318)" fill="none" stroke="#7d9ffb" stroke-width="2"/>
    <path id="Trazado_908830" data-name="Trazado 908830" d="M-10775.877-8783.939v343.853" transform="translate(11909.314 9508.006)" fill="none" stroke="#166340" stroke-width="2"/>
    <path id="Trazado_908889" data-name="Trazado 908889" d="M-10775.877-8783.939v168.148" transform="translate(11957.557 9600.363)" fill="none" stroke="#f59f7c" stroke-width="2"/>
    <text id="Plan_de_limpieza_y_desinfección_" data-name="Plan de limpieza y desinfección
" transform="translate(920.902 833.158)" fill="#12263f" font-size="16" font-family="Roboto-Regular, Roboto"><tspan x="0.08" y="17">Plan de limpieza </tspan><tspan x="7.119" y="35">y desinfección</tspan></text>
    <text id="Plan_de_saneamiento_" data-name="Plan de
saneamiento
" transform="translate(763.836 833.822)" fill="#12263f" font-size="16" font-family="Roboto-Regular, Roboto"><tspan x="21.075" y="17">Plan de</tspan><tspan x="1.376" y="35">saneamiento</tspan></text>
    <text id="Peligros_biológicos_químicos_físicos._" data-name="Peligros biológicos, químicos, físicos.
" transform="translate(781.283 910.693)" fill="#12263f" font-size="16" font-family="Roboto-Regular, Roboto"><tspan x="17.555" y="17">Peligros </tspan><tspan x="8.157" y="35">biológicos, </tspan><tspan x="12.196" y="53">químicos, </tspan></text>
    <text id="Herramientas_y_utensilios_tinas_o_tanques_pisos_mesones._" data-name="Herramientas y utensilios, tinas o tanques, pisos, mesones.
" transform="translate(944.78 909.445)" fill="#12263f" font-size="16" font-family="Roboto-Regular, Roboto"><tspan x="7.256" y="17">Herramientas y </tspan><tspan x="5.959" y="35">utensilios, tinas </tspan><tspan x="1.663" y="53">o tanques, pisos, </tspan><tspan x="26.448" y="71">mesones.</tspan></text>
    <text id="Prácticas_en_los_procesos_de_limpieza_y_desinfección._" data-name="Prácticas en los procesos de limpieza y desinfección.
" transform="translate(779.171 1015.77)" fill="#12263f" font-size="16" font-family="Roboto-Regular, Roboto"><tspan x="6.303" y="17">Prácticas en </tspan><tspan x="4.92" y="35">los procesos </tspan><tspan x="4.072" y="53">de limpieza y </tspan></text>
    <text id="Control_de_plagas._" data-name="Control de plagas.
" transform="translate(942.668 1014.521)" fill="#12263f" font-size="16" font-family="Roboto-Regular, Roboto"><tspan x="13.787" y="17">Control de </tspan><tspan x="24.596" y="35">plagas.</tspan></text>
    <text id="Identificación_trazabilidad_y_procedimiento_de_retiro_" data-name="Identificación, trazabilidad y procedimiento de retiro
" transform="translate(1184.68 1037.395)" fill="#12263f" font-size="16" font-family="Roboto-Regular, Roboto"><tspan x="34.597" y="17">Identificación, </tspan><tspan x="36.851" y="35">trazabilidad y </tspan><tspan x="1.472" y="53">procedimiento de retiro</tspan><tspan x="84.136" y="71"></tspan></text>
    <text id="La_salud_de_los_trabajadores_" data-name="La salud de los
trabajadores
" transform="translate(1185.68 766.414)" fill="#12263f" font-size="16" font-family="Roboto-Regular, Roboto"><tspan x="13.212" y="17">La salud de los</tspan><tspan x="21.767" y="35">trabajadores</tspan></text>
    <text id="Prácticas_higiénicas_higiene_personal_manejo_de_sustancias_agroquímicas._" data-name="Prácticas higiénicas, higiene personal, manejo de sustancias agroquímicas.
" transform="translate(1219.711 844.512)" fill="#12263f" font-size="16" font-family="Roboto-Regular, Roboto"><tspan x="35.413" y="17">Prácticas </tspan><tspan x="3.67" y="35">higiénicas, higiene </tspan><tspan x="8.057" y="53">personal, manejo </tspan><tspan x="19.549" y="71">de sustancias </tspan><tspan x="18.237" y="89">agroquímicas.</tspan></text>
    <text id="Aspectos_técnicos_manejo_de_registros._" data-name="Aspectos técnicos, manejo de registros.
" transform="translate(1212.75 966.712)" fill="#12263f" font-size="16" font-family="Roboto-Regular, Roboto"><tspan x="6.885" y="17">Aspectos técnicos, </tspan><tspan x="1.451" y="35">manejo de registros.</tspan></text>
    <path id="Trazado_908890" data-name="Trazado 908890" d="M-10236.135-8798.1h164.2" transform="translate(11043.451 9577)" fill="none" stroke="#166340" stroke-width="2"/>
    <path id="Trazado_908891" data-name="Trazado 908891" d="M-10150.982-8798.1v-36.563" transform="translate(11044.65 9577)" fill="none" stroke="#166340" stroke-width="2"/>
    <path id="Trazado_908894" data-name="Trazado 908894" d="M-10681.445-8941.226h882.778" transform="translate(11044.65 9578)" fill="none" stroke="#166340" stroke-width="2"/>
  </g>
</svg>
